<svg width="11" height="8" viewBox="0 0 11 8" fill="none" xmlns="http://www.w3.org/2000/svg">
<path id="keyboard_arrow_down" d="M5.34839 0.989492C5.22789 0.989492 5.11572 1.00874 5.01189 1.04724C4.90806 1.08574 4.80931 1.15174 4.71564 1.24524L0.221391 5.73949C0.0830574 5.87799 0.012224 6.05207 0.0088907 6.26174C0.00572403 6.47124 0.0765574 6.64849 0.221391 6.79349C0.366391 6.93833 0.542057 7.01074 0.74839 7.01074C0.954724 7.01074 1.13039 6.93833 1.27539 6.79349L5.34839 2.72024L9.42139 6.79349C9.55989 6.93183 9.73397 7.00266 9.94364 7.00599C10.1531 7.00916 10.3304 6.93833 10.4754 6.79349C10.6202 6.64849 10.6926 6.47283 10.6926 6.26649C10.6926 6.06016 10.6202 5.88449 10.4754 5.73949L5.98114 1.24524C5.88747 1.15174 5.78872 1.08574 5.68489 1.04724C5.58106 1.00874 5.46889 0.989492 5.34839 0.989492Z" fill="#999999" transform="rotate(180 5.34839 4)"/>
</svg>
