<svg
width="145"
height="144"
viewBox="0 0 145 144"
fill="none"
xmlns="http://www.w3.org/2000/svg"
>
<g clip-path="url(#clip0_849_12731)">
<path
d="M23.7071 26.2082C30.2044 19.706 38.6553 15.5149 47.7637 14.2777C56.8721 13.0405 66.1348 14.8256 74.131 19.3591C82.1273 23.8926 88.4155 30.9241 92.0311 39.3752C95.6467 47.8262 96.39 57.2301 94.1471 66.1442L93.7331 67.6802L114.133 93.9122C115.851 96.12 116.967 98.7349 117.374 101.502C117.781 104.27 117.464 107.095 116.455 109.704C117.055 109.884 117.787 109.98 118.687 109.8L119.395 109.614C120.894 109.152 122.514 109.294 123.908 110.011C125.303 110.728 126.362 111.963 126.857 113.451C127.353 114.939 127.246 116.561 126.56 117.972C125.874 119.382 124.664 120.468 123.187 120.996C120.642 121.873 117.922 122.119 115.261 121.713C112.6 121.306 110.078 120.259 107.911 118.662C105.422 119.763 102.696 120.219 99.9841 119.989C97.2722 119.758 94.6623 118.848 92.3951 117.342L91.4111 116.64L65.1791 96.2342C56.2264 98.8484 46.6583 98.4085 37.9834 94.9837C29.3085 91.5589 22.0202 85.3441 17.2679 77.3192C12.5155 69.2943 10.5694 59.9159 11.7364 50.6627C12.9034 41.4094 17.1171 32.8079 23.7131 26.2142L23.7071 26.2082ZM87.9611 79.8002C85.0793 83.9683 81.4671 87.5805 77.2991 90.4622L98.7791 107.166C99.5881 107.777 100.591 108.074 101.602 108.004C102.613 107.933 103.564 107.499 104.281 106.782C104.997 106.065 105.43 105.113 105.5 104.102C105.569 103.091 105.271 102.089 104.659 101.28L87.9611 79.8002ZM78.0191 38.7542L76.8011 40.7702C71.9619 48.5661 66.2445 55.7812 59.7611 62.2742C53.2697 68.7552 46.0566 74.4705 38.2631 79.3082L36.2471 80.5262C42.0253 84.5511 49.035 86.4155 56.0493 85.7931C63.0636 85.1708 69.6355 82.1013 74.6149 77.122C79.5942 72.1427 82.6637 65.5707 83.286 58.5564C83.9083 51.5421 82.0439 44.5324 78.0191 38.7542ZM69.0311 30.2942C63.2855 26.7945 56.5308 25.3266 49.851 26.1263C43.1712 26.926 36.9537 29.9468 32.1967 34.7038C27.4396 39.4609 24.4188 45.6783 23.6192 52.3581C22.8195 59.0379 24.2873 65.7927 27.7871 71.5382L29.7311 70.4402C37.5889 65.8219 44.8304 60.2274 51.2831 53.7902C57.1088 47.9501 62.2463 41.4618 66.5951 34.4522L67.2911 33.3122L68.5091 31.2302L69.0311 30.2942Z"
fill="#F7F8F9"
/>
</g>
<defs>
<clipPath id="clip0_849_12731">
<rect width="144" height="144" fill="white" transform="translate(0.5)" />
</clipPath>
</defs>
</svg>