<svg width="41" height="41" viewBox="0 0 41 41" fill="none" xmlns="http://www.w3.org/2000/svg">
<path d="M14.2839 11.3646C14.2839 10.4441 15.03 9.69792 15.9505 9.69792H33.8875C34.808 9.69792 35.5542 10.4441 35.5542 11.3646V18.1267C35.5542 19.0472 34.808 19.7934 33.8875 19.7934H33.1366C32.4893 19.7934 32.0126 20.399 32.1645 21.0282L32.8291 23.7801L30.8214 22.3934C30.4428 22.1319 29.9237 22.2268 29.6622 22.6055C29.4006 22.9842 29.4956 23.5032 29.8743 23.7648L33.3188 26.1438C34.0743 26.6656 35.0747 25.9788 34.8591 25.0862L33.9831 21.4587C35.7798 21.4082 37.2209 19.9357 37.2209 18.1267V11.3646C37.2209 9.52363 35.7285 8.03125 33.8875 8.03125H15.9505C14.1096 8.03125 12.6172 9.52363 12.6172 11.3646V12.7337C12.6172 13.194 12.9903 13.567 13.4505 13.567C13.9108 13.567 14.2839 13.194 14.2839 12.7337V11.3646Z" fill="#CCCCCC"/>
<path d="M9.32314 20.5002L7.98844 20.6937L7.9648 20.6985C7.92902 20.708 7.89639 20.7268 7.87027 20.7531C7.84414 20.7793 7.82544 20.812 7.81608 20.8478C7.80672 20.8836 7.80703 20.9213 7.81699 20.957C7.82695 20.9926 7.84619 21.025 7.87276 21.0508L8.83968 21.992L8.61165 23.3215L8.60893 23.3445C8.60674 23.3815 8.61443 23.4184 8.6312 23.4515C8.64798 23.4845 8.67324 23.5126 8.7044 23.5326C8.73556 23.5527 8.7715 23.5642 8.80854 23.5658C8.84558 23.5675 8.88239 23.5592 8.9152 23.5419L10.1089 22.9143L11.2999 23.5419L11.3208 23.5516C11.3553 23.5652 11.3929 23.5693 11.4295 23.5637C11.4662 23.558 11.5007 23.5426 11.5295 23.5192C11.5583 23.4958 11.5803 23.4651 11.5933 23.4304C11.6064 23.3956 11.6099 23.358 11.6036 23.3215L11.3754 21.992L12.3427 21.0506L12.3591 21.0328C12.3824 21.0041 12.3976 20.9697 12.4033 20.9332C12.409 20.8966 12.405 20.8592 12.3915 20.8248C12.378 20.7904 12.3557 20.7601 12.3267 20.7371C12.2978 20.7141 12.2632 20.6992 12.2266 20.6939L10.8919 20.5002L10.2953 19.291C10.278 19.256 10.2513 19.2265 10.2181 19.2058C10.185 19.1852 10.1467 19.1743 10.1076 19.1743C10.0686 19.1743 10.0303 19.1852 9.99715 19.2058C9.96398 19.2265 9.93725 19.256 9.91999 19.291L9.32314 20.5002Z" fill="#CCCCCC"/>
<path d="M14.2644 20.6937L15.5991 20.5002L16.196 19.291C16.2132 19.256 16.24 19.2265 16.2731 19.2058C16.3063 19.1852 16.3446 19.1743 16.3836 19.1743C16.4227 19.1743 16.4609 19.1852 16.4941 19.2058C16.5273 19.2265 16.554 19.256 16.5713 19.291L17.1679 20.5002L18.5026 20.6939C18.5392 20.6992 18.5737 20.7141 18.6027 20.7371C18.6317 20.7601 18.654 20.7904 18.6675 20.8248C18.6809 20.8592 18.685 20.8966 18.6793 20.9332C18.6736 20.9697 18.6583 21.0041 18.635 21.0328L18.6187 21.0506L17.6514 21.992L17.8796 23.3215C17.8859 23.358 17.8823 23.3956 17.8693 23.4304C17.8563 23.4651 17.8343 23.4958 17.8055 23.5192C17.7767 23.5426 17.7422 23.558 17.7055 23.5637C17.6688 23.5693 17.6313 23.5652 17.5968 23.5516L17.5758 23.5419L16.3849 22.9143L15.1912 23.5419C15.1584 23.5592 15.1216 23.5675 15.0845 23.5658C15.0475 23.5642 15.0115 23.5527 14.9804 23.5326C14.9492 23.5126 14.9239 23.4845 14.9072 23.4515C14.8904 23.4184 14.8827 23.3815 14.8849 23.3445L14.8876 23.3215L15.1157 21.992L14.1487 21.0508C14.1222 21.025 14.1029 20.9926 14.093 20.957C14.083 20.9213 14.0827 20.8836 14.092 20.8478C14.1014 20.812 14.1201 20.7793 14.1462 20.7531C14.1724 20.7268 14.205 20.708 14.2408 20.6985L14.2644 20.6937Z" fill="#CCCCCC"/>
<path d="M20.5404 20.6937L21.8751 20.5002L22.4719 19.291C22.4892 19.256 22.5159 19.2265 22.5491 19.2058C22.5823 19.1852 22.6205 19.1743 22.6596 19.1743C22.6986 19.1743 22.7369 19.1852 22.7701 19.2058C22.8032 19.2265 22.83 19.256 22.8472 19.291L23.4439 20.5002L24.7786 20.6939C24.8152 20.6992 24.8497 20.7141 24.8787 20.7371C24.9076 20.7601 24.93 20.7904 24.9434 20.8248C24.9569 20.8592 24.961 20.8966 24.9553 20.9332C24.9496 20.9697 24.9343 21.0041 24.911 21.0328L24.8947 21.0506L23.9273 21.992L24.1556 23.3215C24.1619 23.358 24.1583 23.3956 24.1453 23.4304C24.1323 23.4651 24.1102 23.4958 24.0814 23.5192C24.0526 23.5426 24.0181 23.558 23.9815 23.5637C23.9448 23.5693 23.9073 23.5652 23.8727 23.5516L23.8518 23.5419L22.6608 22.9143L21.4671 23.5419C21.4343 23.5592 21.3975 23.5675 21.3605 23.5658C21.3234 23.5642 21.2875 23.5527 21.2563 23.5326C21.2252 23.5126 21.1999 23.4845 21.1831 23.4515C21.1664 23.4184 21.1587 23.3815 21.1609 23.3445L21.1636 23.3215L21.3916 21.992L20.4247 21.0508C20.3981 21.025 20.3789 20.9926 20.3689 20.957C20.359 20.9213 20.3587 20.8836 20.368 20.8478C20.3774 20.812 20.3961 20.7793 20.4222 20.7531C20.4483 20.7268 20.481 20.708 20.5167 20.6985L20.5404 20.6937Z" fill="#CCCCCC"/>
<path fill-rule="evenodd" clip-rule="evenodd" d="M25.0829 29.166H15.1085L8.14466 33.4088C7.75969 33.6434 7.28462 33.2911 7.39728 32.8546L8.34932 29.166H7.59861C7.19835 29.166 6.81268 29.1035 6.4508 28.9879C4.93242 28.5025 3.83301 27.0798 3.83301 25.4004V18.2532C3.83301 16.1735 5.51893 14.4875 7.59861 14.4875H25.0829C27.1626 14.4875 28.8485 16.1735 28.8485 18.2532V25.4004C28.8485 27.4801 27.1626 29.166 25.0829 29.166ZM7.59861 27.2832H10.7798L10.0707 30.0307L14.5802 27.2832H25.0829C26.1227 27.2832 26.9657 26.4402 26.9657 25.4004V18.2532C26.9657 17.2133 26.1227 16.3704 25.0829 16.3704H7.59861C6.55877 16.3704 5.71581 17.2133 5.71581 18.2532V25.4004C5.71581 26.4402 6.55877 27.2832 7.59861 27.2832Z" fill="#CCCCCC"/>
</svg>
