<svg width="41" height="40" viewBox="0 0 41 40" fill="none" xmlns="http://www.w3.org/2000/svg">
<g id="icon-review">
<path id="Union" d="M32.0483 7.38867C34.8098 7.38867 37.0483 9.62725 37.0483 12.3887V21.8789C37.0483 24.6403 34.8097 26.8789 32.0483 26.8789H18.8052L9.55811 32.5127C9.04694 32.8241 8.41633 32.3559 8.56592 31.7764L9.82959 26.8789H8.83252C8.30131 26.8789 7.78938 26.7961 7.30908 26.6426C5.293 25.9981 3.83256 24.1088 3.83252 21.8789V12.3887C3.83252 9.62741 6.07132 7.38894 8.83252 7.38867H32.0483ZM8.83252 9.88867C7.45203 9.88894 6.33252 11.0081 6.33252 12.3887V21.8789C6.33256 23.2594 7.45206 24.3786 8.83252 24.3789H13.0571L12.1157 28.0273L18.103 24.3789H32.0483C33.429 24.3789 34.5483 23.2596 34.5483 21.8789V12.3887C34.5483 11.008 33.4291 9.88867 32.0483 9.88867H8.83252ZM12.1646 13.6113C12.2163 13.6113 12.2671 13.6261 12.311 13.6533C12.355 13.6807 12.3906 13.7202 12.4136 13.7666L13.2056 15.3721L14.978 15.6299C15.0265 15.6369 15.0725 15.6561 15.1108 15.6865C15.1493 15.7171 15.1789 15.758 15.1968 15.8037C15.2146 15.8494 15.22 15.8988 15.2124 15.9473C15.2048 15.9957 15.1847 16.041 15.1538 16.0791L15.1323 16.1035L13.8481 17.3535L14.1509 19.1182C14.1592 19.1666 14.1544 19.2166 14.1372 19.2627C14.1199 19.3088 14.0905 19.3498 14.0522 19.3809C14.014 19.4119 13.9681 19.4329 13.9194 19.4404C13.8708 19.4479 13.8206 19.4418 13.7749 19.4238L13.7476 19.4111L12.1665 18.5781L10.5815 19.4111C10.5381 19.434 10.489 19.4455 10.4399 19.4434C10.3908 19.4412 10.3426 19.4251 10.3013 19.3984C10.26 19.3718 10.2259 19.3348 10.2036 19.291C10.1815 19.2473 10.1715 19.1983 10.1743 19.1494L10.1782 19.1182L10.481 17.3535L9.19678 16.1035C9.16155 16.0693 9.13577 16.0258 9.12256 15.9785C9.10946 15.9313 9.10921 15.8814 9.12158 15.834C9.13401 15.7864 9.15915 15.7428 9.19385 15.708C9.22843 15.6733 9.27154 15.6484 9.31885 15.6357L9.35107 15.6289L11.1226 15.3721L11.9155 13.7666C11.9385 13.7202 11.9741 13.6807 12.0181 13.6533C12.062 13.6261 12.1128 13.6113 12.1646 13.6113ZM20.4976 13.6113C20.5494 13.6113 20.601 13.6259 20.645 13.6533C20.6889 13.6806 20.7237 13.7203 20.7466 13.7666L21.5396 15.3721L23.311 15.6299C23.3596 15.6369 23.4064 15.656 23.4448 15.6865C23.4832 15.717 23.5129 15.758 23.5308 15.8037C23.5485 15.8493 23.5539 15.8989 23.5464 15.9473C23.5388 15.9958 23.5177 16.041 23.4868 16.0791L23.4653 16.1035L22.1812 17.3535L22.4839 19.1182C22.4922 19.1666 22.4874 19.2166 22.4702 19.2627C22.453 19.3087 22.4243 19.3498 22.3862 19.3809C22.3481 19.4119 22.302 19.4328 22.2534 19.4404C22.2048 19.448 22.1547 19.4419 22.1089 19.4238L22.0806 19.4111L20.4995 18.5781L18.9146 19.4111C18.871 19.434 18.8221 19.4455 18.7729 19.4434C18.7238 19.4412 18.6757 19.4251 18.6343 19.3984C18.5931 19.3718 18.5598 19.3348 18.5376 19.291C18.5154 19.2472 18.5055 19.1984 18.5083 19.1494L18.5112 19.1182L18.814 17.3535L17.5308 16.1035C17.4955 16.0693 17.4698 16.0259 17.4565 15.9785C17.4434 15.9313 17.4422 15.8814 17.4546 15.834C17.467 15.7864 17.4922 15.7428 17.5269 15.708C17.5616 15.6732 17.6053 15.6484 17.6528 15.6357L17.6841 15.6289L19.4565 15.3721L20.2485 13.7666C20.2715 13.7201 20.3071 13.6807 20.3511 13.6533C20.395 13.626 20.4459 13.6114 20.4976 13.6113ZM28.8315 13.6113C28.8832 13.6114 28.9341 13.626 28.978 13.6533C29.022 13.6807 29.0576 13.7201 29.0806 13.7666L29.8726 15.3721L31.645 15.6299C31.6935 15.6369 31.7395 15.6561 31.7778 15.6865C31.8163 15.7171 31.8459 15.758 31.8638 15.8037C31.8815 15.8494 31.8869 15.8989 31.8794 15.9473C31.8719 15.9956 31.8516 16.0411 31.8208 16.0791L31.7993 16.1035L30.5142 17.3535L30.8179 19.1182C30.8262 19.1666 30.8214 19.2167 30.8042 19.2627C30.7869 19.3088 30.7574 19.3498 30.7192 19.3809C30.681 19.412 30.6351 19.4329 30.5864 19.4404C30.5377 19.448 30.4877 19.4419 30.4419 19.4238L30.4146 19.4111L28.8325 18.5781L27.2476 19.4111C27.204 19.434 27.1551 19.4455 27.106 19.4434C27.0569 19.4412 27.0096 19.4251 26.9683 19.3984C26.9269 19.3718 26.8929 19.3349 26.8706 19.291C26.8484 19.2473 26.8385 19.1984 26.8413 19.1494L26.8452 19.1182L27.1479 17.3535L25.8638 16.1035C25.8285 16.0693 25.8028 16.0259 25.7896 15.9785C25.7764 15.9313 25.7762 15.8814 25.7886 15.834C25.801 15.7864 25.8261 15.7428 25.8608 15.708C25.8955 15.6734 25.9385 15.6483 25.9858 15.6357L26.0171 15.6289L27.7896 15.3721L28.5815 13.7666C28.6045 13.7201 28.6401 13.6807 28.6841 13.6533C28.7281 13.6259 28.7797 13.6113 28.8315 13.6113Z" fill="#CCCCCC"/>
</g>
</svg>
