<svg width="24" height="24" viewBox="0 0 24 24" fill="none" xmlns="http://www.w3.org/2000/svg">
<circle cx="12" cy="12" r="12" fill="#00E0A8"/>
<path d="M7.33268 16.6673C7.14379 16.6673 6.98546 16.6034 6.85768 16.4757C6.7299 16.3479 6.66602 16.1895 6.66602 16.0007C6.66602 15.8118 6.7299 15.6534 6.85768 15.5257C6.98546 15.3979 7.14379 15.334 7.33268 15.334H7.99935V10.6673C7.99935 9.7451 8.27713 8.92565 8.83268 8.20898C9.38824 7.49232 10.1105 7.02287 10.9993 6.80065V6.33398C10.9993 6.05621 11.0966 5.8201 11.291 5.62565C11.4855 5.43121 11.7216 5.33398 11.9993 5.33398C12.2771 5.33398 12.5132 5.43121 12.7077 5.62565C12.9021 5.8201 12.9993 6.05621 12.9993 6.33398V6.80065C13.8882 7.02287 14.6105 7.49232 15.166 8.20898C15.7216 8.92565 15.9993 9.7451 15.9993 10.6673V15.334H16.666C16.8549 15.334 17.0132 15.3979 17.141 15.5257C17.2688 15.6534 17.3327 15.8118 17.3327 16.0007C17.3327 16.1895 17.2688 16.3479 17.141 16.4757C17.0132 16.6034 16.8549 16.6673 16.666 16.6673H7.33268ZM11.9993 18.6673C11.6327 18.6673 11.3188 18.5368 11.0577 18.2757C10.7966 18.0145 10.666 17.7007 10.666 17.334H13.3327C13.3327 17.7007 13.2021 18.0145 12.941 18.2757C12.6799 18.5368 12.366 18.6673 11.9993 18.6673Z" fill="white"/>
</svg>
