<svg width="24" height="24" viewBox="0 0 24 24" fill="none" xmlns="http://www.w3.org/2000/svg">
<circle cx="12" cy="12" r="12" fill="#00E0A8"/>
<path d="M9.74065 14.3125L16.8032 7.25C16.9698 7.08333 17.1643 7 17.3865 7C17.6087 7 17.8032 7.08333 17.9698 7.25C18.1365 7.41667 18.2198 7.61458 18.2198 7.84375C18.2198 8.07292 18.1365 8.27083 17.9698 8.4375L10.324 16.1042C10.1573 16.2708 9.96287 16.3542 9.74065 16.3542C9.51843 16.3542 9.32398 16.2708 9.15732 16.1042L5.57398 12.5208C5.40732 12.3542 5.32746 12.1562 5.3344 11.9271C5.34135 11.6979 5.42815 11.5 5.59482 11.3333C5.76148 11.1667 5.9594 11.0833 6.18857 11.0833C6.41773 11.0833 6.61565 11.1667 6.78232 11.3333L9.74065 14.3125Z" fill="white"/>
</svg>
