<svg width="16" height="16" viewBox="0 0 16 16" fill="none" xmlns="http://www.w3.org/2000/svg">
<path d="M13.7367 8.06809L9.68722 11.8731C9.58042 11.9735 9.52836 12.0916 9.53105 12.2276C9.53383 12.3637 9.58862 12.4819 9.69541 12.5822C9.8023 12.6826 9.9281 12.7327 10.0728 12.7327C10.2175 12.7327 10.3433 12.6826 10.4502 12.5822L14.574 8.71504C14.6712 8.62369 14.7432 8.52136 14.7901 8.40804C14.8369 8.29472 14.8604 8.18141 14.8604 8.06809C14.8604 7.95477 14.8369 7.84145 14.7901 7.72813C14.7432 7.61481 14.6712 7.51248 14.574 7.42114L10.4502 3.54613C10.3433 3.44577 10.2161 3.3969 10.0686 3.39951C9.92115 3.40212 9.79402 3.4536 9.68722 3.55396C9.58042 3.65431 9.52702 3.77251 9.52702 3.90856C9.52702 4.04453 9.58042 4.16269 9.68722 4.26304L13.7367 8.06809Z" fill="#999999"/>
</svg>
