<svg width="12" height="12" viewBox="0 0 12 12" fill="none" xmlns="http://www.w3.org/2000/svg">
<path d="M4.4845 6.07621L8.09646 2.46425C8.20869 2.35202 8.35154 2.2959 8.52499 2.2959C8.69845 2.2959 8.8413 2.35202 8.95353 2.46425C9.06577 2.57649 9.12189 2.71933 9.12189 2.89279C9.12189 3.06625 9.06577 3.20909 8.95353 3.32133L4.91304 7.36182C4.7906 7.48426 4.64775 7.54548 4.4845 7.54548C4.32125 7.54548 4.1784 7.48426 4.05596 7.36182L2.46425 5.77011C2.35202 5.65788 2.2959 5.51503 2.2959 5.34157C2.2959 5.16812 2.35202 5.02527 2.46425 4.91304C2.57649 4.8008 2.71933 4.74468 2.89279 4.74468C3.06625 4.74468 3.20909 4.8008 3.32133 4.91304L4.4845 6.07621Z" fill="white"/>
</svg>
