<svg width="56" height="56" viewBox="0 0 56 56" fill="none" xmlns="http://www.w3.org/2000/svg">
<path fill-rule="evenodd" clip-rule="evenodd" d="M42.6308 18.667H13.3695C11.1405 18.667 9.3335 20.474 9.3335 22.703V32.0364C9.3335 34.2654 11.1405 36.0724 13.3695 36.0724H22.7291C24.2442 36.8979 26.1062 37.3337 28.0002 37.3337C29.8941 37.3337 31.7561 36.8979 33.2712 36.0724H42.6308C44.8598 36.0724 46.6668 34.2654 46.6668 32.0364V22.703C46.6668 20.474 44.8598 18.667 42.6308 18.667ZM44.6488 32.0364V22.703C44.6488 21.5885 43.7453 20.685 42.6308 20.685H13.3695C12.255 20.685 11.3515 21.5885 11.3515 22.703V32.0364C11.3515 33.1509 12.255 34.0544 13.3695 34.0544H20.3609C19.7665 33.2313 19.4236 32.2886 19.4236 31.2796C19.4236 29.3292 21.0047 27.7481 22.9551 27.7481C24.9055 27.7481 26.4867 29.3292 26.4867 31.2796C26.4867 32.6177 25.8835 33.8389 24.8907 34.8199C25.8292 35.1385 26.8926 35.3156 28.0002 35.3156C29.1077 35.3156 30.1712 35.1385 31.1096 34.8199C30.1169 33.8389 29.5137 32.6177 29.5137 31.2796C29.5137 29.3292 31.0948 27.7481 33.0452 27.7481C34.9956 27.7481 36.5768 29.3292 36.5768 31.2796C36.5768 32.2886 36.2338 33.2313 35.6394 34.0544H42.6308C43.7453 34.0544 44.6488 33.1509 44.6488 32.0364ZM21.4416 31.2796C21.4416 30.4438 22.1193 29.7661 22.9551 29.7661C23.7909 29.7661 24.4686 30.4438 24.4686 31.2796C24.4686 32.1225 24.0018 33.047 22.9551 33.8286C21.9084 33.047 21.4416 32.1225 21.4416 31.2796ZM33.0452 29.7661C33.881 29.7661 34.5587 30.4438 34.5587 31.2796C34.5587 32.1225 34.0919 33.047 33.0452 33.8286C31.9985 33.047 31.5317 32.1225 31.5317 31.2796C31.5317 30.4438 32.2094 29.7661 33.0452 29.7661Z" fill="#00E0A8"/>
</svg>
