<svg width="32" height="32" viewBox="0 0 32 32" fill="none" xmlns="http://www.w3.org/2000/svg">
<path d="M8.41033 28.6672C7.73678 28.6672 7.16667 28.4338 6.7 27.9672C6.23333 27.5005 6 26.9304 6 26.2568V13.7442C6 13.0706 6.23333 12.5005 6.7 12.0338C7.16667 11.5672 7.73678 11.3338 8.41033 11.3338H10.8207C11.1042 11.3338 11.3418 11.4296 11.5333 11.6212C11.7247 11.8125 11.8203 12.0501 11.8203 12.3338C11.8203 12.6176 11.7247 12.8552 11.5333 13.0465C11.3418 13.2381 11.1042 13.3338 10.8207 13.3338H8.41033C8.30767 13.3338 8.21367 13.3766 8.12833 13.4622C8.04278 13.5475 8 13.6415 8 13.7442V26.2568C8 26.3595 8.04278 26.4535 8.12833 26.5388C8.21367 26.6244 8.30767 26.6672 8.41033 26.6672H23.5897C23.6923 26.6672 23.7863 26.6244 23.8717 26.5388C23.9572 26.4535 24 26.3595 24 26.2568V13.7442C24 13.6415 23.9572 13.5475 23.8717 13.4622C23.7863 13.3766 23.6923 13.3338 23.5897 13.3338H21.1793C20.8958 13.3338 20.6582 13.2381 20.4667 13.0465C20.2753 12.8552 20.1797 12.6176 20.1797 12.3338C20.1797 12.0501 20.2753 11.8125 20.4667 11.6212C20.6582 11.4296 20.8958 11.3338 21.1793 11.3338H23.5897C24.2632 11.3338 24.8333 11.5672 25.3 12.0338C25.7667 12.5005 26 13.0706 26 13.7442V26.2568C26 26.9304 25.7667 27.5005 25.3 27.9672C24.8333 28.4338 24.2632 28.6672 23.5897 28.6672H8.41033ZM15.2873 20.7132C15.0958 20.5218 15 20.2843 15 20.0005V6.29284L13.236 8.05684C13.0376 8.25529 12.8054 8.35318 12.5397 8.35051C12.2739 8.34807 12.0376 8.2434 11.8307 8.03651C11.6376 7.82962 11.5376 7.5954 11.5307 7.33384C11.524 7.07229 11.624 6.83818 11.8307 6.63151L15.1563 3.30584C15.2812 3.18095 15.4129 3.09284 15.5513 3.04151C15.6898 2.9904 15.8393 2.96484 16 2.96484C16.1607 2.96484 16.3102 2.9904 16.4487 3.04151C16.5871 3.09284 16.7188 3.18095 16.8437 3.30584L20.1693 6.63151C20.3538 6.81595 20.4482 7.04451 20.4527 7.31718C20.4569 7.58984 20.3624 7.82962 20.1693 8.03651C19.9624 8.2434 19.7248 8.34684 19.4563 8.34684C19.1881 8.34684 18.9506 8.2434 18.7437 8.03651L17 6.29284V20.0005C17 20.2843 16.9042 20.5218 16.7127 20.7132C16.5213 20.9047 16.2838 21.0005 16 21.0005C15.7162 21.0005 15.4787 20.9047 15.2873 20.7132Z" fill="#1C1B1F"/>
</svg>
