<svg width="24" height="24" viewBox="0 0 24 24" fill="none" xmlns="http://www.w3.org/2000/svg">
<path d="M20.6055 12.086L14.5313 17.7936C14.3711 17.9441 14.293 18.1214 14.2971 18.3253C14.3012 18.5294 14.3834 18.7067 14.5436 18.8572C14.7039 19.0077 14.8926 19.083 15.1097 19.083C15.3267 19.083 15.5154 19.0077 15.6758 18.8572L21.8614 13.0564C22.0072 12.9194 22.1153 12.7659 22.1856 12.596C22.2559 12.426 22.291 12.256 22.291 12.086C22.291 11.916 22.2559 11.7461 22.1856 11.5761C22.1153 11.4061 22.0072 11.2526 21.8614 11.1156L15.6758 5.30308C15.5154 5.15255 15.3246 5.07924 15.1034 5.08316C14.8822 5.08707 14.6915 5.16429 14.5313 5.31482C14.3711 5.46535 14.291 5.64266 14.291 5.84673C14.291 6.05068 14.3711 6.22792 14.5313 6.37845L20.6055 12.086Z" fill="#B3B3B3"/>
</svg>
