<svg width="41" height="40" viewBox="0 0 41 40" fill="none" xmlns="http://www.w3.org/2000/svg">
<mask id="path-1-inside-1_13599_32791" fill="white">
<path d="M39 17.0146C37.1423 17.0146 35.6367 18.3578 35.6367 20.0146C35.6367 21.6715 37.1423 23.0146 39 23.0146V30.0146H2V23.0146C3.85768 23.0146 5.36328 21.6715 5.36328 20.0146C5.36328 18.3578 3.85768 17.0146 2 17.0146V10.0146H39V17.0146Z"/>
</mask>
<path d="M39 17.0146V18.0146H40V17.0146H39ZM39 23.0146H40V22.0146H39V23.0146ZM39 30.0146V31.0146H40V30.0146H39ZM2 30.0146H1V31.0146H2V30.0146ZM2 23.0146V22.0146H1V23.0146H2ZM2 17.0146H1V18.0146H2V17.0146ZM2 10.0146V9.01465H1V10.0146H2ZM39 10.0146H40V9.01465H39V10.0146ZM39 17.0146V16.0146C38.0423 16.0146 37.1464 16.2981 36.4169 16.7893L36.9754 17.6188L37.534 18.4483C37.9309 18.181 38.4374 18.0146 39 18.0146V17.0146ZM36.4304 18.0789L35.7046 17.391C35.0504 18.0813 34.6367 18.9973 34.6367 20.0146H35.6367H36.6367C36.6367 19.5565 36.8201 19.1214 37.1562 18.7668L36.4304 18.0789ZM35.6367 20.0146H34.6367C34.6367 21.032 35.0504 21.948 35.7046 22.6383L36.4304 21.9504L37.1562 21.2625C36.8201 20.9079 36.6367 20.4728 36.6367 20.0146H35.6367ZM36.9754 22.4105L36.4169 23.24C37.1464 23.7312 38.0423 24.0146 39 24.0146V23.0146V22.0146C38.4374 22.0146 37.9309 21.8483 37.534 21.581L36.9754 22.4105ZM39 23.0146H38V26.0146H39H40V23.0146H39ZM39 27.0146H38V30.0146H39H40V27.0146H39ZM39 30.0146V29.0146H35.8286V30.0146V31.0146H39V30.0146ZM34.7714 30.0146V29.0146H28.4286V30.0146V31.0146H34.7714V30.0146ZM27.3714 30.0146V29.0146H21.0286V30.0146V31.0146H27.3714V30.0146ZM19.9714 30.0146V29.0146H13.6286V30.0146V31.0146H19.9714V30.0146ZM12.5714 30.0146V29.0146H6.22857V30.0146V31.0146H12.5714V30.0146ZM5.17143 30.0146V29.0146H2V30.0146V31.0146H5.17143V30.0146ZM2 30.0146H3V27.0146H2H1V30.0146H2ZM2 26.0146H3V23.0146H2H1V26.0146H2ZM2 23.0146V24.0146C2.95768 24.0146 3.85361 23.7312 4.58311 23.24L4.02456 22.4105L3.46601 21.581C3.06908 21.8483 2.56262 22.0146 2 22.0146V23.0146ZM4.56957 21.9504L5.29538 22.6383C5.94964 21.948 6.36328 21.032 6.36328 20.0146H5.36328H4.36328C4.36328 20.4728 4.17989 20.9079 3.84377 21.2625L4.56957 21.9504ZM5.36328 20.0146H6.36328C6.36328 18.9973 5.94964 18.0813 5.29538 17.391L4.56957 18.0789L3.84377 18.7668C4.17989 19.1214 4.36328 19.5565 4.36328 20.0146H5.36328ZM4.02456 17.6188L4.58311 16.7893C3.85361 16.2981 2.95768 16.0146 2 16.0146V17.0146V18.0146C2.56262 18.0146 3.06908 18.181 3.46601 18.4483L4.02456 17.6188ZM2 17.0146H3V14.0146H2H1V17.0146H2ZM2 13.0146H3V10.0146H2H1V13.0146H2ZM2 10.0146V11.0146H5.17143V10.0146V9.01465H2V10.0146ZM6.22857 10.0146V11.0146H12.5714V10.0146V9.01465H6.22857V10.0146ZM13.6286 10.0146V11.0146H19.9714V10.0146V9.01465H13.6286V10.0146ZM21.0286 10.0146V11.0146H27.3714V10.0146V9.01465H21.0286V10.0146ZM28.4286 10.0146V11.0146H34.7714V10.0146V9.01465H28.4286V10.0146ZM35.8286 10.0146V11.0146H39V10.0146V9.01465H35.8286V10.0146ZM39 10.0146H38V13.0146H39H40V10.0146H39ZM39 14.0146H38V17.0146H39H40V14.0146H39ZM39 17.0146V19.0146H41V17.0146H39ZM39 23.0146H41V21.0146H39V23.0146ZM39 30.0146V32.0146H41V30.0146H39ZM2 30.0146H0V32.0146H2V30.0146ZM2 23.0146V21.0146H0V23.0146H2ZM2 17.0146H0V19.0146H2V17.0146ZM2 10.0146V8.01465H0V10.0146H2ZM39 10.0146H41V8.01465H39V10.0146ZM39 17.0146V15.0146C37.8448 15.0146 36.7541 15.3566 35.8583 15.9599L36.9754 17.6188L38.0925 19.2777C38.3232 19.1224 38.6349 19.0146 39 19.0146V17.0146ZM36.4304 18.0789L34.9788 16.7031C34.1655 17.5612 33.6367 18.7177 33.6367 20.0146H35.6367H37.6367C37.6367 19.8361 37.705 19.6415 37.882 19.4547L36.4304 18.0789ZM35.6367 20.0146H33.6367C33.6367 21.3116 34.1655 22.4681 34.9788 23.3262L36.4304 21.9504L37.882 20.5746C37.705 20.3878 37.6367 20.1932 37.6367 20.0146H35.6367ZM36.9754 22.4105L35.8583 24.0694C36.7541 24.6726 37.8448 25.0146 39 25.0146V23.0146V21.0146C38.6349 21.0146 38.3232 20.9069 38.0925 20.7516L36.9754 22.4105ZM39 23.0146H37V26.0146H39H41V23.0146H39ZM39 27.0146H37V30.0146H39H41V27.0146H39ZM39 30.0146V28.0146H35.8286V30.0146V32.0146H39V30.0146ZM34.7714 30.0146V28.0146H28.4286V30.0146V32.0146H34.7714V30.0146ZM27.3714 30.0146V28.0146H21.0286V30.0146V32.0146H27.3714V30.0146ZM19.9714 30.0146V28.0146H13.6286V30.0146V32.0146H19.9714V30.0146ZM12.5714 30.0146V28.0146H6.22857V30.0146V32.0146H12.5714V30.0146ZM5.17143 30.0146V28.0146H2V30.0146V32.0146H5.17143V30.0146ZM2 30.0146H4V27.0146H2H0V30.0146H2ZM2 26.0146H4V23.0146H2H0V26.0146H2ZM2 23.0146V25.0146C3.1552 25.0146 4.24587 24.6726 5.14165 24.0694L4.02456 22.4105L2.90746 20.7516C2.67682 20.9069 2.36509 21.0146 2 21.0146V23.0146ZM4.56957 21.9504L6.02118 23.3262C6.83452 22.4681 7.36328 21.3116 7.36328 20.0146H5.36328H3.36328C3.36328 20.1932 3.29501 20.3878 3.11797 20.5746L4.56957 21.9504ZM5.36328 20.0146H7.36328C7.36328 18.7177 6.83452 17.5612 6.02118 16.7031L4.56957 18.0789L3.11797 19.4547C3.29501 19.6415 3.36328 19.8361 3.36328 20.0146H5.36328ZM4.02456 17.6188L5.14165 15.9599C4.24587 15.3566 3.1552 15.0146 2 15.0146V17.0146V19.0146C2.36509 19.0146 2.67682 19.1224 2.90746 19.2777L4.02456 17.6188ZM2 17.0146H4V14.0146H2H0V17.0146H2ZM2 13.0146H4V10.0146H2H0V13.0146H2ZM2 10.0146V12.0146H5.17143V10.0146V8.01465H2V10.0146ZM6.22857 10.0146V12.0146H12.5714V10.0146V8.01465H6.22857V10.0146ZM13.6286 10.0146V12.0146H19.9714V10.0146V8.01465H13.6286V10.0146ZM21.0286 10.0146V12.0146H27.3714V10.0146V8.01465H21.0286V10.0146ZM28.4286 10.0146V12.0146H34.7714V10.0146V8.01465H28.4286V10.0146ZM35.8286 10.0146V12.0146H39V10.0146V8.01465H35.8286V10.0146ZM39 10.0146H37V13.0146H39H41V10.0146H39ZM39 14.0146H37V17.0146H39H41V14.0146H39Z" fill="#CCCCCC" mask="url(#path-1-inside-1_13599_32791)"/>
</svg>
