<svg width="20" height="20" viewBox="0 0 20 20" fill="none" xmlns="http://www.w3.org/2000/svg">
<g id="&#236;&#157;&#184;&#236;&#138;&#164;&#237;&#131;&#128;&#234;&#183;&#184;&#235;&#158;&#168; &#235;&#161;&#156;&#234;&#179;&#160;" clip-path="url(#clip0_456_5426)">
<path id="Vector" d="M10.0046 0.151489C5.89232 0.151489 4.68963 0.155732 4.45585 0.175126C3.61194 0.245277 3.0868 0.378156 2.5147 0.663004C2.0738 0.881944 1.72608 1.13573 1.38291 1.49149C0.757931 2.14028 0.379155 2.93846 0.242038 3.88725C0.175373 4.34785 0.15598 4.44179 0.152041 6.79452C0.150525 7.57876 0.152041 8.61088 0.152041 9.99528C0.152041 14.1044 0.156586 15.3059 0.176282 15.5392C0.244462 16.3604 0.373246 16.8771 0.645965 17.4422C1.16716 18.5241 2.16259 19.3362 3.33528 19.6392C3.74133 19.7438 4.1898 19.8013 4.76554 19.8286C5.00947 19.8392 7.49576 19.8468 9.98356 19.8468C12.4714 19.8468 14.9592 19.8438 15.197 19.8316C15.8637 19.8003 16.2508 19.7483 16.6788 19.6377C17.8591 19.3332 18.8363 18.5332 19.3681 17.4362C19.6355 16.8847 19.7711 16.3483 19.8325 15.57C19.8458 15.4003 19.8514 12.6947 19.8514 9.9927C19.8514 7.29028 19.8454 4.58967 19.8321 4.41997C19.7699 3.62907 19.6343 3.09725 19.3583 2.53513C19.1318 2.07497 18.8803 1.73134 18.5151 1.37997C17.8635 0.75755 17.0665 0.378762 16.1169 0.241792C15.6567 0.175277 15.5651 0.15558 13.2106 0.151489H10.0046Z" fill="url(#paint0_radial_456_5426)"/>
<path id="Vector_2" d="M10.0046 0.151489C5.89232 0.151489 4.68963 0.155732 4.45585 0.175126C3.61194 0.245277 3.0868 0.378156 2.5147 0.663004C2.0738 0.881944 1.72608 1.13573 1.38291 1.49149C0.757931 2.14028 0.379155 2.93846 0.242038 3.88725C0.175373 4.34785 0.15598 4.44179 0.152041 6.79452C0.150525 7.57876 0.152041 8.61088 0.152041 9.99528C0.152041 14.1044 0.156586 15.3059 0.176282 15.5392C0.244462 16.3604 0.373246 16.8771 0.645965 17.4422C1.16716 18.5241 2.16259 19.3362 3.33528 19.6392C3.74133 19.7438 4.1898 19.8013 4.76554 19.8286C5.00947 19.8392 7.49576 19.8468 9.98356 19.8468C12.4714 19.8468 14.9592 19.8438 15.197 19.8316C15.8637 19.8003 16.2508 19.7483 16.6788 19.6377C17.8591 19.3332 18.8363 18.5332 19.3681 17.4362C19.6355 16.8847 19.7711 16.3483 19.8325 15.57C19.8458 15.4003 19.8514 12.6947 19.8514 9.9927C19.8514 7.29028 19.8454 4.58967 19.8321 4.41997C19.7699 3.62907 19.6343 3.09725 19.3583 2.53513C19.1318 2.07497 18.8803 1.73134 18.5151 1.37997C17.8635 0.75755 17.0665 0.378762 16.1169 0.241792C15.6567 0.175277 15.5651 0.15558 13.2106 0.151489H10.0046Z" fill="#B3B3B3"/>
<path id="Vector_3" d="M10.0007 2.72729C8.02556 2.72729 7.77769 2.73593 7.00196 2.77123C6.22774 2.80669 5.69927 2.92926 5.23686 3.10911C4.75854 3.29487 4.35279 3.54336 3.94856 3.94775C3.54403 4.35199 3.29555 4.75775 3.10919 5.23593C2.9289 5.69851 2.80617 6.22714 2.77133 7.00108C2.73663 7.77684 2.72754 8.02487 2.72754 10C2.72754 11.9752 2.73633 12.2223 2.77148 12.9981C2.80708 13.7723 2.92965 14.3008 3.10935 14.7632C3.29525 15.2415 3.54373 15.6473 3.94811 16.0515C4.35219 16.4561 4.75793 16.7052 5.23595 16.8909C5.69866 17.0708 6.22728 17.1934 7.00135 17.2288C7.77708 17.2641 8.0248 17.2727 9.99974 17.2727C11.975 17.2727 12.2221 17.2641 12.9978 17.2288C13.7721 17.1934 14.3011 17.0708 14.7638 16.8909C15.242 16.7052 15.6471 16.4561 16.0512 16.0515C16.4558 15.6473 16.7042 15.2415 16.8906 14.7634C17.0694 14.3008 17.1921 13.7721 17.2285 12.9982C17.2633 12.2224 17.2724 11.9752 17.2724 10C17.2724 8.02487 17.2633 7.77699 17.2285 7.00123C17.1921 6.22699 17.0694 5.69851 16.8906 5.23608C16.7042 4.75775 16.4558 4.35199 16.0512 3.94775C15.6467 3.5432 15.2422 3.29472 14.7634 3.10911C14.2998 2.92926 13.771 2.80669 12.9968 2.77123C12.221 2.73593 11.9741 2.72729 9.99838 2.72729H10.0007ZM9.34825 4.0379C9.54188 4.0376 9.75793 4.0379 10.0007 4.0379C11.9424 4.0379 12.1726 4.04487 12.9394 4.07972C13.6484 4.11214 14.0333 4.23063 14.2896 4.33017C14.629 4.46199 14.871 4.61957 15.1253 4.87411C15.3799 5.12866 15.5375 5.37108 15.6696 5.71048C15.7691 5.96654 15.8877 6.35139 15.92 7.06048C15.9549 7.82714 15.9624 8.05745 15.9624 9.99836C15.9624 11.9393 15.9549 12.1696 15.92 12.9362C15.8876 13.6453 15.7691 14.0302 15.6696 14.2862C15.5378 14.6256 15.3799 14.8673 15.1253 15.1217C14.8708 15.3762 14.6291 15.5338 14.2896 15.6656C14.0336 15.7656 13.6484 15.8838 12.9394 15.9162C12.1727 15.9511 11.9424 15.9587 10.0007 15.9587C8.05874 15.9587 7.8286 15.9511 7.06195 15.9162C6.35288 15.8835 5.96805 15.765 5.71154 15.6655C5.37216 15.5337 5.12974 15.3761 4.8752 15.1215C4.62066 14.867 4.46309 14.6252 4.33098 14.2856C4.23143 14.0296 4.1128 13.6447 4.08053 12.9356C4.04568 12.169 4.03871 11.9387 4.03871 9.99654C4.03871 8.05442 4.04568 7.82533 4.08053 7.05866C4.11295 6.34957 4.23143 5.96472 4.33098 5.70836C4.46279 5.36896 4.62066 5.12654 4.8752 4.87199C5.12974 4.61745 5.37216 4.45987 5.71154 4.32775C5.9679 4.22775 6.35288 4.10957 7.06195 4.07699C7.73284 4.04669 7.99283 4.0376 9.34825 4.03608V4.0379ZM13.8827 5.24548C13.4009 5.24548 13.01 5.63593 13.01 6.1179C13.01 6.59972 13.4009 6.99063 13.8827 6.99063C14.3645 6.99063 14.7554 6.59972 14.7554 6.1179C14.7554 5.63608 14.3645 5.24548 13.8827 5.24548ZM10.0007 6.26517C7.93814 6.26517 6.26592 7.93745 6.26592 10C6.26592 12.0626 7.93814 13.7341 10.0007 13.7341C12.0632 13.7341 13.7348 12.0626 13.7348 10C13.7348 7.93745 12.0632 6.26517 10.0007 6.26517ZM10.0007 7.57578C11.3394 7.57578 12.4248 8.66108 12.4248 10C12.4248 11.3388 11.3394 12.4243 10.0007 12.4243C8.66175 12.4243 7.57648 11.3388 7.57648 10C7.57648 8.66108 8.66175 7.57578 10.0007 7.57578Z" fill="white"/>
</g>
<defs>
<radialGradient id="paint0_radial_456_5426" cx="0" cy="0" r="1" gradientUnits="userSpaceOnUse" gradientTransform="translate(5.38423 21.3637) rotate(-90) scale(19.5195 18.1591)">
<stop stop-color="#FFDD55"/>
<stop offset="0.1" stop-color="#FFDD55"/>
<stop offset="0.5" stop-color="#FF543E"/>
<stop offset="1" stop-color="#C837AB"/>
</radialGradient>
<clipPath id="clip0_456_5426">
<rect width="20" height="20" fill="white"/>
</clipPath>
</defs>
</svg>
