<svg width="20" height="20" viewBox="0 0 20 20" fill="none" xmlns="http://www.w3.org/2000/svg">
<g id="&#235;&#132;&#164;&#236;&#157;&#180;&#235;&#178;&#132; &#235;&#184;&#148;&#235;&#161;&#156;&#234;&#183;&#184; &#235;&#161;&#156;&#234;&#179;&#160;">
<g id="Group">
<path id="Vector" d="M6.69989 5.75487C6.69989 5.86599 6.69989 5.97711 6.70026 6.08823C6.70064 6.36791 6.69592 6.6476 6.70612 6.92728C6.71085 6.98889 6.71406 7.05125 6.72956 7.11135C6.74675 7.18051 6.78039 7.24665 6.83085 7.29768C6.87832 7.3475 6.94063 7.38064 7.00848 7.39216C7.06026 7.42523 7.10467 7.46832 7.14795 7.51179L7.19992 7.5647V10.9001H8.9077L8.87425 7.10246C8.83985 7.03538 8.80622 6.96791 8.77371 6.89988C8.71173 6.77138 8.64993 6.64249 8.57472 6.52117C8.40465 6.25112 8.15884 6.03712 7.86795 5.90586C7.82165 5.88508 7.77535 5.86523 7.72773 5.84785C7.55085 5.78284 7.36565 5.74467 7.18007 5.71462C7.11771 5.70442 7.05535 5.69535 6.99299 5.68495L6.69989 5.63733V5.75487ZM2.89882 5.95046L2.90637 7.62064C2.9094 8.21157 2.91261 8.80231 2.91658 9.39323C2.91904 9.75796 2.92187 10.1227 2.92414 10.4876L2.92697 10.8674L3.19494 10.8741L3.21233 10.8744L3.28036 10.8763L3.28905 10.8765L3.36559 10.8788C3.60785 10.886 3.85012 10.8943 4.09258 10.8958H4.10127C4.12924 10.8958 4.1574 10.8945 4.18556 10.8933C4.25037 10.8901 4.31576 10.8803 4.37585 10.855C4.4008 10.8446 4.42461 10.8317 4.44672 10.8164C4.52515 10.8618 4.60735 10.9013 4.6939 10.9285C4.75343 10.9479 4.81409 10.964 4.87532 10.9759C5.06241 11.0124 5.25516 11.0133 5.44319 10.9852C5.61857 10.9584 5.78963 10.9085 5.95192 10.8368C6.03431 10.8015 6.11406 10.7593 6.18965 10.711C6.40351 10.5726 6.5868 10.392 6.72823 10.1801C6.75563 10.1397 6.7819 10.0987 6.80477 10.0554C6.86562 9.94145 6.90719 9.8173 6.92949 9.69012C6.98165 9.411 6.98921 9.12508 6.9654 8.84256C6.95819 8.7489 6.94621 8.65568 6.92949 8.56325C6.89944 8.40224 6.85012 8.2435 6.77264 8.09837C6.74704 8.05162 6.71968 8.00585 6.69063 7.96117C6.56817 7.77144 6.41869 7.59777 6.24086 7.45793C6.21125 7.43411 6.18034 7.41197 6.14826 7.3916C6.00804 7.30259 5.85157 7.24136 5.69132 7.19941C5.43599 7.13094 5.16878 7.11908 4.90839 7.16464C4.80294 7.18372 4.69919 7.2132 4.59979 7.25346V5.84993H2.89844L2.89882 5.95046ZM14.8657 7.13289C14.7507 7.13478 14.6359 7.14725 14.5229 7.16879C14.3052 7.2102 14.0957 7.28733 13.9031 7.39708C13.6622 7.53763 13.4617 7.73806 13.321 7.97894C13.2776 8.05301 13.2404 8.13049 13.2088 8.21043C13.144 8.37257 13.1015 8.54303 13.0771 8.71575C13.0261 8.491 12.9331 8.27789 12.8031 8.0876C12.6831 7.91124 12.5357 7.75519 12.3665 7.62536C12.0017 7.34805 11.5609 7.18893 11.103 7.16936C11.0224 7.16669 10.9416 7.16859 10.8611 7.17503C10.4736 7.20757 10.102 7.34402 9.78549 7.56999C9.61125 7.69431 9.45833 7.84608 9.3327 8.01938C9.21245 8.18407 9.12283 8.36907 9.06814 8.56552C9.04622 8.64659 9.03129 8.72974 9.02373 8.81346C9.0105 8.96785 8.99822 9.12281 9.00483 9.27777C9.00634 9.31991 9.00974 9.36205 9.01636 9.40382C9.03374 9.51588 9.06984 9.62416 9.11425 9.72829C9.14033 9.79009 9.16924 9.85056 9.1991 9.91065C9.36022 10.2049 9.58316 10.4607 9.85258 10.6605C10.0116 10.7757 10.1891 10.8631 10.3774 10.9188C10.5677 10.9767 10.7661 11.0058 10.9647 11.0122C11.0418 11.0143 11.1191 11.0122 11.196 11.0071C11.4322 10.9925 11.6646 10.9404 11.8845 10.8529C11.9171 10.84 11.9491 10.8257 11.9805 10.8098C12.1184 10.7391 12.2479 10.6526 12.368 10.5547C12.4775 10.4659 12.5791 10.3676 12.6738 10.2631C12.7345 10.1956 12.7896 10.1231 12.8388 10.0465C12.9452 9.88068 13.0233 9.69829 13.0699 9.50681C13.0913 9.70013 13.136 9.89213 13.216 10.07C13.2661 10.1815 13.3303 10.2871 13.4087 10.381C13.5145 10.5067 13.6395 10.615 13.7789 10.7019C13.9229 10.7939 14.0785 10.8667 14.2372 10.9298C14.306 10.9566 14.3774 10.9763 14.4498 10.9899V12.5726L14.7168 12.5612L14.7437 12.5601L14.7705 12.559L14.7792 12.5586L14.8368 12.5565C15.0855 12.5471 15.3342 12.5401 15.5825 12.5242C15.7524 12.5117 15.9216 12.473 16.0754 12.3987C16.1177 12.3779 16.16 12.3566 16.2011 12.3331C16.3606 12.2409 16.5065 12.1268 16.6346 11.9943C16.6514 11.9777 16.6669 11.9601 16.6818 11.9418C16.7857 11.8186 16.8772 11.6833 16.9407 11.5345C16.9691 11.4684 16.9912 11.3994 17.0074 11.3293C17.0509 11.1469 17.0686 10.9598 17.0781 10.7731C17.083 10.6781 17.0862 10.583 17.0896 10.488C17.1032 9.88325 17.0994 9.27834 17.0996 8.67342C17.0996 8.52527 17.1 8.37711 17.0998 8.22895V7.19997H15.4501V7.24344C15.2647 7.16763 15.066 7.13003 14.8657 7.13289ZM11.1301 8.74996C11.1495 8.75071 11.1697 8.75166 11.1879 8.75941C11.1943 8.76357 11.1994 8.76942 11.2055 8.77415C11.2716 8.83235 11.3343 8.89509 11.3891 8.96407C11.3965 8.9773 11.3978 8.99279 11.3992 9.00753C11.4018 9.0459 11.3982 9.08407 11.3952 9.12205C11.3814 9.22023 11.3309 9.30953 11.2538 9.37188C11.2159 9.40249 11.1714 9.42517 11.124 9.43632C11.0632 9.45333 10.9974 9.44766 10.9382 9.42612C10.8627 9.39907 10.7983 9.34777 10.7549 9.28023C10.7389 9.25394 10.7264 9.22567 10.7177 9.19613C10.6955 9.11552 10.7032 9.02961 10.7394 8.95424C10.7527 8.92665 10.7695 8.90095 10.789 8.87752C10.8226 8.82914 10.8698 8.78908 10.9258 8.76942C10.9439 8.763 10.963 8.75997 10.9819 8.75752C11.0242 8.75178 11.0668 8.74925 11.1095 8.74996C11.1163 8.74958 11.1231 8.74977 11.1301 8.74996ZM15.1407 8.75374C15.1721 8.75374 15.2033 8.75809 15.2329 8.76791C15.3191 8.79588 15.3928 8.86127 15.4298 8.94404C15.4417 8.9686 15.4516 8.99374 15.458 9.0202C15.4737 9.08312 15.4733 9.15097 15.4516 9.21238C15.4429 9.23657 15.4306 9.25963 15.4151 9.28042L15.4102 9.28684C15.3698 9.33752 15.3175 9.37738 15.2579 9.40287C15.2163 9.42144 15.1725 9.43477 15.1277 9.44256C15.098 9.44175 15.0688 9.43534 15.0415 9.42366C15.0103 9.41133 14.9798 9.39745 14.95 9.38209C14.8988 9.34799 14.8593 9.29888 14.837 9.24149C14.8068 9.1678 14.8006 9.08647 14.8193 9.00905C14.8283 8.97257 14.8438 8.9378 14.8654 8.907C14.9153 8.82763 15.0001 8.77094 15.0929 8.75695C15.1088 8.75449 15.1248 8.75336 15.1407 8.75374ZM4.97321 8.80854C5.0076 8.80873 5.042 8.81516 5.07356 8.82857C5.14593 8.85881 5.20584 8.9189 5.23419 8.99223C5.24911 9.03172 5.25403 9.07443 5.25138 9.1162C5.24754 9.17787 5.22653 9.23724 5.19072 9.2876C5.15107 9.32874 5.10186 9.35944 5.04748 9.37698C4.98568 9.39796 4.91935 9.40552 4.85434 9.39928C4.80365 9.39176 4.75785 9.36487 4.72659 9.32426C4.68642 9.27608 4.66208 9.21669 4.65686 9.15418C4.64922 9.08341 4.66361 9.012 4.69806 8.94971C4.71979 8.91191 4.75078 8.87884 4.78896 8.85711C4.84433 8.82442 4.90896 8.80779 4.97321 8.80854Z" fill="white"/>
<path id="Vector_2" d="M9.82965 18.89C9.74461 18.8099 9.4498 18.17 8.89459 16.865L8.08464 14.9499H5.67462C4.2796 14.9499 3.14971 14.93 2.99475 14.9C2.59469 14.825 2.05459 14.54 1.76451 14.2499C1.46971 13.9551 1.18473 13.44 1.10461 13.0599C1.06473 12.88 1.0498 11.4899 1.0498 8.63505C1.0498 5.0549 1.05963 4.42995 1.12464 4.17502C1.36464 3.2549 2.12962 2.54983 3.04974 2.40488C3.49951 2.33005 16.5047 2.33005 16.9497 2.40488C17.8447 2.54491 18.5847 3.18498 18.8497 4.03499C18.9447 4.35001 18.9498 4.49496 18.9498 8.61994C18.9498 11.3049 18.9296 12.9551 18.8947 13.0949C18.7597 13.69 18.2497 14.3499 17.7098 14.64C17.1547 14.935 17.0196 14.9499 14.3696 14.9499H11.9647L11.1547 16.865C10.7046 17.9149 10.3047 18.8099 10.2596 18.8549C10.1097 19.0049 9.96968 19.015 9.82965 18.89ZM16.0496 12.075C16.1997 11.99 16.3947 11.8299 16.4846 11.7099C16.7796 11.32 16.7997 11.1751 16.7997 9.23997V7.49987H15.7497V7.8149L15.6397 7.71493C15.3646 7.46491 14.9947 7.37987 14.5697 7.46491C13.7696 7.62989 13.3497 8.20003 13.3497 9.11997C13.3497 9.89005 13.5597 10.275 14.1296 10.5551C14.3847 10.68 14.5147 10.7149 14.7396 10.7149C15.0996 10.71 15.3997 10.6299 15.5747 10.49L15.7146 10.3799L15.6796 10.6C15.6097 11.0351 15.3797 11.2501 14.9796 11.2501H14.7496V12.26L15.2646 12.24C15.7147 12.2248 15.8047 12.205 16.0496 12.075ZM5.87966 10.5399C6.16464 10.4099 6.4396 10.1299 6.56962 9.8549C6.70965 9.53987 6.71475 8.79493 6.57963 8.40488C6.47966 8.11008 6.17465 7.73987 5.92955 7.61005C5.41969 7.34491 4.76962 7.38989 4.41472 7.71493L4.29963 7.81509V6.15001H3.19979L3.20962 8.36482L3.22473 10.5749L3.76464 10.59C4.27469 10.6051 4.29963 10.6 4.29963 10.4999C4.29963 10.375 4.31475 10.375 4.54473 10.525C4.89472 10.7599 5.40458 10.765 5.87966 10.5401V10.5399ZM11.7347 10.59C12.0397 10.48 12.4547 10.1251 12.6197 9.82995C13.1647 8.87997 12.5447 7.73005 11.3647 7.49987C10.6247 7.35493 9.82454 7.71493 9.47475 8.35499C9.36458 8.56494 9.3247 8.70498 9.30958 9.00507C9.28974 9.33994 9.30467 9.41987 9.42467 9.68992C9.56962 10.015 9.89957 10.37 10.1997 10.525C10.6347 10.7499 11.2347 10.775 11.7347 10.59ZM8.58958 8.88488L8.57465 7.17502L8.40968 6.83997C8.17969 6.37509 7.81459 6.12488 7.21459 6.02491L6.99973 5.98995V6.54498C6.99973 7.01987 7.00974 7.1 7.07966 7.1C7.12464 7.1 7.23462 7.17502 7.32968 7.27008L7.49976 7.43997V10.6H8.60451L8.58958 8.88488Z" fill="#B3B3B3"/>
<path id="Vector_3" d="M14.8646 9.67502C14.5346 9.53499 14.4046 9.08503 14.5996 8.76491C14.8699 8.32006 15.4997 8.35993 15.7097 8.83483C15.8646 9.1901 15.7097 9.55483 15.3348 9.69505C15.1496 9.76497 15.0594 9.76006 14.8646 9.67502ZM4.60978 9.62003C4.23976 9.36491 4.27963 8.76491 4.6797 8.57499C5.22962 8.31496 5.75478 8.85996 5.47472 9.40006C5.33469 9.67502 4.8596 9.79502 4.60978 9.62003ZM10.7147 9.65007C10.6402 9.60549 10.5756 9.54617 10.5249 9.47575C10.4742 9.40534 10.4383 9.32531 10.4196 9.24056C10.4009 9.15582 10.3997 9.06814 10.416 8.98291C10.4324 8.89767 10.466 8.81668 10.5147 8.74488C10.6597 8.53001 10.8146 8.45007 11.0947 8.45007C11.2797 8.45007 11.3396 8.47502 11.5048 8.64491C11.6697 8.81007 11.6996 8.86998 11.6996 9.05499C11.6996 9.58998 11.1548 9.91993 10.7147 9.65007Z" fill="#B3B3B3"/>
</g>
</g>
</svg>
