<svg width="20" height="20" viewBox="0 0 20 20" fill="none" xmlns="http://www.w3.org/2000/svg">
<g id="&#237;&#138;&#184;&#236;&#156;&#132;&#237;&#132;&#176; &#235;&#161;&#156;&#234;&#179;&#160;" clip-path="url(#clip0_456_5430)">
<path id="Vector" d="M17.8996 5.02848C17.9117 5.24123 17.9117 5.45397 17.9117 5.66868C17.9117 12.2108 13.8149 19.7559 6.3238 19.7559V19.752C4.11089 19.7559 1.94396 18.9853 0.0810547 17.5324C0.402829 17.5795 0.726216 17.603 1.05041 17.604C2.88428 17.6059 4.66573 16.8579 6.10847 15.4804C4.36573 15.4402 2.83751 14.0589 2.30364 12.0422C2.91412 12.1853 3.54315 12.1559 4.14234 11.9569C2.24235 11.4902 0.87541 9.46083 0.87541 7.10397V7.04123C1.44154 7.42456 2.07541 7.6373 2.7238 7.66083C0.93428 6.20691 0.382668 3.31279 1.46331 1.05005C3.53105 4.14319 6.58186 6.02358 9.85686 6.2226C9.52864 4.50299 9.97702 2.70103 11.0351 1.49221C12.6754 -0.382304 15.2552 -0.286225 16.7972 1.70691C17.7093 1.48828 18.5835 1.08142 19.3835 0.504951C19.0794 1.65103 18.4431 2.62456 17.5932 3.24319C18.4004 3.1275 19.1891 2.86475 19.9319 2.46377C19.3851 3.45985 18.6964 4.3275 17.8996 5.02848Z" fill="#B3B3B3"/>
</g>
<defs>
<clipPath id="clip0_456_5430">
<rect width="20" height="20" fill="white"/>
</clipPath>
</defs>
</svg>
