<svg width="16" height="12" viewBox="0 0 16 12" fill="none" xmlns="http://www.w3.org/2000/svg">
<path d="M5.55655 9.1627L14.0316 0.687695C14.2316 0.487695 14.4649 0.387695 14.7316 0.387695C14.9982 0.387695 15.2316 0.487695 15.4316 0.687695C15.6316 0.887695 15.7316 1.1252 15.7316 1.4002C15.7316 1.6752 15.6316 1.9127 15.4316 2.1127L6.25656 11.3127C6.05656 11.5127 5.82322 11.6127 5.55655 11.6127C5.28989 11.6127 5.05655 11.5127 4.85655 11.3127L0.556555 7.0127C0.356555 6.8127 0.260721 6.5752 0.269055 6.3002C0.277388 6.0252 0.381555 5.7877 0.581555 5.5877C0.781555 5.3877 1.01905 5.2877 1.29405 5.2877C1.56905 5.2877 1.80655 5.3877 2.00655 5.5877L5.55655 9.1627Z" fill="white"/>
</svg>
