<svg width="20" height="21" viewBox="0 0 20 21" fill="none" xmlns="http://www.w3.org/2000/svg">
<path d="M9.93065 13.3753C10.0783 13.3753 10.202 13.3254 10.3017 13.2255C10.4014 13.1257 10.4513 13.0021 10.4513 12.8545V9.9031C10.4513 9.75553 10.4014 9.63181 10.3015 9.53192C10.2016 9.43215 10.0779 9.38227 9.9303 9.38227C9.78262 9.38227 9.65895 9.43215 9.55929 9.53192C9.45952 9.63181 9.40964 9.75553 9.40964 9.9031V12.8545C9.40964 13.0021 9.45958 13.1257 9.55947 13.2255C9.65935 13.3254 9.78308 13.3753 9.93065 13.3753ZM9.93047 8.19373C10.0894 8.19373 10.2226 8.13997 10.3301 8.03244C10.4376 7.92492 10.4914 7.7917 10.4914 7.63279C10.4914 7.47388 10.4376 7.34066 10.3301 7.23314C10.2226 7.12573 10.0894 7.07203 9.93047 7.07203C9.77156 7.07203 9.63834 7.12573 9.53082 7.23314C9.4233 7.34066 9.36954 7.47388 9.36954 7.63279C9.36954 7.7917 9.4233 7.92492 9.53082 8.03244C9.63834 8.13997 9.77156 8.19373 9.93047 8.19373ZM9.93169 16.6739C9.01919 16.6739 8.16149 16.5008 7.3586 16.1545C6.55571 15.8082 5.85733 15.3382 5.26346 14.7446C4.66959 14.151 4.1994 13.4529 3.85287 12.6503C3.50646 11.8478 3.33325 10.9903 3.33325 10.0779C3.33325 9.16543 3.5064 8.30773 3.8527 7.50484C4.19899 6.70195 4.66896 6.00357 5.26259 5.4097C5.85623 4.81583 6.55432 4.34564 7.35686 3.99911C8.15941 3.6527 9.01687 3.47949 9.92926 3.47949C10.8418 3.47949 11.6995 3.65264 12.5023 3.99894C13.3052 4.34523 14.0036 4.8152 14.5975 5.40883C15.1914 6.00247 15.6616 6.70056 16.0081 7.5031C16.3545 8.30565 16.5277 9.16311 16.5277 10.0755C16.5277 10.988 16.3545 11.8457 16.0083 12.6486C15.662 13.4515 15.192 14.1499 14.5984 14.7437C14.0047 15.3376 13.3066 15.8078 12.5041 16.1543C11.7015 16.5007 10.8441 16.6739 9.93169 16.6739ZM9.93047 15.6323C11.4814 15.6323 12.7951 15.0941 13.8714 14.0177C14.9478 12.9413 15.486 11.6276 15.486 10.0767C15.486 8.52579 14.9478 7.21213 13.8714 6.13574C12.7951 5.05935 11.4814 4.52116 9.93047 4.52116C8.37955 4.52116 7.06589 5.05935 5.9895 6.13574C4.91311 7.21213 4.37492 8.52579 4.37492 10.0767C4.37492 11.6276 4.91311 12.9413 5.9895 14.0177C7.06589 15.0941 8.37955 15.6323 9.93047 15.6323Z" fill="#B3B3B3"/>
</svg>
