<svg width="25" height="24" viewBox="0 0 25 24" fill="none" xmlns="http://www.w3.org/2000/svg">
<path d="M21.1055 12.085L15.0313 17.7926C14.8711 17.9431 14.793 18.1204 14.7971 18.3243C14.8012 18.5284 14.8834 18.7057 15.0436 18.8562C15.2039 19.0068 15.3926 19.082 15.6097 19.082C15.8267 19.082 16.0154 19.0068 16.1758 18.8562L22.3614 13.0555C22.5072 12.9184 22.6153 12.765 22.6856 12.595C22.7559 12.425 22.791 12.255 22.791 12.085C22.791 11.9151 22.7559 11.7451 22.6856 11.5751C22.6153 11.4051 22.5072 11.2516 22.3614 11.1146L16.1758 5.3021C16.0154 5.15157 15.8246 5.07827 15.6034 5.08218C15.3822 5.08609 15.1915 5.16332 15.0313 5.31385C14.8711 5.46438 14.791 5.64168 14.791 5.84575C14.791 6.0497 14.8711 6.22694 15.0313 6.37747L21.1055 12.085Z" fill="#181F29"/>
</svg>
