<svg width="24" height="24" viewBox="0 0 24 24" fill="none" xmlns="http://www.w3.org/2000/svg">
<path d="M20.6055 12.085L14.5313 17.7926C14.3711 17.9431 14.293 18.1204 14.2971 18.3243C14.3012 18.5284 14.3834 18.7057 14.5436 18.8562C14.7039 19.0068 14.8926 19.082 15.1097 19.082C15.3267 19.082 15.5154 19.0068 15.6758 18.8562L21.8614 13.0555C22.0072 12.9184 22.1153 12.765 22.1856 12.595C22.2559 12.425 22.291 12.255 22.291 12.085C22.291 11.9151 22.2559 11.7451 22.1856 11.5751C22.1153 11.4051 22.0072 11.2516 21.8614 11.1146L15.6758 5.3021C15.5154 5.15157 15.3246 5.07827 15.1034 5.08218C14.8822 5.08609 14.6915 5.16332 14.5313 5.31385C14.3711 5.46438 14.291 5.64168 14.291 5.84575C14.291 6.0497 14.3711 6.22694 14.5313 6.37747L20.6055 12.085Z" fill="#808080"/>
</svg>
