<svg width="41" height="40" viewBox="0 0 41 40" fill="none" xmlns="http://www.w3.org/2000/svg">
<g id="icon-calendar-checked">
<path id="Union" fill-rule="evenodd" clip-rule="evenodd" d="M13.897 3.3335C13.2066 3.3335 12.647 3.89314 12.647 4.5835V6.26725C12.647 6.40699 12.6699 6.54136 12.7122 6.66683H11.3335C8.57207 6.66683 6.3335 8.90541 6.3335 11.6668V30.0002C6.3335 32.7616 8.57207 35.0002 11.3335 35.0002H29.6668C32.4283 35.0002 34.6668 32.7616 34.6668 30.0002V11.6668C34.6668 8.90541 32.4283 6.66683 29.6668 6.66683H28.433C28.4753 6.54136 28.4982 6.40699 28.4982 6.26725V4.5835C28.4982 3.89314 27.9386 3.3335 27.2482 3.3335C26.5579 3.3335 25.9982 3.89314 25.9982 4.5835V6.26725C25.9982 6.40699 26.0211 6.54136 26.0634 6.66683H15.0817C15.124 6.54136 15.147 6.40699 15.147 6.26725V4.5835C15.147 3.89314 14.5873 3.3335 13.897 3.3335ZM8.8335 15.8009V30.0002C8.8335 31.3809 9.95278 32.5002 11.3335 32.5002H29.6668C31.0475 32.5002 32.1668 31.3809 32.1668 30.0002V15.8009H8.8335Z" fill="#CCCCCC"/>
<path id="Union_2" d="M26.3616 20.8862C26.8517 20.4001 26.855 19.6086 26.3688 19.1185C25.8827 18.6283 25.0913 18.6251 24.6011 19.1112L18.8497 24.8155L16.6429 22.6087C16.1547 22.1206 15.3632 22.1206 14.8751 22.6087C14.3869 23.0969 14.3869 23.8883 14.8751 24.3765L17.2403 26.7417L17.6622 27.167C18.3104 27.8206 19.3656 27.8249 20.0192 27.1767L26.3616 20.8862Z" fill="#CCCCCC"/>
</g>
</svg>
