<svg width="151" height="84" viewBox="0 0 151 84" fill="none" xmlns="http://www.w3.org/2000/svg">
<path d="M13.1211 3.70588C13.1211 1.65917 14.7803 0 16.827 0H132.945C134.991 0 136.651 1.65917 136.651 3.70588V56.2059C136.651 56.8881 136.086 57.4234 135.432 57.6154C133.637 58.1417 132.327 59.8002 132.327 61.7647H17.4446C17.4446 59.8002 16.1344 58.1417 14.3401 57.6154C13.6854 57.4234 13.1211 56.8881 13.1211 56.2059V3.70588Z" fill="#535BF4"/>
<path d="M56.7916 15.6263V21.1996H55.8459V15.6263H56.7916ZM50.4415 19.4009C51.6786 18.966 52.3119 17.8894 52.3077 16.7916V16.0485H53.2788V16.7916C53.2746 17.8556 53.8994 18.8605 55.1112 19.2658L54.6299 20.0089C53.7601 19.7049 53.1394 19.0969 52.8017 18.3158C52.4639 19.1518 51.8306 19.8189 50.9312 20.144L50.4415 19.4009ZM51.7419 23.0996V20.6676H52.6877V22.3396H57.0028V23.0996H51.7419ZM63.9008 16.0654V16.5974C63.8966 17.256 63.8966 18.13 63.6855 19.3671H64.8213V20.1271H63.0986V23.2431H62.1697V20.1271H60.4639V23.2431H59.5182V20.1271H57.8631V19.3671H62.7397C62.9508 18.2778 62.9762 17.4587 62.9804 16.8338H58.716V16.0654H63.9008ZM73.2805 15.6178V18.5987H74.4121V19.384H73.2805V23.2347H72.3432V15.6178H73.2805ZM67.2597 21.1489C69.1174 20.22 70.1223 18.928 70.3081 17.1885H67.6734V16.4116H71.2623C71.2581 18.6536 70.3292 20.6253 67.7917 21.8751L67.2597 21.1489ZM81.0906 15.6178V19.7134H80.1448V15.6178H81.0906ZM74.867 17.7458C74.867 16.686 75.7453 15.9514 76.9275 15.9556C78.1055 15.9514 78.9837 16.686 78.9795 17.7458C78.9837 18.7887 78.1055 19.5234 76.9275 19.5191C75.7453 19.5234 74.867 18.7887 74.867 17.7458ZM75.7875 17.7458C75.7833 18.358 76.2604 18.7465 76.9275 18.7507C77.5819 18.7465 78.059 18.358 78.059 17.7458C78.059 17.1336 77.5819 16.7367 76.9275 16.7409C76.2604 16.7367 75.7833 17.1336 75.7875 17.7458ZM76.0408 23.1587V20.068H76.9697V20.8533H80.1532V20.068H81.0906V23.1587H76.0408ZM76.9697 22.3987H80.1532V21.588H76.9697V22.3987ZM90.3098 16.0654V16.7578C90.3098 17.5474 90.3098 18.4298 90.0523 19.6711H91.1289V20.4311H88.1227V23.2347H87.1769V20.4311H84.1707V19.6711H89.1276C89.2331 19.2194 89.2965 18.8098 89.3387 18.434L84.8885 18.6578L84.7703 17.8556L89.3978 17.7205C89.4105 17.3996 89.4147 17.0998 89.4147 16.8169H85.0067V16.0654H90.3098ZM97.9172 15.9218V16.6818H96.8701V18.1427H97.875V18.8774H95.5443V19.6627H98.559V20.4058H91.6008V19.6627H94.5985V18.8774H92.2679V18.1427H93.2728V16.6818H92.2257V15.9218H97.9172ZM92.4621 23.0996V20.9547H93.3994V22.3396H97.7736V23.0996H92.4621ZM94.2101 18.1427H95.9243V16.6818H94.2101V18.1427Z" fill="white"/>
<path d="M48.8379 44.5488C46.2286 44.5488 44.3624 43.1301 44.3117 41.0697H46.5241C46.5832 42.0492 47.5628 42.6994 48.8379 42.691C50.1805 42.6994 51.1517 41.9563 51.1517 40.867C51.1517 39.7692 50.2059 38.9839 48.6183 38.9755H47.5206V37.2866H48.6183C49.9188 37.2866 50.8223 36.5604 50.8139 35.4964C50.8223 34.4662 50.0454 33.7737 48.8548 33.7737C47.7063 33.7737 46.7183 34.4155 46.6761 35.4457H44.565C44.6157 33.3937 46.4819 31.9835 48.8717 31.9835C51.3543 31.9835 52.9588 33.5035 52.9419 35.3782C52.9588 36.7462 52.0468 37.7341 50.7125 38.0128V38.1141C52.4352 38.3421 53.4148 39.4484 53.3979 40.9852C53.4148 43.0541 51.481 44.5488 48.8379 44.5488ZM57.3309 43.1808L55.9123 47.9096H54.3078L55.186 43.1808H57.3309ZM63.5946 44.5488C60.6475 44.5488 58.8911 42.2688 58.8996 38.2661C58.8911 34.2804 60.6644 31.9835 63.5946 31.9835C66.5248 31.9835 68.2897 34.2804 68.2897 38.2661C68.2897 42.2772 66.5333 44.5488 63.5946 44.5488ZM61.112 38.2661C61.112 41.2048 62.0578 42.6994 63.5946 42.7079C65.1231 42.6994 66.0773 41.2048 66.0773 38.2661C66.0688 35.3528 65.1231 33.8159 63.5946 33.8075C62.0662 33.8159 61.1204 35.3528 61.112 38.2661ZM74.5534 44.5488C71.6063 44.5488 69.8499 42.2688 69.8584 38.2661C69.8499 34.2804 71.6232 31.9835 74.5534 31.9835C77.4836 31.9835 79.2485 34.2804 79.2485 38.2661C79.2485 42.2772 77.4921 44.5488 74.5534 44.5488ZM72.0708 38.2661C72.0708 41.2048 73.0166 42.6994 74.5534 42.7079C76.0819 42.6994 77.0361 41.2048 77.0361 38.2661C77.0276 35.3528 76.0819 33.8159 74.5534 33.8075C73.025 33.8159 72.0792 35.3528 72.0708 38.2661ZM85.5122 44.5488C82.5651 44.5488 80.8087 42.2688 80.8171 38.2661C80.8087 34.2804 82.582 31.9835 85.5122 31.9835C88.4424 31.9835 90.2073 34.2804 90.2073 38.2661C90.2073 42.2772 88.4509 44.5488 85.5122 44.5488ZM83.0296 38.2661C83.0296 41.2048 83.9753 42.6994 85.5122 42.7079C87.0407 42.6994 87.9949 41.2048 87.9949 38.2661C87.9864 35.3528 87.0407 33.8159 85.5122 33.8075C83.9838 33.8159 83.038 35.3528 83.0296 38.2661ZM104.257 30.6324V42.1843H102.365V40.8501H99.3759V39.5328H102.365V30.6324H104.257ZM91.3875 37.4893C94.1995 37.4724 97.991 37.447 101.234 37.0333L101.335 38.3844C100.077 38.5955 98.7763 38.7306 97.4844 38.8235V41.7621H95.6097V38.9248C94.1826 38.9839 92.823 38.9924 91.6239 38.9924L91.3875 37.4893ZM92.5528 33.8919C92.5528 32.2791 94.1066 31.1813 96.3697 31.1897C98.5906 31.1813 100.153 32.2791 100.17 33.8919C100.153 35.5302 98.5906 36.5688 96.3697 36.5773C94.1066 36.5688 92.5528 35.5302 92.5528 33.8919ZM93.4142 45.579V41.0697H95.2888V44.059H104.611V45.579H93.4142ZM94.3261 33.8919C94.3261 34.7195 95.1453 35.2008 96.3697 35.2093C97.535 35.2008 98.371 34.7195 98.3795 33.8919C98.371 33.0644 97.535 32.5662 96.3697 32.5746C95.1453 32.5662 94.3261 33.0644 94.3261 33.8919Z" fill="white"/>
<rect x="0.765625" y="74.1177" width="149.471" height="9.88235" rx="4.94118" fill="#3A3C5A"/>
<path d="M13.1211 82.6659C13.1211 84 14.7803 84 16.827 84L132.945 84C136.651 84 136.651 84 136.651 82.6659V64.5565C136.651 63.8742 136.095 63.3295 135.417 63.2569C133.63 63.0658 132.327 62.47 132.327 61.7647H17.4446C17.4446 62.47 16.1414 63.0658 14.3545 63.2569C13.6761 63.3295 13.1211 63.8742 13.1211 64.5565V82.6659Z" fill="#4D53CB"/>
<rect x="13.1211" y="79.0591" width="123.529" height="4.94118" fill="#4D53CB"/>
<path d="M56.7663 70.3881V71.1396H54.5581C54.6763 71.8067 55.6052 72.4189 57.0619 72.5583L56.7156 73.2845C55.3392 73.1452 54.3174 72.5878 53.9037 71.7983C53.4899 72.5836 52.4766 73.1452 51.1001 73.2845L50.7708 72.5583C52.2063 72.4063 53.131 71.7983 53.2577 71.1396H51.0663V70.3881H56.7663ZM50.433 74.4245V73.6729H57.3912V74.4245H50.433ZM51.2015 75.8094V75.0494H56.5383V77.6925H55.601V75.8094H51.2015ZM60.7511 71.8912C60.7426 73.2929 61.4815 74.6947 62.7186 75.2267L62.1613 75.9783C61.2831 75.5729 60.6413 74.7665 60.2866 73.77C59.9362 74.8425 59.2775 75.7207 58.3528 76.1556L57.7786 75.3703C59.0495 74.8214 59.7926 73.3647 59.7968 71.8912V70.6752H60.7511V71.8912ZM63.2675 77.7009V70.0587H64.2133V77.7009H63.2675ZM70.0294 71.8912C70.021 73.2549 70.705 74.6314 71.8872 75.2014L71.313 75.9529C70.4854 75.5349 69.8901 74.7285 69.565 73.7574C69.2314 74.796 68.6065 75.6574 67.7325 76.0965L67.1583 75.3449C68.387 74.7623 69.0879 73.3014 69.0921 71.8912V70.6752H70.0294V71.8912ZM72.3432 77.6925V70.0587H73.2805V73.0481H74.4543V73.8503H73.2805V77.6925H72.3432ZM81.6901 73.732V74.4836H74.7319V73.732H76.3533V72.7652C75.7748 72.5203 75.4497 72.1361 75.4497 71.6378C75.4497 70.7216 76.5179 70.1854 78.2026 70.1854C79.883 70.1854 80.9512 70.7216 80.9554 71.6378C80.9512 72.1403 80.6219 72.5245 80.0435 72.7652V73.732H81.6901ZM75.5426 76.3076C75.5426 75.4294 76.5348 74.9396 78.2026 74.948C79.845 74.9396 80.8414 75.4294 80.8457 76.3076C80.8414 77.1942 79.845 77.6756 78.2026 77.6756C76.5348 77.6756 75.5426 77.1942 75.5426 76.3076ZM76.4293 71.6378C76.4208 72.1023 77.0752 72.3514 78.2026 72.3472C79.3257 72.3514 79.9843 72.1023 79.9843 71.6378C79.9843 71.1692 79.3257 70.9074 78.2026 70.9116C77.0752 70.9074 76.4208 71.1692 76.4293 71.6378ZM76.4968 76.3076C76.4926 76.7383 77.0921 76.9705 78.2026 76.9663C79.2961 76.9705 79.8999 76.7383 79.9083 76.3076C79.8999 75.8811 79.2961 75.6616 78.2026 75.6574C77.0921 75.6616 76.4926 75.8811 76.4968 76.3076ZM77.299 73.732H79.1061V73.0058C78.8317 73.0438 78.5277 73.0649 78.2026 73.0649C77.8775 73.0649 77.5735 73.0438 77.299 73.0058V73.732ZM90.1494 70.0587V73.0396H91.2809V73.8249H90.1494V77.6756H89.212V70.0587H90.1494ZM84.1285 75.5898C85.9863 74.6609 86.9912 73.3689 87.1769 71.6294H84.5423V70.8525H88.1312C88.1269 73.0945 87.1981 75.0663 84.6605 76.316L84.1285 75.5898ZM97.7736 72.0432V72.8032H92.5043V70.1938H93.4417V72.0432H97.7736ZM91.6008 74.2978V73.5378H98.5674V74.2978H91.6008ZM92.4114 76.2569C92.4114 75.3576 93.4121 74.8509 95.0714 74.8467C96.7181 74.8509 97.7103 75.3576 97.7145 76.2569C97.7103 77.152 96.7181 77.6587 95.0714 77.6587C93.4121 77.6587 92.4114 77.152 92.4114 76.2569ZM93.3657 76.2569C93.3614 76.696 93.961 76.9367 95.0714 76.9409C96.165 76.9367 96.7688 76.696 96.7772 76.2569C96.7688 75.8051 96.165 75.5856 95.0714 75.5814C93.961 75.5856 93.3614 75.8051 93.3657 76.2569Z" fill="#C5C8FF"/>
</svg>
