<svg width="125" height="115" viewBox="0 0 125 115" fill="none" xmlns="http://www.w3.org/2000/svg">
<g filter="url(#filter0_d_6653_20464)">
<path d="M8 44.9833V102.371H116.534V44.9833C116.043 41.9721 113.941 40.2845 112.95 39.8172L66.4062 5.33574C64.1423 3.65859 61.0504 3.65009 58.7774 5.31475L11.6651 39.8172C9.0012 41.3521 8.11174 43.9008 8 44.9833Z" fill="#E2E2E2"/>
<rect x="11.9023" y="18.499" width="99.9127" height="52.2925" rx="4.24525" fill="#00C896"/>
<path d="M61.621 73.9758L8 102.37L8 45.5815L61.621 73.9758Z" fill="white"/>
<path d="M62.9142 73.9758L116.535 102.37L116.535 45.5815L62.9142 73.9758Z" fill="white"/>
<g filter="url(#filter1_d_6653_20464)">
<path d="M58.7462 64.3887C60.8589 63.0375 63.5643 63.0375 65.677 64.3887L116.535 96.9163V97.0477V102.516H8L8.00292 96.9991L8 96.8446L58.7462 64.3887Z" fill="white"/>
</g>
<path d="M27.1441 47.9585L26.1616 44.0159H24.8183V42.8841H25.8817L24.9054 38.9539H26.4352L27.312 42.8841H28.7112L29.6564 38.9539H31.1365L32.0817 42.8841H33.4933L34.3702 38.9539H35.8875L34.9112 42.8841H35.9746V44.0159H34.6313L33.6488 47.9585H32.0568L31.0867 44.0159H29.7062L28.7361 47.9585H27.1441ZM27.5608 44.0159L27.9401 45.7198H28.0272L28.4376 44.0159H27.5608ZM29.9798 42.8841H30.8131L30.4275 41.317H30.3654L29.9798 42.8841ZM32.3553 44.0159L32.7658 45.7322H32.8528L33.2384 44.0159H32.3553Z" fill="white"/>
<path d="M46.2672 37.202V49.9585H43.6067V39.7216H43.5362L40.6114 41.554V39.2106L43.7652 37.202H46.2672ZM54.0881 50.1347C50.8902 50.1347 48.9609 47.7561 48.9609 43.5803C48.9609 39.4133 50.9078 37.0258 54.0881 37.0258C57.2684 37.0258 59.2154 39.4133 59.2154 43.5803C59.2154 47.7737 57.2773 50.1347 54.0881 50.1347ZM51.6743 43.5803C51.6566 46.5227 52.6081 47.9499 54.0881 47.9499C55.5682 47.9499 56.5108 46.5227 56.502 43.5803C56.5108 40.6642 55.5594 39.2018 54.0881 39.193C52.6169 39.2018 51.6743 40.6642 51.6743 43.5803ZM63.2834 48.6547L61.7681 53.6762H59.9004L60.7814 48.6547H63.2834ZM69.9414 50.1347C66.7435 50.1347 64.8142 47.7561 64.8142 43.5803C64.8142 39.4133 66.7611 37.0258 69.9414 37.0258C73.1217 37.0258 75.0687 39.4133 75.0687 43.5803C75.0687 47.7737 73.1305 50.1347 69.9414 50.1347ZM67.5275 43.5803C67.5099 46.5227 68.4614 47.9499 69.9414 47.9499C71.4214 47.9499 72.3641 46.5227 72.3553 43.5803C72.3641 40.6642 71.4126 39.2018 69.9414 39.193C68.4702 39.2018 67.5275 40.6642 67.5275 43.5803ZM81.762 50.1347C78.564 50.1347 76.6347 47.7561 76.6347 43.5803C76.6347 39.4133 78.5816 37.0258 81.762 37.0258C84.9423 37.0258 86.8892 39.4133 86.8892 43.5803C86.8892 47.7737 84.9511 50.1347 81.762 50.1347ZM79.3481 43.5803C79.3305 46.5227 80.2819 47.9499 81.762 47.9499C83.242 47.9499 84.1846 46.5227 84.1758 43.5803C84.1846 40.6642 83.2332 39.2018 81.762 39.193C80.2907 39.2018 79.3481 40.6642 79.3481 43.5803ZM93.5825 50.1347C90.3846 50.1347 88.4552 47.7561 88.4552 43.5803C88.4552 39.4133 90.4022 37.0258 93.5825 37.0258C96.7628 37.0258 98.7098 39.4133 98.7098 43.5803C98.7098 47.7737 96.7716 50.1347 93.5825 50.1347ZM91.1686 43.5803C91.151 46.5227 92.1025 47.9499 93.5825 47.9499C95.0625 47.9499 96.0052 46.5227 95.9964 43.5803C96.0052 40.6642 95.0537 39.2018 93.5825 39.193C92.1113 39.2018 91.1686 40.6642 91.1686 43.5803Z" fill="white"/>
</g>
<defs>
<filter id="filter0_d_6653_20464" x="0" y="0.0722656" width="124.535" height="114.443" filterUnits="userSpaceOnUse" color-interpolation-filters="sRGB">
<feFlood flood-opacity="0" result="BackgroundImageFix"/>
<feColorMatrix in="SourceAlpha" type="matrix" values="0 0 0 0 0 0 0 0 0 0 0 0 0 0 0 0 0 0 127 0" result="hardAlpha"/>
<feOffset dy="4"/>
<feGaussianBlur stdDeviation="4"/>
<feComposite in2="hardAlpha" operator="out"/>
<feColorMatrix type="matrix" values="0 0 0 0 0 0 0 0 0 0 0 0 0 0 0 0 0 0 0.07 0"/>
<feBlend mode="normal" in2="BackgroundImageFix" result="effect1_dropShadow_6653_20464"/>
<feBlend mode="normal" in="SourceGraphic" in2="effect1_dropShadow_6653_20464" result="shape"/>
</filter>
<filter id="filter1_d_6653_20464" x="3.75475" y="57.0076" width="117.026" height="47.6306" filterUnits="userSpaceOnUse" color-interpolation-filters="sRGB">
<feFlood flood-opacity="0" result="BackgroundImageFix"/>
<feColorMatrix in="SourceAlpha" type="matrix" values="0 0 0 0 0 0 0 0 0 0 0 0 0 0 0 0 0 0 127 0" result="hardAlpha"/>
<feOffset dy="-2.12263"/>
<feGaussianBlur stdDeviation="2.12263"/>
<feComposite in2="hardAlpha" operator="out"/>
<feColorMatrix type="matrix" values="0 0 0 0 0 0 0 0 0 0 0 0 0 0 0 0 0 0 0.04 0"/>
<feBlend mode="normal" in2="BackgroundImageFix" result="effect1_dropShadow_6653_20464"/>
<feBlend mode="normal" in="SourceGraphic" in2="effect1_dropShadow_6653_20464" result="shape"/>
</filter>
</defs>
</svg>
