<svg width="25" height="24" viewBox="0 0 25 24" fill="none" xmlns="http://www.w3.org/2000/svg">
<g id="icon-arrow">
<path id="arrow" d="M3.8945 12.0031L9.96869 18.0773C10.1289 18.2375 10.207 18.4261 10.2029 18.6432C10.1988 18.8604 10.1166 19.0491 9.95639 19.2093C9.79606 19.3695 9.60737 19.4496 9.39032 19.4496C9.17327 19.4496 8.98458 19.3695 8.82425 19.2093L2.63858 13.0359C2.49276 12.8901 2.38471 12.7267 2.31442 12.5458C2.24413 12.3649 2.20898 12.184 2.20898 12.0031C2.20898 11.8222 2.24413 11.6413 2.31442 11.4604C2.38471 11.2795 2.49276 11.1162 2.63858 10.9704L8.82425 4.7845C8.98458 4.6243 9.17535 4.54629 9.39657 4.55045C9.61778 4.55462 9.80849 4.6368 9.96869 4.797C10.1289 4.9572 10.209 5.14589 10.209 5.36307C10.209 5.58012 10.1289 5.76874 9.96869 5.92894L3.8945 12.0031Z" fill="#999999"/>
</g>
</svg>
