<svg width="12" height="13" viewBox="0 0 12 13" fill="none" xmlns="http://www.w3.org/2000/svg">
<path id="Vector" d="M0.5 9.47443C0.5 10.0562 0.757837 10.5785 1.16112 10.9421V12.1189C1.16112 12.4825 1.45862 12.78 1.82224 12.78H2.48336C2.84698 12.78 3.14448 12.4825 3.14448 12.1189V11.4578H8.43344V12.1189C8.43344 12.4825 8.73094 12.78 9.09456 12.78H9.75568C10.1193 12.78 10.4168 12.4825 10.4168 12.1189V10.9421C10.8201 10.5785 11.0779 10.0562 11.0779 9.47443V2.86323C11.0779 0.54931 8.71111 0.21875 5.78896 0.21875C2.86681 0.21875 0.5 0.54931 0.5 2.86323V9.47443ZM2.81392 10.1355C2.26519 10.1355 1.82224 9.6926 1.82224 9.14387C1.82224 8.59514 2.26519 8.15219 2.81392 8.15219C3.36265 8.15219 3.8056 8.59514 3.8056 9.14387C3.8056 9.6926 3.36265 10.1355 2.81392 10.1355ZM8.764 10.1355C8.21527 10.1355 7.77232 9.6926 7.77232 9.14387C7.77232 8.59514 8.21527 8.15219 8.764 8.15219C9.31273 8.15219 9.75568 8.59514 9.75568 9.14387C9.75568 9.6926 9.31273 10.1355 8.764 10.1355ZM9.75568 6.16883H1.82224V2.86323H9.75568V6.16883Z" fill="#5A5A5A"/>
</svg>
