<svg width="16" height="16" viewBox="0 0 16 16" fill="none" xmlns="http://www.w3.org/2000/svg">
<g id="bx:map">
<path id="Vector" d="M7.9987 9.33333C9.46936 9.33333 10.6654 8.13733 10.6654 6.66667C10.6654 5.196 9.46936 4 7.9987 4C6.52803 4 5.33203 5.196 5.33203 6.66667C5.33203 8.13733 6.52803 9.33333 7.9987 9.33333ZM7.9987 5.33333C8.73403 5.33333 9.33203 5.93133 9.33203 6.66667C9.33203 7.402 8.73403 8 7.9987 8C7.26336 8 6.66536 7.402 6.66536 6.66667C6.66536 5.93133 7.26336 5.33333 7.9987 5.33333Z" fill="#CCCCCC"/>
<path id="Vector_2" d="M7.61469 14.5433C7.72753 14.6239 7.86271 14.6672 8.00136 14.6672C8.14001 14.6672 8.2752 14.6239 8.38803 14.5433C8.59069 14.4 13.354 10.9607 13.3347 6.66732C13.3347 3.72665 10.942 1.33398 8.00136 1.33398C5.06069 1.33398 2.66803 3.72665 2.66803 6.66398C2.64869 10.9607 7.41203 14.4 7.61469 14.5433ZM8.00136 2.66732C10.2074 2.66732 12.0014 4.46132 12.0014 6.67065C12.0154 9.62932 9.07603 12.286 8.00136 13.1573C6.92736 12.2853 3.98736 9.62798 4.00136 6.66732C4.00136 4.46132 5.79536 2.66732 8.00136 2.66732Z" fill="#CCCCCC"/>
</g>
</svg>
