<svg width="21" height="19" viewBox="0 0 21 19" fill="none" xmlns="http://www.w3.org/2000/svg">
<path d="M2.5 2.24219H5.5L7.5 0.242188H13.5L15.5 2.24219H18.5C19.0304 2.24219 19.5391 2.4529 19.9142 2.82797C20.2893 3.20305 20.5 3.71175 20.5 4.24219V16.2422C20.5 16.7726 20.2893 17.2813 19.9142 17.6564C19.5391 18.0315 19.0304 18.2422 18.5 18.2422H2.5C1.96957 18.2422 1.46086 18.0315 1.08579 17.6564C0.710714 17.2813 0.5 16.7726 0.5 16.2422V4.24219C0.5 3.71175 0.710714 3.20305 1.08579 2.82797C1.46086 2.4529 1.96957 2.24219 2.5 2.24219ZM10.5 5.24219C9.17392 5.24219 7.90215 5.76897 6.96447 6.70665C6.02678 7.64434 5.5 8.91611 5.5 10.2422C5.5 11.5683 6.02678 12.84 6.96447 13.7777C7.90215 14.7154 9.17392 15.2422 10.5 15.2422C11.8261 15.2422 13.0979 14.7154 14.0355 13.7777C14.9732 12.84 15.5 11.5683 15.5 10.2422C15.5 8.91611 14.9732 7.64434 14.0355 6.70665C13.0979 5.76897 11.8261 5.24219 10.5 5.24219ZM10.5 7.24219C11.2956 7.24219 12.0587 7.55826 12.6213 8.12087C13.1839 8.68348 13.5 9.44654 13.5 10.2422C13.5 11.0378 13.1839 11.8009 12.6213 12.3635C12.0587 12.9261 11.2956 13.2422 10.5 13.2422C9.70435 13.2422 8.94129 12.9261 8.37868 12.3635C7.81607 11.8009 7.5 11.0378 7.5 10.2422C7.5 9.44654 7.81607 8.68348 8.37868 8.12087C8.94129 7.55826 9.70435 7.24219 10.5 7.24219Z" fill="#4D4D4D"/>
</svg>
