<svg width="21" height="19" viewBox="0 0 21 19" fill="none" xmlns="http://www.w3.org/2000/svg">
<path id="Vector" d="M7.5 0.75L5.67 2.69444H2.5C1.4 2.69444 0.5 3.56944 0.5 4.63889V16.3056C0.5 17.375 1.4 18.25 2.5 18.25H18.5C19.6 18.25 20.5 17.375 20.5 16.3056V4.63889C20.5 3.56944 19.6 2.69444 18.5 2.69444H15.33L13.5 0.75H7.5ZM10.5 15.3333C7.74 15.3333 5.5 13.1556 5.5 10.4722C5.5 7.78889 7.74 5.61111 10.5 5.61111C13.26 5.61111 15.5 7.78889 15.5 10.4722C15.5 13.1556 13.26 15.3333 10.5 15.3333Z" fill="white"/>
</svg>
