<svg width="18" height="19" viewBox="0 0 18 19" fill="none" xmlns="http://www.w3.org/2000/svg">
<g id="ph:check-bold">
<path id="Vector" d="M16.3472 6.16021L7.34717 15.1602C7.26878 15.2389 7.17563 15.3013 7.07308 15.3439C6.97052 15.3865 6.86056 15.4084 6.74951 15.4084C6.63846 15.4084 6.5285 15.3865 6.42594 15.3439C6.32339 15.3013 6.23024 15.2389 6.15185 15.1602L2.21435 11.2227C2.13587 11.1442 2.07361 11.0511 2.03113 10.9485C1.98866 10.846 1.9668 10.7361 1.9668 10.6251C1.9668 10.5141 1.98866 10.4042 2.03113 10.3016C2.07361 10.1991 2.13587 10.1059 2.21435 10.0274C2.29284 9.94892 2.38602 9.88666 2.48856 9.84418C2.59111 9.80171 2.70102 9.77984 2.81201 9.77984C2.92301 9.77984 3.03291 9.80171 3.13546 9.84418C3.23801 9.88666 3.33118 9.94892 3.40967 10.0274L6.75021 13.3679L15.1533 4.96631C15.3118 4.8078 15.5268 4.71875 15.7509 4.71875C15.9751 4.71875 16.1901 4.8078 16.3486 4.96631C16.5071 5.12482 16.5961 5.3398 16.5961 5.56396C16.5961 5.78813 16.5071 6.00311 16.3486 6.16162L16.3472 6.16021Z" fill="white"/>
</g>
</svg>
