<svg width="14" height="15" viewBox="0 0 14 15" fill="none" xmlns="http://www.w3.org/2000/svg">
<g id="ic:round-check">
<path id="Vector" d="M5.25041 9.93248L3.22624 7.90832C3.11717 7.79925 2.96924 7.73797 2.81499 7.73797C2.66075 7.73797 2.51281 7.79925 2.40374 7.90832C2.29467 8.01739 2.2334 8.16532 2.2334 8.31957C2.2334 8.39594 2.24844 8.47157 2.27767 8.54213C2.3069 8.6127 2.34974 8.67681 2.40374 8.73082L4.84208 11.1692C5.06958 11.3967 5.43708 11.3967 5.66458 11.1692L11.8362 4.99748C11.9453 4.88841 12.0066 4.74048 12.0066 4.58623C12.0066 4.43199 11.9453 4.28405 11.8362 4.17498C11.7272 4.06591 11.5792 4.00464 11.425 4.00464C11.2707 4.00464 11.1228 4.06591 11.0137 4.17498L5.25041 9.93248Z" fill="black"/>
</g>
</svg>
