<svg width="1em" height="1em" viewBox="3 3 12 12" fill="none" xmlns="http://www.w3.org/2000/svg">
<path d="M7.25041 11.9325L5.22624 9.90832C5.11717 9.79925 4.96924 9.73797 4.81499 9.73797C4.66075 9.73797 4.51281 9.79925 4.40374 9.90832C4.29467 10.0174 4.2334 10.1653 4.2334 10.3196C4.2334 10.3959 4.24844 10.4716 4.27767 10.5421C4.3069 10.6127 4.34974 10.6768 4.40374 10.7308L6.84208 13.1692C7.06958 13.3967 7.43708 13.3967 7.66458 13.1692L13.8362 6.99748C13.9453 6.88841 14.0066 6.74048 14.0066 6.58623C14.0066 6.43199 13.9453 6.28405 13.8362 6.17498C13.7272 6.06591 13.5792 6.00464 13.425 6.00464C13.2707 6.00464 13.1228 6.06591 13.0137 6.17498L7.25041 11.9325Z" fill="currentColor"/>
</svg>
