<svg width="25" height="24" viewBox="0 0 25 24" fill="none" xmlns="http://www.w3.org/2000/svg">
<path d="M12.8941 13.0543L7.82105 18.1275C7.68255 18.2658 7.50847 18.3367 7.2988 18.34C7.0893 18.3432 6.91205 18.2723 6.76705 18.1275C6.62222 17.9825 6.5498 17.8068 6.5498 17.6005C6.5498 17.3942 6.62222 17.2185 6.76705 17.0735L11.8403 12.0005L6.76705 6.9275C6.62872 6.789 6.55789 6.61492 6.55455 6.40525C6.55139 6.19575 6.62222 6.0185 6.76705 5.8735C6.91205 5.72867 7.08772 5.65625 7.29405 5.65625C7.50039 5.65625 7.67605 5.72867 7.82105 5.8735L12.8941 10.9468L17.9671 5.8735C18.1056 5.73517 18.2796 5.66433 18.4893 5.661C18.6988 5.65783 18.8761 5.72867 19.0211 5.8735C19.1659 6.0185 19.2383 6.19417 19.2383 6.4005C19.2383 6.60683 19.1659 6.7825 19.0211 6.9275L13.9478 12.0005L19.0211 17.0735C19.1594 17.212 19.2302 17.3861 19.2336 17.5958C19.2367 17.8053 19.1659 17.9825 19.0211 18.1275C18.8761 18.2723 18.7004 18.3448 18.4941 18.3448C18.2877 18.3448 18.1121 18.2723 17.9671 18.1275L12.8941 13.0543Z" fill="#1C1B1F"/>
</svg>
