<svg width="145" height="144" viewBox="0 0 145 144" fill="none" xmlns="http://www.w3.org/2000/svg">
<g id="mdi:coupon">
<path id="Vector" d="M24.5 24C21.3174 24 18.2652 25.2643 16.0147 27.5147C13.7643 29.7652 12.5 32.8174 12.5 36V60C15.6826 60 18.7348 61.2643 20.9853 63.5147C23.2357 65.7652 24.5 68.8174 24.5 72C24.5 75.1826 23.2357 78.2348 20.9853 80.4853C18.7348 82.7357 15.6826 84 12.5 84V108C12.5 111.183 13.7643 114.235 16.0147 116.485C18.2652 118.736 21.3174 120 24.5 120H120.5C123.683 120 126.735 118.736 128.985 116.485C131.236 114.235 132.5 111.183 132.5 108V84C129.317 84 126.265 82.7357 124.015 80.4853C121.764 78.2348 120.5 75.1826 120.5 72C120.5 68.8174 121.764 65.7652 124.015 63.5147C126.265 61.2643 129.317 60 132.5 60V36C132.5 32.8174 131.236 29.7652 128.985 27.5147C126.735 25.2643 123.683 24 120.5 24H24.5ZM93.5 42L102.5 51L51.5 102L42.5 93L93.5 42ZM53.36 42.24C59.24 42.24 63.98 46.98 63.98 52.86C63.98 55.6766 62.8611 58.3778 60.8695 60.3695C58.8778 62.3611 56.1766 63.48 53.36 63.48C47.48 63.48 42.74 58.74 42.74 52.86C42.74 50.0434 43.8589 47.3422 45.8505 45.3505C47.8422 43.3589 50.5434 42.24 53.36 42.24ZM91.64 80.52C97.52 80.52 102.26 85.26 102.26 91.14C102.26 93.9566 101.141 96.6578 99.1495 98.6495C97.1578 100.641 94.4566 101.76 91.64 101.76C85.76 101.76 81.02 97.02 81.02 91.14C81.02 88.3234 82.1389 85.6222 84.1305 83.6305C86.1222 81.6389 88.8234 80.52 91.64 80.52Z" fill="#F7F8F9"/>
</g>
</svg>
