<svg width="201" height="200" viewBox="0 0 201 200" fill="none" xmlns="http://www.w3.org/2000/svg">
<rect x="0.5" width="200" height="200" rx="100" fill="#F7F8F9"/>
<path d="M100.5 52C106.865 52 112.97 54.5286 117.471 59.0294C121.971 63.5303 124.5 69.6348 124.5 76C124.5 82.3652 121.971 88.4697 117.471 92.9706C112.97 97.4714 106.865 100 100.5 100C94.1348 100 88.0303 97.4714 83.5294 92.9706C79.0286 88.4697 76.5 82.3652 76.5 76C76.5 69.6348 79.0286 63.5303 83.5294 59.0294C88.0303 54.5286 94.1348 52 100.5 52ZM100.5 112C127.02 112 148.5 122.74 148.5 136V148H52.5V136C52.5 122.74 73.98 112 100.5 112Z" fill="#B3B3B3"/>
</svg>
