<svg width="375" height="106" viewBox="0 0 375 106" fill="none" xmlns="http://www.w3.org/2000/svg">
<mask id="mask0_8797_35784" style="mask-type:alpha" maskUnits="userSpaceOnUse" x="167" y="24" width="41" height="40">
<rect x="167.5" y="24" width="40" height="40" fill="#D9D9D9"/>
</mask>
<g mask="url(#mask0_8797_35784)">
<path d="M188.467 43.8767V37.922C188.467 37.6013 188.358 37.3325 188.141 37.1154C187.924 36.8987 187.655 36.7903 187.335 36.7903C187.014 36.7903 186.745 36.8987 186.528 37.1154C186.312 37.3325 186.203 37.6013 186.203 37.922V44.2248C186.203 44.4024 186.236 44.5744 186.302 44.7409C186.368 44.9074 186.471 45.0613 186.613 45.2026L191.781 50.3708C191.989 50.5798 192.252 50.6867 192.568 50.6914C192.885 50.6962 193.152 50.5893 193.371 50.3708C193.589 50.1522 193.699 49.8872 193.699 49.5756C193.699 49.2642 193.589 48.9993 193.371 48.7807L188.467 43.8767ZM187.338 58.67C185.355 58.67 183.491 58.2938 181.747 57.5413C180.002 56.7888 178.485 55.7677 177.194 54.4778C175.904 53.1879 174.882 51.671 174.129 49.9272C173.376 48.1833 173 46.3201 173 44.3376C173 42.3549 173.376 40.4912 174.129 38.7466C174.881 37.002 175.902 35.4845 177.192 34.1941C178.482 32.9037 179.999 31.882 181.743 31.1291C183.487 30.3764 185.35 30 187.332 30C189.315 30 191.179 30.3762 192.923 31.1287C194.668 31.8812 196.185 32.9023 197.476 34.1922C198.766 35.4821 199.788 36.999 200.541 38.7428C201.294 40.4867 201.67 42.3499 201.67 44.3324C201.67 46.3151 201.294 48.1788 200.541 49.9234C199.789 51.668 198.768 53.1855 197.478 54.4759C196.188 55.7663 194.671 56.788 192.927 57.5409C191.183 58.2936 189.32 58.67 187.338 58.67ZM187.335 56.4066C190.68 56.4066 193.528 55.2309 195.879 52.8794C198.231 50.528 199.407 47.6798 199.407 44.335C199.407 40.9902 198.231 38.142 195.879 35.7906C193.528 33.4391 190.68 32.2634 187.335 32.2634C183.99 32.2634 181.142 33.4391 178.791 35.7906C176.439 38.142 175.263 40.9902 175.263 44.335C175.263 47.6798 176.439 50.528 178.791 52.8794C181.142 55.2309 183.99 56.4066 187.335 56.4066Z" fill="#CCCCCC"/>
</g>
<path d="M136.583 72.8574V80.623H135.134V77.2598H133.931V80.2129H132.509V73.1035H133.931V76.0293H135.134V72.8574H136.583ZM125.946 75.3867V74.1973H128.284V72.9668H129.788V74.1973H132.099V75.3867H125.946ZM126.384 78.0254C126.37 76.7402 127.491 75.8857 129.036 75.8926C130.609 75.8857 131.716 76.7402 131.73 78.0254C131.716 79.3105 130.609 80.1582 129.036 80.1582C127.491 80.1582 126.37 79.3105 126.384 78.0254ZM127.738 78.0254C127.738 78.6611 128.264 79.0645 129.036 79.0645C129.816 79.0645 130.349 78.6611 130.349 78.0254C130.349 77.3896 129.816 76.9863 129.036 76.9863C128.264 76.9863 127.738 77.3896 127.738 78.0254ZM128.175 83.002C128.168 81.5801 129.768 80.7803 132.413 80.7734C135.052 80.7803 136.645 81.5801 136.652 83.002C136.645 84.3965 135.052 85.2031 132.413 85.2031C129.768 85.2031 128.168 84.3965 128.175 83.002ZM129.693 83.002C129.686 83.6787 130.65 84.0479 132.413 84.041C134.17 84.0479 135.113 83.6787 135.12 83.002C135.113 82.2842 134.17 81.9219 132.413 81.9355C130.65 81.9219 129.686 82.2842 129.693 83.002ZM142.18 75.8242C142.167 78.0322 143.274 80.2607 145.188 81.1836L144.259 82.4004C142.919 81.7236 141.955 80.418 141.429 78.8457C140.888 80.5273 139.877 81.9219 138.462 82.6328L137.532 81.416C139.521 80.4727 140.656 78.1074 140.663 75.8242V73.8555H142.18V75.8242ZM145.927 85.2168V72.8574H147.444V77.6973H149.345V78.9961H147.444V85.2168H145.927ZM160.793 78.4629V79.6113H149.5V78.4629H160.793ZM150.813 81.416V80.3496H159.426V83.166H152.344V84.0273H159.795V85.0801H150.827V82.1816H157.922V81.416H150.813ZM150.895 74.1836V73.1309H159.399V75.9199H152.44V76.7266H159.618V77.7656H150.936V74.9355H157.881V74.1836H150.895ZM174.49 73.418V74.6348H170.908C171.045 75.8037 172.555 76.9111 174.941 77.1914L174.367 78.3945C172.152 78.1279 170.518 77.1504 169.855 75.8174C169.192 77.1436 167.572 78.1279 165.357 78.3945L164.796 77.1914C167.182 76.9111 168.672 75.7969 168.816 74.6348H165.261V73.418H174.49ZM164.222 80.3086V79.0781H175.515V80.3086H170.744V82.5645H169.24V80.3086H164.222ZM165.589 84.9707V81.4297H167.107V83.7402H174.271V84.9707H165.589ZM186.267 72.8574V85.2305H184.736V72.8574H186.267ZM176.642 82.3184V73.8691H178.159V76.959H181.154V73.8691H182.657V82.3184H176.642ZM178.159 81.0742H181.154V78.1484H178.159V81.0742ZM197.415 72.8574V77.7793H199.315V79.0371H197.415V85.2168H195.911V72.8574H197.415ZM187.667 75.9746V74.7578H190.593V73.0352H192.11V74.7578H194.954V75.9746H187.667ZM188.241 79.6934C188.227 77.9844 189.554 76.7744 191.358 76.7812C193.136 76.7744 194.455 77.9844 194.462 79.6934C194.455 81.3955 193.136 82.5918 191.358 82.5918C189.554 82.5918 188.227 81.3955 188.241 79.6934ZM189.69 79.6934C189.683 80.6982 190.388 81.3408 191.358 81.334C192.308 81.3408 192.999 80.6982 193.013 79.6934C192.999 78.6885 192.308 78.0254 191.358 78.0254C190.388 78.0254 189.683 78.6885 189.69 79.6934ZM209.575 73.9922V75.1816C209.561 76.7197 209.561 78.4355 209.082 81.0195L207.551 80.8555C208.037 78.4492 208.037 76.6924 208.043 75.209H200.661V73.9922H209.575ZM199.485 83.6172V82.373H203.641V78.0801H205.145V82.373H210.75V83.6172H199.485ZM218.595 80.8965C218.595 81.9287 219.067 83.002 220.127 83.6855C221.207 82.9541 221.706 81.833 221.712 80.8965V80.3906H223.203V80.8965C223.196 82.1885 223.962 83.4053 225.582 83.918L224.843 85.0254C223.64 84.6221 222.847 83.8359 222.417 82.8447C222.013 83.8223 221.289 84.6836 220.168 85.1348C218.992 84.7041 218.254 83.8701 217.864 82.8926C217.42 83.8428 216.633 84.6152 215.492 85.0254L214.74 83.918C216.339 83.3574 217.112 82.0996 217.119 80.8965V80.3906H218.595V80.8965ZM214.425 76.4668C214.425 74.7305 215.847 73.5273 217.761 73.5273C219.669 73.5273 221.09 74.7305 221.084 76.4668C221.09 78.1826 219.669 79.3994 217.761 79.3926C215.847 79.3994 214.425 78.1826 214.425 76.4668ZM215.916 76.4668C215.909 77.4785 216.681 78.1279 217.761 78.1348C218.821 78.1279 219.593 77.4785 219.593 76.4668C219.593 75.4551 218.821 74.8057 217.761 74.8125C216.681 74.8057 215.909 75.4551 215.916 76.4668ZM222.97 79.8711V72.8711H224.502V79.8711H222.97ZM229.333 73.7598C231.001 73.7598 232.238 75.1543 232.457 77.4102H234.816V72.8574H236.32V85.2305H234.816V78.6406H232.471C232.307 81.0264 231.049 82.4961 229.333 82.4961C227.474 82.4961 226.154 80.8076 226.161 78.1211C226.154 75.4551 227.474 73.7598 229.333 73.7598ZM227.624 78.1211C227.617 80.0215 228.315 81.1221 229.333 81.1289C230.359 81.1221 231.049 80.0215 231.056 78.1211C231.049 76.2344 230.359 75.127 229.333 75.127C228.315 75.127 227.617 76.2344 227.624 78.1211ZM248.999 82.4688V83.7129H237.706V82.4688H240.317V79.3447C239.333 78.7773 238.738 77.8887 238.745 76.7949C238.738 74.8262 240.666 73.5273 243.325 73.5273C245.998 73.5273 247.939 74.8262 247.932 76.7949C247.939 77.875 247.358 78.7432 246.401 79.3105V82.4688H248.999ZM240.235 76.7949C240.228 78.0596 241.479 78.8662 243.325 78.8594C245.164 78.8662 246.442 78.0596 246.442 76.7949C246.442 75.5098 245.164 74.7236 243.325 74.7305C241.479 74.7236 240.228 75.5098 240.235 76.7949ZM241.821 82.4688H244.856V79.8916C244.385 79.9941 243.872 80.0488 243.325 80.0488C242.792 80.0488 242.286 79.9941 241.821 79.8984V82.4688Z" fill="#999999"/>
</svg>
