<svg width="343" height="106" viewBox="0 0 343 106" fill="none" xmlns="http://www.w3.org/2000/svg">
<path d="M175.389 47.8964L183.166 55.6742M168.907 50.489C163.896 50.489 159.833 46.4264 159.833 41.4149C159.833 36.4034 163.896 32.3408 168.907 32.3408C173.919 32.3408 177.981 36.4034 177.981 41.4149C177.981 46.4264 173.919 50.489 168.907 50.489Z" stroke="#CCCCCC" stroke-width="2.5" stroke-linecap="round" stroke-linejoin="round"/>
<path d="M118.851 72.8652V80.6309H117.402V77.2676H116.199V80.2207H114.777V73.1113H116.199V76.0371H117.402V72.8652H118.851ZM108.214 75.3945V74.2051H110.552V72.9746H112.056V74.2051H114.367V75.3945H108.214ZM108.652 78.0332C108.638 76.748 109.759 75.8936 111.304 75.9004C112.876 75.8936 113.984 76.748 113.997 78.0332C113.984 79.3184 112.876 80.166 111.304 80.166C109.759 80.166 108.638 79.3184 108.652 78.0332ZM110.005 78.0332C110.005 78.6689 110.532 79.0723 111.304 79.0723C112.083 79.0723 112.617 78.6689 112.617 78.0332C112.617 77.3975 112.083 76.9941 111.304 76.9941C110.532 76.9941 110.005 77.3975 110.005 78.0332ZM110.443 83.0098C110.436 81.5879 112.036 80.7881 114.681 80.7812C117.32 80.7881 118.912 81.5879 118.919 83.0098C118.912 84.4043 117.32 85.2109 114.681 85.2109C112.036 85.2109 110.436 84.4043 110.443 83.0098ZM111.96 83.0098C111.954 83.6865 112.917 84.0557 114.681 84.0488C116.438 84.0557 117.381 83.6865 117.388 83.0098C117.381 82.292 116.438 81.9297 114.681 81.9434C112.917 81.9297 111.954 82.292 111.96 83.0098ZM124.448 75.832C124.435 78.04 125.542 80.2686 127.456 81.1914L126.526 82.4082C125.187 81.7314 124.223 80.4258 123.696 78.8535C123.156 80.5352 122.145 81.9297 120.729 82.6406L119.8 81.4238C121.789 80.4805 122.924 78.1152 122.931 75.832V73.8633H124.448V75.832ZM128.194 85.2246V72.8652H129.712V77.7051H131.612V79.0039H129.712V85.2246H128.194ZM143.061 78.4707V79.6191H131.768V78.4707H143.061ZM133.081 81.4238V80.3574H141.694V83.1738H134.612V84.0352H142.063V85.0879H133.094V82.1895H140.19V81.4238H133.081ZM133.163 74.1914V73.1387H141.667V75.9277H134.708V76.7344H141.885V77.7734H133.204V74.9434H140.149V74.1914H133.163ZM156.758 73.4258V74.6426H153.176C153.312 75.8115 154.823 76.9189 157.209 77.1992L156.635 78.4023C154.42 78.1357 152.786 77.1582 152.123 75.8252C151.46 77.1514 149.84 78.1357 147.625 78.4023L147.064 77.1992C149.45 76.9189 150.94 75.8047 151.084 74.6426H147.529V73.4258H156.758ZM146.49 80.3164V79.0859H157.783V80.3164H153.012V82.5723H151.508V80.3164H146.49ZM147.857 84.9785V81.4375H149.375V83.748H156.539V84.9785H147.857ZM168.535 72.8652V85.2383H167.003V72.8652H168.535ZM158.91 82.3262V73.877H160.427V76.9668H163.421V73.877H164.925V82.3262H158.91ZM160.427 81.082H163.421V78.1562H160.427V81.082ZM179.683 72.8652V77.7871H181.583V79.0449H179.683V85.2246H178.179V72.8652H179.683ZM169.935 75.9824V74.7656H172.86V73.043H174.378V74.7656H177.222V75.9824H169.935ZM170.509 79.7012C170.495 77.9922 171.821 76.7822 173.626 76.7891C175.403 76.7822 176.723 77.9922 176.729 79.7012C176.723 81.4033 175.403 82.5996 173.626 82.5996C171.821 82.5996 170.495 81.4033 170.509 79.7012ZM171.958 79.7012C171.951 80.7061 172.655 81.3486 173.626 81.3418C174.576 81.3486 175.267 80.7061 175.28 79.7012C175.267 78.6963 174.576 78.0332 173.626 78.0332C172.655 78.0332 171.951 78.6963 171.958 79.7012ZM191.842 74V75.1895C191.829 76.7275 191.829 78.4434 191.35 81.0273L189.819 80.8633C190.304 78.457 190.304 76.7002 190.311 75.2168H182.928V74H191.842ZM181.753 83.625V82.3809H185.909V78.0879H187.413V82.3809H193.018V83.625H181.753ZM200.863 80.9043C200.863 81.9365 201.335 83.0098 202.394 83.6934C203.474 82.9619 203.973 81.8408 203.98 80.9043V80.3984H205.471V80.9043C205.464 82.1963 206.229 83.4131 207.849 83.9258L207.111 85.0332C205.908 84.6299 205.115 83.8438 204.684 82.8525C204.281 83.8301 203.556 84.6914 202.435 85.1426C201.26 84.7119 200.521 83.8779 200.132 82.9004C199.687 83.8506 198.901 84.623 197.76 85.0332L197.008 83.9258C198.607 83.3652 199.38 82.1074 199.387 80.9043V80.3984H200.863V80.9043ZM196.693 76.4746C196.693 74.7383 198.115 73.5352 200.029 73.5352C201.936 73.5352 203.358 74.7383 203.351 76.4746C203.358 78.1904 201.936 79.4072 200.029 79.4004C198.115 79.4072 196.693 78.1904 196.693 76.4746ZM198.183 76.4746C198.177 77.4863 198.949 78.1357 200.029 78.1426C201.089 78.1357 201.861 77.4863 201.861 76.4746C201.861 75.4629 201.089 74.8135 200.029 74.8203C198.949 74.8135 198.177 75.4629 198.183 76.4746ZM205.238 79.8789V72.8789H206.769V79.8789H205.238ZM211.601 73.7676C213.269 73.7676 214.506 75.1621 214.725 77.418H217.083V72.8652H218.587V85.2383H217.083V78.6484H214.739C214.575 81.0342 213.317 82.5039 211.601 82.5039C209.742 82.5039 208.422 80.8154 208.429 78.1289C208.422 75.4629 209.742 73.7676 211.601 73.7676ZM209.892 78.1289C209.885 80.0293 210.582 81.1299 211.601 81.1367C212.626 81.1299 213.317 80.0293 213.324 78.1289C213.317 76.2422 212.626 75.1348 211.601 75.1348C210.582 75.1348 209.885 76.2422 209.892 78.1289ZM231.267 82.4766V83.7207H219.974V82.4766H222.585V79.3525C221.601 78.7852 221.006 77.8965 221.013 76.8027C221.006 74.834 222.934 73.5352 225.593 73.5352C228.266 73.5352 230.207 74.834 230.2 76.8027C230.207 77.8828 229.626 78.751 228.669 79.3184V82.4766H231.267ZM222.503 76.8027C222.496 78.0674 223.747 78.874 225.593 78.8672C227.432 78.874 228.71 78.0674 228.71 76.8027C228.71 75.5176 227.432 74.7314 225.593 74.7383C223.747 74.7314 222.496 75.5176 222.503 76.8027ZM224.089 82.4766H227.124V79.8994C226.652 80.002 226.14 80.0566 225.593 80.0566C225.06 80.0566 224.554 80.002 224.089 79.9062V82.4766ZM233.227 84.1172C232.639 84.1172 232.154 83.6387 232.161 83.0508C232.154 82.4766 232.639 82.0049 233.227 81.998C233.795 82.0049 234.28 82.4766 234.28 83.0508C234.28 83.6387 233.795 84.1172 233.227 84.1172Z" fill="#999999"/>
</svg>
