<svg width="343" height="106" viewBox="0 0 343 106" fill="none" xmlns="http://www.w3.org/2000/svg">
<mask id="mask0_8827_13468" style="mask-type:alpha" maskUnits="userSpaceOnUse" x="151" y="24" width="41" height="40">
<rect x="151.5" y="24" width="40" height="40" fill="#D9D9D9"/>
</mask>
<g mask="url(#mask0_8827_13468)">
<path d="M172.467 43.8767V37.922C172.467 37.6013 172.358 37.3325 172.141 37.1154C171.924 36.8987 171.655 36.7903 171.335 36.7903C171.014 36.7903 170.745 36.8987 170.528 37.1154C170.312 37.3325 170.203 37.6013 170.203 37.922V44.2248C170.203 44.4024 170.236 44.5744 170.302 44.7409C170.368 44.9074 170.471 45.0613 170.613 45.2026L175.781 50.3708C175.989 50.5798 176.252 50.6867 176.568 50.6914C176.885 50.6962 177.152 50.5893 177.371 50.3708C177.589 50.1522 177.699 49.8872 177.699 49.5756C177.699 49.2642 177.589 48.9993 177.371 48.7807L172.467 43.8767ZM171.338 58.67C169.355 58.67 167.491 58.2938 165.747 57.5413C164.002 56.7888 162.485 55.7677 161.194 54.4778C159.904 53.1879 158.882 51.671 158.129 49.9272C157.376 48.1833 157 46.3201 157 44.3376C157 42.3549 157.376 40.4912 158.129 38.7466C158.881 37.002 159.902 35.4845 161.192 34.1941C162.482 32.9037 163.999 31.882 165.743 31.1291C167.487 30.3764 169.35 30 171.332 30C173.315 30 175.179 30.3762 176.923 31.1287C178.668 31.8812 180.185 32.9023 181.476 34.1922C182.766 35.4821 183.788 36.999 184.541 38.7428C185.294 40.4867 185.67 42.3499 185.67 44.3324C185.67 46.3151 185.294 48.1788 184.541 49.9234C183.789 51.668 182.768 53.1855 181.478 54.4759C180.188 55.7663 178.671 56.788 176.927 57.5409C175.183 58.2936 173.32 58.67 171.338 58.67ZM171.335 56.4066C174.68 56.4066 177.528 55.2309 179.879 52.8794C182.231 50.528 183.407 47.6798 183.407 44.335C183.407 40.9902 182.231 38.142 179.879 35.7906C177.528 33.4391 174.68 32.2634 171.335 32.2634C167.99 32.2634 165.142 33.4391 162.791 35.7906C160.439 38.142 159.263 40.9902 159.263 44.335C159.263 47.6798 160.439 50.528 162.791 52.8794C165.142 55.2309 167.99 56.4066 171.335 56.4066Z" fill="#CCCCCC"/>
</g>
<path d="M68.6383 74.1562V75.3457H66.0816C66.109 76.4189 67.0865 77.3691 68.9117 77.7246L68.3102 78.9004C66.8951 78.6064 65.8971 77.9434 65.3502 77.0547C64.8102 78.0254 63.7848 78.7568 62.3355 79.0645L61.693 77.8887C63.5455 77.5195 64.5299 76.4805 64.5504 75.3457H62.0074V74.1562H64.5641V72.8848H66.0816V74.1562H68.6383ZM61.2281 79.707C63.5318 79.7139 66.6012 79.6934 69.2398 79.3652L69.3492 80.459C68.2828 80.6436 67.1754 80.7598 66.0953 80.835V84.834H64.5641V80.917C63.4361 80.958 62.3629 80.9648 61.4195 80.9648L61.2281 79.707ZM70.0465 85.2031V72.8711H71.5504V85.2031H70.0465ZM84.3938 74.7852V76.0293H82.7121V77.4375H84.3938V78.6816H82.7121V80.7461H81.1945V72.8574H82.7121V74.7852H84.3938ZM72.9777 75.3047V74.1152H75.8898V72.7754H77.4074V74.1152H80.3059V75.3047H72.9777ZM73.6066 78.0117C73.6066 76.6855 74.8371 75.8037 76.6418 75.7969C78.426 75.8037 79.6564 76.6855 79.6633 78.0117C79.6564 79.3379 78.426 80.2129 76.6418 80.2129C74.8371 80.2129 73.6066 79.3379 73.6066 78.0117ZM74.591 83.0293C74.5773 81.6553 76.1564 80.8486 78.7199 80.8555C81.2561 80.8486 82.8488 81.6553 82.8488 83.0293C82.8488 84.3896 81.2561 85.2031 78.7199 85.2031C76.1564 85.2031 74.5773 84.3896 74.591 83.0293ZM75.0832 78.0117C75.0764 78.6816 75.7053 79.0713 76.6418 79.0645C77.5783 79.0713 78.2141 78.6816 78.2141 78.0117C78.2141 77.3281 77.5783 76.918 76.6418 76.918C75.7053 76.918 75.0764 77.3281 75.0832 78.0117ZM76.0949 83.0293C76.0881 83.6855 77.0314 84.0547 78.7199 84.0547C80.3879 84.0547 81.3244 83.6855 81.3313 83.0293C81.3244 82.3525 80.3879 82.0176 78.7199 82.0176C77.0314 82.0176 76.0881 82.3525 76.0949 83.0293ZM95.3777 72.8574V85.2168H93.9148V72.8574H95.3777ZM84.8367 78.2031C84.8367 75.4824 85.8895 73.7939 87.5027 73.8008C88.9998 73.7939 90.0184 75.1953 90.1961 77.5059H91.3855V73.0762H92.8348V84.6152H91.3855V78.7363H90.2098C90.0662 81.1494 89.034 82.626 87.5027 82.6191C85.8895 82.626 84.8367 80.9307 84.8367 78.2031ZM86.2449 78.2031C86.2381 80.1377 86.7166 81.1768 87.5027 81.1699C88.323 81.1768 88.8084 80.1377 88.8152 78.2031C88.8084 76.2754 88.323 75.2295 87.5027 75.2363C86.7166 75.2295 86.2381 76.2754 86.2449 78.2031ZM109.443 72.8574V76.0293H110.906V77.3008H109.443V80.2402H107.912V72.8574H109.443ZM99.791 79.4883V73.8418H102.963V75.0586H101.24V78.2236C101.835 78.2031 102.437 78.1416 103.1 77.998L103.236 79.2559C102.177 79.4678 101.322 79.4814 100.393 79.4883H99.791ZM100.994 81.9766V80.7598H109.443V85.2305H107.912V81.9766H100.994ZM103.619 79.4883V73.8418H106.914V75.0586H105.082V78.2305C105.957 78.21 106.545 78.1484 107.242 77.9844L107.393 79.2422C106.429 79.4541 105.697 79.4814 104.275 79.4883H103.619ZM120.433 73.6777V79.0508H114.581V73.6777H120.433ZM115.306 84C117.493 83.7061 118.861 82.7422 119.107 81.6621H115.812V80.459H124.083V81.6621H120.802C121.048 82.7148 122.443 83.7129 124.603 84.0137L124.056 85.1758C122.121 84.9023 120.658 84.0752 119.947 82.9609C119.237 84.0752 117.787 84.8887 115.866 85.1484L115.306 84ZM116.071 77.834H118.943V74.8945H116.071V77.834ZM122.388 79.8301V72.8574H123.905V75.6328H125.628V76.8906H123.905V79.8301H122.388ZM135.915 76.3574V77.5605H127.356V73.3086H128.86V76.3574H135.915ZM125.893 80.1992V78.9961H137.186V80.1992H125.893ZM127.247 84.9297V81.293H128.764V83.6992H135.997V84.9297H127.247ZM151.895 80.2812V81.5254H147V85.2305H145.496V81.5254H140.629V80.2812H151.895ZM141.244 78.3262C143.712 78.0254 145.332 76.7607 145.482 75.5234H141.668V74.3203H145.496V72.8711H147V74.3203H150.842V75.5234H147.027C147.171 76.7471 148.784 78.0254 151.252 78.3262L150.691 79.5293C148.647 79.2695 147.062 78.374 146.262 77.1846C145.455 78.3877 143.849 79.2695 141.791 79.5293L141.244 78.3262ZM156.822 75.7832C156.815 77.2529 157.847 78.6816 159.802 79.2832L159.064 80.4727C157.663 80.0557 156.644 79.1602 156.084 78.0254C155.537 79.249 154.518 80.2129 153.076 80.6777L152.337 79.4883C154.286 78.8799 155.304 77.3691 155.304 75.7832V75.5918H152.72V74.3887H155.304V72.9395H156.836V74.3887H159.406V75.5918H156.822V75.7832ZM154.621 84.9707V81.252H156.138V83.7402H163.043V84.9707H154.621ZM158.996 77.7656V76.5488H161.211V72.8711H162.728V82.0449H161.211V77.7656H158.996ZM177.669 72.8574V80.623H176.22V77.2598H175.016V80.2129H173.595V73.1035H175.016V76.0293H176.22V72.8574H177.669ZM167.032 75.3867V74.1973H169.37V72.9668H170.874V74.1973H173.184V75.3867H167.032ZM167.47 78.0254C167.456 76.7402 168.577 75.8857 170.122 75.8926C171.694 75.8857 172.802 76.7402 172.815 78.0254C172.802 79.3105 171.694 80.1582 170.122 80.1582C168.577 80.1582 167.456 79.3105 167.47 78.0254ZM168.823 78.0254C168.823 78.6611 169.349 79.0645 170.122 79.0645C170.901 79.0645 171.434 78.6611 171.434 78.0254C171.434 77.3896 170.901 76.9863 170.122 76.9863C169.349 76.9863 168.823 77.3896 168.823 78.0254ZM169.261 83.002C169.254 81.5801 170.853 80.7803 173.499 80.7734C176.138 80.7803 177.73 81.5801 177.737 83.002C177.73 84.3965 176.138 85.2031 173.499 85.2031C170.853 85.2031 169.254 84.3965 169.261 83.002ZM170.778 83.002C170.771 83.6787 171.735 84.0479 173.499 84.041C175.256 84.0479 176.199 83.6787 176.206 83.002C176.199 82.2842 175.256 81.9219 173.499 81.9355C171.735 81.9219 170.771 82.2842 170.778 83.002ZM183.266 75.8242C183.252 78.0322 184.36 80.2607 186.274 81.1836L185.344 82.4004C184.004 81.7236 183.04 80.418 182.514 78.8457C181.974 80.5273 180.962 81.9219 179.547 82.6328L178.618 81.416C180.607 80.4727 181.742 78.1074 181.748 75.8242V73.8555H183.266V75.8242ZM187.012 85.2168V72.8574H188.53V77.6973H190.43V78.9961H188.53V85.2168H187.012ZM201.879 78.4629V79.6113H190.586V78.4629H201.879ZM191.898 81.416V80.3496H200.512V83.166H193.43V84.0273H200.881V85.0801H191.912V82.1816H199.008V81.416H191.898ZM191.98 74.1836V73.1309H200.484V75.9199H193.525V76.7266H200.703V77.7656H192.021V74.9355H198.967V74.1836H191.98ZM215.411 73.9922V75.1816C215.398 76.7197 215.398 78.4355 214.919 81.0195L213.388 80.8555C213.873 78.4492 213.873 76.6924 213.88 75.209H206.497V73.9922H215.411ZM205.321 83.6172V82.373H209.478V78.0801H210.982V82.373H216.587V83.6172H205.321ZM228.364 82.5098V83.7539H217.071V82.5098H228.364ZM218.384 74.9629V73.7324H227.024V77.7109H219.929V79.3242H227.311V80.5273H218.411V76.4941H225.52V74.9629H218.384ZM238.911 73.9922V75.1816C238.897 76.7197 238.897 78.4355 238.418 81.0195L236.887 80.8555C237.372 78.4492 237.372 76.6924 237.379 75.209H229.996V73.9922H238.911ZM228.821 83.6172V82.373H232.977V78.0801H234.481V82.373H240.086V83.6172H228.821ZM247.931 80.8965C247.931 81.9287 248.403 83.002 249.462 83.6855C250.543 82.9541 251.042 81.833 251.048 80.8965V80.3906H252.539V80.8965C252.532 82.1885 253.297 83.4053 254.918 83.918L254.179 85.0254C252.976 84.6221 252.183 83.8359 251.753 82.8447C251.349 83.8223 250.625 84.6836 249.504 85.1348C248.328 84.7041 247.589 83.8701 247.2 82.8926C246.755 83.8428 245.969 84.6152 244.828 85.0254L244.076 83.918C245.675 83.3574 246.448 82.0996 246.455 80.8965V80.3906H247.931V80.8965ZM243.761 76.4668C243.761 74.7305 245.183 73.5273 247.097 73.5273C249.004 73.5273 250.426 74.7305 250.42 76.4668C250.426 78.1826 249.004 79.3994 247.097 79.3926C245.183 79.3994 243.761 78.1826 243.761 76.4668ZM245.252 76.4668C245.245 77.4785 246.017 78.1279 247.097 78.1348C248.157 78.1279 248.929 77.4785 248.929 76.4668C248.929 75.4551 248.157 74.8057 247.097 74.8125C246.017 74.8057 245.245 75.4551 245.252 76.4668ZM252.306 79.8711V72.8711H253.837V79.8711H252.306ZM258.669 73.7598C260.337 73.7598 261.574 75.1543 261.793 77.4102H264.152V72.8574H265.655V85.2305H264.152V78.6406H261.807C261.643 81.0264 260.385 82.4961 258.669 82.4961C256.81 82.4961 255.49 80.8076 255.497 78.1211C255.49 75.4551 256.81 73.7598 258.669 73.7598ZM256.96 78.1211C256.953 80.0215 257.651 81.1221 258.669 81.1289C259.695 81.1221 260.385 80.0215 260.392 78.1211C260.385 76.2344 259.695 75.127 258.669 75.127C257.651 75.127 256.953 76.2344 256.96 78.1211ZM278.335 82.4688V83.7129H267.042V82.4688H269.653V79.3447C268.669 78.7773 268.074 77.8887 268.081 76.7949C268.074 74.8262 270.002 73.5273 272.661 73.5273C275.334 73.5273 277.275 74.8262 277.268 76.7949C277.275 77.875 276.694 78.7432 275.737 79.3105V82.4688H278.335ZM269.571 76.7949C269.564 78.0596 270.815 78.8662 272.661 78.8594C274.5 78.8662 275.778 78.0596 275.778 76.7949C275.778 75.5098 274.5 74.7236 272.661 74.7305C270.815 74.7236 269.564 75.5098 269.571 76.7949ZM271.157 82.4688H274.192V79.8916C273.721 79.9941 273.208 80.0488 272.661 80.0488C272.128 80.0488 271.622 79.9941 271.157 79.8984V82.4688ZM280.295 84.1094C279.707 84.1094 279.222 83.6309 279.229 83.043C279.222 82.4688 279.707 81.9971 280.295 81.9902C280.863 81.9971 281.348 82.4688 281.348 83.043C281.348 83.6309 280.863 84.1094 280.295 84.1094Z" fill="#999999"/>
</svg>
