<svg width="375" height="106" viewBox="0 0 375 106" fill="none" xmlns="http://www.w3.org/2000/svg">
<mask id="mask0_8797_35784" style="mask-type:alpha" maskUnits="userSpaceOnUse" x="167" y="24" width="41" height="40">
<rect x="167.5" y="24" width="40" height="40" fill="#D9D9D9"/>
</mask>
<g mask="url(#mask0_8797_35784)">
<path d="M188.467 43.8767V37.922C188.467 37.6013 188.358 37.3325 188.141 37.1154C187.924 36.8987 187.655 36.7903 187.335 36.7903C187.014 36.7903 186.745 36.8987 186.528 37.1154C186.312 37.3325 186.203 37.6013 186.203 37.922V44.2248C186.203 44.4024 186.236 44.5744 186.302 44.7409C186.368 44.9074 186.471 45.0613 186.613 45.2026L191.781 50.3708C191.989 50.5798 192.252 50.6867 192.568 50.6914C192.885 50.6962 193.152 50.5893 193.371 50.3708C193.589 50.1522 193.699 49.8872 193.699 49.5756C193.699 49.2642 193.589 48.9993 193.371 48.7807L188.467 43.8767ZM187.338 58.67C185.355 58.67 183.491 58.2938 181.747 57.5413C180.002 56.7888 178.485 55.7677 177.194 54.4778C175.904 53.1879 174.882 51.671 174.129 49.9272C173.376 48.1833 173 46.3201 173 44.3376C173 42.3549 173.376 40.4912 174.129 38.7466C174.881 37.002 175.902 35.4845 177.192 34.1941C178.482 32.9037 179.999 31.882 181.743 31.1291C183.487 30.3764 185.35 30 187.332 30C189.315 30 191.179 30.3762 192.923 31.1287C194.668 31.8812 196.185 32.9023 197.476 34.1922C198.766 35.4821 199.788 36.999 200.541 38.7428C201.294 40.4867 201.67 42.3499 201.67 44.3324C201.67 46.3151 201.294 48.1788 200.541 49.9234C199.789 51.668 198.768 53.1855 197.478 54.4759C196.188 55.7663 194.671 56.788 192.927 57.5409C191.183 58.2936 189.32 58.67 187.338 58.67ZM187.335 56.4066C190.68 56.4066 193.528 55.2309 195.879 52.8794C198.231 50.528 199.407 47.6798 199.407 44.335C199.407 40.9902 198.231 38.142 195.879 35.7906C193.528 33.4391 190.68 32.2634 187.335 32.2634C183.99 32.2634 181.142 33.4391 178.791 35.7906C176.439 38.142 175.263 40.9902 175.263 44.335C175.263 47.6798 176.439 50.528 178.791 52.8794C181.142 55.2309 183.99 56.4066 187.335 56.4066Z" fill="#CCCCCC"/>
</g>
<path d="M134.851 72.8574V80.623H133.402V77.2598H132.199V80.2129H130.777V73.1035H132.199V76.0293H133.402V72.8574H134.851ZM124.214 75.3867V74.1973H126.552V72.9668H128.056V74.1973H130.367V75.3867H124.214ZM124.652 78.0254C124.638 76.7402 125.759 75.8857 127.304 75.8926C128.876 75.8857 129.984 76.7402 129.997 78.0254C129.984 79.3105 128.876 80.1582 127.304 80.1582C125.759 80.1582 124.638 79.3105 124.652 78.0254ZM126.005 78.0254C126.005 78.6611 126.532 79.0645 127.304 79.0645C128.083 79.0645 128.617 78.6611 128.617 78.0254C128.617 77.3896 128.083 76.9863 127.304 76.9863C126.532 76.9863 126.005 77.3896 126.005 78.0254ZM126.443 83.002C126.436 81.5801 128.036 80.7803 130.681 80.7734C133.32 80.7803 134.912 81.5801 134.919 83.002C134.912 84.3965 133.32 85.2031 130.681 85.2031C128.036 85.2031 126.436 84.3965 126.443 83.002ZM127.96 83.002C127.954 83.6787 128.917 84.0479 130.681 84.041C132.438 84.0479 133.381 83.6787 133.388 83.002C133.381 82.2842 132.438 81.9219 130.681 81.9355C128.917 81.9219 127.954 82.2842 127.96 83.002ZM140.448 75.8242C140.435 78.0322 141.542 80.2607 143.456 81.1836L142.526 82.4004C141.187 81.7236 140.223 80.418 139.696 78.8457C139.156 80.5273 138.145 81.9219 136.729 82.6328L135.8 81.416C137.789 80.4727 138.924 78.1074 138.931 75.8242V73.8555H140.448V75.8242ZM144.194 85.2168V72.8574H145.712V77.6973H147.612V78.9961H145.712V85.2168H144.194ZM159.061 78.4629V79.6113H147.768V78.4629H159.061ZM149.081 81.416V80.3496H157.694V83.166H150.612V84.0273H158.063V85.0801H149.094V82.1816H156.19V81.416H149.081ZM149.163 74.1836V73.1309H157.667V75.9199H150.708V76.7266H157.885V77.7656H149.204V74.9355H156.149V74.1836H149.163ZM172.758 73.418V74.6348H169.176C169.312 75.8037 170.823 76.9111 173.209 77.1914L172.635 78.3945C170.42 78.1279 168.786 77.1504 168.123 75.8174C167.46 77.1436 165.84 78.1279 163.625 78.3945L163.064 77.1914C165.45 76.9111 166.94 75.7969 167.084 74.6348H163.529V73.418H172.758ZM162.49 80.3086V79.0781H173.783V80.3086H169.012V82.5645H167.508V80.3086H162.49ZM163.857 84.9707V81.4297H165.375V83.7402H172.539V84.9707H163.857ZM184.535 72.8574V85.2305H183.003V72.8574H184.535ZM174.91 82.3184V73.8691H176.427V76.959H179.421V73.8691H180.925V82.3184H174.91ZM176.427 81.0742H179.421V78.1484H176.427V81.0742ZM195.683 72.8574V77.7793H197.583V79.0371H195.683V85.2168H194.179V72.8574H195.683ZM185.935 75.9746V74.7578H188.86V73.0352H190.378V74.7578H193.222V75.9746H185.935ZM186.509 79.6934C186.495 77.9844 187.821 76.7744 189.626 76.7812C191.403 76.7744 192.723 77.9844 192.729 79.6934C192.723 81.3955 191.403 82.5918 189.626 82.5918C187.821 82.5918 186.495 81.3955 186.509 79.6934ZM187.958 79.6934C187.951 80.6982 188.655 81.3408 189.626 81.334C190.576 81.3408 191.267 80.6982 191.28 79.6934C191.267 78.6885 190.576 78.0254 189.626 78.0254C188.655 78.0254 187.951 78.6885 187.958 79.6934ZM207.842 73.9922V75.1816C207.829 76.7197 207.829 78.4355 207.35 81.0195L205.819 80.8555C206.304 78.4492 206.304 76.6924 206.311 75.209H198.928V73.9922H207.842ZM197.753 83.6172V82.373H201.909V78.0801H203.413V82.373H209.018V83.6172H197.753ZM216.863 80.8965C216.863 81.9287 217.335 83.002 218.394 83.6855C219.474 82.9541 219.973 81.833 219.98 80.8965V80.3906H221.471V80.8965C221.464 82.1885 222.229 83.4053 223.849 83.918L223.111 85.0254C221.908 84.6221 221.115 83.8359 220.684 82.8447C220.281 83.8223 219.556 84.6836 218.435 85.1348C217.26 84.7041 216.521 83.8701 216.132 82.8926C215.687 83.8428 214.901 84.6152 213.76 85.0254L213.008 83.918C214.607 83.3574 215.38 82.0996 215.387 80.8965V80.3906H216.863V80.8965ZM212.693 76.4668C212.693 74.7305 214.115 73.5273 216.029 73.5273C217.936 73.5273 219.358 74.7305 219.351 76.4668C219.358 78.1826 217.936 79.3994 216.029 79.3926C214.115 79.3994 212.693 78.1826 212.693 76.4668ZM214.183 76.4668C214.177 77.4785 214.949 78.1279 216.029 78.1348C217.089 78.1279 217.861 77.4785 217.861 76.4668C217.861 75.4551 217.089 74.8057 216.029 74.8125C214.949 74.8057 214.177 75.4551 214.183 76.4668ZM221.238 79.8711V72.8711H222.769V79.8711H221.238ZM227.601 73.7598C229.269 73.7598 230.506 75.1543 230.725 77.4102H233.083V72.8574H234.587V85.2305H233.083V78.6406H230.739C230.575 81.0264 229.317 82.4961 227.601 82.4961C225.742 82.4961 224.422 80.8076 224.429 78.1211C224.422 75.4551 225.742 73.7598 227.601 73.7598ZM225.892 78.1211C225.885 80.0215 226.582 81.1221 227.601 81.1289C228.626 81.1221 229.317 80.0215 229.324 78.1211C229.317 76.2344 228.626 75.127 227.601 75.127C226.582 75.127 225.885 76.2344 225.892 78.1211ZM247.267 82.4688V83.7129H235.974V82.4688H238.585V79.3447C237.601 78.7773 237.006 77.8887 237.013 76.7949C237.006 74.8262 238.934 73.5273 241.593 73.5273C244.266 73.5273 246.207 74.8262 246.2 76.7949C246.207 77.875 245.626 78.7432 244.669 79.3105V82.4688H247.267ZM238.503 76.7949C238.496 78.0596 239.747 78.8662 241.593 78.8594C243.432 78.8662 244.71 78.0596 244.71 76.7949C244.71 75.5098 243.432 74.7236 241.593 74.7305C239.747 74.7236 238.496 75.5098 238.503 76.7949ZM240.089 82.4688H243.124V79.8916C242.652 79.9941 242.14 80.0488 241.593 80.0488C241.06 80.0488 240.554 79.9941 240.089 79.8984V82.4688ZM249.227 84.1094C248.639 84.1094 248.154 83.6309 248.161 83.043C248.154 82.4688 248.639 81.9971 249.227 81.9902C249.795 81.9971 250.28 82.4688 250.28 83.043C250.28 83.6309 249.795 84.1094 249.227 84.1094Z" fill="#999999"/>
</svg>
