<svg width="343" height="106" viewBox="0 0 343 106" fill="none" xmlns="http://www.w3.org/2000/svg">
<mask id="mask0_8827_13484" style="mask-type:alpha" maskUnits="userSpaceOnUse" x="151" y="24" width="41" height="40">
<rect x="151.5" y="24" width="40" height="40" fill="#D9D9D9"/>
</mask>
<g mask="url(#mask0_8827_13484)">
<path d="M171.325 55.6168C170.486 55.6168 169.776 55.327 169.196 54.7475C168.617 54.1681 168.327 53.4586 168.327 52.619C168.327 51.7797 168.617 51.0704 169.196 50.4909C169.776 49.9114 170.486 49.6217 171.325 49.6217C172.164 49.6217 172.874 49.9114 173.454 50.4909C174.033 51.0704 174.323 51.7797 174.323 52.619C174.323 53.4586 174.033 54.1681 173.454 54.7475C172.874 55.327 172.164 55.6168 171.325 55.6168ZM171.325 40.8567C173.124 40.8567 174.825 41.1536 176.428 41.7474C178.032 42.3413 179.481 43.1626 180.775 44.2115C181.146 44.4968 181.338 44.8664 181.35 45.3205C181.362 45.7745 181.203 46.167 180.872 46.4981C180.556 46.8141 180.167 46.9734 179.706 46.9761C179.244 46.9791 178.828 46.8455 178.457 46.5753C177.478 45.8273 176.382 45.2392 175.168 44.8109C173.953 44.3826 172.673 44.1684 171.325 44.1684C169.977 44.1684 168.697 44.3826 167.482 44.8109C166.268 45.2392 165.172 45.8273 164.193 46.5753C163.822 46.8455 163.406 46.9754 162.944 46.965C162.483 46.9544 162.094 46.7911 161.778 46.4751C161.462 46.144 161.306 45.7515 161.311 45.2974C161.316 44.8437 161.504 44.474 161.875 44.1885C163.169 43.1399 164.618 42.3223 166.222 41.7359C167.825 41.1498 169.526 40.8567 171.325 40.8567ZM171.325 31.9492C174.38 31.9492 177.241 32.4636 179.908 33.4924C182.576 34.5213 184.96 35.9635 187.062 37.8192C187.433 38.135 187.628 38.526 187.648 38.9924C187.668 39.4588 187.512 39.8576 187.181 40.1886C186.856 40.514 186.46 40.671 185.994 40.6596C185.528 40.6482 185.104 40.4874 184.723 40.1771C182.913 38.6223 180.868 37.4142 178.586 36.5529C176.305 35.6916 173.885 35.2609 171.325 35.2609C168.765 35.2609 166.345 35.6916 164.064 36.5529C161.782 37.4142 159.737 38.6223 157.927 40.1771C157.546 40.4874 157.122 40.6482 156.656 40.6596C156.19 40.671 155.794 40.514 155.469 40.1886C155.138 39.8576 154.982 39.4588 155.002 38.9924C155.022 38.526 155.217 38.135 155.588 37.8192C157.69 35.9635 160.074 34.5213 162.742 33.4924C165.409 32.4636 168.27 31.9492 171.325 31.9492Z" fill="#CCCCCC"/>
</g>
<path d="M59.9443 72.8574V80.623H58.4951V77.2598H57.292V80.2129H55.8701V73.1035H57.292V76.0293H58.4951V72.8574H59.9443ZM49.3076 75.3867V74.1973H51.6455V72.9668H53.1494V74.1973H55.46V75.3867H49.3076ZM49.7451 78.0254C49.7314 76.7402 50.8525 75.8857 52.3975 75.8926C53.9697 75.8857 55.0771 76.7402 55.0908 78.0254C55.0771 79.3105 53.9697 80.1582 52.3975 80.1582C50.8525 80.1582 49.7314 79.3105 49.7451 78.0254ZM51.0986 78.0254C51.0986 78.6611 51.625 79.0645 52.3975 79.0645C53.1768 79.0645 53.71 78.6611 53.71 78.0254C53.71 77.3896 53.1768 76.9863 52.3975 76.9863C51.625 76.9863 51.0986 77.3896 51.0986 78.0254ZM51.5361 83.002C51.5293 81.5801 53.1289 80.7803 55.7744 80.7734C58.4131 80.7803 60.0059 81.5801 60.0127 83.002C60.0059 84.3965 58.4131 85.2031 55.7744 85.2031C53.1289 85.2031 51.5293 84.3965 51.5361 83.002ZM53.0537 83.002C53.0469 83.6787 54.0107 84.0479 55.7744 84.041C57.5312 84.0479 58.4746 83.6787 58.4814 83.002C58.4746 82.2842 57.5312 81.9219 55.7744 81.9355C54.0107 81.9219 53.0469 82.2842 53.0537 83.002ZM65.5416 75.8242C65.5279 78.0322 66.6354 80.2607 68.5494 81.1836L67.6197 82.4004C66.2799 81.7236 65.316 80.418 64.7896 78.8457C64.2496 80.5273 63.2379 81.9219 61.8229 82.6328L60.8932 81.416C62.8824 80.4727 64.0172 78.1074 64.024 75.8242V73.8555H65.5416V75.8242ZM69.2877 85.2168V72.8574H70.8053V77.6973H72.7057V78.9961H70.8053V85.2168H69.2877ZM84.1545 78.4629V79.6113H72.8615V78.4629H84.1545ZM74.174 81.416V80.3496H82.7873V83.166H75.7053V84.0273H83.1564V85.0801H74.1877V82.1816H81.2834V81.416H74.174ZM74.2561 74.1836V73.1309H82.76V75.9199H75.801V76.7266H82.9787V77.7656H74.2971V74.9355H81.2424V74.1836H74.2561ZM90.5639 73.0488V74.0195H95.8959V73.0488H97.3998V77.1641H89.06V73.0488H90.5639ZM87.5971 79.1738V77.9297H98.8627V79.1738H93.9682V80.0898H97.4545V83.084H90.4271V83.9453H97.7963V85.1074H88.9369V82.0176H95.9643V81.2109H88.9232V80.0898H92.4506V79.1738H87.5971ZM90.5639 76.0293H95.8959V75.127H90.5639V76.0293ZM109.696 72.8574V85.2305H108.179V78.6543H106.06V77.4102H108.179V72.8574H109.696ZM99.7568 75.168V73.9375H105.349V78.4629H101.302V81.0605C103.141 81.0537 104.617 80.9922 106.278 80.6914L106.401 81.9355C104.562 82.2568 102.908 82.3252 100.782 82.332H99.7979V77.2324H103.858V75.168H99.7568ZM116.715 73.5547C119.368 73.5615 121.33 74.8809 121.323 76.8906C121.33 78.7432 119.737 79.9805 117.467 80.2061V82.4688H122.389V83.7129H111.096V82.4688H115.963V80.2061C113.721 79.9805 112.129 78.7432 112.135 76.8906C112.129 74.8809 114.084 73.5615 116.715 73.5547ZM113.626 76.8906C113.619 78.2236 114.911 79.0234 116.715 79.0234C118.547 79.0234 119.833 78.2236 119.833 76.8906C119.833 75.5986 118.547 74.7783 116.715 74.7852C114.911 74.7783 113.619 75.5986 113.626 76.8906ZM127.508 76.3711C127.508 78.3945 128.697 80.5273 130.694 81.3613L129.86 82.5645C128.397 81.9287 127.33 80.6367 126.763 79.0645C126.196 80.7598 125.109 82.1816 123.666 82.8652L122.791 81.6758C124.739 80.7734 125.956 78.4697 125.963 76.3711V75.332H123.242V74.0742H130.215V75.332H127.508V76.3711ZM131.596 85.2168V72.8574H133.127V85.2168H131.596ZM147.398 73.3633V77.5879H143.953V78.8047H148.833V80.0352H137.568V78.8047H142.449V77.5879H138.99V73.3633H147.398ZM138.361 83.959C140.904 83.6309 142.414 82.4004 142.421 80.9785V80.6641H143.953V80.9785C143.953 82.4004 145.463 83.6309 148.027 83.959L147.466 85.1348C145.477 84.8477 143.953 84.0342 143.187 82.8447C142.421 84.0342 140.897 84.8477 138.908 85.1348L138.361 83.959ZM140.466 76.3848H145.894V74.5527H140.466V76.3848ZM159.886 72.8711V80.4863H158.437V77.3555H157.261V80.3359H155.839V73.0488H157.261V76.1113H158.437V72.8711H159.886ZM149.249 75.332V74.1289H151.587V72.9258H153.091V74.1289H155.401V75.332H149.249ZM149.687 77.9434C149.673 76.6514 150.794 75.8037 152.339 75.7969C153.911 75.8037 155.019 76.6514 155.032 77.9434C155.019 79.2148 153.911 80.083 152.339 80.0898C150.794 80.083 149.673 79.2148 149.687 77.9434ZM150.042 83.918C151.621 83.4395 152.428 82.2773 152.421 81.1699V80.8691H153.925V81.1699C153.918 82.1338 154.376 83.1182 155.415 83.7334C156.468 83.0771 156.953 82.0312 156.96 81.1699V80.8691H158.464V81.1699C158.464 82.3457 159.236 83.4805 160.856 83.918L160.146 85.0664C158.936 84.6836 158.122 83.918 157.698 82.9746C157.302 83.9111 156.577 84.752 155.442 85.1758C154.28 84.7656 153.549 83.9727 153.159 83.0361C152.708 83.9385 151.901 84.6768 150.753 85.0664L150.042 83.918ZM151.04 77.9434C151.04 78.5928 151.566 78.9824 152.339 78.9824C153.118 78.9824 153.651 78.5928 153.651 77.9434C153.651 77.2803 153.118 76.9043 152.339 76.9043C151.566 76.9043 151.04 77.2803 151.04 77.9434ZM164.444 73.7598C166.112 73.7598 167.349 75.1543 167.568 77.4102H169.926V72.8574H171.43V85.2305H169.926V78.6406H167.582C167.418 81.0264 166.16 82.4961 164.444 82.4961C162.585 82.4961 161.265 80.8076 161.272 78.1211C161.265 75.4551 162.585 73.7598 164.444 73.7598ZM162.735 78.1211C162.728 80.0215 163.425 81.1221 164.444 81.1289C165.469 81.1221 166.16 80.0215 166.167 78.1211C166.16 76.2344 165.469 75.127 164.444 75.127C163.425 75.127 162.728 76.2344 162.735 78.1211ZM184.11 82.4688V83.7129H172.817V82.4688H175.428V79.3447C174.444 78.7773 173.849 77.8887 173.856 76.7949C173.849 74.8262 175.777 73.5273 178.436 73.5273C181.109 73.5273 183.05 74.8262 183.043 76.7949C183.05 77.875 182.469 78.7432 181.512 79.3105V82.4688H184.11ZM175.346 76.7949C175.339 78.0596 176.59 78.8662 178.436 78.8594C180.275 78.8662 181.553 78.0596 181.553 76.7949C181.553 75.5098 180.275 74.7236 178.436 74.7305C176.59 74.7236 175.339 75.5098 175.346 76.7949ZM176.932 82.4688H179.967V79.8916C179.495 79.9941 178.983 80.0488 178.436 80.0488C177.903 80.0488 177.397 79.9941 176.932 79.8984V82.4688ZM186.07 84.1094C185.482 84.1094 184.997 83.6309 185.004 83.043C184.997 82.4688 185.482 81.9971 186.07 81.9902C186.637 81.9971 187.123 82.4688 187.123 83.043C187.123 83.6309 186.637 84.1094 186.07 84.1094ZM200.368 72.8574V77.5469H202.269V78.791H200.368V85.2305H198.851V72.8574H200.368ZM191.194 82.209V74.0332H196.978V75.2637H192.712V80.9375C194.633 80.9307 196.157 80.835 197.853 80.541L198.03 81.8262C196.109 82.1543 194.448 82.209 192.22 82.209H191.194ZM207.114 75.8242C207.1 78.0938 208.296 80.3633 210.299 81.2246L209.397 82.4414C207.975 81.7852 206.936 80.4795 206.362 78.8662C205.795 80.6025 204.728 82.0244 203.231 82.7285L202.301 81.457C204.359 80.5684 205.562 78.21 205.569 75.8242V73.8555H207.114V75.8242ZM211.188 85.2305V72.8574H212.719V85.2305H211.188ZM221.836 75.8242C221.822 78.0938 223.018 80.3633 225.021 81.2246L224.119 82.4414C222.697 81.7852 221.658 80.4795 221.084 78.8662C220.516 80.6025 219.45 82.0244 217.953 82.7285L217.023 81.457C219.081 80.5684 220.284 78.21 220.291 75.8242V73.8555H221.836V75.8242ZM225.91 85.2305V72.8574H227.441V85.2305H225.91ZM238.945 78.4766V79.6797H235.281V82.5098H240.203V83.7539H228.91V82.5098H233.777V79.6797H230.277V73.7734H238.849V74.9902H231.794V78.4766H238.945ZM246.688 74.8262V76.043H240.632V74.8262H242.929V73.2129H244.433V74.8262H246.688ZM240.987 79.5703C240.974 77.8887 242.115 76.6924 243.681 76.6992C245.253 76.6924 246.374 77.8887 246.374 79.5703C246.374 81.2861 245.253 82.4824 243.681 82.4824C242.115 82.4824 240.974 81.2861 240.987 79.5703ZM242.327 79.5703C242.32 80.5684 242.881 81.1904 243.681 81.1836C244.474 81.1904 245.034 80.5684 245.034 79.5703C245.034 78.5996 244.474 77.957 243.681 77.957C242.881 77.957 242.32 78.5996 242.327 79.5703ZM247.208 84.6562V73.1172H248.63V77.9434H249.833V72.8574H251.282V85.2168H249.833V79.1738H248.63V84.6562H247.208ZM266.647 79.748V80.9785H261.738V85.2031H260.235V80.9785H255.381V79.748H266.647ZM255.969 77.7246C258.396 77.417 260.023 76.1113 260.132 74.7578H256.42V73.5547H265.608V74.7578H261.896C261.998 76.1113 263.612 77.417 266.059 77.7246L265.512 78.9141C263.406 78.6133 261.766 77.6494 261.014 76.3164C260.255 77.6494 258.628 78.6133 256.543 78.9141L255.969 77.7246ZM270.986 76.0977C270.993 78.0938 271.677 80.1719 273.351 81.2246L272.517 82.3867C271.403 81.7168 270.679 80.5684 270.268 79.2217C269.824 80.7051 269.031 81.9629 267.869 82.6738L266.926 81.5391C268.723 80.4521 269.516 78.2715 269.523 76.166V73.9512H270.986V76.0977ZM272.025 78.3672V77.1094H273.789V73.0762H275.224V84.6152H273.789V78.3672H272.025ZM276.332 85.2168V72.8574H277.795V85.2168H276.332ZM290.173 82.4688V83.7129H278.88V82.4688H281.492V79.3447C280.507 78.7773 279.913 77.8887 279.919 76.7949C279.913 74.8262 281.84 73.5273 284.499 73.5273C287.172 73.5273 289.114 74.8262 289.107 76.7949C289.114 77.875 288.533 78.7432 287.576 79.3105V82.4688H290.173ZM281.41 76.7949C281.403 78.0596 282.654 78.8662 284.499 78.8594C286.338 78.8662 287.617 78.0596 287.617 76.7949C287.617 75.5098 286.338 74.7236 284.499 74.7305C282.654 74.7236 281.403 75.5098 281.41 76.7949ZM282.996 82.4688H286.031V79.8916C285.559 79.9941 285.046 80.0488 284.499 80.0488C283.966 80.0488 283.46 79.9941 282.996 79.8984V82.4688ZM292.134 84.1094C291.546 84.1094 291.061 83.6309 291.067 83.043C291.061 82.4688 291.546 81.9971 292.134 81.9902C292.701 81.9971 293.187 82.4688 293.187 83.043C293.187 83.6309 292.701 84.1094 292.134 84.1094Z" fill="#999999"/>
</svg>
