<svg width="97" height="114" viewBox="0 0 97 114" fill="none" xmlns="http://www.w3.org/2000/svg">
<path d="M84.5 54H12.5V24H84.5M75.5 90C73.1131 90 70.8239 89.0518 69.136 87.364C67.4482 85.6761 66.5 83.3869 66.5 81C66.5 78.6131 67.4482 76.3239 69.136 74.636C70.8239 72.9482 73.1131 72 75.5 72C77.8869 72 80.1761 72.9482 81.864 74.636C83.5518 76.3239 84.5 78.6131 84.5 81C84.5 83.3869 83.5518 85.6761 81.864 87.364C80.1761 89.0518 77.8869 90 75.5 90ZM21.5 90C19.1131 90 16.8239 89.0518 15.136 87.364C13.4482 85.6761 12.5 83.3869 12.5 81C12.5 78.6131 13.4482 76.3239 15.136 74.636C16.8239 72.9482 19.1131 72 21.5 72C23.8869 72 26.1761 72.9482 27.864 74.636C29.5518 76.3239 30.5 78.6131 30.5 81C30.5 83.3869 29.5518 85.6761 27.864 87.364C26.1761 89.0518 23.8869 90 21.5 90ZM0.5 84C0.5 89.28 2.84 94.02 6.5 97.32V108C6.5 109.591 7.13214 111.117 8.25736 112.243C9.38258 113.368 10.9087 114 12.5 114H18.5C20.0913 114 21.6174 113.368 22.7426 112.243C23.8679 111.117 24.5 109.591 24.5 108V102H72.5V108C72.5 109.591 73.1321 111.117 74.2574 112.243C75.3826 113.368 76.9087 114 78.5 114H84.5C86.0913 114 87.6174 113.368 88.7426 112.243C89.8679 111.117 90.5 109.591 90.5 108V97.32C94.16 94.02 96.5 89.28 96.5 84V24C96.5 3 75.02 0 48.5 0C21.98 0 0.5 3 0.5 24V84Z" fill="#F7F8F9"/>
</svg>
