<svg width="16" height="16" viewBox="0 0 16 16" fill="none" xmlns="http://www.w3.org/2000/svg">
<g id="mdi:users-outline">
<path id="Vector" d="M8.71203 6.93937C9.11699 6.37355 9.33473 5.69518 9.33473 4.99937C9.33473 4.30356 9.11699 3.6252 8.71203 3.05937C9.09123 2.80106 9.53988 2.66391 9.9987 2.66604C10.6175 2.66604 11.211 2.91187 11.6486 3.34946C12.0862 3.78704 12.332 4.38053 12.332 4.99937C12.332 5.61821 12.0862 6.2117 11.6486 6.64929C11.211 7.08687 10.6175 7.33271 9.9987 7.33271C9.53988 7.33484 9.09123 7.19769 8.71203 6.93937ZM3.66536 4.99937C3.66536 4.53788 3.80221 4.08676 4.0586 3.70304C4.31499 3.31933 4.67941 3.02026 5.10577 2.84365C5.53213 2.66705 6.00129 2.62084 6.45391 2.71087C6.90653 2.80091 7.32229 3.02314 7.64861 3.34946C7.97494 3.67578 8.19716 4.09154 8.2872 4.54416C8.37723 4.99678 8.33102 5.46594 8.15442 5.8923C7.97781 6.31866 7.67874 6.68308 7.29503 6.93947C6.91131 7.19586 6.46019 7.33271 5.9987 7.33271C5.37986 7.33271 4.78637 7.08687 4.34878 6.64929C3.9112 6.2117 3.66536 5.61821 3.66536 4.99937ZM4.9987 4.99937C4.9987 5.19715 5.05735 5.39049 5.16723 5.55494C5.27711 5.71939 5.43329 5.84757 5.61601 5.92325C5.79874 5.99894 5.99981 6.01874 6.19379 5.98016C6.38777 5.94157 6.56595 5.84633 6.7058 5.70648C6.84566 5.56663 6.9409 5.38844 6.97948 5.19446C7.01807 5.00048 6.99826 4.79942 6.92258 4.61669C6.84689 4.43396 6.71872 4.27779 6.55427 4.1679C6.38982 4.05802 6.19648 3.99937 5.9987 3.99937C5.73348 3.99937 5.47913 4.10473 5.29159 4.29227C5.10405 4.4798 4.9987 4.73416 4.9987 4.99937ZM10.6654 11.3327V12.666H1.33203V11.3327C1.33203 11.3327 1.33203 8.66604 5.9987 8.66604C10.6654 8.66604 10.6654 11.3327 10.6654 11.3327ZM9.33203 11.3327C9.2387 10.8127 8.44536 9.99937 5.9987 9.99937C3.55203 9.99937 2.71203 10.8727 2.66536 11.3327M10.632 8.66604C11.0406 8.98386 11.3747 9.38727 11.6108 9.84795C11.8469 10.3086 11.9793 10.8154 11.9987 11.3327V12.666H14.6654V11.3327C14.6654 11.3327 14.6654 8.91271 10.6254 8.66604H10.632Z" fill="#CCCCCC"/>
</g>
</svg>
