<svg width="21" height="21" viewBox="0 0 21 21" fill="none" xmlns="http://www.w3.org/2000/svg">
<path d="M10.4304 13.9193C10.5781 13.9193 10.7018 13.8693 10.8014 13.7694C10.9012 13.6697 10.9511 13.546 10.9511 13.3984V10.447C10.9511 10.2995 10.9011 10.1758 10.8012 10.0759C10.7014 9.9761 10.5776 9.92622 10.4301 9.92622C10.2824 9.92622 10.1587 9.9761 10.059 10.0759C9.95928 10.1758 9.9094 10.2995 9.9094 10.447V13.3984C9.9094 13.546 9.95934 13.6697 10.0592 13.7694C10.1591 13.8693 10.2828 13.9193 10.4304 13.9193ZM10.4302 8.73767C10.5891 8.73767 10.7224 8.68391 10.8299 8.57639C10.9374 8.46887 10.9912 8.33565 10.9912 8.17674C10.9912 8.01782 10.9374 7.88461 10.8299 7.77708C10.7224 7.66968 10.5891 7.61597 10.4302 7.61597C10.2713 7.61597 10.1381 7.66968 10.0306 7.77708C9.92305 7.88461 9.86929 8.01782 9.86929 8.17674C9.86929 8.33565 9.92305 8.46887 10.0306 8.57639C10.1381 8.68391 10.2713 8.73767 10.4302 8.73767ZM10.4314 17.2179C9.51895 17.2179 8.66125 17.0447 7.85835 16.6984C7.05546 16.3521 6.35708 15.8822 5.76322 15.2885C5.16935 14.6949 4.69915 13.9968 4.35263 13.1943C4.00621 12.3917 3.83301 11.5343 3.83301 10.6219C3.83301 9.70937 4.00616 8.85168 4.35245 8.04878C4.69875 7.24589 5.16871 6.54751 5.76235 5.95365C6.35598 5.35978 7.05407 4.88958 7.85662 4.54306C8.65917 4.19664 9.51663 4.02344 10.429 4.02344C11.3415 4.02344 12.1992 4.19659 13.0021 4.54288C13.805 4.88918 14.5034 5.35914 15.0972 5.95278C15.6911 6.54641 16.1613 7.2445 16.5078 8.04705C16.8542 8.8496 17.0275 9.70706 17.0275 10.6194C17.0275 11.5319 16.8543 12.3896 16.508 13.1925C16.1617 13.9954 15.6917 14.6938 15.0981 15.2877C14.5045 15.8815 13.8064 16.3517 13.0038 16.6983C12.2013 17.0447 11.3438 17.2179 10.4314 17.2179ZM10.4302 16.1762C11.9812 16.1762 13.2948 15.638 14.3712 14.5616C15.4476 13.4852 15.9858 12.1716 15.9858 10.6207C15.9858 9.06973 15.4476 7.75608 14.3712 6.67969C13.2948 5.6033 11.9812 5.0651 10.4302 5.0651C8.8793 5.0651 7.56565 5.6033 6.48926 6.67969C5.41287 7.75608 4.87467 9.06973 4.87467 10.6207C4.87467 12.1716 5.41287 13.4852 6.48926 14.5616C7.56565 15.638 8.8793 16.1762 10.4302 16.1762Z" fill="#B3B3B3"/>
</svg>
