<svg width="25" height="25" viewBox="0 0 25 25" fill="none" xmlns="http://www.w3.org/2000/svg">
<g id="icon-info">
<path id="info" d="M12.4169 16.375C12.5941 16.375 12.7425 16.3151 12.8621 16.1952C12.9818 16.0755 13.0417 15.9271 13.0417 15.75V12.2083C13.0417 12.0312 12.9817 11.8828 12.8619 11.7629C12.742 11.6432 12.5935 11.5833 12.4165 11.5833C12.2392 11.5833 12.0908 11.6432 11.9712 11.7629C11.8515 11.8828 11.7917 12.0312 11.7917 12.2083V15.75C11.7917 15.9271 11.8516 16.0755 11.9715 16.1952C12.0913 16.3151 12.2398 16.375 12.4169 16.375ZM12.4167 10.1571C12.6074 10.1571 12.7672 10.0926 12.8962 9.96354C13.0253 9.83451 13.0898 9.67465 13.0898 9.48396C13.0898 9.29326 13.0253 9.1334 12.8962 9.00438C12.7672 8.87549 12.6074 8.81104 12.4167 8.81104C12.226 8.81104 12.0661 8.87549 11.9371 9.00438C11.8081 9.1334 11.7435 9.29326 11.7435 9.48396C11.7435 9.67465 11.8081 9.83451 11.9371 9.96354C12.0661 10.0926 12.226 10.1571 12.4167 10.1571ZM12.4181 20.3333C11.3231 20.3333 10.2939 20.1256 9.33042 19.71C8.36694 19.2944 7.52889 18.7305 6.81625 18.0181C6.10361 17.3058 5.53937 16.4681 5.12354 15.505C4.70785 14.5419 4.5 13.513 4.5 12.4181C4.5 11.3231 4.70778 10.2939 5.12333 9.33042C5.53889 8.36694 6.10285 7.52889 6.81521 6.81625C7.52757 6.10361 8.36528 5.53937 9.32833 5.12354C10.2914 4.70785 11.3203 4.5 12.4152 4.5C13.5102 4.5 14.5394 4.70778 15.5029 5.12333C16.4664 5.53889 17.3044 6.10285 18.0171 6.81521C18.7297 7.52757 19.294 8.36528 19.7098 9.32833C20.1255 10.2914 20.3333 11.3203 20.3333 12.4152C20.3333 13.5102 20.1256 14.5394 19.71 15.5029C19.2944 16.4664 18.7305 17.3044 18.0181 18.0171C17.3058 18.7297 16.4681 19.294 15.505 19.7098C14.5419 20.1255 13.513 20.3333 12.4181 20.3333ZM12.4167 19.0833C14.2778 19.0833 15.8542 18.4375 17.1458 17.1458C18.4375 15.8542 19.0833 14.2778 19.0833 12.4167C19.0833 10.5556 18.4375 8.97917 17.1458 7.6875C15.8542 6.39583 14.2778 5.75 12.4167 5.75C10.5556 5.75 8.97917 6.39583 7.6875 7.6875C6.39583 8.97917 5.75 10.5556 5.75 12.4167C5.75 14.2778 6.39583 15.8542 7.6875 17.1458C8.97917 18.4375 10.5556 19.0833 12.4167 19.0833Z" fill="#999999"/>
</g>
</svg>
