<svg width="24" height="24" viewBox="0 0 24 24" fill="none" xmlns="http://www.w3.org/2000/svg">
<path d="M11.9169 15.875C12.0941 15.875 12.2425 15.8151 12.3621 15.6952C12.4818 15.5755 12.5417 15.4271 12.5417 15.25V11.7083C12.5417 11.5312 12.4817 11.3828 12.3619 11.2629C12.242 11.1432 12.0935 11.0833 11.9165 11.0833C11.7392 11.0833 11.5908 11.1432 11.4712 11.2629C11.3515 11.3828 11.2917 11.5312 11.2917 11.7083V15.25C11.2917 15.4271 11.3516 15.5755 11.4715 15.6952C11.5913 15.8151 11.7398 15.875 11.9169 15.875ZM11.9167 9.65708C12.1074 9.65708 12.2672 9.59257 12.3962 9.46354C12.5253 9.33451 12.5898 9.17465 12.5898 8.98396C12.5898 8.79326 12.5253 8.6334 12.3962 8.50438C12.2672 8.37549 12.1074 8.31104 11.9167 8.31104C11.726 8.31104 11.5661 8.37549 11.4371 8.50438C11.3081 8.6334 11.2435 8.79326 11.2435 8.98396C11.2435 9.17465 11.3081 9.33451 11.4371 9.46354C11.5661 9.59257 11.726 9.65708 11.9167 9.65708ZM11.9181 19.8333C10.8231 19.8333 9.79389 19.6256 8.83042 19.21C7.86694 18.7944 7.02889 18.2305 6.31625 17.5181C5.60361 16.8058 5.03937 15.9681 4.62354 15.005C4.20785 14.0419 4 13.013 4 11.9181C4 10.8231 4.20778 9.79389 4.62333 8.83042C5.03889 7.86694 5.60285 7.02889 6.31521 6.31625C7.02757 5.60361 7.86528 5.03937 8.82833 4.62354C9.79139 4.20785 10.8203 4 11.9152 4C13.0102 4 14.0394 4.20778 15.0029 4.62333C15.9664 5.03889 16.8044 5.60285 17.5171 6.31521C18.2297 7.02757 18.794 7.86528 19.2098 8.82833C19.6255 9.79139 19.8333 10.8203 19.8333 11.9152C19.8333 13.0102 19.6256 14.0394 19.21 15.0029C18.7944 15.9664 18.2305 16.8044 17.5181 17.5171C16.8058 18.2297 15.9681 18.794 15.005 19.2098C14.0419 19.6255 13.013 19.8333 11.9181 19.8333ZM11.9167 18.5833C13.7778 18.5833 15.3542 17.9375 16.6458 16.6458C17.9375 15.3542 18.5833 13.7778 18.5833 11.9167C18.5833 10.0556 17.9375 8.47917 16.6458 7.1875C15.3542 5.89583 13.7778 5.25 11.9167 5.25C10.0556 5.25 8.47917 5.89583 7.1875 7.1875C5.89583 8.47917 5.25 10.0556 5.25 11.9167C5.25 13.7778 5.89583 15.3542 7.1875 16.6458C8.47917 17.9375 10.0556 18.5833 11.9167 18.5833Z" fill="#B3B3B3"/>
</svg>
