<svg width="24" height="24" viewBox="0 0 24 24" fill="none" xmlns="http://www.w3.org/2000/svg">
<g id="&#236;&#157;&#184;&#236;&#138;&#164;&#237;&#131;&#128;&#234;&#183;&#184;&#235;&#158;&#168; &#235;&#161;&#156;&#234;&#179;&#160;" clip-path="url(#clip0_901_11202)">
<path id="Vector" d="M12.0075 0.181641C7.07274 0.181641 5.62951 0.186732 5.34897 0.210004C4.33628 0.294186 3.70611 0.453641 3.01959 0.795459C2.49051 1.05819 2.07325 1.36273 1.66145 1.78964C0.911471 2.56819 0.456939 3.526 0.292399 4.66455C0.212401 5.21728 0.189129 5.33 0.184402 8.15328C0.182584 9.09437 0.184402 10.3329 0.184402 11.9942C0.184402 16.9251 0.189856 18.3669 0.213492 18.6469C0.295308 19.6324 0.449848 20.2524 0.777111 20.9306C1.40255 22.2287 2.59706 23.2033 4.00429 23.5669C4.49154 23.6924 5.02971 23.7615 5.7206 23.7942C6.01332 23.8069 8.99686 23.816 11.9822 23.816C14.9676 23.816 17.953 23.8124 18.2384 23.7978C19.0384 23.7602 19.5029 23.6978 20.0165 23.5651C21.4328 23.1996 22.6055 22.2396 23.2437 20.9233C23.5646 20.2615 23.7273 19.6178 23.801 18.6838C23.817 18.4802 23.8237 15.2335 23.8237 11.9911C23.8237 8.74819 23.8164 5.50746 23.8004 5.30382C23.7259 4.35473 23.5631 3.71655 23.2319 3.042C22.9601 2.48982 22.6583 2.07746 22.2201 1.65582C21.4381 0.908913 20.4818 0.454368 19.3422 0.290004C18.79 0.210186 18.68 0.18655 15.8547 0.181641H12.0075Z" fill="url(#paint0_radial_901_11202)"/>
<path id="Vector_2" d="M12.0075 0.181641C7.07274 0.181641 5.62951 0.186732 5.34897 0.210004C4.33628 0.294186 3.70611 0.453641 3.01959 0.795459C2.49051 1.05819 2.07325 1.36273 1.66145 1.78964C0.911471 2.56819 0.456939 3.526 0.292399 4.66455C0.212401 5.21728 0.189129 5.33 0.184402 8.15328C0.182584 9.09437 0.184402 10.3329 0.184402 11.9942C0.184402 16.9251 0.189856 18.3669 0.213492 18.6469C0.295308 19.6324 0.449848 20.2524 0.777111 20.9306C1.40255 22.2287 2.59706 23.2033 4.00429 23.5669C4.49154 23.6924 5.02971 23.7615 5.7206 23.7942C6.01332 23.8069 8.99686 23.816 11.9822 23.816C14.9676 23.816 17.953 23.8124 18.2384 23.7978C19.0384 23.7602 19.5029 23.6978 20.0165 23.5651C21.4328 23.1996 22.6055 22.2396 23.2437 20.9233C23.5646 20.2615 23.7273 19.6178 23.801 18.6838C23.817 18.4802 23.8237 15.2335 23.8237 11.9911C23.8237 8.74819 23.8164 5.50746 23.8004 5.30382C23.7259 4.35473 23.5631 3.71655 23.2319 3.042C22.9601 2.48982 22.6583 2.07746 22.2201 1.65582C21.4381 0.908913 20.4818 0.454368 19.3422 0.290004C18.79 0.210186 18.68 0.18655 15.8547 0.181641H12.0075Z" fill="url(#paint1_radial_901_11202)"/>
<path id="Vector_3" d="M12.0012 3.27246C9.63106 3.27246 9.33362 3.28282 8.40274 3.32519C7.47367 3.36773 6.83951 3.51482 6.28462 3.73064C5.71064 3.95355 5.22374 4.25173 4.73867 4.73701C4.25323 5.2221 3.95505 5.70901 3.73142 6.28282C3.51507 6.83792 3.3678 7.47228 3.32598 8.40101C3.28435 9.33192 3.27344 9.62955 3.27344 11.9997C3.27344 14.3699 3.28398 14.6665 3.32616 15.5974C3.36889 16.5265 3.51598 17.1606 3.73161 17.7156C3.95469 18.2896 4.25286 18.7765 4.73812 19.2616C5.22301 19.747 5.70991 20.0459 6.28353 20.2688C6.83878 20.4846 7.47313 20.6317 8.40201 20.6743C9.33289 20.7166 9.63015 20.727 12.0001 20.727C14.3704 20.727 14.6669 20.7166 15.5978 20.6743C16.5269 20.6317 17.1617 20.4846 17.717 20.2688C18.2908 20.0459 18.777 19.747 19.2619 19.2616C19.7473 18.7765 20.0455 18.2896 20.2691 17.7157C20.4836 17.1606 20.6309 16.5263 20.6745 15.5976C20.7164 14.6666 20.7273 14.3699 20.7273 11.9997C20.7273 9.62955 20.7164 9.3321 20.6745 8.40119C20.6309 7.4721 20.4836 6.83792 20.2691 6.28301C20.0455 5.70901 19.7473 5.2221 19.2619 4.73701C18.7764 4.25155 18.291 3.95337 17.7165 3.73064C17.1601 3.51482 16.5256 3.36773 15.5965 3.32519C14.6656 3.28282 14.3693 3.27246 11.9984 3.27246H12.0012ZM11.2183 4.84519C11.4506 4.84482 11.7099 4.84519 12.0012 4.84519C14.3313 4.84519 14.6075 4.85355 15.5276 4.89537C16.3785 4.93428 16.8403 5.07646 17.1479 5.19592C17.5552 5.3541 17.8455 5.54319 18.1508 5.84864C18.4563 6.1541 18.6453 6.44501 18.8039 6.85228C18.9233 7.15955 19.0657 7.62137 19.1044 8.47228C19.1462 9.39228 19.1553 9.66864 19.1553 11.9977C19.1553 14.3268 19.1462 14.6032 19.1044 15.5232C19.0655 16.3741 18.9233 16.8359 18.8039 17.1432C18.6457 17.5505 18.4563 17.8405 18.1508 18.1457C17.8454 18.4512 17.5554 18.6403 17.1479 18.7985C16.8407 18.9185 16.3785 19.0603 15.5276 19.0992C14.6076 19.141 14.3313 19.1501 12.0012 19.1501C9.67088 19.1501 9.39471 19.141 8.47473 19.0992C7.62385 19.0599 7.16205 18.9177 6.85424 18.7983C6.44698 18.6401 6.15608 18.451 5.85063 18.1456C5.54519 17.8401 5.3561 17.5499 5.19756 17.1425C5.07811 16.8352 4.93575 16.3734 4.89702 15.5225C4.85521 14.6025 4.84684 14.3261 4.84684 11.9956C4.84684 9.66501 4.85521 9.3901 4.89702 8.4701C4.93593 7.61919 5.07811 7.15737 5.19756 6.84973C5.35574 6.44246 5.54519 6.15155 5.85063 5.8461C6.15608 5.54064 6.44698 5.35155 6.85424 5.19301C7.16186 5.07301 7.62385 4.93119 8.47473 4.8921C9.2798 4.85573 9.59179 4.84482 11.2183 4.84301V4.84519ZM16.6596 6.29428C16.0814 6.29428 15.6123 6.76282 15.6123 7.34119C15.6123 7.91937 16.0814 8.38846 16.6596 8.38846C17.2377 8.38846 17.7068 7.91937 17.7068 7.34119C17.7068 6.76301 17.2377 6.29428 16.6596 6.29428ZM12.0012 7.51792C9.52616 7.51792 7.51949 9.52464 7.51949 11.9997C7.51949 14.4748 9.52616 16.4806 12.0012 16.4806C14.4762 16.4806 16.4821 14.4748 16.4821 11.9997C16.4821 9.52464 14.4762 7.51792 12.0012 7.51792ZM12.0012 9.09064C13.6077 9.09064 14.9102 10.393 14.9102 11.9997C14.9102 13.6063 13.6077 14.9088 12.0012 14.9088C10.3945 14.9088 9.09217 13.6063 9.09217 11.9997C9.09217 10.393 10.3945 9.09064 12.0012 9.09064Z" fill="white"/>
</g>
<defs>
<radialGradient id="paint0_radial_901_11202" cx="0" cy="0" r="1" gradientUnits="userSpaceOnUse" gradientTransform="translate(6.46302 25.6363) rotate(-90) scale(23.4234 21.7909)">
<stop stop-color="#FFDD55"/>
<stop offset="0.1" stop-color="#FFDD55"/>
<stop offset="0.5" stop-color="#FF543E"/>
<stop offset="1" stop-color="#C837AB"/>
</radialGradient>
<radialGradient id="paint1_radial_901_11202" cx="0" cy="0" r="1" gradientUnits="userSpaceOnUse" gradientTransform="translate(-3.77625 1.88422) rotate(78.678) scale(10.4705 43.1693)">
<stop stop-color="#3771C8"/>
<stop offset="0.128" stop-color="#3771C8"/>
<stop offset="1" stop-color="#6600FF" stop-opacity="0"/>
</radialGradient>
<clipPath id="clip0_901_11202">
<rect width="24" height="24" fill="white"/>
</clipPath>
</defs>
</svg>
