<svg xmlns="http://www.w3.org/2000/svg" width="21" height="20" viewBox="0 0 21 20" fill="none">
  <path d="M10.5 0C5.116 0 0.75 4.366 0.75 9.75C0.75 15.134 5.116 19.5 10.5 19.5V17.063C9.05391 17.0628 7.64035 16.6338 6.43805 15.8303C5.23575 15.0268 4.29871 13.8848 3.7454 12.5487C3.1921 11.2127 3.04738 9.74255 3.32955 8.32425C3.61171 6.90596 4.30809 5.60318 5.33064 4.58064C6.35318 3.55809 7.65596 2.86171 9.07425 2.57955C10.4925 2.29738 11.9627 2.4421 13.2987 2.9954C14.6348 3.54871 15.7768 4.48575 16.5803 5.68805C17.3838 6.89035 17.8128 8.30391 17.813 9.75H20.25C20.25 4.366 15.884 0 10.5 0Z" fill="#333333"/>
</svg>