<svg width="111" height="24" viewBox="0 0 111 24" fill="none" xmlns="http://www.w3.org/2000/svg">
<path fill-rule="evenodd" clip-rule="evenodd" d="M6.6204 3.07715H33.4099C33.8951 3.07715 34.3756 3.17697 34.8239 3.3709C35.2722 3.56476 35.6796 3.84899 36.0227 4.20729C36.3658 4.56564 36.638 4.99097 36.8237 5.45913C37.0094 5.9273 37.105 6.42907 37.105 6.93578V15.8589C37.105 16.3656 37.0094 16.8673 36.8237 17.3355C36.638 17.8036 36.3658 18.229 36.0227 18.5873C35.6796 18.9457 35.2722 19.2298 34.8239 19.4237C34.3756 19.6177 33.8951 19.7175 33.4099 19.7175H24.8124C23.4456 20.4951 21.7603 20.9233 20.0151 20.9233C18.2699 20.9233 16.5846 20.4951 15.2178 19.7175H6.6204C6.13516 19.7175 5.65465 19.6177 5.20633 19.4237C4.75801 19.2298 4.3507 18.9457 4.00753 18.5873C3.66443 18.229 3.39224 17.8036 3.20659 17.3355C3.02088 16.8673 2.92529 16.3656 2.92529 15.8589V6.93578C2.92529 5.91243 3.3146 4.93095 4.00753 4.20729C4.70053 3.48368 5.64041 3.07715 6.6204 3.07715ZM6.6204 17.7881H13.0363C12.4677 16.9753 12.163 16.0669 12.163 15.1354C12.163 14.692 12.2467 14.2529 12.4092 13.8433C12.5717 13.4337 12.8098 13.0615 13.11 12.748C13.4102 12.4344 13.7667 12.1858 14.159 12.016C14.5512 11.8464 14.9717 11.7591 15.3963 11.7591C15.8208 11.7591 16.2413 11.8464 16.6336 12.016C17.0258 12.1858 17.3823 12.4344 17.6825 12.748C17.9827 13.0615 18.2209 13.4337 18.3833 13.8433C18.5459 14.2529 18.6295 14.692 18.6295 15.1354C18.6295 16.3597 18.1032 17.544 17.1431 18.524C18.0165 18.8297 19.0026 18.994 20.0151 18.994C21.0276 18.994 22.0137 18.8297 22.8871 18.524C21.927 17.544 21.4008 16.3597 21.4008 15.1354C21.4008 14.692 21.4844 14.2529 21.6469 13.8433C21.8094 13.4337 22.0476 13.0615 22.3478 12.748C22.648 12.4344 23.0044 12.1858 23.3967 12.016C23.789 11.8464 24.2094 11.7591 24.634 11.7591C25.0586 11.7591 25.479 11.8464 25.8713 12.016C26.2636 12.1858 26.62 12.4344 26.9202 12.748C27.2205 13.0615 27.4586 13.4337 27.6211 13.8433C27.7836 14.2529 27.8672 14.692 27.8672 15.1354C27.8672 16.0669 27.5626 16.9753 26.9939 17.7881H33.4099C33.6525 17.7881 33.8928 17.7382 34.1169 17.6413C34.341 17.5444 34.5447 17.4023 34.7163 17.2231C34.8878 17.0439 35.0239 16.8312 35.1168 16.5972C35.2096 16.3631 35.2574 16.1122 35.2574 15.8589V6.93578C35.2574 6.68243 35.2096 6.43151 35.1168 6.19749C35.0239 5.96341 34.8878 5.75068 34.7163 5.57157C34.5447 5.39239 34.341 5.25027 34.1169 5.15331C33.8928 5.05635 33.6525 5.00644 33.4099 5.00644H6.6204C6.13038 5.00644 5.66046 5.2097 5.314 5.57157C4.96747 5.93337 4.77282 6.42408 4.77282 6.93578V15.8589C4.77282 16.1122 4.82061 16.3631 4.91347 16.5972C5.00632 16.8312 5.14241 17.0439 5.314 17.2231C5.48552 17.4023 5.68923 17.5444 5.91339 17.6413C6.1375 17.7382 6.37778 17.7881 6.6204 17.7881ZM15.3963 17.6009C16.288 16.9111 16.7819 16.0396 16.7819 15.1354C16.7819 14.9453 16.7461 14.7572 16.6765 14.5816C16.6068 14.4061 16.5048 14.2466 16.3761 14.1122C16.2474 13.9778 16.0947 13.8712 15.9265 13.7985C15.7584 13.7258 15.5782 13.6884 15.3963 13.6884C15.2143 13.6884 15.0341 13.7258 14.866 13.7985C14.6979 13.8712 14.5451 13.9778 14.4164 14.1122C14.2878 14.2466 14.1857 14.4061 14.1161 14.5816C14.0464 14.7572 14.0106 14.9453 14.0106 15.1354C14.0106 16.0396 14.5045 16.9111 15.3963 17.6009ZM26.0196 15.1354C26.0196 16.0396 25.5258 16.9111 24.634 17.6009C23.7422 16.9111 23.2484 16.0396 23.2484 15.1354C23.2484 14.9453 23.2842 14.7572 23.3538 14.5816C23.4235 14.4061 23.5255 14.2466 23.6542 14.1122C23.7829 13.9778 23.9356 13.8712 24.1038 13.7985C24.2719 13.7258 24.452 13.6884 24.634 13.6884C24.8159 13.6884 24.9961 13.7258 25.1643 13.7985C25.3324 13.8712 25.4851 13.9778 25.6138 14.1122C25.7425 14.2466 25.8445 14.4061 25.9142 14.5816C25.9838 14.7572 26.0196 14.9453 26.0196 15.1354Z" fill="#181F29"/>
<path fill-rule="evenodd" clip-rule="evenodd" d="M55.4468 4.8623C55.0691 4.8623 54.7632 5.18193 54.7632 5.57615V9.14538H53.396V5.04077C53.396 4.9422 53.3197 4.8623 53.2251 4.8623H52.3706C51.9929 4.8623 51.687 5.18193 51.687 5.57615V14.6777C51.687 14.7763 51.7633 14.8562 51.8579 14.8562H52.7124C53.0901 14.8562 53.396 14.5365 53.396 14.1423V10.5731H54.7632V14.6777C54.7632 14.7763 54.8395 14.8562 54.9341 14.8562H55.7886C56.1663 14.8562 56.4722 14.5365 56.4722 14.1423V5.04077C56.4722 4.9422 56.3958 4.8623 56.3013 4.8623H55.4468ZM43.1421 15.9269C43.1421 15.7298 43.2953 15.57 43.4839 15.57H44.6802C44.7747 15.57 44.8511 15.6499 44.8511 15.7485V16.2838C44.8511 16.6625 45.3911 17.0256 46.3527 17.2934C47.3143 17.5611 48.6182 17.7115 49.978 17.7115H56.3013C56.3958 17.7115 56.4722 17.7914 56.4722 17.89V18.4254C56.4722 18.8196 56.1663 19.1392 55.7886 19.1392H49.978C48.1648 19.1392 46.4262 18.8384 45.1445 18.3029C43.8621 17.7674 43.1421 17.0411 43.1421 16.2838V15.9269ZM46.9019 9.14538C44.6369 9.14538 42.8003 10.4238 42.8003 12.0008C42.8003 13.5778 44.6369 14.8562 46.9019 14.8562C49.1668 14.8562 51.0034 13.5778 51.0034 12.0008C51.0034 10.4238 49.1668 9.14538 46.9019 9.14538ZM46.9019 10.5731C45.5802 10.5731 44.5093 11.2123 44.5093 12.0008C44.5093 12.7893 45.5802 13.4285 46.9019 13.4285C48.2235 13.4285 49.2944 12.7893 49.2944 12.0008C49.2944 11.2123 48.2235 10.5731 46.9019 10.5731ZM43.4839 7.00384C43.1062 7.00384 42.8003 7.32347 42.8003 7.71769V8.25307C42.8003 8.35164 42.8766 8.43154 42.9712 8.43154H50.3198C50.6975 8.43154 51.0034 8.11191 51.0034 7.71769V7.1823C51.0034 7.08373 50.9271 7.00384 50.8325 7.00384H43.4839ZM44.1675 5.57615C44.1675 5.18193 44.4734 4.8623 44.8511 4.8623H49.4653C49.5599 4.8623 49.6362 4.9422 49.6362 5.04077V5.57615C49.6362 5.97037 49.3303 6.29 48.9526 6.29H44.3384C44.2438 6.29 44.1675 6.21011 44.1675 6.11154V5.57615ZM72.5366 4.8623C72.1589 4.8623 71.853 5.18193 71.853 5.57615V18.9608C71.853 19.0593 71.9294 19.1392 72.0239 19.1392H72.8784C73.2561 19.1392 73.562 18.8196 73.562 18.4254V5.04077C73.562 4.9422 73.4857 4.8623 73.3911 4.8623H72.5366ZM68.435 12.7146C68.2465 12.7146 68.0933 12.8744 68.0933 13.0715C68.0933 13.2122 68.0095 13.3514 67.846 13.4813C67.6831 13.6112 67.4438 13.7292 67.1425 13.8287C66.8406 13.9281 66.4828 14.007 66.0886 14.0608C65.695 14.1146 65.2729 14.1423 64.8462 14.1423C64.4195 14.1423 63.9974 14.1146 63.6037 14.0608C63.2095 14.007 62.8518 13.9281 62.5499 13.8287C62.2485 13.7292 62.0093 13.6112 61.8463 13.4813C61.6829 13.3514 61.5991 13.2122 61.5991 13.0715V6.29H69.1186C69.4963 6.29 69.8022 5.97037 69.8022 5.57615V5.04077C69.8022 4.9422 69.7259 4.8623 69.6313 4.8623H60.5737C60.196 4.8623 59.8901 5.18193 59.8901 5.57615V6.29V13.0715C59.8901 13.7342 60.4125 14.3697 61.3416 14.8382C62.2713 15.3068 63.532 15.57 64.8462 15.57C66.1604 15.57 67.4211 15.3068 68.3507 14.8382C69.2799 14.3697 69.8022 13.7342 69.8022 13.0715V12.8931C69.8022 12.7945 69.7259 12.7146 69.6313 12.7146H68.435ZM105.135 5.90773C106.257 6.57708 106.887 7.48492 106.887 8.43154V14.1423C106.887 14.5365 106.581 14.8562 106.204 14.8562H105.349C105.255 14.8562 105.178 14.7763 105.178 14.6777V8.43154C105.178 8.15028 105.068 7.87182 104.853 7.61198C104.638 7.3522 104.324 7.1161 103.927 6.91723C103.53 6.71836 103.059 6.56066 102.541 6.45299C102.022 6.34538 101.467 6.29 100.906 6.29C100.345 6.29 99.7892 6.34538 99.2708 6.45299C98.7524 6.56066 98.2813 6.71836 97.8848 6.91723C97.4878 7.1161 97.1733 7.3522 96.9586 7.61198C96.7438 7.87182 96.6333 8.15028 96.6333 8.43154V14.1423C96.6333 14.5365 96.3274 14.8562 95.9497 14.8562H95.0952C95.0006 14.8562 94.9243 14.7763 94.9243 14.6777V8.43154C94.9243 7.48492 95.5543 6.57708 96.676 5.90773C97.7982 5.23832 99.3192 4.8623 100.906 4.8623C102.492 4.8623 104.013 5.23832 105.135 5.90773ZM94.7534 17.7115C94.3757 17.7115 94.0698 18.0312 94.0698 18.4254V18.9608C94.0698 19.0593 94.1461 19.1392 94.2407 19.1392H107.058C107.436 19.1392 107.742 18.8196 107.742 18.4254V17.89C107.742 17.7914 107.665 17.7115 107.571 17.7115H94.7534ZM88.9429 5.57615C88.9429 5.18193 89.2488 4.8623 89.6264 4.8623H90.4809C90.5755 4.8623 90.6518 4.9422 90.6518 5.04077V18.4254C90.6518 18.8196 90.3459 19.1392 89.9682 19.1392H89.1138C89.0192 19.1392 88.9429 19.0593 88.9429 18.9608V10.5731H86.8921V13.0715C86.8921 13.7342 86.3697 14.3697 85.4406 14.8382C84.5109 15.3068 83.2502 15.57 81.936 15.57C80.6218 15.57 79.3612 15.3068 78.4315 14.8382C77.5023 14.3697 76.98 13.7342 76.98 13.0715V5.57615C76.98 5.18193 77.2859 4.8623 77.6636 4.8623H78.5181C78.6126 4.8623 78.689 4.9422 78.689 5.04077V9.14538H85.1831V5.57615C85.1831 5.18193 85.489 4.8623 85.8667 4.8623H86.7212C86.8157 4.8623 86.8921 4.9422 86.8921 5.04077V9.14538H88.9429V5.57615ZM78.689 13.0715V10.5731H85.1831V13.0715C85.1831 13.2122 85.0994 13.3514 84.9359 13.4813C84.7729 13.6112 84.5337 13.7292 84.2323 13.8287C83.9304 13.9281 83.5727 14.007 83.1785 14.0608C82.7848 14.1146 82.3627 14.1423 81.936 14.1423C81.5093 14.1423 81.0872 14.1146 80.6936 14.0608C80.2994 14.007 79.9416 13.9281 79.6397 13.8287C79.3384 13.7292 79.0991 13.6112 78.9362 13.4813C78.7727 13.3514 78.689 13.2122 78.689 13.0715Z" fill="#181F29"/>
</svg>
