<svg width="83" height="18" viewBox="0 0 83 18" fill="none" xmlns="http://www.w3.org/2000/svg">
<path fill-rule="evenodd" clip-rule="evenodd" d="M4.96469 2.30774H25.0568C25.4207 2.30774 25.7811 2.3826 26.1173 2.52805C26.4536 2.67345 26.7591 2.88662 27.0164 3.15534C27.2738 3.4241 27.4779 3.74311 27.6171 4.09423C27.7564 4.44535 27.8281 4.82168 27.8281 5.20172V11.894C27.8281 12.2741 27.7564 12.6504 27.6171 13.0015C27.4779 13.3526 27.2738 13.6716 27.0164 13.9404C26.7591 14.2091 26.4536 14.4222 26.1173 14.5677C25.7811 14.7131 25.4207 14.788 25.0568 14.788H18.6087C17.5836 15.3712 16.3196 15.6924 15.0107 15.6924C13.7018 15.6924 12.4379 15.3712 11.4128 14.788H4.96469C4.60076 14.788 4.24038 14.7131 3.90414 14.5677C3.56789 14.4222 3.26241 14.2091 3.00504 13.9404C2.74771 13.6716 2.54357 13.3526 2.40433 13.0015C2.26505 12.6504 2.19336 12.2741 2.19336 11.894V5.20172C2.19336 4.4342 2.48534 3.69809 3.00504 3.15534C3.52479 2.61264 4.2297 2.30774 4.96469 2.30774ZM4.96469 13.341H9.77663C9.35016 12.7314 9.12166 12.05 9.12166 11.3514C9.12166 11.0188 9.18438 10.6896 9.30628 10.3824C9.42813 10.0751 9.60676 9.79599 9.83192 9.56086C10.0571 9.3257 10.3244 9.1392 10.6186 9.01191C10.9128 8.88467 11.2282 8.81918 11.5466 8.81918C11.865 8.81918 12.1804 8.88467 12.4746 9.01191C12.7688 9.1392 13.0361 9.3257 13.2612 9.56086C13.4864 9.79599 13.665 10.0751 13.7869 10.3824C13.9088 10.6896 13.9715 11.0188 13.9715 11.3514C13.9715 12.2696 13.5768 13.1578 12.8567 13.8929C13.5118 14.1221 14.2513 14.2454 15.0107 14.2454C15.7701 14.2454 16.5097 14.1221 17.1647 13.8929C16.4447 13.1578 16.05 12.2696 16.05 11.3514C16.05 11.0188 16.1127 10.6896 16.2346 10.3824C16.3564 10.0751 16.5351 9.79599 16.7602 9.56086C16.9854 9.3257 17.2527 9.1392 17.5469 9.01191C17.8411 8.88467 18.1565 8.81918 18.4749 8.81918C18.7934 8.81918 19.1087 8.88467 19.4029 9.01191C19.6971 9.1392 19.9644 9.3257 20.1896 9.56086C20.4148 9.79599 20.5933 10.0751 20.7152 10.3824C20.8371 10.6896 20.8998 11.0188 20.8998 11.3514C20.8998 12.05 20.6713 12.7314 20.2448 13.341H25.0568C25.2387 13.341 25.419 13.3036 25.5871 13.2309C25.7552 13.1582 25.9079 13.0516 26.0366 12.9172C26.1653 12.7828 26.2673 12.6233 26.337 12.4477C26.4066 12.2722 26.4425 12.084 26.4425 11.894V5.20172C26.4425 5.0117 26.4066 4.82351 26.337 4.648C26.2673 4.47243 26.1653 4.31289 26.0366 4.17855C25.9079 4.04417 25.7552 3.93758 25.5871 3.86486C25.419 3.79214 25.2387 3.75471 25.0568 3.75471H4.96469C4.59717 3.75471 4.24474 3.90716 3.98489 4.17855C3.72499 4.4499 3.579 4.81793 3.579 5.20172V11.894C3.579 12.084 3.61485 12.2722 3.68449 12.4477C3.75413 12.6233 3.8562 12.7828 3.98489 12.9172C4.11353 13.0516 4.26631 13.1582 4.43444 13.2309C4.60251 13.3036 4.78273 13.341 4.96469 13.341ZM11.5466 13.2006C12.2154 12.6832 12.5858 12.0296 12.5858 11.3514C12.5858 11.2089 12.5589 11.0677 12.5067 10.9361C12.4545 10.8044 12.378 10.6848 12.2814 10.584C12.1849 10.4832 12.0704 10.4033 11.9443 10.3488C11.8182 10.2943 11.683 10.2661 11.5466 10.2661C11.4101 10.2661 11.275 10.2943 11.1489 10.3488C11.0228 10.4033 10.9082 10.4832 10.8117 10.584C10.7152 10.6848 10.6387 10.8044 10.5864 10.9361C10.5342 11.0677 10.5073 11.2089 10.5073 11.3514C10.5073 12.0296 10.8777 12.6832 11.5466 13.2006ZM19.5141 11.3514C19.5141 12.0296 19.1437 12.6832 18.4749 13.2006C17.8061 12.6832 17.4357 12.0296 17.4357 11.3514C17.4357 11.2089 17.4625 11.0677 17.5147 10.9361C17.567 10.8044 17.6435 10.6848 17.74 10.584C17.8365 10.4832 17.9511 10.4033 18.0772 10.3488C18.2033 10.2943 18.3384 10.2661 18.4749 10.2661C18.6113 10.2661 18.7465 10.2943 18.8726 10.3488C18.9987 10.4033 19.1132 10.4832 19.2098 10.584C19.3063 10.6848 19.3828 10.8044 19.435 10.9361C19.4872 11.0677 19.5141 11.2089 19.5141 11.3514Z" fill="current"/>
<path fill-rule="evenodd" clip-rule="evenodd" d="M41.5854 3.64624C41.3022 3.64624 41.0728 3.88596 41.0728 4.18162V6.85855H40.0474V3.78009C40.0474 3.70616 39.9901 3.64624 39.9192 3.64624H39.2783C38.9951 3.64624 38.7656 3.88596 38.7656 4.18162V11.0078C38.7656 11.0817 38.8229 11.1416 38.8938 11.1416H39.5347C39.8179 11.1416 40.0474 10.9019 40.0474 10.6062V7.92932H41.0728V11.0078C41.0728 11.0817 41.13 11.1416 41.2009 11.1416H41.8418C42.1251 11.1416 42.3545 10.9019 42.3545 10.6062V3.78009C42.3545 3.70616 42.2972 3.64624 42.2263 3.64624H41.5854ZM32.3569 11.9447C32.3569 11.7968 32.4719 11.677 32.6133 11.677H33.5105C33.5814 11.677 33.6387 11.7369 33.6387 11.8109V12.2124C33.6387 12.4964 34.0437 12.7687 34.7649 12.9696C35.4861 13.1703 36.464 13.2832 37.4839 13.2832H42.2263C42.2972 13.2832 42.3545 13.3431 42.3545 13.417V13.8185C42.3545 14.1142 42.1251 14.3539 41.8418 14.3539H37.4839C36.124 14.3539 34.82 14.1283 33.8587 13.7267C32.897 13.3251 32.3569 12.7803 32.3569 12.2124V11.9447ZM35.1768 6.85855C33.478 6.85855 32.1006 7.81733 32.1006 9.00009C32.1006 10.1828 33.478 11.1416 35.1768 11.1416C36.8755 11.1416 38.2529 10.1828 38.2529 9.00009C38.2529 7.81733 36.8755 6.85855 35.1768 6.85855ZM35.1768 7.92932C34.1855 7.92932 33.3823 8.40871 33.3823 9.00009C33.3823 9.59146 34.1855 10.0709 35.1768 10.0709C36.168 10.0709 36.9712 9.59146 36.9712 9.00009C36.9712 8.40871 36.168 7.92932 35.1768 7.92932ZM32.6133 5.25239C32.33 5.25239 32.1006 5.49211 32.1006 5.78778V6.18932C32.1006 6.26324 32.1578 6.32316 32.2288 6.32316H37.7402C38.0235 6.32316 38.2529 6.08344 38.2529 5.78778V5.38624C38.2529 5.31231 38.1957 5.25239 38.1248 5.25239H32.6133ZM33.126 4.18162C33.126 3.88596 33.3554 3.64624 33.6387 3.64624H37.0994C37.1703 3.64624 37.2275 3.70616 37.2275 3.78009V4.18162C37.2275 4.47729 36.9981 4.71701 36.7148 4.71701H33.2542C33.1832 4.71701 33.126 4.65709 33.126 4.58316V4.18162ZM54.4028 3.64624C54.1196 3.64624 53.8901 3.88596 53.8901 4.18162V14.2201C53.8901 14.294 53.9474 14.3539 54.0183 14.3539H54.6592C54.9424 14.3539 55.1719 14.1142 55.1719 13.8185V3.78009C55.1719 3.70616 55.1146 3.64624 55.0437 3.64624H54.4028ZM51.3267 9.53547C51.1852 9.53547 51.0703 9.65531 51.0703 9.80316C51.0703 9.90863 51.0075 10.013 50.8849 10.1105C50.7627 10.2079 50.5832 10.2964 50.3572 10.371C50.1308 10.4456 49.8625 10.5047 49.5668 10.5451C49.2716 10.5854 48.955 10.6062 48.635 10.6062C48.315 10.6062 47.9984 10.5854 47.7032 10.5451C47.4075 10.5047 47.1392 10.4456 46.9128 10.371C46.6868 10.2964 46.5073 10.2079 46.3851 10.1105C46.2625 10.013 46.1997 9.90863 46.1997 9.80316V4.71701H51.8393C52.1226 4.71701 52.352 4.47729 52.352 4.18162V3.78009C52.352 3.70616 52.2948 3.64624 52.2239 3.64624H45.4307C45.1474 3.64624 44.918 3.88596 44.918 4.18162V4.71701V9.80316C44.918 10.3001 45.3097 10.7768 46.0066 11.1282C46.7039 11.4796 47.6493 11.677 48.635 11.677C49.6207 11.677 50.5662 11.4796 51.2634 11.1282C51.9603 10.7768 52.352 10.3001 52.352 9.80316V9.66932C52.352 9.59539 52.2948 9.53547 52.2239 9.53547H51.3267ZM78.852 4.43031C79.6932 4.93232 80.1658 5.6132 80.1658 6.32316V10.6062C80.1658 10.9019 79.9363 11.1416 79.6531 11.1416H79.0122C78.9413 11.1416 78.884 11.0817 78.884 11.0078V6.32316C78.884 6.11222 78.8011 5.90338 78.6401 5.7085C78.479 5.51366 78.2431 5.33658 77.9454 5.18743C77.648 5.03829 77.2947 4.92001 76.9059 4.83926C76.5171 4.75855 76.1005 4.71701 75.6797 4.71701C75.2588 4.71701 74.8423 4.75855 74.4535 4.83926C74.0647 4.92001 73.7113 5.03829 73.414 5.18743C73.1162 5.33658 72.8804 5.51366 72.7193 5.7085C72.5582 5.90338 72.4753 6.11222 72.4753 6.32316V10.6062C72.4753 10.9019 72.2459 11.1416 71.9626 11.1416H71.3218C71.2508 11.1416 71.1936 11.0817 71.1936 11.0078V6.32316C71.1936 5.6132 71.6661 4.93232 72.5074 4.43031C73.349 3.92825 74.4898 3.64624 75.6797 3.64624C76.8696 3.64624 78.0103 3.92825 78.852 4.43031ZM71.0654 13.2832C70.7822 13.2832 70.5527 13.5229 70.5527 13.8185V14.2201C70.5527 14.294 70.61 14.3539 70.6809 14.3539H80.2939C80.5772 14.3539 80.8066 14.1142 80.8066 13.8185V13.417C80.8066 13.3431 80.7494 13.2832 80.6785 13.2832H71.0654ZM66.7075 4.18162C66.7075 3.88596 66.9369 3.64624 67.2202 3.64624H67.8611C67.932 3.64624 67.9892 3.70616 67.9892 3.78009V13.8185C67.9892 14.1142 67.7598 14.3539 67.4766 14.3539H66.8357C66.7648 14.3539 66.7075 14.294 66.7075 14.2201V7.92932H65.1694V9.80316C65.1694 10.3001 64.7776 10.7768 64.0808 11.1282C63.3835 11.4796 62.438 11.677 61.4524 11.677C60.4667 11.677 59.5212 11.4796 58.824 11.1282C58.1271 10.7768 57.7353 10.3001 57.7353 9.80316V4.18162C57.7353 3.88596 57.9648 3.64624 58.248 3.64624H58.8889C58.9598 3.64624 59.0171 3.70616 59.0171 3.78009V6.85855H63.8877V4.18162C63.8877 3.88596 64.1171 3.64624 64.4004 3.64624H65.0412C65.1122 3.64624 65.1694 3.70616 65.1694 3.78009V6.85855H66.7075V4.18162ZM59.0171 9.80316V7.92932H63.8877V9.80316C63.8877 9.90863 63.8249 10.013 63.7023 10.1105C63.5801 10.2079 63.4006 10.2964 63.1746 10.371C62.9482 10.4456 62.6799 10.5047 62.3842 10.5451C62.089 10.5854 61.7724 10.6062 61.4524 10.6062C61.1324 10.6062 60.8158 10.5854 60.5206 10.5451C60.2249 10.5047 59.9566 10.4456 59.7302 10.371C59.5041 10.2964 59.3247 10.2079 59.2025 10.1105C59.0799 10.013 59.0171 9.90863 59.0171 9.80316Z" fill="current"/>
</svg>
