<svg width="215" height="108" viewBox="0 0 215 108" fill="none" xmlns="http://www.w3.org/2000/svg">
<g id="_&#235;&#160;&#136;&#236;&#157;&#180;&#236;&#150;&#180;_1" clip-path="url(#clip0_403_2888)">
<path id="Vector" fill-rule="evenodd" clip-rule="evenodd" d="M191.755 0H23.2446C10.406 0 0 10.4544 0 23.3527V77.3527C0 90.2479 10.406 100.702 23.2446 100.702H77.1451C85.871 105.479 96.5934 108 107.5 108C118.407 108 129.129 105.479 137.855 100.702H191.755C204.591 100.702 215 90.2479 215 77.3527V23.3527C215 10.4575 204.594 0 191.755 0ZM203.378 77.3527V23.3527C203.378 16.9035 198.175 11.6763 191.755 11.6763H23.2446C16.8253 11.6763 11.6223 16.9035 11.6223 23.3527V77.3527C11.6223 83.8018 16.8253 89.029 23.2446 89.029H63.5079C60.0833 84.2678 58.1084 78.8122 58.1084 72.9741C58.1084 61.6896 67.2151 52.5405 78.4474 52.5405C89.6796 52.5405 98.7864 61.6896 98.7864 72.9741C98.7864 80.7161 95.3126 87.7824 89.5966 93.457C95.0024 95.2992 101.127 96.3237 107.503 96.3237C113.879 96.3237 120.007 95.2992 125.41 93.457C119.694 87.7824 116.22 80.7161 116.22 72.9741C116.22 61.6896 125.327 52.5405 136.559 52.5405C147.791 52.5405 156.898 61.6896 156.898 72.9741C156.898 78.8122 154.923 84.2647 151.501 89.029H191.765C198.184 89.029 203.387 83.8018 203.387 77.3527H203.378ZM69.7306 72.9741C69.7306 68.1387 73.6344 64.2168 78.4474 64.2168C83.2603 64.2168 87.1641 68.1387 87.1641 72.9741C87.1641 77.8094 84.4766 83.2001 78.4474 87.7207C72.4212 83.197 69.7306 77.8495 69.7306 72.9741ZM136.553 64.2168C141.366 64.2168 145.269 68.1387 145.269 72.9741C145.269 77.8094 142.582 83.2001 136.553 87.7207C130.523 83.197 127.836 77.8495 127.836 72.9741C127.836 68.0986 131.74 64.2168 136.553 64.2168Z" fill="white"/>
</g>
<defs>
<clipPath id="clip0_403_2888">
<rect width="215" height="108" fill="white"/>
</clipPath>
</defs>
</svg>
