<svg width="83" height="18" viewBox="0 0 83 18" fill="none" xmlns="http://www.w3.org/2000/svg">
<g id="KoreanHorizontalCompositionLogo">
<path id="Vector" fill-rule="evenodd" clip-rule="evenodd" d="M4.96445 2.30859H25.0565C25.4205 2.30859 25.7808 2.38346 26.1171 2.5289C26.4533 2.67431 26.7588 2.88748 27.0162 3.1562C27.2735 3.42496 27.4777 3.74396 27.6169 4.09508C27.7562 4.44621 27.8279 4.82254 27.8279 5.20257V11.8949C27.8279 12.2749 27.7562 12.6512 27.6169 13.0024C27.4777 13.3534 27.2735 13.6725 27.0162 13.9412C26.7588 14.21 26.4533 14.4231 26.1171 14.5685C25.7808 14.714 25.4205 14.7889 25.0565 14.7889H18.6085C17.5834 15.372 16.3194 15.6932 15.0105 15.6932C13.7016 15.6932 12.4376 15.372 11.4125 14.7889H4.96445C4.60052 14.7889 4.24014 14.714 3.90389 14.5685C3.56765 14.4231 3.26217 14.21 3.0048 13.9412C2.74747 13.6725 2.54333 13.3534 2.40409 13.0024C2.26481 12.6512 2.19312 12.2749 2.19312 11.8949V5.20257C2.19312 4.43505 2.48509 3.69894 3.0048 3.1562C3.52454 2.61349 4.22945 2.30859 4.96445 2.30859ZM4.96445 13.3418H9.77639C9.34991 12.7322 9.12142 12.0509 9.12142 11.3523C9.12142 11.0197 9.18414 10.6904 9.30603 10.3832C9.42788 10.076 9.60651 9.79684 9.83167 9.56172C10.0568 9.32655 10.3242 9.14006 10.6184 9.01277C10.9126 8.88553 11.2279 8.82003 11.5463 8.82003C11.8648 8.82003 12.1801 8.88553 12.4743 9.01277C12.7685 9.14006 13.0358 9.32655 13.261 9.56172C13.4862 9.79684 13.6648 10.076 13.7866 10.3832C13.9085 10.6904 13.9713 11.0197 13.9713 11.3523C13.9713 12.2705 13.5766 13.1587 12.8565 13.8937C13.5115 14.123 14.2511 14.2462 15.0105 14.2462C15.7699 14.2462 16.5094 14.123 17.1645 13.8937C16.4444 13.1587 16.0497 12.2705 16.0497 11.3523C16.0497 11.0197 16.1124 10.6904 16.2343 10.3832C16.3562 10.076 16.5348 9.79684 16.76 9.56172C16.9851 9.32655 17.2525 9.14006 17.5467 9.01277C17.8409 8.88553 18.1562 8.82003 18.4746 8.82003C18.7931 8.82003 19.1084 8.88553 19.4026 9.01277C19.6968 9.14006 19.9641 9.32655 20.1893 9.56172C20.4145 9.79684 20.5931 10.076 20.715 10.3832C20.8368 10.6904 20.8996 11.0197 20.8996 11.3523C20.8996 12.0509 20.6711 12.7322 20.2446 13.3418H25.0565C25.2385 13.3418 25.4187 13.3044 25.5868 13.2317C25.7549 13.159 25.9077 13.0524 26.0363 12.918C26.165 12.7837 26.2671 12.6242 26.3367 12.4486C26.4064 12.273 26.4422 12.0849 26.4422 11.8949V5.20257C26.4422 5.01255 26.4064 4.82437 26.3367 4.64885C26.2671 4.47329 26.165 4.31374 26.0363 4.17941C25.9077 4.04502 25.7549 3.93844 25.5868 3.86572C25.4187 3.79299 25.2385 3.75556 25.0565 3.75556H4.96445C4.59693 3.75556 4.24449 3.90801 3.98464 4.17941C3.72475 4.45076 3.57876 4.81879 3.57876 5.20257V11.8949C3.57876 12.0849 3.61461 12.273 3.68425 12.4486C3.75389 12.6242 3.85596 12.7837 3.98464 12.918C4.11329 13.0524 4.26607 13.159 4.43419 13.2317C4.60227 13.3044 4.78248 13.3418 4.96445 13.3418ZM11.5463 13.2014C12.2151 12.684 12.5856 12.0304 12.5856 11.3523C12.5856 11.2097 12.5587 11.0686 12.5065 10.9369C12.4542 10.8053 12.3777 10.6857 12.2812 10.5849C12.1847 10.4841 12.0701 10.4041 11.944 10.3496C11.8179 10.2951 11.6828 10.267 11.5463 10.267C11.4099 10.267 11.2747 10.2951 11.1486 10.3496C11.0225 10.4041 10.908 10.4841 10.8115 10.5849C10.715 10.6857 10.6384 10.8053 10.5862 10.9369C10.534 11.0686 10.5071 11.2097 10.5071 11.3523C10.5071 12.0304 10.8775 12.684 11.5463 13.2014ZM19.5139 11.3523C19.5139 12.0304 19.1435 12.684 18.4746 13.2014C17.8058 12.684 17.4354 12.0304 17.4354 11.3523C17.4354 11.2097 17.4623 11.0686 17.5145 10.9369C17.5667 10.8053 17.6433 10.6857 17.7398 10.5849C17.8363 10.4841 17.9508 10.4041 18.077 10.3496C18.203 10.2951 18.3382 10.267 18.4746 10.267C18.6111 10.267 18.7462 10.2951 18.8724 10.3496C18.9984 10.4041 19.113 10.4841 19.2095 10.5849C19.306 10.6857 19.3825 10.8053 19.4348 10.9369C19.487 11.0686 19.5139 11.2097 19.5139 11.3523Z" fill="#00C896"/>
<path id="Vector_2" fill-rule="evenodd" clip-rule="evenodd" d="M41.5852 3.64648C41.3019 3.64648 41.0725 3.8862 41.0725 4.18187V6.85879H40.0471V3.78033C40.0471 3.7064 39.9899 3.64648 39.9189 3.64648H39.2781C38.9948 3.64648 38.7654 3.8862 38.7654 4.18187V11.008C38.7654 11.082 38.8226 11.1419 38.8936 11.1419H39.5344C39.8177 11.1419 40.0471 10.9022 40.0471 10.6065V7.92956H41.0725V11.008C41.0725 11.082 41.1298 11.1419 41.2007 11.1419H41.8415C42.1248 11.1419 42.3542 10.9022 42.3542 10.6065V3.78033C42.3542 3.7064 42.297 3.64648 42.2261 3.64648H41.5852ZM32.3567 11.9449C32.3567 11.7971 32.4716 11.6773 32.613 11.6773H33.5103C33.5812 11.6773 33.6384 11.7372 33.6384 11.8111V12.2126C33.6384 12.4966 34.0435 12.769 34.7646 12.9698C35.4858 13.1706 36.4638 13.2834 37.4836 13.2834H42.2261C42.297 13.2834 42.3542 13.3433 42.3542 13.4173V13.8188C42.3542 14.1145 42.1248 14.3542 41.8415 14.3542H37.4836C36.1237 14.3542 34.8198 14.1286 33.8585 13.7269C32.8967 13.3253 32.3567 12.7806 32.3567 12.2126V11.9449ZM35.1765 6.85879C33.4778 6.85879 32.1003 7.81758 32.1003 9.00033C32.1003 10.1831 33.4778 11.1419 35.1765 11.1419C36.8752 11.1419 38.2527 10.1831 38.2527 9.00033C38.2527 7.81758 36.8752 6.85879 35.1765 6.85879ZM35.1765 7.92956C34.1853 7.92956 33.3821 8.40895 33.3821 9.00033C33.3821 9.59171 34.1853 10.0711 35.1765 10.0711C36.1677 10.0711 36.9709 9.59171 36.9709 9.00033C36.9709 8.40895 36.1677 7.92956 35.1765 7.92956ZM32.613 5.25264C32.3298 5.25264 32.1003 5.49236 32.1003 5.78802V6.18956C32.1003 6.26349 32.1576 6.32341 32.2285 6.32341H37.74C38.0233 6.32341 38.2527 6.08369 38.2527 5.78802V5.38648C38.2527 5.31256 38.1954 5.25264 38.1245 5.25264H32.613ZM33.1257 4.18187C33.1257 3.8862 33.3552 3.64648 33.6384 3.64648H37.0991C37.17 3.64648 37.2273 3.7064 37.2273 3.78033V4.18187C37.2273 4.47754 36.9979 4.71725 36.7146 4.71725H33.2539C33.183 4.71725 33.1257 4.65734 33.1257 4.58341V4.18187ZM54.4026 3.64648C54.1193 3.64648 53.8899 3.8862 53.8899 4.18187V14.2203C53.8899 14.2943 53.9471 14.3542 54.0181 14.3542H54.6589C54.9422 14.3542 55.1716 14.1145 55.1716 13.8188V3.78033C55.1716 3.7064 55.1144 3.64648 55.0434 3.64648H54.4026ZM51.3264 9.53572C51.185 9.53572 51.0701 9.65555 51.0701 9.80341C51.0701 9.90888 51.0073 10.0133 50.8846 10.1107C50.7624 10.2082 50.583 10.2967 50.357 10.3713C50.1306 10.4458 49.8622 10.505 49.5666 10.5454C49.2714 10.5857 48.9548 10.6065 48.6348 10.6065C48.3148 10.6065 47.9982 10.5857 47.7029 10.5454C47.4073 10.505 47.139 10.4458 46.9125 10.3713C46.6865 10.2967 46.5071 10.2082 46.3849 10.1107C46.2623 10.0133 46.1995 9.90888 46.1995 9.80341V4.71725H51.8391C52.1224 4.71725 52.3518 4.47754 52.3518 4.18187V3.78033C52.3518 3.7064 52.2945 3.64648 52.2236 3.64648H45.4304C45.1472 3.64648 44.9177 3.8862 44.9177 4.18187V4.71725V9.80341C44.9177 10.3004 45.3095 10.777 46.0063 11.1284C46.7036 11.4798 47.6491 11.6773 48.6348 11.6773C49.6204 11.6773 50.5659 11.4798 51.2632 11.1284C51.96 10.777 52.3518 10.3004 52.3518 9.80341V9.66956C52.3518 9.59563 52.2945 9.53572 52.2236 9.53572H51.3264ZM78.8517 4.43056C79.693 4.93257 80.1655 5.61344 80.1655 6.32341V10.6065C80.1655 10.9022 79.9361 11.1419 79.6528 11.1419H79.0119C78.941 11.1419 78.8838 11.082 78.8838 11.008V6.32341C78.8838 6.11247 78.8009 5.90362 78.6398 5.70874C78.4787 5.51391 78.2429 5.33683 77.9451 5.18768C77.6478 5.03853 77.2944 4.92025 76.9056 4.8395C76.5168 4.75879 76.1003 4.71725 75.6794 4.71725C75.2586 4.71725 74.842 4.75879 74.4532 4.8395C74.0644 4.92025 73.7111 5.03853 73.4137 5.18768C73.116 5.33683 72.8801 5.51391 72.719 5.70874C72.558 5.90362 72.4751 6.11247 72.4751 6.32341V10.6065C72.4751 10.9022 72.2457 11.1419 71.9624 11.1419H71.3215C71.2506 11.1419 71.1933 11.082 71.1933 11.008V6.32341C71.1933 5.61344 71.6659 4.93257 72.5071 4.43056C73.3488 3.9285 74.4895 3.64648 75.6794 3.64648C76.8693 3.64648 78.0101 3.9285 78.8517 4.43056ZM71.0652 13.2834C70.7819 13.2834 70.5525 13.5231 70.5525 13.8188V14.2203C70.5525 14.2943 70.6097 14.3542 70.6806 14.3542H80.2937C80.577 14.3542 80.8064 14.1145 80.8064 13.8188V13.4173C80.8064 13.3433 80.7491 13.2834 80.6782 13.2834H71.0652ZM66.7073 4.18187C66.7073 3.8862 66.9367 3.64648 67.22 3.64648H67.8608C67.9318 3.64648 67.989 3.7064 67.989 3.78033V13.8188C67.989 14.1145 67.7596 14.3542 67.4763 14.3542H66.8354C66.7645 14.3542 66.7073 14.2943 66.7073 14.2203V7.92956H65.1692V9.80341C65.1692 10.3004 64.7774 10.777 64.0806 11.1284C63.3833 11.4798 62.4378 11.6773 61.4521 11.6773C60.4665 11.6773 59.521 11.4798 58.8237 11.1284C58.1269 10.777 57.7351 10.3004 57.7351 9.80341V4.18187C57.7351 3.8862 57.9645 3.64648 58.2478 3.64648H58.8887C58.9596 3.64648 59.0168 3.7064 59.0168 3.78033V6.85879H63.8874V4.18187C63.8874 3.8862 64.1169 3.64648 64.4001 3.64648H65.041C65.1119 3.64648 65.1692 3.7064 65.1692 3.78033V6.85879H66.7073V4.18187ZM59.0168 9.80341V7.92956H63.8874V9.80341C63.8874 9.90888 63.8246 10.0133 63.702 10.1107C63.5798 10.2082 63.4004 10.2967 63.1744 10.3713C62.9479 10.4458 62.6796 10.505 62.384 10.5454C62.0887 10.5857 61.7721 10.6065 61.4521 10.6065C61.1321 10.6065 60.8155 10.5857 60.5203 10.5454C60.2247 10.505 59.9563 10.4458 59.7299 10.3713C59.5039 10.2967 59.3245 10.2082 59.2023 10.1107C59.0796 10.0133 59.0168 9.90888 59.0168 9.80341Z" fill="#00C896"/>
</g>
</svg>
