<svg width="28" height="14" viewBox="0 0 28 14" fill="none" xmlns="http://www.w3.org/2000/svg">
<path id="Vector" fill-rule="evenodd" clip-rule="evenodd" d="M24.4517 0.333008H3.55086C1.95871 0.333008 0.667969 1.62375 0.667969 3.2159V9.88257C0.667969 11.4747 1.95871 12.7654 3.55086 12.7654H10.2363C11.3185 13.3551 12.6485 13.6663 14.0013 13.6663C15.3541 13.6663 16.6841 13.3551 17.7663 12.7654H24.4517C26.0439 12.7654 27.3346 11.4747 27.3346 9.88257V3.2159C27.3346 1.62375 26.0439 0.333008 24.4517 0.333008ZM25.8932 9.88257V3.2159C25.8932 2.41979 25.2479 1.77446 24.4517 1.77446H3.55086C2.75475 1.77446 2.10942 2.41979 2.10942 3.2159V9.88257C2.10942 10.6787 2.75475 11.324 3.55086 11.324H8.54469C8.12012 10.7361 7.87517 10.0627 7.87517 9.342C7.87517 7.94889 9.00454 6.81948 10.3977 6.81948C11.7908 6.81948 12.9202 7.94889 12.9202 9.342C12.9202 10.2978 12.4894 11.1701 11.7803 11.8708C12.4506 12.0984 13.2102 12.2249 14.0013 12.2249C14.7924 12.2249 15.552 12.0984 16.2223 11.8708C15.5132 11.1701 15.0824 10.2978 15.0824 9.342C15.0824 7.94889 16.2118 6.81948 17.6049 6.81948C18.9981 6.81948 20.1274 7.94889 20.1274 9.342C20.1274 10.0627 19.8825 10.7361 19.4579 11.324H24.4517C25.2479 11.324 25.8932 10.6787 25.8932 9.88257ZM9.31662 9.342C9.31662 8.74501 9.80069 8.26093 10.3977 8.26093C10.9947 8.26093 11.4788 8.74501 11.4788 9.342C11.4788 9.94406 11.1453 10.6044 10.3977 11.1627C9.65006 10.6044 9.31662 9.94406 9.31662 9.342ZM17.6049 8.26093C18.2019 8.26093 18.686 8.74501 18.686 9.342C18.686 9.94406 18.3525 10.6044 17.6049 11.1627C16.8573 10.6044 16.5238 9.94406 16.5238 9.342C16.5238 8.74501 17.0079 8.26093 17.6049 8.26093Z" fill="#00C896"/>
</svg>
