<svg width="145" height="145" viewBox="0 0 145 145" fill="none" xmlns="http://www.w3.org/2000/svg">
<g id="mingcute:microphone-line" clip-path="url(#clip0_408_4710)">
<g id="Group">
<path id="Vector" d="M23.7071 26.708C30.2044 20.2058 38.6553 16.0147 47.7637 14.7775C56.8721 13.5403 66.1348 15.3254 74.131 19.8588C82.1273 24.3923 88.4155 31.4239 92.0311 39.8749C95.6467 48.326 96.39 57.7298 94.1471 66.644L93.7331 68.18L114.133 94.412C115.851 96.6198 116.967 99.2347 117.374 102.002C117.781 104.77 117.464 107.595 116.455 110.204C117.055 110.384 117.787 110.48 118.687 110.3L119.395 110.114C120.894 109.651 122.514 109.794 123.908 110.511C125.303 111.228 126.362 112.463 126.857 113.951C127.353 115.438 127.246 117.061 126.56 118.471C125.874 119.882 124.664 120.967 123.187 121.496C120.642 122.373 117.922 122.619 115.261 122.212C112.6 121.806 110.078 120.759 107.911 119.162C105.422 120.263 102.696 120.719 99.9841 120.489C97.2722 120.258 94.6623 119.348 92.3951 117.842L91.4111 117.14L65.1791 96.734C56.2264 99.3482 46.6583 98.9082 37.9834 95.4834C29.3085 92.0586 22.0202 85.8438 17.2679 77.8189C12.5155 69.794 10.5694 60.4156 11.7364 51.1624C12.9034 41.9092 17.1171 33.3076 23.7131 26.714L23.7071 26.708ZM87.9611 80.3C85.0793 84.468 81.4671 88.0802 77.2991 90.962L98.7791 107.666C99.5881 108.277 100.591 108.574 101.602 108.504C102.613 108.433 103.564 107.999 104.281 107.282C104.997 106.565 105.43 105.613 105.5 104.602C105.569 103.591 105.271 102.588 104.659 101.78L87.9611 80.3ZM78.0191 39.254L76.8011 41.27C71.9619 49.0659 66.2445 56.281 59.7611 62.774C53.2697 69.255 46.0566 74.9703 38.2631 79.808L36.2471 81.026C42.0253 85.0508 49.035 86.9152 56.0493 86.2929C63.0636 85.6706 69.6355 82.6011 74.6149 77.6218C79.5942 72.6424 82.6637 66.0705 83.286 59.0562C83.9083 52.0419 82.0439 45.0322 78.0191 39.254ZM69.0311 30.794C63.2855 27.2942 56.5308 25.8264 49.851 26.626C43.1712 27.4257 36.9537 30.4465 32.1967 35.2036C27.4396 39.9606 24.4188 46.1781 23.6192 52.8579C22.8195 59.5377 24.2873 66.2924 27.7871 72.038L29.7311 70.94C37.5889 66.3216 44.8304 60.7271 51.2831 54.29C57.1088 48.4499 62.2463 41.9616 66.5951 34.952L67.2911 33.812L68.5091 31.73L69.0311 30.794Z" fill="#F7F8F9"/>
</g>
</g>
<defs>
<clipPath id="clip0_408_4710">
<rect width="144" height="144" fill="white" transform="translate(0.5 0.5)"/>
</clipPath>
</defs>
</svg>
