<svg width="24" height="24" viewBox="0 0 24 24" fill="none" xmlns="http://www.w3.org/2000/svg">
<g id="icon-order">
<path id="filter_list" d="M10.5287 18C10.1145 18 9.77875 17.6642 9.77875 17.25C9.77875 16.8358 10.1145 16.5 10.5287 16.5H12.4615C12.8757 16.5 13.2115 16.8358 13.2115 17.25C13.2115 17.6642 12.8757 18 12.4615 18H10.5287ZM6.654 13.25C6.23979 13.25 5.904 12.9142 5.904 12.5C5.904 12.0858 6.23979 11.75 6.654 11.75H16.3365C16.7507 11.75 17.0865 12.0858 17.0865 12.5C17.0865 12.9142 16.7507 13.25 16.3365 13.25H6.654ZM3.75 8.5C3.33579 8.5 3 8.16421 3 7.75C3 7.33579 3.33579 7 3.75 7H19.25C19.6642 7 20 7.33579 20 7.75C20 8.16421 19.6642 8.5 19.25 8.5H3.75Z" fill="#181F29"/>
</g>
</svg>
