<svg width="145" height="144" viewBox="0 0 145 144" fill="none" xmlns="http://www.w3.org/2000/svg">
<g id="jam:write-f">
<path id="Vector" d="M131.236 8.88162L134.776 12.4216C139.654 17.3056 138.916 25.9636 133.114 31.7596L60.1118 104.762L36.4598 113.414C33.4898 114.506 30.5978 113.09 30.0098 110.264C29.8111 109.238 29.9046 108.178 30.2798 107.204L39.0998 83.3476L111.898 10.5436C117.7 4.74762 126.358 3.99762 131.236 8.88162ZM56.9258 16.1416C57.7137 16.1416 58.4939 16.2968 59.2219 16.5983C59.9498 16.8999 60.6113 17.3418 61.1684 17.899C61.7256 18.4561 62.1675 19.1176 62.4691 19.8455C62.7706 20.5735 62.9258 21.3537 62.9258 22.1416C62.9258 22.9295 62.7706 23.7098 62.4691 24.4377C62.1675 25.1657 61.7256 25.8271 61.1684 26.3843C60.6113 26.9414 59.9498 27.3834 59.2219 27.6849C58.4939 27.9864 57.7137 28.1416 56.9258 28.1416H32.9258C29.7432 28.1416 26.6909 29.4059 24.4405 31.6563C22.1901 33.9068 20.9258 36.959 20.9258 40.1416V112.142C20.9258 115.324 22.1901 118.376 24.4405 120.627C26.6909 122.877 29.7432 124.142 32.9258 124.142H104.926C108.108 124.142 111.161 122.877 113.411 120.627C115.662 118.376 116.926 115.324 116.926 112.142V88.1416C116.926 86.5503 117.558 85.0242 118.683 83.899C119.808 82.7738 121.334 82.1416 122.926 82.1416C124.517 82.1416 126.043 82.7738 127.168 83.899C128.294 85.0242 128.926 86.5503 128.926 88.1416V112.142C128.926 118.507 126.397 124.611 121.896 129.112C117.395 133.613 111.291 136.142 104.926 136.142H32.9258C26.5606 136.142 20.4561 133.613 15.9552 129.112C11.4543 124.611 8.92578 118.507 8.92578 112.142V40.1416C8.92578 33.7764 11.4543 27.6719 15.9552 23.1711C20.4561 18.6702 26.5606 16.1416 32.9258 16.1416H56.9258Z" fill="#F7F8F9"/>
</g>
</svg>
