<svg width="41" height="40" viewBox="0 0 41 40" fill="none" xmlns="http://www.w3.org/2000/svg">
<mask id="mask0_8797_35812" style="mask-type:alpha" maskUnits="userSpaceOnUse" x="0" y="0" width="41" height="40">
<rect x="0.5" width="40" height="40" fill="#D9D9D9"/>
</mask>
<g mask="url(#mask0_8797_35812)">
<path d="M21.4667 19.8767V13.922C21.4667 13.6013 21.3582 13.3325 21.1412 13.1154C20.9241 12.8987 20.6553 12.7903 20.3346 12.7903C20.0137 12.7903 19.745 12.8987 19.5285 13.1154C19.3117 13.3325 19.2033 13.6013 19.2033 13.922V20.2248C19.2033 20.4024 19.2362 20.5744 19.3021 20.7409C19.3678 20.9074 19.4713 21.0613 19.6126 21.2026L24.7807 26.3708C24.9895 26.5798 25.252 26.6867 25.5684 26.6914C25.8848 26.6962 26.1522 26.5893 26.3708 26.3708C26.5893 26.1522 26.6986 25.8872 26.6986 25.5756C26.6986 25.2642 26.5893 24.9993 26.3708 24.7807L21.4667 19.8767ZM20.3376 34.67C18.3549 34.67 16.4912 34.2938 14.7466 33.5413C13.002 32.7888 11.4845 31.7677 10.1941 30.4778C8.90372 29.1879 7.88203 27.671 7.12907 25.9272C6.37636 24.1833 6 22.3201 6 20.3376C6 18.3549 6.37623 16.4912 7.12869 14.7466C7.88115 13.002 8.90233 11.4845 10.1922 10.1941C11.4821 8.90372 12.999 7.88203 14.7428 7.12907C16.4867 6.37636 18.3499 6 20.3324 6C22.3151 6 24.1788 6.37623 25.9234 7.12869C27.668 7.88115 29.1855 8.90233 30.4759 10.1922C31.7663 11.4821 32.788 12.999 33.5409 14.7428C34.2936 16.4867 34.67 18.3499 34.67 20.3324C34.67 22.3151 34.2938 24.1788 33.5413 25.9234C32.7888 27.668 31.7677 29.1855 30.4778 30.4759C29.1879 31.7663 27.671 32.788 25.9272 33.5409C24.1833 34.2936 22.3201 34.67 20.3376 34.67ZM20.335 32.4066C23.6798 32.4066 26.528 31.2309 28.8794 28.8794C31.2309 26.528 32.4066 23.6798 32.4066 20.335C32.4066 16.9902 31.2309 14.142 28.8794 11.7906C26.528 9.43914 23.6798 8.26342 20.335 8.26342C16.9902 8.26342 14.142 9.43914 11.7906 11.7906C9.43914 14.142 8.26342 16.9902 8.26342 20.335C8.26342 23.6798 9.43914 26.528 11.7906 28.8794C14.142 31.2309 16.9902 32.4066 20.335 32.4066Z" fill="#CCCCCC"/>
</g>
</svg>
