<svg width="261" height="134" viewBox="0 0 261 134" fill="none" xmlns="http://www.w3.org/2000/svg">
<g clip-path="url(#clip0_10046_19308)">
<path d="M90.3965 65.0752L101.4 118.641H70.2051L81.209 65.0752L85.8027 65.0742L90.3965 65.0752Z" fill="#FFA148"/>
<mask id="mask0_10046_19308" style="mask-type:alpha" maskUnits="userSpaceOnUse" x="70" y="65" width="32" height="54">
<path d="M90.3965 65.0742L101.4 118.64H70.2051L81.209 65.0742L85.8027 65.0732L90.3965 65.0742Z" fill="#FF7E03"/>
</mask>
<g mask="url(#mask0_10046_19308)">
<rect x="74.9795" y="76.0049" width="21.9585" height="13.3748" fill="#F3F3F3"/>
</g>
<mask id="mask1_10046_19308" style="mask-type:alpha" maskUnits="userSpaceOnUse" x="70" y="65" width="32" height="54">
<path d="M90.3965 65.0742L101.4 118.64H70.2051L81.209 65.0742L85.8027 65.0732L90.3965 65.0742Z" fill="#FF7E03"/>
</mask>
<g mask="url(#mask1_10046_19308)">
<rect x="70.2051" y="97.8232" width="32.1174" height="13.3748" fill="#F3F3F3"/>
</g>
<rect x="66.3877" y="118.641" width="38.8299" height="3.72007" fill="#FF9531"/>
<path d="M154.241 114.035L202.356 88.0472L206.855 102.983L206.856 102.983L211.355 117.917L156.892 122.832L155.566 118.433L154.241 114.035Z" fill="#FFA148"/>
<mask id="mask2_10046_19308" style="mask-type:alpha" maskUnits="userSpaceOnUse" x="154" y="88" width="58" height="35">
<path d="M154.242 114.037L202.357 88.0498L206.856 102.984L206.857 102.984L211.356 117.919L156.893 122.833L155.567 118.435L155.566 118.435L154.242 114.037Z" fill="#FF7E03"/>
</mask>
<g mask="url(#mask2_10046_19308)">
<rect x="169.154" y="125.645" width="21.9585" height="13.3748" transform="rotate(-106.765 169.154 125.645)" fill="#F3F3F3"/>
</g>
<mask id="mask3_10046_19308" style="mask-type:alpha" maskUnits="userSpaceOnUse" x="154" y="88" width="58" height="35">
<path d="M154.242 114.037L202.357 88.0498L206.856 102.984L206.857 102.984L211.356 117.919L156.893 122.833L155.567 118.435L155.566 118.435L154.242 114.037Z" fill="#FF7E03"/>
</mask>
<g mask="url(#mask3_10046_19308)">
<rect x="191.422" y="123.924" width="32.1174" height="13.3748" transform="rotate(-106.765 191.422 123.924)" fill="#F3F3F3"/>
</g>
<rect x="212.453" y="121.573" width="38.8299" height="3.72007" transform="rotate(-106.765 212.453 121.573)" fill="#FF9531"/>
<rect x="127.942" y="45.6074" width="6" height="71.7561" fill="#F3F3F3"/>
<rect x="123.501" y="117.363" width="14.8829" height="4.997" fill="#E6E6E6"/>
<path d="M146.569 63.8174L115.317 63.8174L99.6914 36.7529L115.317 9.68847L146.569 9.68848L162.194 36.7529L146.569 63.8174Z" fill="#F45353" stroke="#E6E6E6" stroke-width="2.51371"/>
<path d="M117.02 33.902C116.904 32.7831 115.926 32.145 114.55 32.145C113.084 32.145 112.155 32.8992 112.147 33.9185C112.147 35.054 113.382 35.5015 114.335 35.7253L115.495 36.0402C117.028 36.4131 118.951 37.2502 118.959 39.4216C118.951 41.4521 117.335 42.9355 114.501 42.9355C111.816 42.9355 110.125 41.5929 110.009 39.405H111.832C111.94 40.7144 113.1 41.336 114.501 41.3443C116.034 41.336 117.144 40.5653 117.153 39.3884C117.144 38.3442 116.15 37.9215 114.882 37.5817L113.456 37.2005C111.525 36.6701 110.332 35.6921 110.324 34.018C110.332 31.9461 112.172 30.5703 114.6 30.5703C117.037 30.5703 118.736 31.9626 118.794 33.902H117.02Z" fill="white"/>
<path d="M120.319 32.3107V30.7361H129.617V32.3107H125.888V42.7366H124.065V32.3107H120.319Z" fill="white"/>
<path d="M141.386 36.7364C141.386 40.5736 139.082 42.9024 135.982 42.9024C132.858 42.9024 130.562 40.5653 130.562 36.7364C130.562 32.8992 132.858 30.5703 135.982 30.5703C139.082 30.5703 141.386 32.8992 141.386 36.7364ZM132.369 36.7364C132.377 39.6536 133.91 41.2366 135.982 41.2283C138.038 41.2366 139.571 39.6536 139.579 36.7364C139.571 33.8191 138.038 32.2361 135.982 32.2444C133.91 32.2361 132.377 33.8191 132.369 36.7364Z" fill="white"/>
<path d="M143.441 42.7366V30.7361H147.718C150.511 30.7361 151.878 32.4102 151.878 34.6313C151.878 36.8441 150.502 38.5265 147.718 38.5265H145.265V42.7366H143.441ZM145.265 36.9684H147.535C149.301 36.9767 150.038 35.9822 150.038 34.6313C150.038 33.2721 149.301 32.3024 147.535 32.2942H145.265V36.9684Z" fill="white"/>
</g>
<defs>
<clipPath id="clip0_10046_19308">
<rect width="260" height="133" fill="white" transform="translate(0.943359 0.727539)"/>
</clipPath>
</defs>
</svg>
