<svg width="24" height="24" viewBox="0 0 24 24" fill="none" xmlns="http://www.w3.org/2000/svg">
<g id="&#237;&#138;&#184;&#236;&#156;&#132;&#237;&#132;&#176; &#235;&#161;&#156;&#234;&#179;&#160;" clip-path="url(#clip0_901_11206)">
<path id="Vector" d="M21.4799 6.03374C21.4944 6.28903 21.4944 6.54433 21.4944 6.80197C21.4944 14.6526 16.5783 23.7067 7.58895 23.7067V23.702C4.93346 23.7067 2.33314 22.782 0.0976562 21.0384C0.483785 21.0949 0.87185 21.1231 1.26088 21.1243C3.46153 21.1267 5.59927 20.229 7.33056 18.5761C5.23927 18.5279 3.4054 16.8702 2.76475 14.4502C3.49733 14.622 4.25217 14.5867 4.9712 14.3479C2.6912 13.7879 1.05088 11.3526 1.05088 8.52433V8.44903C1.73024 8.90903 2.49088 9.16433 3.26895 9.19256C1.12153 7.44785 0.459592 3.97491 1.75637 1.25962C4.23766 4.97138 7.89862 7.22785 11.8286 7.46668C11.4348 5.40315 11.9728 3.2408 13.2425 1.79021C15.2109 -0.459204 18.3067 -0.34391 20.157 2.04785C21.2515 1.7855 22.3006 1.29727 23.2606 0.605502C22.8957 1.9808 22.1322 3.14903 21.1122 3.89138C22.0809 3.75256 23.0273 3.43727 23.9186 2.95609C23.2625 4.15138 22.436 5.19256 21.4799 6.03374Z" fill="#1D9BF0"/>
</g>
<defs>
<clipPath id="clip0_901_11206">
<rect width="24" height="24" fill="white"/>
</clipPath>
</defs>
</svg>
