<svg width="24" height="24" viewBox="0 0 24 24" fill="none" xmlns="http://www.w3.org/2000/svg">
<path d="M3.39645 12.085L9.47064 17.7926C9.63084 17.9431 9.70892 18.1204 9.70489 18.3243C9.70072 18.5284 9.61854 18.7057 9.45834 18.8562C9.29801 19.0068 9.10932 19.082 8.89227 19.082C8.67522 19.082 8.48653 19.0068 8.3262 18.8562L2.14053 13.0555C1.99471 12.9184 1.88666 12.765 1.81637 12.595C1.74608 12.425 1.71094 12.255 1.71094 12.085C1.71094 11.9151 1.74608 11.7451 1.81637 11.5751C1.88666 11.4051 1.99471 11.2516 2.14053 11.1146L8.3262 5.3021C8.48653 5.15157 8.67731 5.07827 8.89852 5.08218C9.11973 5.08609 9.31044 5.16332 9.47064 5.31385C9.63084 5.46438 9.71094 5.64168 9.71094 5.84575C9.71094 6.0497 9.63084 6.22694 9.47064 6.37747L3.39645 12.085Z" fill="#1C1B1F"/>
</svg>
