<svg width="11" height="16" viewBox="0 0 11 15.7" fill="none" xmlns="http://www.w3.org/2000/svg">
<path id="Subtract" d="M10.25 5.42631C10.25 6.58335 9.61509 8.2139 8.64282 9.9146C7.69363 11.575 6.49418 13.1807 5.50127 14.2711C4.54051 13.2082 3.34032 11.6 2.38213 9.9307C1.39926 8.2185 0.75 6.57593 0.75 5.42631C0.75 2.87588 2.86269 0.78331 5.5 0.78331C8.13731 0.78331 10.25 2.87588 10.25 5.42631ZM5.5 7.74301C6.79959 7.74301 7.8784 6.70617 7.8784 5.39629C7.8784 4.08641 6.79959 3.04957 5.5 3.04957C4.20041 3.04957 3.1216 4.08641 3.1216 5.39629C3.1216 6.70617 4.20041 7.74301 5.5 7.74301Z" fill="#00C896" stroke="#00C896" stroke-width="1.5"/>
</svg>
