<svg width="13" height="15" viewBox="0 0 13 15" fill="none" xmlns="http://www.w3.org/2000/svg">
<path d="M6.5 15C6.31042 15 6.12083 14.9677 5.93125 14.903C5.74167 14.8383 5.5724 14.7413 5.42344 14.6119C4.54323 13.8357 3.76458 13.0789 3.0875 12.3415C2.41042 11.6041 1.84505 10.8894 1.39141 10.1973C0.93776 9.50517 0.592448 8.83894 0.355469 8.19858C0.11849 7.55821 0 6.94696 0 6.36481C0 4.42432 0.653385 2.8784 1.96016 1.72704C3.26693 0.575679 4.78021 0 6.5 0C8.21979 0 9.73307 0.575679 11.0398 1.72704C12.3466 2.8784 13 4.42432 13 6.36481C13 6.94696 12.8815 7.55821 12.6445 8.19858C12.4076 8.83894 12.0622 9.50517 11.6086 10.1973C11.1549 10.8894 10.5896 11.6041 9.9125 12.3415C9.23542 13.0789 8.45677 13.8357 7.57656 14.6119C7.4276 14.7413 7.25833 14.8383 7.06875 14.903C6.87917 14.9677 6.68958 15 6.5 15ZM6.5 7.76197C6.94688 7.76197 7.32943 7.60996 7.64766 7.30595C7.96589 7.00194 8.125 6.63648 8.125 6.20957C8.125 5.78266 7.96589 5.41721 7.64766 5.11319C7.32943 4.80918 6.94688 4.65718 6.5 4.65718C6.05312 4.65718 5.67057 4.80918 5.35234 5.11319C5.03411 5.41721 4.875 5.78266 4.875 6.20957C4.875 6.63648 5.03411 7.00194 5.35234 7.30595C5.67057 7.60996 6.05312 7.76197 6.5 7.76197Z" fill="#00E0A8"/>
</svg>
