<svg width="20" height="20" viewBox="0 0 20 20" fill="none" xmlns="http://www.w3.org/2000/svg">
<path d="M10.0042 7.71219C10.0939 7.71219 10.1767 7.72684 10.2526 7.75615C10.3284 7.78559 10.4027 7.83663 10.4755 7.90927L14.1323 11.5664C14.2104 11.6443 14.2521 11.7399 14.2573 11.8532C14.2628 11.9664 14.2211 12.0673 14.1323 12.1559C14.0437 12.2447 13.9455 12.2891 13.8376 12.2891C13.7296 12.2891 13.6314 12.2447 13.5428 12.1559L10.0042 8.6176L6.46568 12.1559C6.38776 12.234 6.29214 12.2757 6.1788 12.2809C6.06561 12.2864 5.96471 12.2447 5.87609 12.1559C5.78734 12.0673 5.74297 11.9691 5.74297 11.8611C5.74297 11.7532 5.78734 11.655 5.87609 11.5664L9.53297 7.90927C9.60575 7.83663 9.68005 7.78559 9.75589 7.75615C9.83172 7.72684 9.9145 7.71219 10.0042 7.71219Z" fill="#B3B3B3"/>
</svg>
