<svg width="375" height="226" viewBox="0 0 375 226" fill="none" xmlns="http://www.w3.org/2000/svg">
<g clip-path="url(#clip0_8593_38619)">
<rect width="375" height="226" fill="#E6FFF7"/>
<g filter="url(#filter0_f_8593_38619)">
<ellipse cx="187.5" cy="117.5" rx="187.5" ry="96.5" fill="#C1F6EB" fill-opacity="0.5"/>
</g>
<path d="M42.025 149.396C42.0512 148.377 43.4071 148.046 43.9001 148.939L46.3522 153.378C46.5238 153.689 46.8472 153.886 47.202 153.895L52.2724 154.025C53.2916 154.051 53.6227 155.407 52.7302 155.9L48.2903 158.352C47.9796 158.524 47.7832 158.847 47.7741 159.202L47.6439 164.272C47.6177 165.291 46.2618 165.622 45.7689 164.73L43.3167 160.29C43.1451 159.979 42.8217 159.783 42.467 159.774L37.3966 159.644C36.3773 159.618 36.0463 158.262 36.9387 157.769L41.3787 155.316C41.6893 155.145 41.8858 154.822 41.8949 154.467L42.025 149.396Z" fill="#54E4C5"/>
<path d="M303.678 96.1195C304.137 95.2089 305.504 95.488 305.569 96.5055L305.892 101.567C305.915 101.921 306.124 102.237 306.441 102.397L310.971 104.678C311.881 105.136 311.602 106.504 310.585 106.569L305.523 106.892C305.169 106.915 304.853 107.124 304.694 107.441L302.412 111.971C301.954 112.881 300.586 112.602 300.521 111.585L300.198 106.523C300.175 106.169 299.967 105.853 299.65 105.693L295.12 103.412C294.209 102.954 294.488 101.586 295.506 101.521L300.567 101.198C300.922 101.175 301.237 100.967 301.397 100.65L303.678 96.1195Z" fill="#54E4C5"/>
<path d="M311.305 183.744C311.054 182.756 312.269 182.07 312.986 182.796L314.859 184.694C315.109 184.947 315.473 185.048 315.817 184.961L318.402 184.305C319.391 184.054 320.077 185.269 319.351 185.986L317.453 187.859C317.2 188.109 317.098 188.473 317.186 188.817L317.842 191.402C318.093 192.391 316.877 193.077 316.161 192.351L314.287 190.453C314.038 190.2 313.674 190.098 313.33 190.186L310.744 190.842C309.756 191.093 309.07 189.877 309.796 189.161L311.694 187.287C311.947 187.038 312.048 186.674 311.961 186.33L311.305 183.744Z" fill="#54E4C5"/>
<path d="M332.675 142.984L334.874 148.024L340.334 148.675L335.295 150.874L334.643 156.334L332.444 151.295L326.984 150.643L332.023 148.444L332.675 142.984Z" fill="white"/>
<path d="M105.675 94.9845L107.874 100.024L113.334 100.675L108.295 102.874L107.643 108.334L105.444 103.295L99.9843 102.643L105.023 100.444L105.675 94.9845Z" fill="white"/>
<path d="M72.4778 168.444L72.7498 173.935L77.6247 176.478L72.1332 176.75L69.5904 181.625L69.3184 176.133L64.4435 173.591L69.935 173.319L72.4778 168.444Z" fill="white"/>
<path d="M199.888 137.964L232.295 120.727C241.302 115.936 251.558 114.013 261.689 115.216L269.939 186.072L250.417 185.446C247.007 185.336 243.595 185.496 240.21 185.922L196.899 191.374L199.888 137.964Z" fill="#CCCCCC"/>
<path d="M181.72 140.079L146.22 130.748C136.353 128.155 125.929 128.64 116.345 132.138L124.595 202.994L143.451 197.9C146.744 197.01 150.102 196.381 153.494 196.018L196.899 191.374L181.72 140.079Z" fill="#CCCCCC"/>
<path d="M189.328 126.347L222.259 109.139C231.443 104.34 241.854 102.402 252.15 103.574L260.872 178.489L242.634 178.616C235.458 178.666 228.341 179.903 221.569 182.277L196.849 190.944L189.328 126.347Z" fill="#EEEEEE"/>
<path d="M189.328 126.347L153.324 117.165C143.284 114.605 132.706 115.11 122.955 118.616L131.677 193.531L149.457 189.464C156.452 187.864 163.663 187.433 170.799 188.188L196.849 190.944L189.328 126.347Z" fill="#EEEEEE"/>
<path d="M187.657 111.992L190.709 109.595C205.531 97.9534 223.583 91.1664 242.403 90.1588L251.7 170.008L251.239 169.986C237.285 169.298 223.48 173.122 211.869 180.893L196.849 190.944L187.657 111.992Z" fill="white"/>
<path d="M187.657 111.992L184.135 110.36C167.035 102.436 147.907 99.9774 129.358 103.321L138.655 183.17L139.098 183.042C152.521 179.167 166.836 179.717 179.921 184.612L196.849 190.944L187.657 111.992Z" fill="white"/>
<rect x="187.208" y="112.043" width="0.903246" height="79.9309" rx="0.451623" transform="rotate(-6.64101 187.208 112.043)" fill="#F3F3F3"/>
<path d="M196.617 121.114C206.814 113.776 222.258 104.055 236.189 104.622" stroke="#BFBFBF" stroke-width="1.80649" stroke-linecap="round"/>
<path d="M197.736 130.726C207.933 123.388 223.377 113.667 237.308 114.234" stroke="#BFBFBF" stroke-width="1.80649" stroke-linecap="round"/>
<path d="M198.846 140.255C209.042 132.917 224.486 123.196 238.418 123.763" stroke="#BFBFBF" stroke-width="1.80649" stroke-linecap="round"/>
<path d="M199.956 149.784C210.152 142.446 225.596 132.725 239.527 133.292" stroke="#BFBFBF" stroke-width="1.80649" stroke-linecap="round"/>
<path d="M201.065 159.315C211.262 151.978 226.706 142.256 240.637 142.824" stroke="#BFBFBF" stroke-width="1.80649" stroke-linecap="round"/>
<path d="M180.662 125.064C169.377 120.227 152.6 114.257 139.58 117.962" stroke="#BFBFBF" stroke-width="1.80649" stroke-linecap="round"/>
<path d="M182.527 143.942C171.243 139.105 154.466 133.136 141.445 136.841" stroke="#BFBFBF" stroke-width="1.80649" stroke-linecap="round"/>
<path d="M181.718 134.136C170.433 129.299 153.657 123.329 140.636 127.034" stroke="#BFBFBF" stroke-width="1.80649" stroke-linecap="round"/>
<path d="M183.584 153.015C172.299 148.178 155.522 142.208 142.502 145.913" stroke="#BFBFBF" stroke-width="1.80649" stroke-linecap="round"/>
<rect x="249.514" y="157.686" width="10.9835" height="7.83909" transform="rotate(-56.47 249.514 157.686)" fill="#C1F6EB"/>
<rect x="251.744" y="159.963" width="12.3175" height="35.4772" rx="1.94045" transform="rotate(-56.47 251.744 159.963)" fill="#00C896"/>
<ellipse cx="234.943" cy="138.826" rx="21.1857" ry="24.4772" transform="rotate(-56.3633 234.943 138.826)" fill="#C1F6EB"/>
<path d="M243.153 121.113C254.377 126.628 259.221 138.25 255.037 146.765C250.853 155.281 238.693 158.548 227.469 153.033C216.246 147.518 211.402 135.896 215.586 127.381C219.77 118.866 231.93 115.599 243.153 121.113Z" fill="white" stroke="#00C896" stroke-width="3.8809"/>
<mask id="mask0_8593_38619" style="mask-type:alpha" maskUnits="userSpaceOnUse" x="216" y="115" width="47" height="40">
<ellipse cx="239.398" cy="134.754" rx="19.3933" ry="23.3889" transform="rotate(-81.0255 239.398 134.754)" fill="white"/>
</mask>
<g mask="url(#mask0_8593_38619)">
<path d="M199.461 143.077C210.578 135.077 227.416 124.478 242.605 125.096" stroke="#757575" stroke-width="2.70974" stroke-linecap="round"/>
<path d="M202.509 153.634C213.626 145.633 230.464 135.035 245.653 135.653" stroke="#757575" stroke-width="2.70974" stroke-linecap="round"/>
<path d="M205.553 163.339C216.67 155.338 233.508 144.74 248.697 145.358" stroke="#757575" stroke-width="2.70974" stroke-linecap="round"/>
</g>
<rect x="60.0822" y="126.059" width="16.4932" height="79.6133" transform="rotate(-59.2312 60.0822 126.059)" fill="#E6F2FF"/>
<rect x="65.783" y="116.484" width="5.34961" height="79.6133" transform="rotate(-59.2312 65.783 116.484)" fill="#3897FD"/>
<rect x="60.0822" y="126.059" width="5.34961" height="79.6133" transform="rotate(-59.2312 60.0822 126.059)" fill="#3897FD"/>
<path d="M56.6909 124.04C54.7927 122.91 54.1701 120.455 55.3002 118.557L59.6451 111.26C60.7752 109.361 63.2302 108.739 65.1283 109.869L68.5197 111.888L60.0822 126.06L56.6909 124.04Z" fill="#0068E7"/>
<path d="M142.571 166.564C143.315 166.552 143.786 165.761 143.442 165.102L136.927 152.616L128.489 166.787L142.571 166.564Z" fill="#B2D7FE"/>
<path d="M142.571 166.565C143.315 166.554 143.786 165.762 143.442 165.103L141.126 160.664L137.565 166.645L142.571 166.565Z" fill="#4D4D4D"/>
<path d="M141.909 25.2656V39.4062H140.159V25.2656H141.909ZM130.612 31.2812C130.605 28.2344 132.159 26.2969 134.3 26.2969C136.417 26.2969 137.98 28.2344 137.987 31.2812C137.98 34.3516 136.417 36.2812 134.3 36.2812C132.159 36.2812 130.605 34.3516 130.612 31.2812ZM132.284 31.2812C132.284 33.4531 133.105 34.7109 134.3 34.7188C135.487 34.7109 136.3 33.4531 136.3 31.2812C136.3 29.125 135.487 27.8594 134.3 27.8594C133.105 27.8594 132.284 29.125 132.284 31.2812ZM155.416 25.2812V34.7031H153.681V30.5156H150.994V29.0938H153.681V25.2812H155.416ZM143.775 32.625C147.025 31.6484 148.728 29.9609 149.025 27.7656H144.509V26.375H150.9C150.892 30.1172 148.736 32.6719 144.525 33.9844L143.775 32.625ZM145.259 37.9531C148.088 37.5234 149.83 35.8984 149.838 34.1406V33.5938H151.572V34.1406C151.564 35.8906 153.298 37.4766 156.119 37.9375L155.416 39.3125C153.228 38.9375 151.548 37.8984 150.697 36.4453C149.838 37.9062 148.134 38.9453 145.947 39.3281L145.259 37.9531ZM164.188 26.4844V33.1562H157.5V26.4844H164.188ZM159.109 39.1094V34.5781H160.844V37.7031H168.719V39.1094H159.109ZM159.203 31.7812H162.484V27.875H159.203V31.7812ZM166.422 35.5781V25.2656H168.156V29.4062H170.125V30.8594H168.156V35.5781H166.422ZM184.981 25.2656V28.1094H186.95V29.5469H184.981V32.3594H183.247V25.2656H184.981ZM173.997 28.9062C173.989 27.0234 175.598 25.7344 177.747 25.7344C179.895 25.7344 181.489 27.0234 181.497 28.9062C181.489 30.75 179.895 32.0703 177.747 32.0625C175.598 32.0703 173.989 30.75 173.997 28.9062ZM175.7 28.9062C175.684 29.9766 176.552 30.6875 177.747 30.6875C178.934 30.6875 179.802 29.9766 179.809 28.9062C179.802 27.8359 178.934 27.1406 177.747 27.1406C176.552 27.1406 175.684 27.8359 175.7 28.9062ZM175.747 34.3125V32.9688H184.981V36.6719H177.481V37.8438H185.419V39.2188H175.762V35.4062H183.247V34.3125H175.747ZM198.8 26.5625V27.9219C198.784 29.6797 198.784 31.6406 198.238 34.5938L196.488 34.4062C197.042 31.6562 197.042 29.6484 197.05 27.9531H188.613V26.5625H198.8ZM187.269 37.5625V36.1406H192.019V31.2344H193.738V36.1406H200.144V37.5625H187.269ZM215.156 25.2656V30.7812H217.25V32.2344H215.156V39.3594H213.422V25.2656H215.156ZM204.016 35.5C207.453 33.7812 209.312 31.3906 209.656 28.1719H204.781V26.7344H211.422C211.414 30.8828 209.695 34.5312 205 36.8438L204.016 35.5ZM221.928 28.9688C221.936 31.25 222.717 33.625 224.631 34.8281L223.678 36.1562C222.405 35.3906 221.577 34.0781 221.108 32.5391C220.6 34.2344 219.694 35.6719 218.366 36.4844L217.288 35.1875C219.342 33.9453 220.248 31.4531 220.256 29.0469V26.5156H221.928V28.9688ZM223.116 31.5625V30.125H225.131V25.5156H226.772V38.7031H225.131V31.5625H223.116ZM228.038 39.3906V25.2656H229.709V39.3906H228.038ZM243.856 36.25V37.6719H230.95V36.25H233.934V32.6797C232.809 32.0312 232.13 31.0156 232.137 29.7656C232.13 27.5156 234.333 26.0312 237.372 26.0312C240.427 26.0312 242.645 27.5156 242.637 29.7656C242.645 31 241.981 31.9922 240.887 32.6406V36.25H243.856ZM233.841 29.7656C233.833 31.2109 235.262 32.1328 237.372 32.125C239.473 32.1328 240.934 31.2109 240.934 29.7656C240.934 28.2969 239.473 27.3984 237.372 27.4062C235.262 27.3984 233.833 28.2969 233.841 29.7656ZM235.653 36.25H239.122V33.3047C238.583 33.4219 237.997 33.4844 237.372 33.4844C236.762 33.4844 236.184 33.4219 235.653 33.3125V36.25Z" fill="black"/>
<path d="M114.591 49.2559V66.6738H111.519V59.1582H109.716V66.2422H106.695V49.6621H109.716V56.4922H111.519V49.2559H114.591ZM94.6086 54.207V51.6426H98.6965V49.4336H101.921V51.6426H105.958V54.207H94.6086ZM95.3195 59.3105C95.3068 56.7334 97.427 54.9688 100.321 54.9941C103.216 54.9688 105.362 56.7334 105.374 59.3105C105.362 61.875 103.216 63.665 100.321 63.6777C97.427 63.665 95.3068 61.875 95.3195 59.3105ZM98.2141 59.3105C98.2014 60.4912 99.052 61.2275 100.321 61.2148C101.578 61.2275 102.442 60.4912 102.454 59.3105C102.442 58.0791 101.578 57.3936 100.321 57.3809C99.052 57.3936 98.2014 58.0791 98.2141 59.3105ZM98.925 71.9297V65.0742H102.175V69.3398H115.175V71.9297H98.925ZM135.904 49.2305V72.3867H132.629V49.2305H135.904ZM117.953 66.877V51.2617H129.201V53.9023H121.203V64.1348C125.341 64.1348 127.893 64.0205 130.8 63.5L131.105 66.166C127.906 66.7754 124.961 66.877 119.959 66.877H117.953ZM157.877 49.2305V72.3867H154.678V59.9961H150.387V66.9023H139.24V51.0078H142.465V56.6191H147.213V51.0078H150.387V57.3809H154.678V49.2305H157.877ZM142.465 64.3125H147.213V59.1582H142.465V64.3125ZM172.36 52.2773C172.347 55.667 175.356 59.2852 180.586 60.1738L179.164 62.8652C175.127 62.0654 172.144 59.793 170.646 56.835C169.122 59.7676 166.126 62.0527 162.127 62.8652L160.731 60.1738C165.872 59.2598 168.881 55.6289 168.907 52.2773V50.6016H172.36V52.2773ZM160.198 69.4922V66.8262H181.348V69.4922H160.198ZM255.819 49.2305V62.9414H252.594V57.4824H248.989V54.8672H252.594V49.2305H255.819ZM236.192 60.4023C239.975 59.1328 241.702 56.1113 241.778 53.2168H237.131V50.627H249.674V53.2168H245.079C245.142 55.9082 246.792 58.625 250.385 59.8184L248.786 62.3574C246.246 61.5322 244.482 59.8564 243.479 57.7871C242.463 60.1357 240.61 62.0273 237.868 62.9668L236.192 60.4023ZM239.975 67.918C239.975 65.1123 242.996 63.4619 247.922 63.4492C252.861 63.4619 255.882 65.1123 255.895 67.918C255.882 70.7236 252.861 72.3613 247.922 72.3613C242.996 72.3613 239.975 70.7236 239.975 67.918ZM243.2 67.918C243.2 69.2383 244.863 69.8984 247.922 69.8984C250.995 69.8984 252.658 69.2383 252.67 67.918C252.658 66.585 250.995 65.9248 247.922 65.9375C244.863 65.9248 243.2 66.585 243.2 67.918ZM279.239 60.6816V63.2969H258.165V60.6816H267.052V58.7266H260.856V49.7891H264.055V51.8965H273.323V49.7891H276.548V58.7266H270.302V60.6816H279.239ZM260.501 67.4355V64.8711H276.675V72.3359H273.45V67.4355H260.501ZM264.055 56.1875H273.323V54.2832H264.055V56.1875Z" fill="#181F29"/>
<path d="M194.318 50.1699C197.695 50.1826 200.119 52.0742 200.132 54.8672C200.119 57.127 198.469 58.8535 195.993 59.3867V61.0752C197.809 60.9609 199.612 60.7959 201.3 60.5547L201.554 62.916C196.793 63.7539 191.499 63.8682 187.64 63.8555L187.31 61.291C188.909 61.291 190.776 61.2783 192.743 61.2275V59.4121C190.192 58.9043 188.49 57.165 188.503 54.8672C188.49 52.0742 190.915 50.1826 194.318 50.1699ZM190.357 71.9043V65.3281H193.607V69.3145H206.632V71.9043H190.357ZM191.525 54.8672C191.499 56.2764 192.68 57.0889 194.318 57.1016C195.981 57.0889 197.085 56.2764 197.085 54.8672C197.085 53.4199 195.968 52.6328 194.318 52.6074C192.68 52.6328 191.499 53.4199 191.525 54.8672ZM202.595 66.877V49.2559H205.845V56.5176H208.79V59.209H205.845V66.877H202.595ZM228.656 49.2559V66.1152H225.431V57.8379H221.648V55.2227H225.431V49.2559H228.656ZM209.054 60.9102C212.876 59.7168 214.602 56.708 214.615 53.75V53.3945H209.968V50.8047H222.511V53.3945H217.916V53.7754C217.903 56.4541 219.553 59.3105 223.222 60.5039L221.623 63.0684C219.071 62.2305 217.306 60.5547 216.303 58.4854C215.275 60.7832 213.434 62.6494 210.705 63.5508L209.054 60.9102ZM213.32 71.9297V64.6426H216.57V69.3398H229.214V71.9297H213.32Z" fill="#00C896"/>
</g>
<defs>
<filter id="filter0_f_8593_38619" x="-20" y="1" width="415" height="233" filterUnits="userSpaceOnUse" color-interpolation-filters="sRGB">
<feFlood flood-opacity="0" result="BackgroundImageFix"/>
<feBlend mode="normal" in="SourceGraphic" in2="BackgroundImageFix" result="shape"/>
<feGaussianBlur stdDeviation="10" result="effect1_foregroundBlur_8593_38619"/>
</filter>
<clipPath id="clip0_8593_38619">
<rect width="375" height="226" fill="white"/>
</clipPath>
</defs>
</svg>
