<svg width="65" height="32" viewBox="0 0 65 32" fill="none" xmlns="http://www.w3.org/2000/svg">
<path id="Vector" fill-rule="evenodd" clip-rule="evenodd" d="M57.581 0H7.41895C3.59778 0 0.5 3.09778 0.5 6.91895V22.919C0.5 26.7401 3.59778 29.8378 7.41895 29.8378H23.4639C26.0612 31.2529 29.2532 32 32.5 32C35.7468 32 38.9388 31.2529 41.5361 29.8378H57.581C61.4022 29.8378 64.5 26.7401 64.5 22.919V6.91895C64.5 3.09778 61.4022 0 57.581 0ZM61.0405 22.919V6.91895C61.0405 5.00827 59.4917 3.45948 57.581 3.45948H7.41895C5.50827 3.45948 3.95947 5.00827 3.95947 6.91895V22.919C3.95947 24.8296 5.50827 26.3784 7.41895 26.3784H19.4041C18.3852 24.9673 17.7973 23.3513 17.7973 21.6216C17.7973 18.2781 20.5078 15.5675 23.8513 15.5675C27.1949 15.5675 29.9054 18.2781 29.9054 21.6216C29.9054 23.9155 28.8714 26.0091 27.1695 27.6907C28.7783 28.2369 30.6014 28.5405 32.5 28.5405C34.3986 28.5405 36.2217 28.2369 37.8305 27.6907C36.1286 26.0091 35.0946 23.9155 35.0946 21.6216C35.0946 18.2781 37.8051 15.5675 41.1487 15.5675C44.4922 15.5675 47.2027 18.2781 47.2027 21.6216C47.2027 23.3513 46.6148 24.9673 45.5959 26.3784H57.581C59.4917 26.3784 61.0405 24.8296 61.0405 22.919ZM21.2568 21.6216C21.2568 20.1888 22.4185 19.027 23.8513 19.027C25.2842 19.027 26.446 20.1888 26.446 21.6216C26.446 23.0665 25.6457 24.6514 23.8513 25.9913C22.057 24.6514 21.2568 23.0665 21.2568 21.6216ZM41.1487 19.027C42.5815 19.027 43.7432 20.1888 43.7432 21.6216C43.7432 23.0665 42.943 24.6514 41.1487 25.9913C39.3543 24.6514 38.554 23.0665 38.554 21.6216C38.554 20.1888 39.7158 19.027 41.1487 19.027Z" fill="#00C896"/>
</svg>
