<svg width="213" height="87" viewBox="0 0 213 87" fill="none" xmlns="http://www.w3.org/2000/svg">
<rect width="213" height="87" fill="white"/>
<rect x="26.5" y="19.5" width="49" height="49" rx="7.5" fill="#F3F3F3" stroke="#CCCCCC" stroke-dasharray="2 2"/>
<g clip-path="url(#clip0_14518_28708)">
<path d="M177 19H147C141.477 19 137 23.4772 137 29V59C137 64.5228 141.477 69 147 69H177C182.523 69 187 64.5228 187 59V29C187 23.4772 182.523 19 177 19Z" fill="#00E0A8"/>
<path fill-rule="evenodd" clip-rule="evenodd" d="M148.937 35.666H175.063C175.536 35.666 176.005 35.7592 176.442 35.9403C176.879 36.1214 177.277 36.3869 177.611 36.7215C177.946 37.0561 178.211 37.4533 178.392 37.8906C178.574 38.3278 178.667 38.7964 178.667 39.2696V47.603C178.667 48.0762 178.574 48.5448 178.392 48.982C178.211 49.4192 177.946 49.8164 177.611 50.1511C177.277 50.4857 176.879 50.7512 176.442 50.9323C176.005 51.1133 175.536 51.2065 175.063 51.2065H166.679C165.346 51.9327 163.702 52.3327 162 52.3327C160.298 52.3327 158.654 51.9327 157.322 51.2065H148.937C148.464 51.2065 147.995 51.1133 147.558 50.9323C147.121 50.7512 146.723 50.4857 146.389 50.1511C146.054 49.8164 145.789 49.4192 145.608 48.982C145.427 48.5448 145.333 48.0762 145.333 47.603V39.2696C145.333 38.3139 145.713 37.3973 146.389 36.7215C147.065 36.0457 147.981 35.666 148.937 35.666ZM148.937 49.4048H155.194C154.64 48.6456 154.342 47.7973 154.342 46.9273C154.342 46.5132 154.424 46.1032 154.582 45.7206C154.741 45.3381 154.973 44.9904 155.266 44.6977C155.559 44.4049 155.906 44.1726 156.289 44.0142C156.671 43.8557 157.081 43.7741 157.496 43.7741C157.91 43.7741 158.32 43.8557 158.702 44.0142C159.085 44.1726 159.432 44.4049 159.725 44.6977C160.018 44.9904 160.25 45.3381 160.409 45.7206C160.567 46.1032 160.649 46.5132 160.649 46.9273C160.649 48.0707 160.135 49.1767 159.199 50.0919C160.051 50.3774 161.013 50.5309 162 50.5309C162.987 50.5309 163.949 50.3774 164.801 50.0919C163.865 49.1767 163.351 48.0707 163.351 46.9273C163.351 46.5132 163.433 46.1032 163.591 45.7206C163.75 45.3381 163.982 44.9904 164.275 44.6977C164.568 44.4049 164.915 44.1726 165.298 44.0142C165.68 43.8557 166.09 43.7741 166.505 43.7741C166.919 43.7741 167.329 43.8557 167.711 44.0142C168.094 44.1726 168.441 44.4049 168.734 44.6977C169.027 44.9904 169.259 45.3381 169.418 45.7206C169.576 46.1032 169.658 46.5132 169.658 46.9273C169.658 47.7973 169.361 48.6456 168.806 49.4048H175.063C175.3 49.4048 175.534 49.3582 175.753 49.2676C175.971 49.1771 176.17 49.0443 176.337 48.877C176.504 48.7097 176.637 48.5111 176.728 48.2925C176.818 48.0739 176.865 47.8396 176.865 47.603V39.2696C176.865 39.033 176.818 38.7987 176.728 38.5801C176.637 38.3615 176.504 38.1629 176.337 37.9955C176.17 37.8283 175.971 37.6955 175.753 37.605C175.534 37.5144 175.3 37.4678 175.063 37.4678H148.937C148.459 37.4678 148.001 37.6576 147.663 37.9955C147.325 38.3334 147.135 38.7917 147.135 39.2696V47.603C147.135 47.8396 147.182 48.0739 147.272 48.2925C147.363 48.5111 147.496 48.7097 147.663 48.877C147.83 49.0443 148.029 49.1771 148.247 49.2676C148.466 49.3582 148.7 49.4048 148.937 49.4048ZM157.496 49.2299C158.365 48.5856 158.847 47.7717 158.847 46.9273C158.847 46.7498 158.812 46.5741 158.744 46.4102C158.676 46.2462 158.577 46.0972 158.451 45.9717C158.326 45.8463 158.177 45.7467 158.013 45.6788C157.849 45.6109 157.673 45.5759 157.496 45.5759C157.318 45.5759 157.142 45.6109 156.978 45.6788C156.814 45.7467 156.665 45.8463 156.54 45.9717C156.415 46.0972 156.315 46.2462 156.247 46.4102C156.179 46.5741 156.144 46.7498 156.144 46.9273C156.144 47.7717 156.626 48.5856 157.496 49.2299ZM167.856 46.9273C167.856 47.7717 167.374 48.5856 166.505 49.2299C165.635 48.5856 165.153 47.7717 165.153 46.9273C165.153 46.7498 165.188 46.5741 165.256 46.4102C165.324 46.2462 165.424 46.0972 165.549 45.9717C165.674 45.8463 165.823 45.7467 165.987 45.6788C166.151 45.6109 166.327 45.5759 166.505 45.5759C166.682 45.5759 166.858 45.6109 167.022 45.6788C167.186 45.7467 167.335 45.8463 167.46 45.9717C167.586 46.0972 167.685 46.2462 167.753 46.4102C167.821 46.5741 167.856 46.7498 167.856 46.9273Z" fill="white"/>
</g>
<path d="M91 43C90.4477 43 90 43.4477 90 44C90 44.5523 90.4477 45 91 45V44V43ZM122.707 44.7071C123.098 44.3166 123.098 43.6834 122.707 43.2929L116.343 36.9289C115.953 36.5384 115.319 36.5384 114.929 36.9289C114.538 37.3195 114.538 37.9526 114.929 38.3431L120.586 44L114.929 49.6569C114.538 50.0474 114.538 50.6805 114.929 51.0711C115.319 51.4616 115.953 51.4616 116.343 51.0711L122.707 44.7071ZM91 44V45H122V44V43H91V44Z" fill="#CCCCCC"/>
<defs>
<clipPath id="clip0_14518_28708">
<rect width="50" height="50" fill="white" transform="translate(137 19)"/>
</clipPath>
</defs>
</svg>
