<svg width="54" height="54" viewBox="0 0 54 54" fill="none" xmlns="http://www.w3.org/2000/svg">
<g filter="url(#filter0_d_16644_16367)">
<path d="M50.5762 21.1046C50.5762 13.8747 44.7152 8.01367 37.4853 8.01367H21.2954C15.4903 8.01367 10.7843 12.7197 10.7843 18.5248C10.7843 24.33 15.4902 29.0359 21.2954 29.0359H50.5762V21.1046Z" fill="url(#paint0_linear_16644_16367)"/>
</g>
<g filter="url(#filter1_d_16644_16367)">
<path d="M3.42383 36.713C3.42383 29.4831 9.28483 23.6221 16.5147 23.6221H32.0337C38.2094 23.6221 43.2157 28.6285 43.2157 34.8042C43.2157 40.9799 38.2094 45.9862 32.0337 45.9862H3.42383V36.713Z" fill="url(#paint1_linear_16644_16367)"/>
</g>
<circle cx="23.3168" cy="18.5257" r="1.43981" fill="#37F4C5"/>
<circle cx="30.68" cy="18.5257" r="1.43981" fill="#37F4C5"/>
<circle cx="38.0433" cy="18.5257" r="1.43981" fill="#37F4C5"/>
<rect x="10.7871" y="30.4326" width="24.6381" height="2.45455" rx="1.22727" fill="#F5F5F5"/>
<rect x="10.7871" y="36.7188" width="17.9148" height="2.45455" rx="1.22727" fill="#F5F5F5"/>
<defs>
<filter id="filter0_d_16644_16367" x="8.33061" y="7.19549" width="44.7001" height="25.9316" filterUnits="userSpaceOnUse" color-interpolation-filters="sRGB">
<feFlood flood-opacity="0" result="BackgroundImageFix"/>
<feColorMatrix in="SourceAlpha" type="matrix" values="0 0 0 0 0 0 0 0 0 0 0 0 0 0 0 0 0 0 127 0" result="hardAlpha"/>
<feOffset dy="1.63636"/>
<feGaussianBlur stdDeviation="1.22727"/>
<feComposite in2="hardAlpha" operator="out"/>
<feColorMatrix type="matrix" values="0 0 0 0 0 0 0 0 0 0 0 0 0 0 0 0 0 0 0.12 0"/>
<feBlend mode="normal" in2="BackgroundImageFix" result="effect1_dropShadow_16644_16367"/>
<feBlend mode="normal" in="SourceGraphic" in2="effect1_dropShadow_16644_16367" result="shape"/>
</filter>
<filter id="filter1_d_16644_16367" x="0.969283" y="22.8039" width="44.7001" height="27.2733" filterUnits="userSpaceOnUse" color-interpolation-filters="sRGB">
<feFlood flood-opacity="0" result="BackgroundImageFix"/>
<feColorMatrix in="SourceAlpha" type="matrix" values="0 0 0 0 0 0 0 0 0 0 0 0 0 0 0 0 0 0 127 0" result="hardAlpha"/>
<feOffset dy="1.63636"/>
<feGaussianBlur stdDeviation="1.22727"/>
<feComposite in2="hardAlpha" operator="out"/>
<feColorMatrix type="matrix" values="0 0 0 0 0 0 0 0 0 0 0 0 0 0 0 0 0 0 0.12 0"/>
<feBlend mode="normal" in2="BackgroundImageFix" result="effect1_dropShadow_16644_16367"/>
<feBlend mode="normal" in="SourceGraphic" in2="effect1_dropShadow_16644_16367" result="shape"/>
</filter>
<linearGradient id="paint0_linear_16644_16367" x1="30.6802" y1="8.01367" x2="30.6802" y2="23.3048" gradientUnits="userSpaceOnUse">
<stop stop-color="#F8F8F8"/>
<stop offset="1" stop-color="#EFEFEF"/>
</linearGradient>
<linearGradient id="paint1_linear_16644_16367" x1="23.3198" y1="23.6221" x2="23.3198" y2="45.9862" gradientUnits="userSpaceOnUse">
<stop stop-color="#41F8CA"/>
<stop offset="1" stop-color="#13E7B3"/>
</linearGradient>
</defs>
</svg>
