<svg width="54" height="54" viewBox="0 0 54 54" fill="none" xmlns="http://www.w3.org/2000/svg">
<g clip-path="url(#clip0_16644_16354)">
<g filter="url(#filter0_d_16644_16354)">
<path d="M23.1039 2.88441C24.8581 2.44922 26.6336 3.5183 27.069 5.27238L35.1662 37.9109C35.6015 39.6652 34.5314 41.4401 32.7771 41.8753L30.289 42.4925C29.5441 39.49 26.5061 37.6597 23.5035 38.4046C20.5012 39.1497 18.6716 42.1875 19.4165 45.1899L16.9275 45.8074C15.1733 46.2423 13.3985 45.1733 12.9633 43.4192L4.8661 10.7807C4.43116 9.02665 5.5004 7.25191 7.2543 6.81652L23.1039 2.88441Z" fill="url(#paint0_linear_16644_16354)"/>
<line x1="11.0909" y1="35.7807" x2="33.2729" y2="30.2776" stroke="#DEDFDF" stroke-width="0.818182" stroke-dasharray="1.64 1.64"/>
<path d="M16.9419 13.127C16.977 12.9145 17.2492 12.8469 17.3796 13.0184L19.7845 16.1831C19.8389 16.2547 19.928 16.2908 20.0168 16.2773L23.9466 15.6806C24.1595 15.6482 24.3079 15.8863 24.1851 16.0632L21.9184 19.3284C21.8672 19.4022 21.8603 19.4981 21.9006 19.5784L23.6825 23.1315C23.7791 23.324 23.5985 23.5387 23.3923 23.4765L19.5865 22.3298C19.5004 22.3039 19.4071 22.327 19.3432 22.3902L16.5147 25.1828C16.3614 25.3341 16.1015 25.2288 16.0968 25.0134L16.0114 21.0395C16.0094 20.9497 15.9586 20.8681 15.8788 20.8268L12.3488 18.9997C12.1575 18.9007 12.1774 18.6209 12.3808 18.5499L16.1338 17.2406C16.2186 17.211 16.2805 17.1375 16.2951 17.0488L16.9419 13.127Z" fill="#41F8CA"/>
</g>
<g filter="url(#filter1_d_16644_16354)">
<path d="M47.9989 12.543C49.7632 12.9344 50.8763 14.682 50.4852 16.4463L43.2045 49.2766C42.8132 51.0411 41.0656 52.154 39.3011 51.7629L36.7956 51.2073C37.4646 48.1875 35.5593 45.1964 32.5395 44.5267C29.5198 43.8572 26.5285 45.7623 25.8582 48.7817L23.3584 48.2273C21.5938 47.836 20.4807 46.0886 20.8721 44.324L28.1528 11.4937C28.5443 9.72929 30.2917 8.61604 32.0562 9.00735L47.9989 12.543Z" fill="url(#paint1_linear_16644_16354)"/>
<line x1="22.5944" y1="36.6514" x2="44.9067" y2="41.5996" stroke="#1DDAAB" stroke-width="0.818182" stroke-dasharray="1.64 1.64"/>
<path d="M38.2912 18.7057C38.4172 18.531 38.691 18.5917 38.7314 18.8033L39.4758 22.7078C39.4927 22.796 39.5563 22.8681 39.6419 22.8955L43.4264 24.1108C43.6315 24.1767 43.6583 24.4559 43.4696 24.5596L39.9862 26.4742C39.9075 26.5175 39.8587 26.6003 39.859 26.6901L39.8727 30.665C39.8734 30.8803 39.6162 30.9922 39.4592 30.8447L36.5619 28.1235C36.4964 28.062 36.4025 28.0412 36.3172 28.0692L32.5411 29.3105C32.3365 29.3778 32.1507 29.1677 32.2424 28.9728L33.9351 25.3764C33.9734 25.2951 33.9642 25.1994 33.9111 25.1269L31.5637 21.9193C31.4365 21.7454 31.5789 21.5038 31.7926 21.5308L35.736 22.0293C35.8252 22.0406 35.9133 22.0023 35.9659 21.9294L38.2912 18.7057Z" fill="#F6F6F6"/>
</g>
</g>
<defs>
<filter id="filter0_d_16644_16354" x="2.31499" y="1.15075" width="35.4032" height="48.0263" filterUnits="userSpaceOnUse" color-interpolation-filters="sRGB">
<feFlood flood-opacity="0" result="BackgroundImageFix"/>
<feColorMatrix in="SourceAlpha" type="matrix" values="0 0 0 0 0 0 0 0 0 0 0 0 0 0 0 0 0 0 127 0" result="hardAlpha"/>
<feOffset dy="0.818182"/>
<feGaussianBlur stdDeviation="1.22727"/>
<feComposite in2="hardAlpha" operator="out"/>
<feColorMatrix type="matrix" values="0 0 0 0 0 0 0 0 0 0 0 0 0 0 0 0 0 0 0.12 0"/>
<feBlend mode="normal" in2="BackgroundImageFix" result="effect1_dropShadow_16644_16354"/>
<feBlend mode="normal" in="SourceGraphic" in2="effect1_dropShadow_16644_16354" result="shape"/>
</filter>
<filter id="filter1_d_16644_16354" x="18.3384" y="7.29235" width="34.6786" height="47.8212" filterUnits="userSpaceOnUse" color-interpolation-filters="sRGB">
<feFlood flood-opacity="0" result="BackgroundImageFix"/>
<feColorMatrix in="SourceAlpha" type="matrix" values="0 0 0 0 0 0 0 0 0 0 0 0 0 0 0 0 0 0 127 0" result="hardAlpha"/>
<feOffset dy="0.818182"/>
<feGaussianBlur stdDeviation="1.22727"/>
<feComposite in2="hardAlpha" operator="out"/>
<feColorMatrix type="matrix" values="0 0 0 0 0 0 0 0 0 0 0 0 0 0 0 0 0 0 0.12 0"/>
<feBlend mode="normal" in2="BackgroundImageFix" result="effect1_dropShadow_16644_16354"/>
<feBlend mode="normal" in="SourceGraphic" in2="effect1_dropShadow_16644_16354" result="shape"/>
</filter>
<linearGradient id="paint0_linear_16644_16354" x1="9.74263" y1="4.32172" x2="18.5012" y2="31.8437" gradientUnits="userSpaceOnUse">
<stop stop-color="#FAFAFA"/>
<stop offset="0.751637" stop-color="#EEEEEE"/>
</linearGradient>
<linearGradient id="paint1_linear_16644_16354" x1="40.0275" y1="10.7752" x2="30.2232" y2="57.9326" gradientUnits="userSpaceOnUse">
<stop offset="0.36626" stop-color="#41F8CA"/>
<stop offset="1" stop-color="#14E7B3"/>
</linearGradient>
<clipPath id="clip0_16644_16354">
<rect width="54" height="54" fill="white"/>
</clipPath>
</defs>
</svg>
