<svg width="213" height="64" viewBox="0 0 213 64" fill="none" xmlns="http://www.w3.org/2000/svg">
<rect y="40" width="213" height="24" fill="#F5F5F5"/>
<rect x="11" y="51" width="18" height="3" rx="1.5" fill="#E6E6E6"/>
<rect x="40" y="51" width="18" height="3" rx="1.5" fill="#E6E6E6"/>
<rect x="69" y="51" width="18" height="3" rx="1.5" fill="#E6E6E6"/>
<rect x="98" y="51" width="18" height="3" rx="1.5" fill="#E6E6E6"/>
<rect x="127" y="51" width="18" height="3" rx="1.5" fill="#E6E6E6"/>
<rect x="156" y="51" width="18" height="3" rx="1.5" fill="#E6E6E6"/>
<rect x="185" y="51" width="18" height="3" rx="1.5" fill="#E6E6E6"/>
<path d="M70.1895 1.80468C70.1895 0.80795 70.9975 -6.10352e-05 71.9942 -6.10352e-05H101.309C103.329 -6.10352e-05 104.966 1.63736 104.966 3.65723H70.1895V1.80468Z" fill="#999999"/>
<rect x="30.0459" y="39.9838" width="10.3455" height="12.4926" rx="5.17277" fill="#666666"/>
<rect x="31.1455" y="39.9838" width="10.3455" height="12.4926" rx="5.17277" fill="black"/>
<rect x="93.4502" y="39.9838" width="10.3455" height="12.4926" rx="5.17277" fill="#666666"/>
<rect x="94.6816" y="39.9838" width="10.3455" height="12.4926" rx="5.17277" fill="black"/>
<path d="M15 6.34635C15 4.11364 16.81 2.30368 19.0427 2.30368H100.134C110.553 2.30368 119 10.7502 119 21.1695V42.1875C119 44.4202 117.19 46.2302 114.957 46.2302H19.0427C16.81 46.2302 15 44.4202 15 42.1875V6.34635Z" fill="#B3B3B3"/>
<path d="M95.7979 11.128C95.7979 9.32871 97.2565 7.87009 99.0558 7.87009C107.453 7.87009 114.259 14.677 114.259 23.0738V25.3893C114.259 26.1992 113.603 26.8558 112.793 26.8558H97.377C96.5049 26.8558 95.7979 26.1488 95.7979 25.2766V11.128Z" fill="white"/>
<path d="M111.307 35.5002C111.307 35.1576 111.584 34.8799 111.927 34.8799H119V36.1206H111.927C111.584 36.1206 111.307 35.8429 111.307 35.5002Z" fill="#CFCECE"/>
<path d="M111.307 37.8789C111.307 37.5362 111.584 37.2585 111.927 37.2585H119V38.4992H111.927C111.584 38.4992 111.307 38.2215 111.307 37.8789Z" fill="#CFCECE"/>
<rect x="105.029" y="34.8799" width="4.16113" height="3.79691" rx="1.35356" fill="#D9D9D9"/>
<rect x="70.1895" y="7.87009" width="18.8282" height="12.0401" rx="3.1583" fill="white"/>
<rect x="46.623" y="7.87009" width="18.8282" height="12.0401" rx="3.1583" fill="white"/>
<rect x="23.0576" y="7.87009" width="18.8282" height="12.0401" rx="3.1583" fill="white"/>
</svg>
