<svg width="213" height="87" viewBox="0 0 213 87" fill="none" xmlns="http://www.w3.org/2000/svg">
<g clip-path="url(#clip0_9776_12972)">
<g clip-path="url(#clip1_9776_12972)">
<rect width="428" height="87" fill="white"/>
<rect x="5.73438" y="52.7129" width="5.09766" height="10.6523" fill="#E6E6E6"/>
<path d="M8.2832 23.3818C12.8579 23.3818 16.5664 26.6721 16.5664 30.7305C16.5663 32.4589 15.8915 34.046 14.7656 35.3008C15.8919 36.5558 16.5664 38.1442 16.5664 39.873C16.5663 41.4635 15.9945 42.9341 15.0264 44.1367C15.9943 45.3393 16.5664 46.81 16.5664 48.4004C16.5662 52.4585 12.8577 55.748 8.2832 55.748C3.70866 55.748 0.000238778 52.4585 0 48.4004C0 46.8102 0.57133 45.3392 1.53906 44.1367C0.571176 42.9342 9.35671e-05 41.4633 0 39.873C0 38.1444 0.673804 36.5557 1.7998 35.3008C0.674239 34.046 0.000101684 32.4586 0 30.7305C0 26.6721 3.70852 23.3818 8.2832 23.3818Z" fill="#F5F5F5"/>
<rect x="78.6289" y="52.7129" width="5.09766" height="10.6523" fill="#E6E6E6"/>
<path d="M81.1777 23.3818C85.7524 23.3818 89.4609 26.6721 89.4609 30.7305C89.4608 32.4589 88.786 34.046 87.6602 35.3008C88.7864 36.5558 89.4609 38.1442 89.4609 39.873C89.4608 41.4635 88.889 42.9341 87.9209 44.1367C88.8889 45.3393 89.4609 46.81 89.4609 48.4004C89.4607 52.4585 85.7523 55.748 81.1777 55.748C76.6032 55.748 72.8948 52.4585 72.8945 48.4004C72.8945 46.8102 73.4659 45.3392 74.4336 44.1367C73.4657 42.9342 72.8946 41.4633 72.8945 39.873C72.8945 38.1444 73.5683 36.5557 74.6943 35.3008C73.5688 34.046 72.8946 32.4586 72.8945 30.7305C72.8945 26.6721 76.603 23.3818 81.1777 23.3818Z" fill="#F5F5F5"/>
<rect x="109.559" y="52.7129" width="5.09766" height="10.6523" fill="#E6E6E6"/>
<path d="M111.476 23.8259C111.677 23.2338 112.475 23.2338 112.677 23.8259L123.22 54.8553C123.368 55.2905 123.06 55.748 122.62 55.748H101.533C101.092 55.748 100.784 55.2905 100.932 54.8553L111.476 23.8259Z" fill="#F5F5F5"/>
<path d="M188.451 53.1448C188.516 52.9517 188.777 52.9517 188.842 53.1448L192.281 63.2639C192.329 63.4058 192.229 63.5551 192.085 63.5551H185.208C185.064 63.5551 184.964 63.4058 185.012 63.2639L188.451 53.1448Z" fill="#F5F5F5"/>
<path d="M193.056 53.1448C193.122 52.9517 193.382 52.9517 193.448 53.1448L196.886 63.2639C196.934 63.4058 196.834 63.5551 196.69 63.5551H189.814C189.67 63.5551 189.569 63.4058 189.618 63.2639L193.056 53.1448Z" fill="#F5F5F5"/>
<path d="M198.525 53.1448C198.59 52.9517 198.851 52.9517 198.917 53.1448L202.355 63.2639C202.403 63.4058 202.303 63.5551 202.159 63.5551H195.282C195.139 63.5551 195.038 63.4058 195.086 63.2639L198.525 53.1448Z" fill="#F5F5F5"/>
<path d="M39.4975 52.9554C39.5631 52.7623 39.8236 52.7623 39.8892 52.9554L43.3276 63.0745C43.3758 63.2164 43.2755 63.3656 43.1318 63.3656H36.2549C36.1112 63.3656 36.0109 63.2164 36.0591 63.0745L39.4975 52.9554Z" fill="#F5F5F5"/>
<path d="M44.103 52.9554C44.1686 52.7623 44.429 52.7623 44.4947 52.9554L47.9331 63.0745C47.9813 63.2164 47.8809 63.3656 47.7373 63.3656H40.8604C40.7167 63.3656 40.6163 63.2164 40.6646 63.0745L44.103 52.9554Z" fill="#F5F5F5"/>
<path d="M49.5718 52.9554C49.6374 52.7623 49.8978 52.7623 49.9634 52.9554L53.4018 63.0745C53.4501 63.2164 53.3497 63.3656 53.206 63.3656H46.3292C46.1855 63.3656 46.0851 63.2164 46.1333 63.0745L49.5718 52.9554Z" fill="#F5F5F5"/>
<rect x="162.832" y="44.123" width="2.78516" height="19.2422" fill="#696969"/>
<rect x="157.059" y="16" width="14.3359" height="36.6963" rx="2" fill="#808080"/>
<rect x="160.988" y="61.7734" width="6.46875" height="1.5918" rx="0.795898" fill="#999999"/>
<rect x="155.895" y="39.4736" width="16.6562" height="1.55897" rx="0.779484" fill="#696969"/>
<rect x="155.895" y="27.6621" width="16.6562" height="1.55897" rx="0.779484" fill="#696969"/>
<circle cx="164.391" cy="34.3475" r="3.40614" fill="#D9D9D9"/>
<circle cx="164.066" cy="22.536" r="3.40614" fill="#FF1A1A"/>
<circle cx="164.391" cy="46.1591" r="3.40614" fill="#D9D9D9"/>
<rect y="62.5693" width="427.68" height="24" fill="#F5F5F5"/>
<rect x="-5" y="73" width="18" height="3" rx="1.5" fill="#E6E6E6"/>
<rect x="21.668" y="73" width="18" height="3" rx="1.5" fill="#E6E6E6"/>
<rect x="48.332" y="73" width="18" height="3" rx="1.5" fill="#E6E6E6"/>
<rect x="75" y="73" width="18" height="3" rx="1.5" fill="#E6E6E6"/>
<rect x="101.668" y="73" width="18" height="3" rx="1.5" fill="#E6E6E6"/>
<rect x="128.332" y="73" width="18" height="3" rx="1.5" fill="#E6E6E6"/>
<rect x="155" y="73" width="18" height="3" rx="1.5" fill="#E6E6E6"/>
<rect x="181.668" y="73" width="18" height="3" rx="1.5" fill="#E6E6E6"/>
<rect x="208.332" y="73" width="18" height="3" rx="1.5" fill="#E6E6E6"/>
</g>
<path d="M93.6383 20.853C93.7345 19.8609 94.6167 19.1346 95.6088 19.2308L124.786 22.06C126.797 22.2549 128.269 24.0427 128.074 26.0532V26.0532L93.4595 22.6969L93.6383 20.853Z" fill="#999999"/>
<rect x="50" y="54.9795" width="10.3455" height="12.4926" rx="5.17277" transform="rotate(5.5383 50 54.9795)" fill="#666666"/>
<rect x="51.0938" y="55.0859" width="10.3455" height="12.4926" rx="5.17277" transform="rotate(5.5383 51.0938 55.0859)" fill="black"/>
<rect x="113.105" y="61.0986" width="10.3455" height="12.4926" rx="5.17277" transform="rotate(5.5383 113.105 61.0986)" fill="#666666"/>
<rect x="114.332" y="61.2178" width="10.3455" height="12.4926" rx="5.17277" transform="rotate(5.5383 114.332 61.2178)" fill="black"/>
<path d="M38.27 20.0472C38.4855 17.825 40.4617 16.1981 42.684 16.4136L123.397 24.2398C133.768 25.2454 141.36 34.4677 140.354 44.8383L138.325 65.7582C138.11 67.9805 136.134 69.6074 133.911 69.3919L38.4446 60.1351C36.2223 59.9196 34.5954 57.9434 34.8109 55.7211L38.27 20.0472Z" fill="#B3B3B3"/>
<path d="M118.229 32.604C118.402 30.8131 119.995 29.5021 121.786 29.6758V29.6758C130.143 30.4861 136.261 37.9182 135.451 46.2758L135.228 48.5806C135.149 49.3867 134.433 49.9768 133.626 49.8986L118.282 48.4108C117.414 48.3266 116.779 47.5547 116.863 46.6866L118.229 32.604Z" fill="white"/>
<path d="M131.311 58.3597C131.344 58.0186 131.648 57.769 131.989 57.8021L139.028 58.4847L138.908 59.7196L131.869 59.037C131.528 59.004 131.278 58.7007 131.311 58.3597V58.3597Z" fill="#CFCECE"/>
<path d="M131.081 60.7269C131.114 60.3858 131.417 60.1362 131.758 60.1692L138.798 60.8518L138.678 62.0868L131.638 61.4042C131.297 61.3711 131.048 61.0679 131.081 60.7269V60.7269Z" fill="#CFCECE"/>
<rect x="125.125" y="57.1357" width="4.16113" height="3.79691" rx="1.35356" transform="rotate(5.5383 125.125 57.1357)" fill="#D9D9D9"/>
<rect x="93.0547" y="26.8896" width="18.8282" height="12.0401" rx="3.1583" transform="rotate(5.5383 93.0547 26.8896)" fill="white"/>
<rect x="69.5977" y="24.6152" width="18.8282" height="12.0401" rx="3.1583" transform="rotate(5.5383 69.5977 24.6152)" fill="white"/>
<rect x="46.1406" y="22.3408" width="18.8282" height="12.0401" rx="3.1583" transform="rotate(5.5383 46.1406 22.3408)" fill="white"/>
</g>
<defs>
<clipPath id="clip0_9776_12972">
<rect width="213" height="87" fill="white"/>
</clipPath>
<clipPath id="clip1_9776_12972">
<rect width="428" height="87" fill="white"/>
</clipPath>
</defs>
</svg>
