<svg width="213" height="87" viewBox="0 0 213 87" fill="none" xmlns="http://www.w3.org/2000/svg">
<g clip-path="url(#clip0_9776_20575)">
<g clip-path="url(#clip1_9776_20575)">
<rect width="428" height="87" fill="white"/>
<rect x="5.73438" y="52.7129" width="5.09766" height="10.6523" fill="#E6E6E6"/>
<path d="M8.2832 23.3818C12.8579 23.3818 16.5664 26.6721 16.5664 30.7305C16.5663 32.4589 15.8915 34.046 14.7656 35.3008C15.8919 36.5558 16.5664 38.1442 16.5664 39.873C16.5663 41.4635 15.9945 42.9341 15.0264 44.1367C15.9943 45.3393 16.5664 46.81 16.5664 48.4004C16.5662 52.4585 12.8577 55.748 8.2832 55.748C3.70866 55.748 0.000238778 52.4585 0 48.4004C0 46.8102 0.57133 45.3392 1.53906 44.1367C0.571176 42.9342 9.35671e-05 41.4633 0 39.873C0 38.1444 0.673804 36.5557 1.7998 35.3008C0.674239 34.046 0.000101684 32.4586 0 30.7305C0 26.6721 3.70852 23.3818 8.2832 23.3818Z" fill="#F5F5F5"/>
<rect x="78.6289" y="52.7129" width="5.09766" height="10.6523" fill="#E6E6E6"/>
<path d="M81.1777 23.3818C85.7524 23.3818 89.4609 26.6721 89.4609 30.7305C89.4608 32.4589 88.786 34.046 87.6602 35.3008C88.7864 36.5558 89.4609 38.1442 89.4609 39.873C89.4608 41.4635 88.889 42.9341 87.9209 44.1367C88.8889 45.3393 89.4609 46.81 89.4609 48.4004C89.4607 52.4585 85.7523 55.748 81.1777 55.748C76.6032 55.748 72.8948 52.4585 72.8945 48.4004C72.8945 46.8102 73.4659 45.3392 74.4336 44.1367C73.4657 42.9342 72.8946 41.4633 72.8945 39.873C72.8945 38.1444 73.5683 36.5557 74.6943 35.3008C73.5688 34.046 72.8946 32.4586 72.8945 30.7305C72.8945 26.6721 76.603 23.3818 81.1777 23.3818Z" fill="#F5F5F5"/>
<rect x="109.559" y="52.7129" width="5.09766" height="10.6523" fill="#E6E6E6"/>
<path d="M111.476 23.8259C111.677 23.2338 112.475 23.2338 112.677 23.8259L123.22 54.8553C123.368 55.2905 123.06 55.748 122.62 55.748H101.533C101.092 55.748 100.784 55.2905 100.932 54.8553L111.476 23.8259Z" fill="#F5F5F5"/>
<path d="M188.451 53.1448C188.516 52.9517 188.777 52.9517 188.842 53.1448L192.281 63.2639C192.329 63.4058 192.229 63.5551 192.085 63.5551H185.208C185.064 63.5551 184.964 63.4058 185.012 63.2639L188.451 53.1448Z" fill="#F5F5F5"/>
<path d="M193.056 53.1448C193.122 52.9517 193.382 52.9517 193.448 53.1448L196.886 63.2639C196.934 63.4058 196.834 63.5551 196.69 63.5551H189.814C189.67 63.5551 189.569 63.4058 189.618 63.2639L193.056 53.1448Z" fill="#F5F5F5"/>
<path d="M198.525 53.1448C198.59 52.9517 198.851 52.9517 198.917 53.1448L202.355 63.2639C202.403 63.4058 202.303 63.5551 202.159 63.5551H195.282C195.139 63.5551 195.038 63.4058 195.086 63.2639L198.525 53.1448Z" fill="#F5F5F5"/>
<path d="M39.4975 52.9554C39.5631 52.7623 39.8236 52.7623 39.8892 52.9554L43.3276 63.0745C43.3758 63.2164 43.2755 63.3656 43.1318 63.3656H36.2549C36.1112 63.3656 36.0109 63.2164 36.0591 63.0745L39.4975 52.9554Z" fill="#F5F5F5"/>
<path d="M44.103 52.9554C44.1686 52.7623 44.429 52.7623 44.4947 52.9554L47.9331 63.0745C47.9813 63.2164 47.8809 63.3656 47.7373 63.3656H40.8604C40.7167 63.3656 40.6163 63.2164 40.6646 63.0745L44.103 52.9554Z" fill="#F5F5F5"/>
<path d="M49.5718 52.9554C49.6374 52.7623 49.8978 52.7623 49.9634 52.9554L53.4018 63.0745C53.4501 63.2164 53.3497 63.3656 53.206 63.3656H46.3292C46.1855 63.3656 46.0851 63.2164 46.1333 63.0745L49.5718 52.9554Z" fill="#F5F5F5"/>
<rect x="162.832" y="33.3652" width="3" height="30" fill="#696969"/>
<rect x="161.098" y="61.7734" width="6.46875" height="1.5918" rx="0.795898" fill="#999999"/>
<rect x="154.998" y="13.6314" width="18.668" height="29.8687" rx="1.24453" fill="#00E0A8"/>
<rect x="156.548" y="15.9236" width="15.5702" height="25.2856" rx="0.933398" stroke="white" stroke-width="0.622266"/>
<mask id="mask0_9776_20575" style="mask-type:alpha" maskUnits="userSpaceOnUse" x="157" y="17" width="15" height="15">
<rect x="157.115" y="17.5697" width="14.4288" height="14.4288" fill="#D9D9D9"/>
</mask>
<g mask="url(#mask0_9776_20575)">
<path d="M160.725 30.1945C160.555 30.1945 160.412 30.1368 160.297 30.0216C160.181 29.9064 160.124 29.7636 160.124 29.5933V28.3608C159.943 28.1604 159.798 27.9375 159.688 27.692C159.578 27.4465 159.522 27.1784 159.522 26.8879V21.1765C159.522 20.3448 159.908 19.7361 160.68 19.3503C161.451 18.9646 162.669 18.7717 164.332 18.7717C166.055 18.7717 167.288 18.957 168.029 19.3278C168.771 19.6985 169.142 20.3147 169.142 21.1765V26.8879C169.142 27.1784 169.087 27.4465 168.976 27.692C168.866 27.9375 168.721 28.1604 168.54 28.3608V29.5933C168.54 29.7636 168.483 29.9064 168.368 30.0216C168.252 30.1368 168.11 30.1945 167.939 30.1945H167.338C167.168 30.1945 167.025 30.1368 166.91 30.0216C166.794 29.9064 166.737 29.7636 166.737 29.5933V28.9921H161.927V29.5933C161.927 29.7636 161.87 29.9064 161.754 30.0216C161.639 30.1368 161.496 30.1945 161.326 30.1945H160.725ZM160.725 23.5813H167.939V21.7777H160.725V23.5813ZM162.228 27.1885C162.478 27.1885 162.691 27.1008 162.867 26.9254C163.042 26.7501 163.13 26.5372 163.13 26.2867C163.13 26.0362 163.042 25.8232 162.867 25.6479C162.691 25.4725 162.478 25.3849 162.228 25.3849C161.977 25.3849 161.764 25.4725 161.589 25.6479C161.414 25.8232 161.326 26.0362 161.326 26.2867C161.326 26.5372 161.414 26.7501 161.589 26.9254C161.764 27.1008 161.977 27.1885 162.228 27.1885ZM166.436 27.1885C166.687 27.1885 166.9 27.1008 167.075 26.9254C167.25 26.7501 167.338 26.5372 167.338 26.2867C167.338 26.0362 167.25 25.8232 167.075 25.6479C166.9 25.4725 166.687 25.3849 166.436 25.3849C166.186 25.3849 165.973 25.4725 165.797 25.6479C165.622 25.8232 165.534 26.0362 165.534 26.2867C165.534 26.5372 165.622 26.7501 165.797 26.9254C165.973 27.1008 166.186 27.1885 166.436 27.1885Z" fill="white"/>
</g>
<path d="M160.768 34.9975V32.3669H161.919C162.429 32.3669 162.734 32.6166 162.734 33.0214V33.025C162.734 33.3021 162.528 33.5446 162.258 33.5847V33.6175C162.606 33.6448 162.859 33.9055 162.859 34.2428V34.2464C162.859 34.7077 162.511 34.9975 161.95 34.9975H160.768ZM161.778 32.7753H161.319V33.4607H161.733C162.03 33.4607 162.192 33.3368 162.192 33.1198V33.1162C162.192 32.9029 162.041 32.7753 161.778 32.7753ZM161.797 33.8235H161.319V34.5874H161.809C162.127 34.5874 162.298 34.4525 162.298 34.2027V34.1991C162.298 33.9548 162.121 33.8235 161.797 33.8235ZM164.365 35.065C163.69 35.065 163.262 34.6749 163.262 34.0897V32.3669H163.812V34.0404C163.812 34.3814 164.011 34.5983 164.365 34.5983C164.719 34.5983 164.915 34.3814 164.915 34.0404V32.3669H165.466V34.0897C165.466 34.673 165.043 35.065 164.365 35.065ZM166.951 35.065C166.322 35.065 165.925 34.7642 165.894 34.2975L165.892 34.2683H166.423L166.425 34.2866C166.445 34.4834 166.658 34.6165 166.966 34.6165C167.259 34.6165 167.462 34.4762 167.462 34.2738V34.272C167.462 34.0988 167.332 34.0022 167.006 33.9347L166.729 33.8782C166.182 33.767 165.947 33.5118 165.947 33.1125V33.1107C165.947 32.6221 166.366 32.2994 166.95 32.2994C167.564 32.2994 167.925 32.6239 167.96 33.0633L167.961 33.087H167.444L167.44 33.0651C167.409 32.8773 167.227 32.7461 166.95 32.7461C166.678 32.7479 166.497 32.8719 166.497 33.0688V33.0706C166.497 33.242 166.625 33.344 166.935 33.4078L167.214 33.4644C167.77 33.5792 168.012 33.8016 168.012 34.2118V34.2136C168.012 34.735 167.608 35.065 166.951 35.065ZM160.556 39.065C159.927 39.065 159.53 38.7642 159.499 38.2975L159.497 38.2683H160.027L160.029 38.2866C160.049 38.4834 160.263 38.6165 160.571 38.6165C160.864 38.6165 161.067 38.4762 161.067 38.2738V38.272C161.067 38.0988 160.937 38.0022 160.611 37.9347L160.334 37.8782C159.787 37.767 159.552 37.5118 159.552 37.1125V37.1107C159.552 36.6221 159.971 36.2994 160.554 36.2994C161.169 36.2994 161.53 36.6239 161.564 37.0633L161.566 37.087H161.048L161.045 37.0651C161.014 36.8773 160.831 36.7461 160.554 36.7461C160.283 36.7479 160.102 36.8719 160.102 37.0688V37.0706C160.102 37.242 160.23 37.344 160.54 37.4078L160.819 37.4644C161.375 37.5792 161.617 37.8016 161.617 38.2118V38.2136C161.617 38.735 161.212 39.065 160.556 39.065ZM162.683 38.9975V36.8208H161.894V36.3669H164.023V36.8208H163.234V38.9975H162.683ZM165.476 39.065C164.694 39.065 164.209 38.5327 164.209 37.6831V37.6795C164.209 36.8281 164.701 36.2994 165.476 36.2994C166.251 36.2994 166.741 36.8299 166.741 37.6795V37.6831C166.741 38.5327 166.252 39.065 165.476 39.065ZM165.476 38.5983C165.904 38.5983 166.18 38.2392 166.18 37.6831V37.6795C166.18 37.1216 165.902 36.7661 165.476 36.7661C165.047 36.7661 164.77 37.1216 164.77 37.6795V37.6831C164.77 38.2392 165.042 38.5983 165.476 38.5983ZM167.171 38.9975V36.3669H168.256C168.81 36.3669 169.18 36.7242 169.18 37.2657V37.2693C169.18 37.8107 168.81 38.1681 168.256 38.1681H167.721V38.9975H167.171ZM168.121 36.8026H167.721V37.7378H168.121C168.436 37.7378 168.622 37.5701 168.622 37.2711V37.2675C168.622 36.9685 168.436 36.8026 168.121 36.8026Z" fill="white"/>
<rect y="62.5693" width="427.68" height="24" fill="#F5F5F5"/>
<rect x="-5" y="73" width="18" height="3" rx="1.5" fill="#E6E6E6"/>
<rect x="21.667" y="73" width="18" height="3" rx="1.5" fill="#E6E6E6"/>
<rect x="48.333" y="73" width="18" height="3" rx="1.5" fill="#E6E6E6"/>
<rect x="75" y="73" width="18" height="3" rx="1.5" fill="#E6E6E6"/>
<rect x="101.667" y="73" width="18" height="3" rx="1.5" fill="#E6E6E6"/>
<rect x="128.333" y="73" width="18" height="3" rx="1.5" fill="#E6E6E6"/>
<rect x="155" y="73" width="18" height="3" rx="1.5" fill="#E6E6E6"/>
<rect x="181.667" y="73" width="18" height="3" rx="1.5" fill="#E6E6E6"/>
<rect x="208.333" y="73" width="18" height="3" rx="1.5" fill="#E6E6E6"/>
</g>
<path d="M87.1895 23.8286C87.1895 22.8319 87.9975 22.0239 88.9942 22.0239H118.309C120.329 22.0239 121.966 23.6613 121.966 25.6812H87.1895V23.8286Z" fill="#00E0A8"/>
<rect x="47.0459" y="62.0078" width="10.3455" height="12.4926" rx="5.17277" fill="#666666"/>
<rect x="48.1455" y="62.0078" width="10.3455" height="12.4926" rx="5.17277" fill="black"/>
<rect x="110.45" y="62.0078" width="10.3455" height="12.4926" rx="5.17277" fill="#666666"/>
<rect x="111.682" y="62.0078" width="10.3455" height="12.4926" rx="5.17277" fill="black"/>
<path d="M32 28.3703C32 26.1376 33.81 24.3276 36.0427 24.3276H117.134C127.553 24.3276 136 32.7741 136 43.1934V64.2115C136 66.4442 134.19 68.2541 131.957 68.2541H36.0427C33.81 68.2541 32 66.4442 32 64.2115V28.3703Z" fill="#80FFDF"/>
<path d="M112.798 33.152C112.798 31.3527 114.256 29.894 116.056 29.894C124.453 29.894 131.259 36.701 131.259 45.0977V47.4133C131.259 48.2232 130.603 48.8797 129.793 48.8797H114.377C113.505 48.8797 112.798 48.1727 112.798 47.3006V33.152Z" fill="white"/>
<path d="M128.307 57.5242C128.307 57.1816 128.584 56.9038 128.927 56.9038H136V58.1446H128.927C128.584 58.1446 128.307 57.8668 128.307 57.5242Z" fill="#CFCECE"/>
<path d="M128.307 59.9028C128.307 59.5602 128.584 59.2824 128.927 59.2824H136V60.5232H128.927C128.584 60.5232 128.307 60.2454 128.307 59.9028Z" fill="#CFCECE"/>
<rect x="122.029" y="56.9038" width="4.16113" height="3.79691" rx="1.35356" fill="#D9D9D9"/>
<rect x="87.1895" y="29.894" width="18.8282" height="12.0401" rx="3.1583" fill="white"/>
<rect x="63.623" y="29.894" width="18.8282" height="12.0401" rx="3.1583" fill="white"/>
<rect x="40.0576" y="29.894" width="18.8282" height="12.0401" rx="3.1583" fill="white"/>
</g>
<defs>
<clipPath id="clip0_9776_20575">
<rect width="213" height="87" fill="white"/>
</clipPath>
<clipPath id="clip1_9776_20575">
<rect width="428" height="87" fill="white"/>
</clipPath>
</defs>
</svg>
