<svg width="213" height="73" viewBox="0 0 213 73" fill="none" xmlns="http://www.w3.org/2000/svg">
<rect y="48.3141" width="213" height="24" fill="#F5F5F5"/>
<rect x="11" y="59.3141" width="18" height="3" rx="1.5" fill="#E6E6E6"/>
<rect x="40" y="59.3141" width="18" height="3" rx="1.5" fill="#E6E6E6"/>
<rect x="69" y="59.3141" width="18" height="3" rx="1.5" fill="#E6E6E6"/>
<rect x="98" y="59.3141" width="18" height="3" rx="1.5" fill="#E6E6E6"/>
<rect x="127" y="59.3141" width="18" height="3" rx="1.5" fill="#E6E6E6"/>
<rect x="156" y="59.3141" width="18" height="3" rx="1.5" fill="#E6E6E6"/>
<rect x="185" y="59.3141" width="18" height="3" rx="1.5" fill="#E6E6E6"/>
<path d="M77.7787 7.57068C77.874 6.57851 78.7555 5.85142 79.7477 5.94667L108.928 8.74817C110.939 8.9412 112.412 10.7276 112.219 12.7382L77.6017 9.41475L77.7787 7.57068Z" fill="#999999"/>
<rect x="34.1709" y="41.7387" width="10.3455" height="12.4926" rx="5.17277" transform="rotate(5.48394 34.1709 41.7387)" fill="#666666"/>
<rect x="35.2656" y="41.8438" width="10.3455" height="12.4926" rx="5.17277" transform="rotate(5.48394 35.2656 41.8438)" fill="black"/>
<rect x="97.2842" y="47.798" width="10.3455" height="12.4926" rx="5.17277" transform="rotate(5.48394 97.2842 47.798)" fill="#666666"/>
<rect x="98.5107" y="47.9158" width="10.3455" height="12.4926" rx="5.17277" transform="rotate(5.48394 98.5107 47.9158)" fill="black"/>
<path d="M22.4086 6.81728C22.6219 4.5948 24.5966 2.96609 26.8191 3.17947L107.539 10.9291C117.911 11.9249 125.512 21.1399 124.516 31.5115L122.507 52.4334C122.294 54.6558 120.319 56.2845 118.097 56.0712L22.6212 46.9049C20.3987 46.6915 18.77 44.7169 18.9834 42.4944L22.4086 6.81728Z" fill="#B3B3B3"/>
<path d="M102.379 19.2986C102.551 17.5075 104.142 16.195 105.933 16.367C114.292 17.1694 120.417 24.5957 119.615 32.954L119.393 35.259C119.316 36.0652 118.6 36.656 117.793 36.5786L102.448 35.1053C101.58 35.022 100.944 34.2506 101.027 33.3825L102.379 19.2986Z" fill="white"/>
<path d="M115.488 45.0414C115.52 44.7004 115.823 44.4504 116.164 44.4832L123.205 45.1591L123.086 46.3942L116.046 45.7183C115.705 45.6855 115.455 45.3825 115.488 45.0414Z" fill="#CFCECE"/>
<path d="M115.26 47.4092C115.293 47.0681 115.596 46.8182 115.937 46.8509L122.977 47.5268L122.859 48.7619L115.818 48.086C115.477 48.0533 115.227 47.7502 115.26 47.4092Z" fill="#CFCECE"/>
<rect x="109.299" y="43.824" width="4.16113" height="3.79691" rx="1.35356" transform="rotate(5.48394 109.299 43.824)" fill="#D9D9D9"/>
<rect x="77.1992" y="13.6083" width="18.8282" height="12.0401" rx="3.1583" transform="rotate(5.48394 77.1992 13.6083)" fill="white"/>
<rect x="53.7412" y="11.3562" width="18.8282" height="12.0401" rx="3.1583" transform="rotate(5.48394 53.7412 11.3562)" fill="white"/>
<rect x="30.2832" y="9.10413" width="18.8282" height="12.0401" rx="3.1583" transform="rotate(5.48394 30.2832 9.10413)" fill="white"/>
<rect x="169" y="35.4071" width="5" height="23" fill="#EF2B2A"/>
<circle cx="171.5" cy="18" r="15.5" fill="white" stroke="#EF2B2A" stroke-width="4"/>
<rect x="159" y="10.4344" width="4" height="29" transform="rotate(-49.1855 159 10.4344)" fill="#EF2B2A"/>
</svg>
