<svg width="213" height="87" viewBox="0 0 213 87" fill="none" xmlns="http://www.w3.org/2000/svg">
<g clip-path="url(#clip0_9776_12714)">
<g clip-path="url(#clip1_9776_12714)">
<rect width="428" height="87" fill="white"/>
<rect x="5.73438" y="52.7129" width="5.09766" height="10.6523" fill="#E6E6E6"/>
<path d="M8.2832 23.3818C12.8579 23.3818 16.5664 26.6721 16.5664 30.7305C16.5663 32.4589 15.8915 34.046 14.7656 35.3008C15.8919 36.5558 16.5664 38.1442 16.5664 39.873C16.5663 41.4635 15.9945 42.9341 15.0264 44.1367C15.9943 45.3393 16.5664 46.81 16.5664 48.4004C16.5662 52.4585 12.8577 55.748 8.2832 55.748C3.70866 55.748 0.000238778 52.4585 0 48.4004C0 46.8102 0.57133 45.3392 1.53906 44.1367C0.571176 42.9342 9.35671e-05 41.4633 0 39.873C0 38.1444 0.673804 36.5557 1.7998 35.3008C0.674239 34.046 0.000101684 32.4586 0 30.7305C0 26.6721 3.70852 23.3818 8.2832 23.3818Z" fill="#F5F5F5"/>
<rect x="78.6289" y="52.7129" width="5.09766" height="10.6523" fill="#E6E6E6"/>
<path d="M81.1777 23.3818C85.7524 23.3818 89.4609 26.6721 89.4609 30.7305C89.4608 32.4589 88.786 34.046 87.6602 35.3008C88.7864 36.5558 89.4609 38.1442 89.4609 39.873C89.4608 41.4635 88.889 42.9341 87.9209 44.1367C88.8889 45.3393 89.4609 46.81 89.4609 48.4004C89.4607 52.4585 85.7523 55.748 81.1777 55.748C76.6032 55.748 72.8948 52.4585 72.8945 48.4004C72.8945 46.8102 73.4659 45.3392 74.4336 44.1367C73.4657 42.9342 72.8946 41.4633 72.8945 39.873C72.8945 38.1444 73.5683 36.5557 74.6943 35.3008C73.5688 34.046 72.8946 32.4586 72.8945 30.7305C72.8945 26.6721 76.603 23.3818 81.1777 23.3818Z" fill="#F5F5F5"/>
<rect x="109.559" y="52.7129" width="5.09766" height="10.6523" fill="#E6E6E6"/>
<path d="M111.476 23.8259C111.677 23.2338 112.475 23.2338 112.677 23.8259L123.22 54.8553C123.368 55.2905 123.06 55.748 122.62 55.748H101.533C101.092 55.748 100.784 55.2905 100.932 54.8553L111.476 23.8259Z" fill="#F5F5F5"/>
<path d="M188.451 53.1448C188.516 52.9517 188.777 52.9517 188.842 53.1448L192.281 63.2639C192.329 63.4058 192.229 63.5551 192.085 63.5551H185.208C185.064 63.5551 184.964 63.4058 185.012 63.2639L188.451 53.1448Z" fill="#F5F5F5"/>
<path d="M193.056 53.1448C193.122 52.9517 193.382 52.9517 193.448 53.1448L196.886 63.2639C196.934 63.4058 196.834 63.5551 196.69 63.5551H189.814C189.67 63.5551 189.569 63.4058 189.618 63.2639L193.056 53.1448Z" fill="#F5F5F5"/>
<path d="M198.525 53.1448C198.59 52.9517 198.851 52.9517 198.917 53.1448L202.355 63.2639C202.403 63.4058 202.303 63.5551 202.159 63.5551H195.282C195.139 63.5551 195.038 63.4058 195.086 63.2639L198.525 53.1448Z" fill="#F5F5F5"/>
<path d="M39.4975 52.9554C39.5631 52.7623 39.8236 52.7623 39.8892 52.9554L43.3276 63.0745C43.3758 63.2164 43.2755 63.3656 43.1318 63.3656H36.2549C36.1112 63.3656 36.0109 63.2164 36.0591 63.0745L39.4975 52.9554Z" fill="#F5F5F5"/>
<path d="M44.103 52.9554C44.1686 52.7623 44.429 52.7623 44.4947 52.9554L47.9331 63.0745C47.9813 63.2164 47.8809 63.3656 47.7373 63.3656H40.8604C40.7167 63.3656 40.6163 63.2164 40.6646 63.0745L44.103 52.9554Z" fill="#F5F5F5"/>
<path d="M49.5718 52.9554C49.6374 52.7623 49.8978 52.7623 49.9634 52.9554L53.4018 63.0745C53.4501 63.2164 53.3497 63.3656 53.206 63.3656H46.3292C46.1855 63.3656 46.0851 63.2164 46.1333 63.0745L49.5718 52.9554Z" fill="#F5F5F5"/>
<rect x="162.832" y="33.3652" width="3" height="30" fill="#696969"/>
<rect x="161.098" y="61.7734" width="6.46875" height="1.5918" rx="0.795898" fill="#999999"/>
<rect x="155" y="13.6309" width="18.668" height="29.8687" rx="1.24453" fill="#00C896"/>
<rect x="156.549" y="15.9234" width="15.5702" height="25.2856" rx="0.933398" stroke="white" stroke-width="0.622266"/>
<mask id="mask0_9776_12714" style="mask-type:alpha" maskUnits="userSpaceOnUse" x="157" y="17" width="15" height="15">
<rect x="157.121" y="17.5684" width="14.4288" height="14.4288" fill="#D9D9D9"/>
</mask>
<g mask="url(#mask0_9776_12714)">
<path d="M160.73 30.1933C160.559 30.1933 160.417 30.1357 160.301 30.0205C160.186 29.9052 160.129 29.7624 160.129 29.5921V28.3596C159.948 28.1592 159.803 27.9363 159.693 27.6908C159.582 27.4453 159.527 27.1773 159.527 26.8867V21.1753C159.527 20.3436 159.913 19.7349 160.685 19.3492C161.456 18.9634 162.674 18.7705 164.337 18.7705C166.06 18.7705 167.293 18.9559 168.034 19.3266C168.776 19.6974 169.147 20.3136 169.147 21.1753V26.8867C169.147 27.1773 169.091 27.4453 168.981 27.6908C168.871 27.9363 168.726 28.1592 168.545 28.3596V29.5921C168.545 29.7624 168.488 29.9052 168.372 30.0205C168.257 30.1357 168.114 30.1933 167.944 30.1933H167.343C167.173 30.1933 167.03 30.1357 166.915 30.0205C166.799 29.9052 166.742 29.7624 166.742 29.5921V28.9909H161.932V29.5921C161.932 29.7624 161.875 29.9052 161.759 30.0205C161.644 30.1357 161.501 30.1933 161.331 30.1933H160.73ZM160.73 23.5801H167.944V21.7765H160.73V23.5801ZM162.233 27.1873C162.483 27.1873 162.696 27.0996 162.872 26.9243C163.047 26.7489 163.135 26.536 163.135 26.2855C163.135 26.035 163.047 25.8221 162.872 25.6467C162.696 25.4714 162.483 25.3837 162.233 25.3837C161.982 25.3837 161.769 25.4714 161.594 25.6467C161.419 25.8221 161.331 26.035 161.331 26.2855C161.331 26.536 161.419 26.7489 161.594 26.9243C161.769 27.0996 161.982 27.1873 162.233 27.1873ZM166.441 27.1873C166.692 27.1873 166.905 27.0996 167.08 26.9243C167.255 26.7489 167.343 26.536 167.343 26.2855C167.343 26.035 167.255 25.8221 167.08 25.6467C166.905 25.4714 166.692 25.3837 166.441 25.3837C166.191 25.3837 165.978 25.4714 165.802 25.6467C165.627 25.8221 165.539 26.035 165.539 26.2855C165.539 26.536 165.627 26.7489 165.802 26.9243C165.978 27.0996 166.191 27.1873 166.441 27.1873Z" fill="white"/>
</g>
<path d="M160.772 34.9971V32.3664H161.923C162.433 32.3664 162.737 32.6162 162.737 33.0209V33.0245C162.737 33.3016 162.531 33.5441 162.262 33.5842V33.617C162.61 33.6444 162.863 33.9051 162.863 34.2423V34.246C162.863 34.7072 162.515 34.9971 161.954 34.9971H160.772ZM161.782 32.7748H161.323V33.4602H161.737C162.034 33.4602 162.196 33.3363 162.196 33.1193V33.1157C162.196 32.9024 162.045 32.7748 161.782 32.7748ZM161.8 33.823H161.323V34.5869H161.813C162.13 34.5869 162.302 34.452 162.302 34.2022V34.1986C162.302 33.9543 162.125 33.823 161.8 33.823ZM164.369 35.0645C163.694 35.0645 163.266 34.6744 163.266 34.0892V32.3664H163.816V34.04C163.816 34.3809 164.015 34.5978 164.369 34.5978C164.722 34.5978 164.919 34.3809 164.919 34.04V32.3664H165.47V34.0892C165.47 34.6726 165.047 35.0645 164.369 35.0645ZM166.955 35.0645C166.326 35.0645 165.929 34.7637 165.898 34.297L165.896 34.2679H166.427L166.428 34.2861C166.448 34.483 166.662 34.6161 166.97 34.6161C167.263 34.6161 167.466 34.4757 167.466 34.2733V34.2715C167.466 34.0983 167.336 34.0017 167.01 33.9342L166.733 33.8777C166.186 33.7665 165.951 33.5113 165.951 33.112V33.1102C165.951 32.6216 166.37 32.299 166.953 32.299C167.568 32.299 167.929 32.6235 167.963 33.0628L167.965 33.0865H167.448L167.444 33.0646C167.413 32.8769 167.231 32.7456 166.953 32.7456C166.682 32.7474 166.501 32.8714 166.501 33.0683V33.0701C166.501 33.2415 166.629 33.3436 166.939 33.4074L167.218 33.4639C167.774 33.5787 168.016 33.8012 168.016 34.2113V34.2132C168.016 34.7346 167.612 35.0645 166.955 35.0645ZM160.56 39.0645C159.931 39.0645 159.534 38.7637 159.503 38.297L159.501 38.2679H160.031L160.033 38.2861C160.053 38.483 160.267 38.6161 160.575 38.6161C160.868 38.6161 161.071 38.4757 161.071 38.2733V38.2715C161.071 38.0983 160.941 38.0017 160.615 37.9342L160.338 37.8777C159.791 37.7665 159.556 37.5113 159.556 37.112V37.1102C159.556 36.6216 159.975 36.299 160.558 36.299C161.173 36.299 161.534 36.6235 161.568 37.0628L161.57 37.0865H161.052L161.049 37.0646C161.018 36.8769 160.835 36.7456 160.558 36.7456C160.287 36.7474 160.106 36.8714 160.106 37.0683V37.0701C160.106 37.2415 160.234 37.3436 160.544 37.4074L160.823 37.4639C161.379 37.5787 161.621 37.8012 161.621 38.2113V38.2132C161.621 38.7346 161.216 39.0645 160.56 39.0645ZM162.687 38.9971V36.8204H161.898V36.3664H164.027V36.8204H163.238V38.9971H162.687ZM165.48 39.0645C164.698 39.0645 164.213 38.5322 164.213 37.6827V37.679C164.213 36.8276 164.705 36.299 165.48 36.299C166.255 36.299 166.745 36.8295 166.745 37.679V37.6827C166.745 38.5322 166.256 39.0645 165.48 39.0645ZM165.48 38.5978C165.908 38.5978 166.183 38.2387 166.183 37.6827V37.679C166.183 37.1212 165.906 36.7657 165.48 36.7657C165.051 36.7657 164.774 37.1212 164.774 37.679V37.6827C164.774 38.2387 165.046 38.5978 165.48 38.5978ZM167.175 38.9971V36.3664H168.259C168.814 36.3664 169.184 36.7237 169.184 37.2652V37.2688C169.184 37.8103 168.814 38.1676 168.259 38.1676H167.725V38.9971H167.175ZM168.125 36.8021H167.725V37.7373H168.125C168.44 37.7373 168.626 37.5696 168.626 37.2706V37.267C168.626 36.968 168.44 36.8021 168.125 36.8021Z" fill="white"/>
<rect y="62.5693" width="427.68" height="24" fill="#F5F5F5"/>
<rect x="-5" y="73" width="18" height="3" rx="1.5" fill="#E6E6E6"/>
<rect x="21.668" y="73" width="18" height="3" rx="1.5" fill="#E6E6E6"/>
<rect x="48.332" y="73" width="18" height="3" rx="1.5" fill="#E6E6E6"/>
<rect x="75" y="73" width="18" height="3" rx="1.5" fill="#E6E6E6"/>
<rect x="101.668" y="73" width="18" height="3" rx="1.5" fill="#E6E6E6"/>
<rect x="128.332" y="73" width="18" height="3" rx="1.5" fill="#E6E6E6"/>
<rect x="155" y="73" width="18" height="3" rx="1.5" fill="#E6E6E6"/>
<rect x="181.668" y="73" width="18" height="3" rx="1.5" fill="#E6E6E6"/>
<rect x="208.332" y="73" width="18" height="3" rx="1.5" fill="#E6E6E6"/>
</g>
<path d="M87.1875 23.8292C87.1875 22.8324 87.9955 22.0244 88.9922 22.0244H118.307C120.327 22.0244 121.964 23.6618 121.964 25.6817V25.6817H87.1875V23.8292Z" fill="#00C896"/>
<rect x="47.0469" y="62.0078" width="10.3455" height="12.4926" rx="5.17277" fill="#666666"/>
<rect x="48.1445" y="62.0078" width="10.3455" height="12.4926" rx="5.17277" fill="black"/>
<rect x="110.449" y="62.0078" width="10.3455" height="12.4926" rx="5.17277" fill="#666666"/>
<rect x="111.684" y="62.0078" width="10.3455" height="12.4926" rx="5.17277" fill="black"/>
<path d="M32 28.3708C32 26.1381 33.81 24.3281 36.0427 24.3281H117.134C127.553 24.3281 136 32.7746 136 43.1939V64.212C136 66.4447 134.19 68.2546 131.957 68.2546H36.0427C33.81 68.2546 32 66.4447 32 64.212V28.3708Z" fill="#8AEDD7"/>
<path d="M112.797 33.1525C112.797 31.3532 114.255 29.8945 116.055 29.8945V29.8945C124.452 29.8945 131.258 36.7014 131.258 45.0982V47.4138C131.258 48.2237 130.602 48.8802 129.792 48.8802H114.376C113.504 48.8802 112.797 48.1732 112.797 47.3011V33.1525Z" fill="white"/>
<path d="M128.305 57.5247C128.305 57.1821 128.582 56.9043 128.925 56.9043H135.998V58.1451H128.925C128.582 58.1451 128.305 57.8673 128.305 57.5247V57.5247Z" fill="#CFCECE"/>
<path d="M128.305 59.9036C128.305 59.561 128.582 59.2832 128.925 59.2832H135.998V60.524H128.925C128.582 60.524 128.305 60.2462 128.305 59.9036V59.9036Z" fill="#CFCECE"/>
<rect x="122.031" y="56.9043" width="4.16113" height="3.79691" rx="1.35356" fill="#D9D9D9"/>
<rect x="87.1875" y="29.8945" width="18.8282" height="12.0401" rx="3.1583" fill="white"/>
<rect x="63.625" y="29.8945" width="18.8282" height="12.0401" rx="3.1583" fill="white"/>
<rect x="40.0586" y="29.8945" width="18.8282" height="12.0401" rx="3.1583" fill="white"/>
</g>
<defs>
<clipPath id="clip0_9776_12714">
<rect width="213" height="87" fill="white"/>
</clipPath>
<clipPath id="clip1_9776_12714">
<rect width="428" height="87" fill="white"/>
</clipPath>
</defs>
</svg>
