<svg width="213" height="65" viewBox="0 0 213 65" fill="none" xmlns="http://www.w3.org/2000/svg">
<rect y="40.5" width="213" height="24" fill="#F5F5F5"/>
<rect x="11" y="51.5" width="18" height="3" rx="1.5" fill="#E6E6E6"/>
<rect x="40" y="51.5" width="18" height="3" rx="1.5" fill="#E6E6E6"/>
<rect x="69" y="51.5" width="18" height="3" rx="1.5" fill="#E6E6E6"/>
<rect x="98" y="51.5" width="18" height="3" rx="1.5" fill="#E6E6E6"/>
<rect x="127" y="51.5" width="18" height="3" rx="1.5" fill="#E6E6E6"/>
<rect x="156" y="51.5" width="18" height="3" rx="1.5" fill="#E6E6E6"/>
<rect x="185" y="51.5" width="18" height="3" rx="1.5" fill="#E6E6E6"/>
<path d="M110.189 2.30468C110.189 1.30795 110.997 0.499939 111.994 0.499939H141.309C143.329 0.499939 144.966 2.13736 144.966 4.15723H110.189V2.30468Z" fill="#00C896"/>
<rect x="70.0459" y="40.4838" width="10.3455" height="12.4926" rx="5.17277" fill="#666666"/>
<rect x="71.1455" y="40.4838" width="10.3455" height="12.4926" rx="5.17277" fill="black"/>
<rect x="133.45" y="40.4838" width="10.3455" height="12.4926" rx="5.17277" fill="#666666"/>
<rect x="134.682" y="40.4838" width="10.3455" height="12.4926" rx="5.17277" fill="black"/>
<path d="M55 6.84635C55 4.61364 56.81 2.80368 59.0427 2.80368H140.134C150.553 2.80368 159 11.2502 159 21.6695V42.6875C159 44.9202 157.19 46.7302 154.957 46.7302H59.0427C56.81 46.7302 55 44.9202 55 42.6875V6.84635Z" fill="#8AEDD7"/>
<path d="M135.798 11.628C135.798 9.82871 137.256 8.37009 139.056 8.37009C147.453 8.37009 154.259 15.177 154.259 23.5738V25.8893C154.259 26.6992 153.603 27.3558 152.793 27.3558H137.377C136.505 27.3558 135.798 26.6488 135.798 25.7766V11.628Z" fill="white"/>
<path d="M151.307 36.0002C151.307 35.6576 151.584 35.3799 151.927 35.3799H159V36.6206H151.927C151.584 36.6206 151.307 36.3429 151.307 36.0002Z" fill="#CFCECE"/>
<path d="M151.307 38.3789C151.307 38.0362 151.584 37.7585 151.927 37.7585H159V38.9992H151.927C151.584 38.9992 151.307 38.7215 151.307 38.3789Z" fill="#CFCECE"/>
<rect x="145.029" y="35.3799" width="4.16113" height="3.79691" rx="1.35356" fill="#D9D9D9"/>
<rect x="110.189" y="8.37009" width="18.8282" height="12.0401" rx="3.1583" fill="white"/>
<rect x="86.623" y="8.37009" width="18.8282" height="12.0401" rx="3.1583" fill="white"/>
<rect x="63.0576" y="8.37009" width="18.8282" height="12.0401" rx="3.1583" fill="white"/>
</svg>
