<svg width="213" height="87" viewBox="0 0 213 87" fill="none" xmlns="http://www.w3.org/2000/svg">
<path d="M87.1875 23.0879C87.1875 22.0912 87.9955 21.2832 88.9922 21.2832H118.307C120.327 21.2832 121.964 22.9206 121.964 24.9405V24.9405H87.1875V23.0879Z" fill="#999999"/>
<rect x="47.0469" y="61.2666" width="10.3455" height="12.4926" rx="5.17277" fill="#666666"/>
<rect x="48.1445" y="61.2666" width="10.3455" height="12.4926" rx="5.17277" fill="black"/>
<rect x="110.449" y="61.2666" width="10.3455" height="12.4926" rx="5.17277" fill="#666666"/>
<rect x="111.684" y="61.2666" width="10.3455" height="12.4926" rx="5.17277" fill="black"/>
<path d="M32 27.6296C32 25.3969 33.81 23.5869 36.0427 23.5869H117.134C127.553 23.5869 136 32.0334 136 42.4527V63.4708C136 65.7035 134.19 67.5134 131.957 67.5134H36.0427C33.81 67.5134 32 65.7035 32 63.4708V27.6296Z" fill="#B3B3B3"/>
<path d="M112.797 32.4112C112.797 30.6119 114.255 29.1533 116.055 29.1533V29.1533C124.452 29.1533 131.258 35.9602 131.258 44.357V46.6726C131.258 47.4825 130.602 48.139 129.792 48.139H114.376C113.504 48.139 112.797 47.432 112.797 46.5599V32.4112Z" fill="white"/>
<path d="M128.305 56.7835C128.305 56.4408 128.582 56.1631 128.925 56.1631H135.998V57.4038H128.925C128.582 57.4038 128.305 57.1261 128.305 56.7835V56.7835Z" fill="#CFCECE"/>
<path d="M128.305 59.1624C128.305 58.8197 128.582 58.542 128.925 58.542H135.998V59.7828H128.925C128.582 59.7828 128.305 59.505 128.305 59.1624V59.1624Z" fill="#CFCECE"/>
<rect x="122.031" y="56.1631" width="4.16113" height="3.79691" rx="1.35356" fill="#D9D9D9"/>
<rect x="87.1875" y="29.1533" width="18.8282" height="12.0401" rx="3.1583" fill="white"/>
<rect x="63.625" y="29.1533" width="18.8282" height="12.0401" rx="3.1583" fill="white"/>
<rect x="40.0586" y="29.1533" width="18.8282" height="12.0401" rx="3.1583" fill="white"/>
</svg>
