<svg width="53" height="26" viewBox="0 0 53 26" fill="none" xmlns="http://www.w3.org/2000/svg">
<g clip-path="url(#clip0_520_8036)">
<path fill-rule="evenodd" clip-rule="evenodd" d="M47.3098 -0.261719H5.79634C2.63399 -0.261719 0.0703125 2.30618 0.0703125 5.47373V18.7369C0.0703125 21.9044 2.63399 24.4723 5.79634 24.4723H19.0749C21.2244 25.6453 23.8661 26.2646 26.5531 26.2646C29.2401 26.2646 31.8817 25.6453 34.0312 24.4723H47.3098C50.4721 24.4723 53.0358 21.9044 53.0358 18.7369V5.47373C53.0358 2.30618 50.4721 -0.261719 47.3098 -0.261719ZM50.1728 18.7369V5.47373C50.1728 3.88988 48.8911 2.606 47.3098 2.606H5.79634C4.21509 2.606 2.93333 3.88988 2.93333 5.47373V18.7369C2.93333 20.3207 4.21509 21.6046 5.79634 21.6046H15.7151C14.8718 20.4349 14.3853 19.0953 14.3853 17.6614C14.3853 14.8899 16.6285 12.643 19.3955 12.643C22.1626 12.643 24.4059 14.8899 24.4059 17.6614C24.4059 19.563 23.5501 21.2984 22.1416 22.6924C23.4731 23.1452 24.9818 23.3969 26.5531 23.3969C28.1243 23.3969 29.6331 23.1452 30.9645 22.6924C29.5561 21.2984 28.7003 19.563 28.7003 17.6614C28.7003 14.8899 30.9435 12.643 33.7106 12.643C36.4777 12.643 38.7208 14.8899 38.7208 17.6614C38.7208 19.0953 38.2343 20.4349 37.391 21.6046H47.3098C48.8911 21.6046 50.1728 20.3207 50.1728 18.7369ZM17.2483 17.6614C17.2483 16.4737 18.2098 15.5107 19.3955 15.5107C20.5814 15.5107 21.5428 16.4737 21.5428 17.6614C21.5428 18.8592 20.8805 20.173 19.3955 21.2837C17.9106 20.173 17.2483 18.8592 17.2483 17.6614ZM33.7106 15.5107C34.8964 15.5107 35.8578 16.4737 35.8578 17.6614C35.8578 18.8592 35.1955 20.173 33.7106 21.2837C32.2256 20.173 31.5633 18.8592 31.5633 17.6614C31.5633 16.4737 32.5248 15.5107 33.7106 15.5107Z" fill="#00C896"/>
</g>
<defs>
<clipPath id="clip0_520_8036">
<rect width="53" height="26" fill="white"/>
</clipPath>
</defs>
</svg>
