<svg width="24" height="24" viewBox="0 0 24 24" fill="none" xmlns="http://www.w3.org/2000/svg">
<g id="icon-arrow">
<path id="arrow" d="M20.6055 12.0036L14.5313 18.0778C14.3711 18.238 14.293 18.4266 14.2971 18.6437C14.3012 18.8609 14.3834 19.0495 14.5436 19.2097C14.7039 19.3699 14.8926 19.45 15.1097 19.45C15.3267 19.45 15.5154 19.3699 15.6758 19.2097L21.8614 13.0364C22.0072 12.8906 22.1153 12.7272 22.1856 12.5463C22.2559 12.3654 22.291 12.1845 22.291 12.0036C22.291 11.8227 22.2559 11.6418 22.1856 11.4609C22.1153 11.28 22.0072 11.1167 21.8614 10.9709L15.6758 4.78499C15.5154 4.62479 15.3246 4.54677 15.1034 4.55094C14.8822 4.55511 14.6915 4.63729 14.5313 4.79749C14.3711 4.95769 14.291 5.14638 14.291 5.36356C14.291 5.58061 14.3711 5.76923 14.5313 5.92943L20.6055 12.0036Z" fill="#B3B3B3"/>
</g>
</svg>
