<svg width="12" height="12" viewBox="0 0 12 12" fill="none" xmlns="http://www.w3.org/2000/svg">
<path fill-rule="evenodd" clip-rule="evenodd" d="M1.23517 3.48468C1.27 3.44976 1.31139 3.42205 1.35695 3.40315C1.4025 3.38424 1.45134 3.37451 1.50067 3.37451C1.55 3.37451 1.59884 3.38424 1.6444 3.40315C1.68995 3.42205 1.73134 3.44976 1.76617 3.48468L6.00067 7.71993L10.2352 3.48468C10.27 3.44982 10.3114 3.42216 10.357 3.40329C10.4025 3.38442 10.4514 3.37471 10.5007 3.37471C10.55 3.37471 10.5988 3.38442 10.6444 3.40329C10.6899 3.42216 10.7313 3.44982 10.7662 3.48468C10.801 3.51955 10.8287 3.56094 10.8476 3.60649C10.8664 3.65205 10.8761 3.70087 10.8761 3.75018C10.8761 3.79949 10.8664 3.84832 10.8476 3.89387C10.8287 3.93942 10.801 3.98082 10.7662 4.01568L6.26617 8.51568C6.23134 8.5506 6.18995 8.57831 6.14439 8.59722C6.09884 8.61612 6.05 8.62585 6.00067 8.62585C5.95134 8.62585 5.9025 8.61612 5.85695 8.59722C5.81139 8.57831 5.77 8.5506 5.73517 8.51568L1.23517 4.01568C1.20025 3.98085 1.17254 3.93947 1.15364 3.89391C1.13473 3.84835 1.125 3.79951 1.125 3.75018C1.125 3.70086 1.13473 3.65202 1.15364 3.60646C1.17254 3.5609 1.20025 3.51952 1.23517 3.48468Z" fill="#808080"/>
</svg>
