<svg width="145" height="144" viewBox="0 0 145 144" fill="none" xmlns="http://www.w3.org/2000/svg">
<path d="M108.5 66H36.5V36H108.5M99.5 102C97.1131 102 94.8239 101.052 93.136 99.364C91.4482 97.6761 90.5 95.3869 90.5 93C90.5 90.6131 91.4482 88.3239 93.136 86.636C94.8239 84.9482 97.1131 84 99.5 84C101.887 84 104.176 84.9482 105.864 86.636C107.552 88.3239 108.5 90.6131 108.5 93C108.5 95.3869 107.552 97.6761 105.864 99.364C104.176 101.052 101.887 102 99.5 102ZM45.5 102C43.1131 102 40.8239 101.052 39.136 99.364C37.4482 97.6761 36.5 95.3869 36.5 93C36.5 90.6131 37.4482 88.3239 39.136 86.636C40.8239 84.9482 43.1131 84 45.5 84C47.8869 84 50.1761 84.9482 51.864 86.636C53.5518 88.3239 54.5 90.6131 54.5 93C54.5 95.3869 53.5518 97.6761 51.864 99.364C50.1761 101.052 47.8869 102 45.5 102ZM24.5 96C24.5 101.28 26.84 106.02 30.5 109.32V120C30.5 121.591 31.1321 123.117 32.2574 124.243C33.3826 125.368 34.9087 126 36.5 126H42.5C44.0913 126 45.6174 125.368 46.7426 124.243C47.8679 123.117 48.5 121.591 48.5 120V114H96.5V120C96.5 121.591 97.1321 123.117 98.2574 124.243C99.3826 125.368 100.909 126 102.5 126H108.5C110.091 126 111.617 125.368 112.743 124.243C113.868 123.117 114.5 121.591 114.5 120V109.32C118.16 106.02 120.5 101.28 120.5 96V36C120.5 15 99.02 12 72.5 12C45.98 12 24.5 15 24.5 36V96Z" fill="#F7F8F9"/>
</svg>
