<svg width="20" height="20" viewBox="0 0 20 20" fill="none" xmlns="http://www.w3.org/2000/svg">
<g id="icon-arrow">
<path id="arrow" d="M17.1716 10.0027L12.1098 15.0645C11.9763 15.198 11.9112 15.3552 11.9145 15.5361C11.918 15.7171 11.9865 15.8743 12.12 16.0078C12.2536 16.1413 12.4109 16.208 12.5917 16.208C12.7726 16.208 12.9298 16.1413 13.0635 16.0078L18.2182 10.8633C18.3397 10.7418 18.4297 10.6057 18.4883 10.4549C18.5469 10.3042 18.5762 10.1534 18.5762 10.0027C18.5762 9.85194 18.5469 9.70119 18.4883 9.55045C18.4297 9.3997 18.3397 9.26357 18.2182 9.14206L13.0635 3.98716C12.9298 3.85367 12.7709 3.78865 12.5865 3.79212C12.4022 3.7956 12.2433 3.86408 12.1098 3.99758C11.9763 4.13108 11.9095 4.28832 11.9095 4.46931C11.9095 4.65018 11.9763 4.80737 12.1098 4.94087L17.1716 10.0027Z" fill="currentColor"/>
</g>
</svg>
