<svg width="19" height="18" viewBox="0 0 19 18" fill="none" xmlns="http://www.w3.org/2000/svg">
<g id="icon-check">
<rect x="0.5" width="18" height="18" rx="9" fill="#00C896"/>
<path id="check_small" d="M7.075 11.425L12.975 5.525C13.1583 5.34167 13.3917 5.25 13.675 5.25C13.9583 5.25 14.1917 5.34167 14.375 5.525C14.5583 5.70833 14.65 5.94167 14.65 6.225C14.65 6.50833 14.5583 6.74167 14.375 6.925L7.775 13.525C7.575 13.725 7.34167 13.825 7.075 13.825C6.80833 13.825 6.575 13.725 6.375 13.525L3.775 10.925C3.59167 10.7417 3.5 10.5083 3.5 10.225C3.5 9.94167 3.59167 9.70833 3.775 9.525C3.95833 9.34167 4.19167 9.25 4.475 9.25C4.75833 9.25 4.99167 9.34167 5.175 9.525L7.075 11.425Z" fill="#F7F8F9"/>
</g>
</svg>
