<svg width="31" height="31" viewBox="0 0 31 31" fill="none" xmlns="http://www.w3.org/2000/svg">
<path fill-rule="evenodd" clip-rule="evenodd" d="M13.5009 4.78613C18.0005 4.78613 21.6482 8.43382 21.6482 12.9335C21.6482 14.8286 20.9991 16.5711 19.9138 17.9551C19.9906 17.9993 20.0648 18.051 20.1295 18.1178L26.3734 24.5723C26.7452 24.9567 26.736 25.5702 26.3519 25.9422C25.9674 26.3142 25.3541 26.3039 24.9821 25.9195L18.7369 19.465C18.683 19.4093 18.6398 19.3472 18.6019 19.2833C17.2055 20.4066 15.4325 21.0808 13.5009 21.0808C9.0012 21.0808 5.35352 17.4331 5.35352 12.9335C5.35352 8.43382 9.0012 4.78613 13.5009 4.78613ZM13.5009 6.72363C10.0713 6.72363 7.29102 9.50387 7.29102 12.9335C7.29102 16.3631 10.0713 19.1433 13.5009 19.1433C16.9305 19.1433 19.7107 16.3631 19.7107 12.9335C19.7107 9.50387 16.9305 6.72363 13.5009 6.72363Z" fill="#CCCCCC"/>
</svg>
