<svg width="33" height="32" viewBox="0 0 33 32" fill="none" xmlns="http://www.w3.org/2000/svg">
<path d="M24.2505 5.81152C25.763 5.96539 26.9428 7.24285 26.9429 8.7959V20.667C26.9428 21.4625 26.6264 22.2255 26.064 22.7881L23.2847 25.5684C22.7221 26.1308 21.9591 26.4472 21.1636 26.4473H10.4507C8.79404 26.4471 7.45077 25.1039 7.45068 23.4473V8.7959C7.45077 7.13923 8.79403 5.79607 10.4507 5.7959H23.9429L24.2505 5.81152Z" fill="#181F29"/>
<path d="M11.1769 11.1846C11.1769 10.6323 11.6246 10.1846 12.1769 10.1846H22.1222C22.6745 10.1846 23.1222 10.6323 23.1222 11.1846C23.1222 11.7369 22.6745 12.1846 22.1222 12.1846H12.1769C11.6246 12.1846 11.1769 11.7369 11.1769 11.1846Z" fill="white"/>
<path d="M11.1665 15.9997C11.1665 15.4474 11.6142 14.9997 12.1665 14.9997H22.1118C22.6641 14.9997 23.1118 15.4474 23.1118 15.9997C23.1118 16.552 22.6641 16.9997 22.1118 16.9997H12.1665C11.6142 16.9997 11.1665 16.552 11.1665 15.9997Z" fill="white"/>
</svg>
