<svg width="33" height="32" viewBox="0 0 33 32" fill="none" xmlns="http://www.w3.org/2000/svg">
<path d="M24.2505 5.81152C25.7628 5.96564 26.9429 7.24296 26.9429 8.7959V20.667C26.9427 21.4624 26.6264 22.2256 26.064 22.7881L23.2837 25.5674C22.7211 26.13 21.9582 26.4463 21.1626 26.4463H10.4507C8.79383 26.4463 7.45068 25.1031 7.45068 23.4463V8.7959C7.45068 7.13904 8.79383 5.7959 10.4507 5.7959H23.9429L24.2505 5.81152Z" fill="#B3B3B3"/>
<path d="M11.1769 11.1846C11.1769 10.6323 11.6246 10.1846 12.1769 10.1846H22.1222C22.6745 10.1846 23.1222 10.6323 23.1222 11.1846C23.1222 11.7369 22.6745 12.1846 22.1222 12.1846H12.1769C11.6246 12.1846 11.1769 11.7369 11.1769 11.1846Z" fill="white"/>
<path d="M11.1665 15.9997C11.1665 15.4474 11.6142 14.9997 12.1665 14.9997H22.1118C22.6641 14.9997 23.1118 15.4474 23.1118 15.9997C23.1118 16.552 22.6641 16.9997 22.1118 16.9997H12.1665C11.6142 16.9997 11.1665 16.552 11.1665 15.9997Z" fill="white"/>
</svg>
