<svg width="32" height="32" viewBox="0 0 32 32" fill="none" xmlns="http://www.w3.org/2000/svg">
<path d="M14.2253 4.87888C15.3672 4.21881 16.7751 4.22309 17.9128 4.8893L25.8451 9.53383C26.9687 10.192 27.6589 11.3978 27.6589 12.6992V24.2708C27.6588 26.1625 26.2253 27.7205 24.3841 27.9166L24.0104 27.9375L8.02995 28.0208C6.1248 28.0307 4.55269 26.5856 4.36328 24.7305L4.34375 24.3541V12.7083C4.34375 11.3991 5.04269 10.1891 6.17578 9.53383L14.2253 4.87888Z" fill="#181F29"/>
<path d="M18.035 17.9938C18.035 16.8705 17.1244 15.96 16.0011 15.96C14.8779 15.96 13.9673 16.8705 13.9673 17.9938V21.9587H18.035V17.9938ZM20.035 22.848L20.0298 22.9613C19.9767 23.4842 19.5605 23.9004 19.0376 23.9535L18.9243 23.9587H13.078C12.5028 23.9585 12.0293 23.5214 11.9725 22.9613L11.9673 22.848V17.9938C11.9673 15.766 13.7733 13.96 16.0011 13.96C18.229 13.96 20.035 15.766 20.035 17.9938V22.848Z" fill="white"/>
</svg>
