<svg width="32" height="32" viewBox="0 0 32 32" fill="none" xmlns="http://www.w3.org/2000/svg">
<path d="M14.2257 4.87888C15.3677 4.21881 16.7755 4.22309 17.9132 4.8893L25.8455 9.53383C26.9692 10.192 27.6593 11.3978 27.6593 12.6992V24.2708C27.6593 26.1625 26.2258 27.7205 24.3846 27.9166L24.0109 27.9375L8.03044 28.0208C6.12529 28.0307 4.55318 26.5856 4.36377 24.7304L4.34424 24.3541V12.7083C4.34424 11.3991 5.04318 10.1891 6.17627 9.53383L14.2257 4.87888Z" fill="#B3B3B3"/>
<path d="M18.035 17.9938C18.035 16.8705 17.1244 15.96 16.0011 15.96C14.8779 15.96 13.9673 16.8705 13.9673 17.9938V21.9587H18.035V17.9938ZM20.035 22.848L20.0298 22.9613C19.9767 23.4842 19.5605 23.9004 19.0376 23.9535L18.9243 23.9587H13.078C12.5028 23.9585 12.0293 23.5214 11.9725 22.9613L11.9673 22.848V17.9938C11.9673 15.766 13.7733 13.96 16.0011 13.96C18.229 13.96 20.035 15.766 20.035 17.9938V22.848Z" fill="white"/>
</svg>
