<svg width="16" height="16" viewBox="0 0 16 16" fill="none" xmlns="http://www.w3.org/2000/svg">
<g id="icon-check-thin">
<path id="check" d="M6.19184 9.85L11.8418 4.2C11.9752 4.06667 12.1307 4 12.3085 4C12.4863 4 12.6418 4.06667 12.7752 4.2C12.9085 4.33333 12.9752 4.49167 12.9752 4.675C12.9752 4.85833 12.9085 5.01667 12.7752 5.15L6.6585 11.2833C6.52517 11.4167 6.36962 11.4833 6.19184 11.4833C6.01406 11.4833 5.8585 11.4167 5.72517 11.2833L2.8585 8.41667C2.72517 8.28333 2.66128 8.125 2.66684 7.94167C2.67239 7.75833 2.74184 7.6 2.87517 7.46667C3.0085 7.33333 3.16684 7.26667 3.35017 7.26667C3.5335 7.26667 3.69184 7.33333 3.82517 7.46667L6.19184 9.85Z" fill="#999999"/>
</g>
</svg>
