<svg width="38" height="38" viewBox="0 0 38 38" fill="none" xmlns="http://www.w3.org/2000/svg">
<rect width="38" height="38" rx="19" fill="#181F29"/>
<path d="M14.0385 23.5379C12.7828 23.5379 11.7125 23.0954 10.8275 22.2104C9.9425 21.3256 9.5 20.2554 9.5 18.9999C9.5 17.7444 9.9425 16.6741 10.8275 15.7889C11.7125 14.9036 12.7828 14.4609 14.0385 14.4609H17.0578C17.2703 14.4609 17.4483 14.5329 17.592 14.6767C17.7358 14.8205 17.8077 14.9988 17.8077 15.2114C17.8077 15.4239 17.7358 15.602 17.592 15.7457C17.4483 15.8892 17.2703 15.9609 17.0578 15.9609H14.0373C13.1983 15.9609 12.4823 16.2574 11.8895 16.8504C11.2965 17.4434 11 18.1598 11 18.9994C11 19.8391 11.2965 20.5554 11.8895 21.1484C12.4823 21.7414 13.1983 22.0379 14.0373 22.0379H17.0578C17.2703 22.0379 17.4483 22.1099 17.592 22.2537C17.7358 22.3975 17.8077 22.5757 17.8077 22.7882C17.8077 23.0009 17.7358 23.1789 17.592 23.3224C17.4483 23.4661 17.2703 23.5379 17.0578 23.5379H14.0385ZM16 19.7494C15.7875 19.7494 15.6094 19.6775 15.4658 19.5337C15.3219 19.3899 15.25 19.2117 15.25 18.9992C15.25 18.7865 15.3219 18.6084 15.4658 18.4649C15.6094 18.3213 15.7875 18.2494 16 18.2494H22C22.2125 18.2494 22.3906 18.3214 22.5343 18.4652C22.6781 18.609 22.75 18.7872 22.75 18.9997C22.75 19.2124 22.6781 19.3904 22.5343 19.5339C22.3906 19.6776 22.2125 19.7494 22 19.7494H16ZM20.9423 23.5379C20.7298 23.5379 20.5517 23.466 20.408 23.3222C20.2642 23.1784 20.1923 23.0001 20.1923 22.7874C20.1923 22.5749 20.2642 22.3969 20.408 22.2532C20.5517 22.1097 20.7298 22.0379 20.9423 22.0379H23.9628C24.8018 22.0379 25.5177 21.7414 26.1105 21.1484C26.7035 20.5554 27 19.8391 27 18.9994C27 18.1598 26.7035 17.4434 26.1105 16.8504C25.5177 16.2574 24.8018 15.9609 23.9628 15.9609H20.9423C20.7298 15.9609 20.5517 15.889 20.408 15.7452C20.2642 15.6014 20.1923 15.4232 20.1923 15.2107C20.1923 14.998 20.2642 14.8199 20.408 14.6764C20.5517 14.5328 20.7298 14.4609 20.9423 14.4609H23.9615C25.2172 14.4609 26.2875 14.9034 27.1725 15.7884C28.0575 16.6733 28.5 17.7434 28.5 18.9989C28.5 20.2544 28.0575 21.3248 27.1725 22.2099C26.2875 23.0953 25.2172 23.5379 23.9615 23.5379H20.9423Z" fill="white"/>
</svg>
