<svg width="38" height="38" viewBox="0 0 38 38" fill="none" xmlns="http://www.w3.org/2000/svg">
<rect width="38" height="38" rx="19" fill="#181F29"/>
<mask id="mask0_14554_34660" style="mask-type:alpha" maskUnits="userSpaceOnUse" x="7" y="7" width="24" height="24">
<rect x="7" y="7" width="24" height="24" fill="#D9D9D9"/>
</mask>
<g mask="url(#mask0_14554_34660)">
<path d="M23.1225 28C22.4621 28 21.9013 27.7658 21.4403 27.2974C20.9794 26.829 20.749 26.2603 20.749 25.5911C20.749 25.5017 20.7795 25.2843 20.8405 24.9389L14.5657 21.1931C14.353 21.4167 14.1004 21.592 13.8077 21.7187C13.5151 21.8455 13.2015 21.9089 12.8671 21.9089C12.2096 21.9089 11.6507 21.6737 11.1904 21.2034C10.7301 20.733 10.5 20.1652 10.5 19.5C10.5 18.8348 10.7301 18.267 11.1904 17.7966C11.6507 17.3263 12.2096 17.0911 12.8671 17.0911C13.2015 17.0911 13.5151 17.1545 13.8077 17.2813C14.1004 17.408 14.353 17.5833 14.5657 17.8069L20.8405 14.0696C20.8055 13.9596 20.7815 13.8518 20.7684 13.7462C20.7554 13.6406 20.749 13.5282 20.749 13.4089C20.749 12.7397 20.9801 12.171 21.4423 11.7026C21.9046 11.2342 22.466 11 23.1265 11C23.7869 11 24.3476 11.2344 24.8085 11.7033C25.2695 12.172 25.5 12.7412 25.5 13.4109C25.5 14.0806 25.269 14.6492 24.8071 15.1167C24.3452 15.584 23.7843 15.8177 23.1245 15.8177C22.7885 15.8177 22.476 15.7529 22.187 15.6233C21.8979 15.4937 21.647 15.3171 21.4343 15.0934L15.1595 18.8392C15.1945 18.9494 15.2185 19.0573 15.2316 19.1627C15.2446 19.2683 15.251 19.3807 15.251 19.5C15.251 19.6193 15.2446 19.7317 15.2316 19.8373C15.2185 19.9427 15.1945 20.0506 15.1595 20.1608L21.4343 23.9066C21.647 23.6829 21.8979 23.5063 22.187 23.3767C22.476 23.2471 22.7885 23.1823 23.1245 23.1823C23.7843 23.1823 24.3452 23.4166 24.8071 23.8853C25.269 24.3542 25.5 24.9234 25.5 25.5932C25.5 26.2629 25.2688 26.8314 24.8065 27.2988C24.3443 27.7663 23.7829 28 23.1225 28ZM23.1245 26.6579C23.4226 26.6579 23.6724 26.5557 23.874 26.3512C24.0757 26.1468 24.1765 25.8934 24.1765 25.5911C24.1765 25.2889 24.0757 25.0355 23.874 24.8311C23.6724 24.6265 23.4226 24.5242 23.1245 24.5242C22.8264 24.5242 22.5765 24.6265 22.3749 24.8311C22.1732 25.0355 22.0723 25.2889 22.0723 25.5911C22.0723 25.8934 22.1732 26.1468 22.3749 26.3512C22.5765 26.5557 22.8264 26.6579 23.1245 26.6579ZM12.8671 20.5668C13.1676 20.5668 13.4194 20.4645 13.6226 20.2601C13.826 20.0556 13.9277 19.8023 13.9277 19.5C13.9277 19.1977 13.826 18.9444 13.6226 18.7399C13.4194 18.5355 13.1676 18.4332 12.8671 18.4332C12.5714 18.4332 12.3235 18.5355 12.1235 18.7399C11.9235 18.9444 11.8235 19.1977 11.8235 19.5C11.8235 19.8023 11.9235 20.0556 12.1235 20.2601C12.3235 20.4645 12.5714 20.5668 12.8671 20.5668ZM23.1245 14.4758C23.4226 14.4758 23.6724 14.3735 23.874 14.1689C24.0757 13.9645 24.1765 13.7111 24.1765 13.4089C24.1765 13.1066 24.0757 12.8532 23.874 12.6488C23.6724 12.4443 23.4226 12.3421 23.1245 12.3421C22.8264 12.3421 22.5765 12.4443 22.3749 12.6488C22.1732 12.8532 22.0723 13.1066 22.0723 13.4089C22.0723 13.7111 22.1732 13.9645 22.3749 14.1689C22.5765 14.3735 22.8264 14.4758 23.1245 14.4758Z" fill="white"/>
</g>
</svg>
