<svg width="89" height="111" viewBox="0 0 89 111" fill="none" xmlns="http://www.w3.org/2000/svg">
<rect width="89" height="111" fill="#F5F5F5"/>
<path d="M-258 -444C-258 -445.105 -257.105 -446 -256 -446H367C368.105 -446 369 -445.105 369 -444V633C369 634.105 368.105 635 367 635H-256C-257.105 635 -258 634.105 -258 633V-444Z" fill="#DEC3FF"/>
<path d="M-256 -446V-445H367V-446V-447H-256V-446ZM369 -444H368V633H369H370V-444H369ZM367 635V634H-256V635V636H367V635ZM-258 633H-257V-444H-258H-259V633H-258ZM-256 635V634C-256.552 634 -257 633.552 -257 633H-258H-259C-259 634.657 -257.657 636 -256 636V635ZM369 633H368C368 633.552 367.552 634 367 634V635V636C368.657 636 370 634.657 370 633H369ZM367 -446V-445C367.552 -445 368 -444.552 368 -444H369H370C370 -445.657 368.657 -447 367 -447V-446ZM-256 -446V-447C-257.657 -447 -259 -445.657 -259 -444H-258H-257C-257 -444.552 -256.552 -445 -256 -445V-446Z" fill="black" fill-opacity="0.1"/>
<g clip-path="url(#clip0_5703_14949)">
<rect width="375" height="812" transform="translate(-143 -299)" fill="white"/>
<rect x="0.5" y="0.923828" width="88" height="109.154" rx="6.76923" fill="#F5F5F5"/>
<rect x="14.0391" y="14.4629" width="54.1538" height="6.76923" rx="3.38462" fill="#D9D9D9"/>
<rect x="14.0391" y="28" width="34.6923" height="6.76923" rx="3.38462" fill="#D9D9D9"/>
<path d="M19.7407 87.6484L21.0296 91.6152H25.2005L21.8262 94.0668L23.1151 98.0335L19.7407 95.5819L16.3664 98.0335L17.6553 94.0668L14.281 91.6152H18.4519L19.7407 87.6484Z" fill="#CCCCCC"/>
<path d="M32.3696 87.6484L33.6585 91.6152H37.8294L34.4551 94.0668L35.744 98.0335L32.3696 95.5819L28.9953 98.0335L30.2842 94.0668L26.9099 91.6152H31.0808L32.3696 87.6484Z" fill="#CCCCCC"/>
<path d="M45.0005 87.6484L46.2894 91.6152H50.4603L47.086 94.0668L48.3748 98.0335L45.0005 95.5819L41.6262 98.0335L42.9151 94.0668L39.5407 91.6152H43.7116L45.0005 87.6484Z" fill="#CCCCCC"/>
<path d="M57.6294 87.6484L58.9183 91.6152H63.0892L59.7149 94.0668L61.0037 98.0335L57.6294 95.5819L54.2551 98.0335L55.544 94.0668L52.1696 91.6152H56.3405L57.6294 87.6484Z" fill="#CCCCCC"/>
<path d="M70.2583 87.6484L71.5472 91.6152H75.7181L72.3438 94.0668L73.6326 98.0335L70.2583 95.5819L66.884 98.0335L68.1729 94.0668L64.7986 91.6152H68.9694L70.2583 87.6484Z" fill="#CCCCCC"/>
</g>
<defs>
<clipPath id="clip0_5703_14949">
<rect width="375" height="812" fill="white" transform="translate(-143 -299)"/>
</clipPath>
</defs>
</svg>
