<svg width="29" height="34" viewBox="0 0 29 34" fill="none" xmlns="http://www.w3.org/2000/svg">
<path d="M9.03387 0.509227L10.7303 0L13.5311 9.33052L11.8346 9.83975L9.03387 0.509227Z" fill="#09BA12"/>
<path d="M10.5583 15.2847C11.0329 18.1807 9.07 20.9132 6.17396 21.3879C3.27791 21.8625 0.545427 19.8996 0.0707744 17.0035C-0.403878 14.1075 1.55905 11.375 4.45509 10.9004C7.35113 10.4257 10.0836 12.3886 10.5583 15.2847Z" fill="#7C68ED"/>
<path d="M18.1135 21.2265C18.5881 24.1225 16.6252 26.855 13.7292 27.3296C10.8331 27.8043 8.10064 25.8414 7.62599 22.9453C7.15134 20.0493 9.11426 17.3168 12.0103 16.8421C14.9063 16.3675 17.6388 18.3304 18.1135 21.2265Z" fill="#7C68ED"/>
<path d="M19.5465 11.7179C20.0212 14.614 18.0583 17.3465 15.1622 17.8211C12.2662 18.2958 9.53369 16.3328 9.05903 13.4368C8.58438 10.5408 10.5473 7.80827 13.4433 7.33362C16.3394 6.85896 19.0719 8.82189 19.5465 11.7179Z" fill="#7C68ED"/>
<path d="M27.44 17.9027C27.9146 20.7988 25.9517 23.5313 23.0556 24.0059C20.1596 24.4806 17.4271 22.5176 16.9525 19.6216C16.4778 16.7256 18.4407 13.9931 21.3368 13.5184C24.2328 13.0438 26.9653 15.0067 27.44 17.9027Z" fill="#7C68ED"/>
<path d="M28.6292 8.73326C29.1038 11.6293 27.1409 14.3618 24.2448 14.8364C21.3488 15.3111 18.6163 13.3482 18.1417 10.4521C17.667 7.55608 19.6299 4.8236 22.526 4.34894C25.422 3.87429 28.1545 5.83722 28.6292 8.73326Z" fill="#7C68ED"/>
<path d="M25.6679 27.1674C26.1425 30.0635 24.1796 32.7959 21.2836 33.2706C18.3875 33.7452 15.655 31.7823 15.1804 28.8863C14.7057 25.9902 16.6686 23.2577 19.5647 22.7831C22.4607 22.3084 25.1932 24.2714 25.6679 27.1674Z" fill="#7C68ED"/>
</svg>
