<svg width="24" height="25" viewBox="0 0 24 25" fill="none" xmlns="http://www.w3.org/2000/svg">
<g id="icon-add">
<path id="add" d="M11 13.1133H6C5.71667 13.1133 5.47917 13.0174 5.2875 12.8258C5.09583 12.6341 5 12.3966 5 12.1133C5 11.8299 5.09583 11.5924 5.2875 11.4008C5.47917 11.2091 5.71667 11.1133 6 11.1133H11V6.11328C11 5.82995 11.0958 5.59245 11.2875 5.40078C11.4792 5.20911 11.7167 5.11328 12 5.11328C12.2833 5.11328 12.5208 5.20911 12.7125 5.40078C12.9042 5.59245 13 5.82995 13 6.11328V11.1133H18C18.2833 11.1133 18.5208 11.2091 18.7125 11.4008C18.9042 11.5924 19 11.8299 19 12.1133C19 12.3966 18.9042 12.6341 18.7125 12.8258C18.5208 13.0174 18.2833 13.1133 18 13.1133H13V18.1133C13 18.3966 12.9042 18.6341 12.7125 18.8258C12.5208 19.0175 12.2833 19.1133 12 19.1133C11.7167 19.1133 11.4792 19.0175 11.2875 18.8258C11.0958 18.6341 11 18.3966 11 18.1133V13.1133Z" fill="#999999"/>
</g>
</svg>
