<svg width="40" height="40" viewBox="0 0 40 40" fill="none" xmlns="http://www.w3.org/2000/svg">
<path d="M24.1748 3.89746C26.2743 2.42949 29.1016 3.99114 29.1016 6.61914C29.1015 8.43148 27.686 9.90039 25.9404 9.90039H20.3457C20.2282 9.90039 20.1143 9.88475 20.0049 9.85742C19.8925 9.88639 19.7753 9.9043 19.6543 9.9043H14.0596C12.3139 9.9043 10.8984 8.43448 10.8984 6.62207C10.8986 3.99417 13.7258 2.43246 15.8252 3.90039L19.9971 6.81738L24.1748 3.89746Z" fill="#00E0A8"/>
<path d="M32.6496 36.6673H7.35661V19.182H4.12744V9.66211H35.8722V19.182H32.6496V36.6673Z" fill="url(#paint0_linear_13599_30155)"/>
<rect x="4.16016" y="9.6582" width="31.7122" height="9.5166" fill="#C1F6EB"/>
<path d="M17.7993 9.6582H22.2329V36.6634H17.7993V9.6582Z" fill="#00E0A8"/>
<defs>
<linearGradient id="paint0_linear_13599_30155" x1="19.9998" y1="9.66211" x2="19.9998" y2="36.6673" gradientUnits="userSpaceOnUse">
<stop stop-color="#71908A"/>
<stop offset="0.438656" stop-color="#C1F6EB"/>
</linearGradient>
</defs>
</svg>
