<svg width="135" height="109" viewBox="0 0 135 109" fill="none" xmlns="http://www.w3.org/2000/svg">
<ellipse cx="67.5" cy="42.2219" rx="61.5" ry="41.2981" fill="#F5F5F5"/>
<rect x="39.6099" y="29.7695" width="55.7801" height="6.76923" rx="3.38462" fill="#D9D9D9"/>
<rect x="39.6099" y="44.5391" width="43.9089" height="6.76923" rx="3.38462" fill="#D9D9D9"/>
<circle cx="100.897" cy="73.4004" r="15" fill="#41F8CA"/>
<path d="M100.897 81.7012C100.699 81.7012 100.497 81.6658 100.292 81.5951C100.086 81.5244 99.9058 81.4112 99.75 81.2556L98.2837 79.919C96.782 78.547 95.4256 77.1856 94.2143 75.8348C93.0031 74.4841 92.3975 72.9954 92.3975 71.3688C92.3975 70.0392 92.8437 68.9289 93.7362 68.0378C94.6287 67.1467 95.7408 66.7012 97.0725 66.7012C97.8233 66.7012 98.5316 66.8603 99.1975 67.1785C99.8633 67.4968 100.43 67.9317 100.897 68.4834C101.365 67.9317 101.932 67.4968 102.597 67.1785C103.263 66.8603 103.972 66.7012 104.722 66.7012C106.054 66.7012 107.166 67.1467 108.059 68.0378C108.951 68.9289 109.397 70.0392 109.397 71.3688C109.397 72.9954 108.795 74.4876 107.591 75.8454C106.387 77.2033 105.02 78.5682 103.49 79.9402L102.045 81.2556C101.889 81.4112 101.709 81.5244 101.503 81.5951C101.298 81.6658 101.096 81.7012 100.897 81.7012Z" fill="white"/>
<path d="M38.782 99.9123C36.001 101.114 33.3947 97.9054 35.1404 95.4296L46.0818 79.9122L82.437 81.0532L38.782 99.9123Z" fill="#F5F5F5"/>
</svg>
