<svg width="135" height="110" viewBox="0 0 135 110" fill="none" xmlns="http://www.w3.org/2000/svg">
<ellipse cx="67.5" cy="42.2981" rx="61.5" ry="41.2981" fill="#F5F5F5"/>
<rect x="39.6099" y="29.8462" width="55.7801" height="6.76923" rx="3.38462" fill="#D9D9D9"/>
<rect x="39.6099" y="44.6152" width="43.9089" height="6.76923" rx="3.38462" fill="#D9D9D9"/>
<circle cx="100.897" cy="73.4785" r="15" fill="#54E4C5"/>
<path d="M100.897 81.7783C100.699 81.7783 100.497 81.743 100.292 81.6722C100.086 81.6015 99.9058 81.4884 99.75 81.3328L98.2837 79.9961C96.782 78.6241 95.4256 77.2628 94.2143 75.912C93.0031 74.5612 92.3975 73.0725 92.3975 71.4459C92.3975 70.1164 92.8437 69.006 93.7362 68.115C94.6287 67.2239 95.7408 66.7783 97.0725 66.7783C97.8233 66.7783 98.5316 66.9374 99.1975 67.2557C99.8633 67.5739 100.43 68.0089 100.897 68.5605C101.365 68.0089 101.932 67.5739 102.597 67.2557C103.263 66.9374 103.972 66.7783 104.722 66.7783C106.054 66.7783 107.166 67.2239 108.059 68.115C108.951 69.006 109.397 70.1164 109.397 71.4459C109.397 73.0725 108.795 74.5647 107.591 75.9226C106.387 77.2804 105.02 78.6454 103.49 80.0174L102.045 81.3328C101.889 81.4884 101.709 81.6015 101.503 81.6722C101.298 81.743 101.096 81.7783 100.897 81.7783Z" fill="white"/>
<path d="M38.782 99.9905C36.001 101.192 33.3947 97.9835 35.1404 95.5077L46.0818 79.9903L82.437 81.1314L38.782 99.9905Z" fill="#F5F5F5"/>
</svg>
