<svg width="41" height="41" viewBox="0 0 41 41" fill="none" xmlns="http://www.w3.org/2000/svg">
<path d="M8.83366 31.9202C8.36144 31.9202 7.9656 31.7605 7.64616 31.4411C7.32671 31.1216 7.16699 30.7258 7.16699 30.2536C7.16699 29.7814 7.32671 29.3855 7.64616 29.0661C7.9656 28.7466 8.36144 28.5869 8.83366 28.5869H10.5003V16.9202C10.5003 14.6147 11.1948 12.5661 12.5837 10.7744C13.9725 8.98275 15.7781 7.80914 18.0003 7.25358V6.08691C18.0003 5.39247 18.2434 4.80219 18.7295 4.31608C19.2156 3.82997 19.8059 3.58691 20.5003 3.58691C21.1948 3.58691 21.785 3.82997 22.2712 4.31608C22.7573 4.80219 23.0003 5.39247 23.0003 6.08691V7.25358C25.2225 7.80914 27.0281 8.98275 28.417 10.7744C29.8059 12.5661 30.5003 14.6147 30.5003 16.9202V28.5869H32.167C32.6392 28.5869 33.0351 28.7466 33.3545 29.0661C33.6739 29.3855 33.8337 29.7814 33.8337 30.2536C33.8337 30.7258 33.6739 31.1216 33.3545 31.4411C33.0351 31.7605 32.6392 31.9202 32.167 31.9202H8.83366ZM20.5003 36.9202C19.5837 36.9202 18.7989 36.5939 18.1462 35.9411C17.4934 35.2883 17.167 34.5036 17.167 33.5869H23.8337C23.8337 34.5036 23.5073 35.2883 22.8545 35.9411C22.2017 36.5939 21.417 36.9202 20.5003 36.9202Z" fill="#CCCCCC"/>
</svg>
