<svg width="12" height="13" viewBox="0 0 12 13" fill="none" xmlns="http://www.w3.org/2000/svg">
<path d="M6.535 5.90424C6.83872 5.47987 7.00203 4.97109 7.00203 4.44924C7.00203 3.92738 6.83872 3.41861 6.535 2.99424C6.8194 2.8005 7.15589 2.69764 7.5 2.69924C7.96413 2.69924 8.40925 2.88361 8.73744 3.2118C9.06563 3.53999 9.25 3.98511 9.25 4.44924C9.25 4.91337 9.06563 5.35848 8.73744 5.68667C8.40925 6.01486 7.96413 6.19924 7.5 6.19924C7.15589 6.20084 6.8194 6.09797 6.535 5.90424ZM2.75 4.44924C2.75 4.10312 2.85264 3.76478 3.04493 3.47699C3.23722 3.1892 3.51053 2.9649 3.8303 2.83245C4.15007 2.69999 4.50194 2.66534 4.84141 2.73286C5.18087 2.80039 5.49269 2.96706 5.73744 3.2118C5.98218 3.45654 6.14885 3.76836 6.21637 4.10783C6.2839 4.4473 6.24924 4.79916 6.11679 5.11893C5.98434 5.4387 5.76003 5.71202 5.47225 5.90431C5.18446 6.0966 4.84612 6.19924 4.5 6.19924C4.03587 6.19924 3.59075 6.01486 3.26256 5.68667C2.93437 5.35848 2.75 4.91337 2.75 4.44924ZM3.75 4.44924C3.75 4.59757 3.79399 4.74258 3.8764 4.86591C3.95881 4.98925 4.07594 5.08538 4.21299 5.14215C4.35003 5.19891 4.50083 5.21376 4.64632 5.18483C4.7918 5.15589 4.92544 5.08446 5.03033 4.97957C5.13522 4.87468 5.20665 4.74104 5.23559 4.59555C5.26453 4.45007 5.24968 4.29927 5.19291 4.16222C5.13614 4.02518 5.04001 3.90805 4.91668 3.82563C4.79334 3.74322 4.64834 3.69924 4.5 3.69924C4.30109 3.69924 4.11032 3.77825 3.96967 3.91891C3.82902 4.05956 3.75 4.25032 3.75 4.44924ZM8 9.19924V10.1992H1V9.19924C1 9.19924 1 7.19924 4.5 7.19924C8 7.19924 8 9.19924 8 9.19924ZM7 9.19924C6.93 8.80924 6.335 8.19924 4.5 8.19924C2.665 8.19924 2.035 8.85424 2 9.19924M7.975 7.19924C8.28145 7.4376 8.53202 7.74016 8.70909 8.08567C8.88616 8.43118 8.98546 8.81127 9 9.19924V10.1992H11V9.19924C11 9.19924 11 7.38424 7.97 7.19924H7.975Z" fill="#CCCCCC"/>
</svg>
