<svg width="20" height="20" viewBox="0 0 20 20" fill="none" xmlns="http://www.w3.org/2000/svg">
<path d="M9.99977 17.7242C9.81131 17.7242 9.61949 17.6906 9.42429 17.6232C9.2291 17.5559 9.05747 17.4482 8.90939 17.3002L7.51612 16.0281C6.0892 14.7223 4.80026 13.4266 3.64929 12.141C2.49833 10.8555 1.92285 9.43863 1.92285 7.89055C1.92285 6.62517 2.34689 5.56843 3.19497 4.72036C4.04304 3.87228 5.09977 3.44824 6.36516 3.44824C7.07862 3.44824 7.7517 3.59968 8.38439 3.90257C9.01708 4.20545 9.55554 4.6194 9.99977 5.1444C10.444 4.6194 10.9825 4.20545 11.6152 3.90257C12.2479 3.59968 12.9209 3.44824 13.6344 3.44824C14.8998 3.44824 15.9565 3.87228 16.8046 4.72036C17.6527 5.56843 18.0767 6.62517 18.0767 7.89055C18.0767 9.43863 17.5046 10.8588 16.3604 12.1511C15.2161 13.4434 13.9171 14.7425 12.4632 16.0482L11.0902 17.3002C10.9421 17.4482 10.7704 17.5559 10.5753 17.6232C10.3801 17.6906 10.1882 17.7242 9.99977 17.7242Z" fill="#F1A2C5"/>
</svg>
