<svg width="11" height="11" viewBox="0 0 11 11" fill="none" xmlns="http://www.w3.org/2000/svg">
<path d="M5.49935 6.53255C6.51043 6.53255 7.33268 5.78505 7.33268 4.86589C7.33268 3.94672 6.51043 3.19922 5.49935 3.19922C4.48827 3.19922 3.66602 3.94672 3.66602 4.86589C3.66602 5.78505 4.48827 6.53255 5.49935 6.53255ZM5.49935 4.03255C6.00489 4.03255 6.41602 4.4063 6.41602 4.86589C6.41602 5.32547 6.00489 5.69922 5.49935 5.69922C4.99381 5.69922 4.58268 5.32547 4.58268 4.86589C4.58268 4.4063 4.99381 4.03255 5.49935 4.03255Z" fill="#CCCCCC"/>
<path d="M5.23486 9.78904C5.31243 9.8394 5.40537 9.86647 5.50069 9.86647C5.59601 9.86647 5.68895 9.8394 5.76652 9.78904C5.90586 9.69945 9.18065 7.54987 9.16736 4.86654C9.16736 3.02862 7.5224 1.5332 5.50069 1.5332C3.47898 1.5332 1.83402 3.02862 1.83402 4.86445C1.82073 7.54987 5.09552 9.69945 5.23486 9.78904ZM5.50069 2.36654C7.01732 2.36654 8.25069 3.48779 8.25069 4.86862C8.26032 6.71779 6.23952 8.3782 5.50069 8.92279C4.76232 8.37779 2.74107 6.71695 2.75069 4.86654C2.75069 3.48779 3.98407 2.36654 5.50069 2.36654Z" fill="#CCCCCC"/>
</svg>
