<svg width="22" height="23" viewBox="0 0 22 23" fill="none" xmlns="http://www.w3.org/2000/svg">
<path d="M4.76497 8.91578L5.71924 8.77743L6.14597 7.9129C6.15831 7.88785 6.17742 7.86676 6.20113 7.85201C6.22485 7.83726 6.25221 7.82944 6.28014 7.82944C6.30806 7.82944 6.33543 7.83726 6.35914 7.85201C6.38285 7.86676 6.40196 7.88785 6.4143 7.9129L6.84089 8.77743L7.79516 8.91593C7.82133 8.91972 7.84602 8.93038 7.86673 8.94682C7.88743 8.96326 7.90341 8.9849 7.91303 9.00952C7.92266 9.03415 7.92558 9.06089 7.92151 9.08701C7.91743 9.11314 7.9065 9.13771 7.88984 9.15824L7.87817 9.17095L7.18655 9.84403L7.34973 10.7946C7.35423 10.8207 7.35169 10.8476 7.34238 10.8724C7.33306 10.8973 7.3173 10.9192 7.29672 10.9359C7.27614 10.9527 7.25147 10.9637 7.22525 10.9677C7.19903 10.9718 7.1722 10.9688 7.14751 10.9591L7.13255 10.9522L6.28103 10.5035L5.42757 10.9522C5.40411 10.9646 5.3778 10.9704 5.35131 10.9693C5.32483 10.9681 5.29913 10.9599 5.27685 10.9456C5.25457 10.9312 5.23651 10.9112 5.22452 10.8875C5.21253 10.8639 5.20703 10.8375 5.2086 10.811L5.21054 10.7946L5.37358 9.84403L4.68225 9.1711C4.66326 9.15266 4.6495 9.12951 4.64238 9.10401C4.63526 9.07852 4.63504 9.05159 4.64173 9.02598C4.64842 9.00036 4.66179 8.97699 4.68047 8.95823C4.69915 8.93948 4.72248 8.92601 4.74806 8.91922L4.76497 8.91578Z" fill="#8CC3FE"/>
<path d="M10.2064 8.77743L9.25215 8.91578L9.23524 8.91922C9.20966 8.92601 9.18633 8.93948 9.16765 8.95823C9.14897 8.97699 9.1356 9.00036 9.12891 9.02598C9.12222 9.05159 9.12244 9.07852 9.12956 9.10401C9.13668 9.12951 9.15044 9.15266 9.16943 9.1711L9.86076 9.84403L9.69772 10.7946L9.69578 10.811C9.69421 10.8375 9.69971 10.8639 9.7117 10.8875C9.72369 10.9112 9.74175 10.9312 9.76403 10.9456C9.78631 10.9599 9.81201 10.9681 9.83849 10.9693C9.86498 10.9704 9.89129 10.9646 9.91475 10.9522L10.7682 10.5035L11.6197 10.9522L11.6347 10.9591C11.6594 10.9688 11.6862 10.9718 11.7124 10.9677C11.7387 10.9637 11.7633 10.9527 11.7839 10.9359C11.8045 10.9192 11.8202 10.8973 11.8296 10.8724C11.8389 10.8476 11.8414 10.8207 11.8369 10.7946L11.6737 9.84403L12.3654 9.17095L12.377 9.15824C12.3937 9.13771 12.4046 9.11314 12.4087 9.08701C12.4128 9.06089 12.4098 9.03415 12.4002 9.00952C12.3906 8.9849 12.3746 8.96326 12.3539 8.94682C12.3332 8.93038 12.3085 8.91972 12.2823 8.91593L11.3281 8.77743L10.9015 7.9129C10.8891 7.88785 10.87 7.86676 10.8463 7.85201C10.8226 7.83726 10.7952 7.82944 10.7673 7.82944C10.7394 7.82944 10.712 7.83726 10.6883 7.85201C10.6646 7.86676 10.6455 7.88785 10.6332 7.9129L10.2064 8.77743Z" fill="#8CC3FE"/>
<path d="M13.7393 8.91578L14.6936 8.77743L15.1203 7.9129C15.1327 7.88785 15.1518 7.86676 15.1755 7.85201C15.1992 7.83726 15.2266 7.82944 15.2545 7.82944C15.2824 7.82944 15.3098 7.83726 15.3335 7.85201C15.3572 7.86676 15.3763 7.88785 15.3887 7.9129L15.8152 8.77743L16.7695 8.91593C16.7957 8.91972 16.8204 8.93038 16.8411 8.94682C16.8618 8.96326 16.8778 8.9849 16.8874 9.00952C16.897 9.03415 16.8999 9.06089 16.8959 9.08701C16.8918 9.11314 16.8809 9.13771 16.8642 9.15824L16.8525 9.17095L16.1609 9.84403L16.3241 10.7946C16.3286 10.8207 16.3261 10.8476 16.3167 10.8724C16.3074 10.8973 16.2917 10.9192 16.2711 10.9359C16.2505 10.9527 16.2258 10.9637 16.1996 10.9677C16.1734 10.9718 16.1466 10.9688 16.1219 10.9591L16.1069 10.9522L15.2554 10.5035L14.4019 10.9522C14.3785 10.9646 14.3522 10.9704 14.3257 10.9693C14.2992 10.9681 14.2735 10.9599 14.2512 10.9456C14.2289 10.9312 14.2109 10.9112 14.1989 10.8875C14.1869 10.8639 14.1814 10.8375 14.183 10.811L14.1849 10.7946L14.3479 9.84403L13.6566 9.1711C13.6376 9.15266 13.6239 9.12951 13.6167 9.10401C13.6096 9.07852 13.6094 9.05159 13.6161 9.02598C13.6228 9.00036 13.6361 8.97699 13.6548 8.95823C13.6735 8.93948 13.6968 8.92601 13.7224 8.91922L13.7393 8.91578Z" fill="#8CC3FE"/>
<path fill-rule="evenodd" clip-rule="evenodd" d="M9.85566 14.9732H16.987C18.474 14.9732 19.6793 13.7678 19.6793 12.2809V7.17082C19.6793 5.6839 18.474 4.47852 16.987 4.47852H4.48625C2.99933 4.47852 1.79395 5.6839 1.79395 7.17082V12.2809C1.79395 13.4817 2.58 14.4988 3.6656 14.8459C3.92433 14.9286 4.20008 14.9732 4.48625 14.9732H5.02299L4.34231 17.6105C4.26176 17.9225 4.60142 18.1744 4.87666 18.0067L9.85566 14.9732ZM6.76071 13.6271H4.48625C3.74279 13.6271 3.1401 13.0244 3.1401 12.2809V7.17082C3.1401 6.42736 3.74279 5.82467 4.48625 5.82467H16.987C17.7305 5.82467 18.3332 6.42736 18.3332 7.17082V12.2809C18.3332 13.0244 17.7305 13.6271 16.987 13.6271H9.47788L6.2537 15.5914L6.76071 13.6271Z" fill="#8CC3FE"/>
</svg>
