<svg width="20" height="20" viewBox="0 0 20 20" fill="none" xmlns="http://www.w3.org/2000/svg">
<path fill-rule="evenodd" clip-rule="evenodd" d="M9.67746 3.26204C9.92097 2.79491 10.4041 2.50195 10.9308 2.50195H11.385C12.1656 2.50195 12.7985 3.13478 12.7985 3.91541V7.98699C12.7985 8.09851 12.8889 8.18891 13.0004 8.18891H15.471C16.2516 8.18891 16.8845 8.82174 16.8845 9.60237V12.6898C16.8845 12.995 16.7856 13.2921 16.6028 13.5365L14.1725 16.7849C13.9056 17.1416 13.4862 17.3516 13.0407 17.3516H7.59686C7.37723 17.3516 7.16931 17.3015 6.98389 17.2121C6.86119 17.2873 6.71686 17.3307 6.5624 17.3307H3.3614C2.91533 17.3307 2.55371 16.9691 2.55371 16.523V9.00845C2.55371 8.56238 2.91533 8.20076 3.3614 8.20076H6.48794L6.4916 8.19615L8.25298 5.98659C8.26106 5.97646 8.26815 5.96556 8.27414 5.95407L9.67746 3.26204ZM10.9308 3.71349C10.8556 3.71349 10.7866 3.75534 10.7518 3.82208L9.34847 6.5141C9.30652 6.59458 9.25691 6.67083 9.20034 6.7418L7.43896 8.95135C7.41046 8.98711 7.39494 9.03149 7.39494 9.07722V15.9381C7.39494 16.0496 7.48534 16.14 7.59686 16.14H13.0407C13.1044 16.14 13.1643 16.11 13.2024 16.0591L15.6327 12.8107C15.6588 12.7758 15.6729 12.7334 15.6729 12.6898V9.60237C15.6729 9.49085 15.5825 9.40045 15.471 9.40045H13.0004C12.2198 9.40045 11.5869 8.76762 11.5869 7.98699V3.91541C11.5869 3.8039 11.4965 3.71349 11.385 3.71349H10.9308Z" fill="#F48953"/>
</svg>
