<svg width="20" height="20" viewBox="0 0 20 20" fill="none" xmlns="http://www.w3.org/2000/svg">
<path d="M10.0482 18.6842C8.8954 18.6842 7.81207 18.4655 6.79818 18.028C5.78429 17.5905 4.90234 16.9967 4.15234 16.2467C3.40234 15.4967 2.80859 14.6148 2.37109 13.6009C1.93359 12.587 1.71484 11.5037 1.71484 10.3509C1.71484 9.19813 1.93359 8.1148 2.37109 7.10091C2.80859 6.08702 3.40234 5.20508 4.15234 4.45508C4.90234 3.70508 5.78429 3.11133 6.79818 2.67383C7.81207 2.23633 8.8954 2.01758 10.0482 2.01758C11.201 2.01758 12.2843 2.23633 13.2982 2.67383C14.3121 3.11133 15.194 3.70508 15.944 4.45508C16.694 5.20508 17.2878 6.08702 17.7253 7.10091C18.1628 8.1148 18.3815 9.19813 18.3815 10.3509C18.3815 11.5037 18.1628 12.587 17.7253 13.6009C17.2878 14.6148 16.694 15.4967 15.944 16.2467C15.194 16.9967 14.3121 17.5905 13.2982 18.028C12.2843 18.4655 11.201 18.6842 10.0482 18.6842ZM10.0482 17.0176C11.9093 17.0176 13.4857 16.3717 14.7773 15.0801C16.069 13.7884 16.7148 12.212 16.7148 10.3509C16.7148 8.4898 16.069 6.91341 14.7773 5.62174C13.4857 4.33008 11.9093 3.68424 10.0482 3.68424C8.18707 3.68424 6.61068 4.33008 5.31901 5.62174C4.02734 6.91341 3.38151 8.4898 3.38151 10.3509C3.38151 12.212 4.02734 13.7884 5.31901 15.0801C6.61068 16.3717 8.18707 17.0176 10.0482 17.0176Z" fill="#E6E6E6"/>
</svg>
