<svg width="24" height="25" viewBox="0 0 24 25" fill="none" xmlns="http://www.w3.org/2000/svg">
<path d="M20.2029 12.5057L14.5761 18.1324C14.3848 18.3238 14.2923 18.5471 14.2986 18.8023C14.305 19.0575 14.4039 19.2808 14.5953 19.4722C14.7867 19.6635 15.01 19.7592 15.2651 19.7592C15.5203 19.7592 15.7436 19.6635 15.935 19.4722L21.8297 13.5966C21.9828 13.4435 22.0977 13.2712 22.1742 13.0798C22.2508 12.8884 22.2891 12.697 22.2891 12.5057C22.2891 12.3143 22.2508 12.1229 22.1742 11.9315C22.0977 11.7401 21.9828 11.5679 21.8297 11.4147L15.935 5.52001C15.7436 5.32862 15.5171 5.23612 15.2556 5.2425C14.994 5.24888 14.7675 5.34776 14.5761 5.53915C14.3848 5.73053 14.2891 5.95382 14.2891 6.209C14.2891 6.46419 14.3848 6.68747 14.5761 6.87886L20.2029 12.5057Z" fill="white"/>
</svg>
