<svg width="24" height="25" viewBox="0 0 24 25" fill="none" xmlns="http://www.w3.org/2000/svg">
<g id="icon-check">
<rect y="0.5" width="24" height="24" rx="12" fill="#00C896"/>
<path id="check_small" d="M8.76667 15.7333L16.6333 7.86667C16.8778 7.62222 17.1889 7.5 17.5667 7.5C17.9444 7.5 18.2556 7.62222 18.5 7.86667C18.7444 8.11111 18.8667 8.42222 18.8667 8.8C18.8667 9.17778 18.7444 9.48889 18.5 9.73333L9.7 18.5333C9.43333 18.8 9.12222 18.9333 8.76667 18.9333C8.41111 18.9333 8.1 18.8 7.83333 18.5333L4.36667 15.0667C4.12222 14.8222 4 14.5111 4 14.1333C4 13.7556 4.12222 13.4444 4.36667 13.2C4.61111 12.9556 4.92222 12.8333 5.3 12.8333C5.67778 12.8333 5.98889 12.9556 6.23333 13.2L8.76667 15.7333Z" fill="#F7F8F9"/>
</g>
</svg>
