<svg width="24" height="24" viewBox="0 0 24 24" fill="none" xmlns="http://www.w3.org/2000/svg">
<rect width="24" height="24" rx="12" fill="#00E0A8"/>
<path d="M8.76667 15.2333L16.6333 7.36667C16.8778 7.12222 17.1889 7 17.5667 7C17.9444 7 18.2556 7.12222 18.5 7.36667C18.7444 7.61111 18.8667 7.92222 18.8667 8.3C18.8667 8.67778 18.7444 8.98889 18.5 9.23333L9.7 18.0333C9.43333 18.3 9.12222 18.4333 8.76667 18.4333C8.41111 18.4333 8.1 18.3 7.83333 18.0333L4.36667 14.5667C4.12222 14.3222 4 14.0111 4 13.6333C4 13.2556 4.12222 12.9444 4.36667 12.7C4.61111 12.4556 4.92222 12.3333 5.3 12.3333C5.67778 12.3333 5.98889 12.4556 6.23333 12.7L8.76667 15.2333Z" fill="#F7F8F9"/>
</svg>
