<svg width="24" height="25" viewBox="0 0 24 25" fill="currentColor" stroke="currentColor" xmlns="http://www.w3.org/2000/svg">
<g id="icon-thumbsup">
<path id="Union" fill-rule="evenodd" clip-rule="evenodd" d="M11.981 3.53286C12.2825 2.9545 12.8806 2.5918 13.5328 2.5918H14.0951C15.0616 2.5918 15.8451 3.3753 15.8451 4.3418V9.38279C15.8451 9.52086 15.9571 9.63279 16.0951 9.63279H19.154C20.1205 9.63279 20.904 10.4163 20.904 11.3828V15.2053C20.904 15.5832 20.7816 15.951 20.5552 16.2536L17.5463 20.2754C17.2159 20.717 16.6966 20.9771 16.1451 20.9771H9.40503C9.13311 20.9771 8.87568 20.915 8.64611 20.8044C8.4942 20.8975 8.3155 20.9512 8.12427 20.9512H4.16113C3.60885 20.9512 3.16113 20.5035 3.16113 19.9512V10.6475C3.16113 10.0952 3.60885 9.64746 4.16113 9.64746H8.03209L8.03662 9.64175L10.2174 6.90611C10.2274 6.89356 10.2361 6.88008 10.2436 6.86584L11.981 3.53286ZM13.5328 4.0918C13.4396 4.0918 13.3542 4.14361 13.3111 4.22623L11.5737 7.55922C11.5218 7.65886 11.4603 7.75326 11.3903 7.84113L9.20954 10.5768C9.17425 10.621 9.15503 10.676 9.15503 10.7326V19.2271C9.15503 19.3651 9.26696 19.4771 9.40503 19.4771H16.1451C16.2238 19.4771 16.298 19.4399 16.3452 19.3768L19.3541 15.3551C19.3865 15.3118 19.404 15.2593 19.404 15.2053V11.3828C19.404 11.2447 19.292 11.1328 19.154 11.1328H16.0951C15.1286 11.1328 14.3451 10.3493 14.3451 9.38279V4.3418C14.3451 4.20373 14.2332 4.0918 14.0951 4.0918H13.5328Z" fill="currentColor"/>
</g>
</svg>
