<svg width="41" height="40" viewBox="0 0 41 40" fill="none" xmlns="http://www.w3.org/2000/svg">
<path fill-rule="evenodd" clip-rule="evenodd" d="M37.1666 12.5563L37.1662 17.8189C36.9156 17.8189 36.6675 17.8682 36.4361 17.9641C36.2046 18.06 35.9943 18.2005 35.8171 18.3777C35.64 18.5548 35.4994 18.7652 35.4036 18.9966C35.3077 19.2281 35.2583 19.4762 35.2583 19.7267C35.2583 19.9773 35.3077 20.2254 35.4036 20.4568C35.4994 20.6883 35.64 20.8986 35.8171 21.0758C35.9943 21.2529 36.2046 21.3935 36.4361 21.4893C36.6675 21.5852 36.9156 21.6346 37.1662 21.6346L37.1666 26.8971C37.1666 27.8176 36.4204 28.5638 35.4999 28.5638H5.42952C4.50905 28.5638 3.76286 27.8176 3.76286 26.8971L3.76123 21.6346C4.01177 21.6346 4.25986 21.5852 4.49133 21.4893C4.7228 21.3935 4.93312 21.2529 5.11028 21.0758C5.28744 20.8986 5.42797 20.6883 5.52385 20.4568C5.61972 20.2254 5.66907 19.9773 5.66907 19.7267C5.66907 19.4762 5.61972 19.2281 5.52385 18.9966C5.42797 18.7652 5.28744 18.5548 5.11028 18.3777C4.93312 18.2005 4.7228 18.06 4.49133 17.9641C4.25986 17.8682 4.01177 17.8189 3.76123 17.8189V13.3335L3.76286 12.5563C3.76286 11.6358 4.50905 10.8896 5.42952 10.8896H35.4999C36.4204 10.8896 37.1666 11.6358 37.1666 12.5563ZM6.26123 13.3896V16.1067C6.47928 16.2572 6.68381 16.4276 6.87209 16.6159C7.28061 17.0244 7.60467 17.5094 7.82576 18.0431C8.04685 18.5769 8.16064 19.149 8.16064 19.7267C8.16064 20.3045 8.04685 20.8765 7.82576 21.4103C7.60467 21.9441 7.28061 22.4291 6.87209 22.8376C6.68381 23.0259 6.47928 23.1962 6.26123 23.3468V26.0638H13.8333V13.3896H6.26123ZM34.6662 26.0638V23.3468C34.4481 23.1962 34.2436 23.0259 34.0553 22.8376C33.6468 22.4291 33.3227 21.9441 33.1017 21.4103C32.8806 20.8765 32.7668 20.3045 32.7668 19.7267C32.7668 19.149 32.8806 18.5769 33.1017 18.0431C33.3227 17.5094 33.6468 17.0244 34.0553 16.6159C34.2436 16.4276 34.4481 16.2572 34.6662 16.1067V13.3896H16.3333V26.0638H34.6662Z" fill="#CCCCCC"/>
</svg>
