<svg width="428" height="87" viewBox="0 0 428 87" fill="none" xmlns="http://www.w3.org/2000/svg">
<g clip-path="url(#clip0_9694_13090)">
<rect width="428" height="87" fill="white"/>
<rect x="5.73438" y="52.7129" width="5.09766" height="10.6523" fill="#E6E6E6"/>
<path d="M8.2832 23.3818C12.8579 23.3818 16.5664 26.6721 16.5664 30.7305C16.5663 32.4589 15.8915 34.046 14.7656 35.3008C15.8919 36.5558 16.5664 38.1442 16.5664 39.873C16.5663 41.4635 15.9945 42.9341 15.0264 44.1367C15.9943 45.3393 16.5664 46.81 16.5664 48.4004C16.5662 52.4585 12.8577 55.748 8.2832 55.748C3.70866 55.748 0.000238778 52.4585 0 48.4004C0 46.8102 0.57133 45.3392 1.53906 44.1367C0.571176 42.9342 9.35671e-05 41.4633 0 39.873C0 38.1444 0.673804 36.5557 1.7998 35.3008C0.674239 34.046 0.000101684 32.4586 0 30.7305C0 26.6721 3.70852 23.3818 8.2832 23.3818Z" fill="#F5F5F5"/>
<rect x="78.6289" y="52.7129" width="5.09766" height="10.6523" fill="#E6E6E6"/>
<path d="M81.1777 23.3818C85.7524 23.3818 89.4609 26.6721 89.4609 30.7305C89.4608 32.4589 88.786 34.046 87.6602 35.3008C88.7864 36.5558 89.4609 38.1442 89.4609 39.873C89.4608 41.4635 88.889 42.9341 87.9209 44.1367C88.8889 45.3393 89.4609 46.81 89.4609 48.4004C89.4607 52.4585 85.7523 55.748 81.1777 55.748C76.6032 55.748 72.8948 52.4585 72.8945 48.4004C72.8945 46.8102 73.4659 45.3392 74.4336 44.1367C73.4657 42.9342 72.8946 41.4633 72.8945 39.873C72.8945 38.1444 73.5683 36.5557 74.6943 35.3008C73.5688 34.046 72.8946 32.4586 72.8945 30.7305C72.8945 26.6721 76.603 23.3818 81.1777 23.3818Z" fill="#F5F5F5"/>
<rect x="109.559" y="52.7129" width="5.09766" height="10.6523" fill="#E6E6E6"/>
<path d="M111.476 23.8259C111.677 23.2338 112.475 23.2338 112.677 23.8259L123.22 54.8553C123.368 55.2905 123.06 55.748 122.62 55.748H101.533C101.092 55.748 100.784 55.2905 100.932 54.8553L111.476 23.8259Z" fill="#F5F5F5"/>
<path d="M188.451 53.1448C188.516 52.9517 188.777 52.9517 188.842 53.1448L192.281 63.2639C192.329 63.4058 192.229 63.5551 192.085 63.5551H185.208C185.064 63.5551 184.964 63.4058 185.012 63.2639L188.451 53.1448Z" fill="#F5F5F5"/>
<path d="M193.056 53.1448C193.122 52.9517 193.382 52.9517 193.448 53.1448L196.886 63.2639C196.934 63.4058 196.834 63.5551 196.69 63.5551H189.814C189.67 63.5551 189.569 63.4058 189.618 63.2639L193.056 53.1448Z" fill="#F5F5F5"/>
<path d="M198.525 53.1448C198.59 52.9517 198.851 52.9517 198.917 53.1448L202.355 63.2639C202.403 63.4058 202.303 63.5551 202.159 63.5551H195.282C195.139 63.5551 195.038 63.4058 195.086 63.2639L198.525 53.1448Z" fill="#F5F5F5"/>
<path d="M39.4975 52.9554C39.5631 52.7623 39.8236 52.7623 39.8892 52.9554L43.3276 63.0745C43.3758 63.2164 43.2755 63.3656 43.1318 63.3656H36.2549C36.1112 63.3656 36.0109 63.2164 36.0591 63.0745L39.4975 52.9554Z" fill="#F5F5F5"/>
<path d="M44.103 52.9554C44.1686 52.7623 44.429 52.7623 44.4947 52.9554L47.9331 63.0745C47.9813 63.2164 47.8809 63.3656 47.7373 63.3656H40.8604C40.7167 63.3656 40.6163 63.2164 40.6646 63.0745L44.103 52.9554Z" fill="#F5F5F5"/>
<path d="M49.5718 52.9554C49.6374 52.7623 49.8978 52.7623 49.9634 52.9554L53.4018 63.0745C53.4501 63.2164 53.3497 63.3656 53.206 63.3656H46.3292C46.1855 63.3656 46.0851 63.2164 46.1333 63.0745L49.5718 52.9554Z" fill="#F5F5F5"/>
<rect x="162.832" y="44.123" width="2.78516" height="19.2422" fill="#696969"/>
<rect x="157.059" y="16" width="14.3359" height="36.6963" rx="2" fill="#808080"/>
<rect x="160.988" y="61.7734" width="6.46875" height="1.5918" rx="0.795898" fill="#999999"/>
<rect x="155.895" y="39.4736" width="16.6562" height="1.55897" rx="0.779484" fill="#696969"/>
<rect x="155.895" y="27.6621" width="16.6562" height="1.55897" rx="0.779484" fill="#696969"/>
<circle cx="164.391" cy="34.3475" r="3.40614" fill="#D9D9D9"/>
<circle cx="164.066" cy="22.536" r="3.40614" fill="#D9D9D9"/>
<circle cx="164.391" cy="46.1591" r="3.40614" fill="#D9D9D9"/>
<rect y="62.5693" width="427.68" height="24" fill="#F5F5F5"/>
<rect x="-5" y="73" width="18" height="3" rx="1.5" fill="#E6E6E6"/>
<rect x="21.668" y="73" width="18" height="3" rx="1.5" fill="#E6E6E6"/>
<rect x="48.332" y="73" width="18" height="3" rx="1.5" fill="#E6E6E6"/>
<rect x="75" y="73" width="18" height="3" rx="1.5" fill="#E6E6E6"/>
<rect x="101.668" y="73" width="18" height="3" rx="1.5" fill="#E6E6E6"/>
<rect x="128.332" y="73" width="18" height="3" rx="1.5" fill="#E6E6E6"/>
<rect x="155" y="73" width="18" height="3" rx="1.5" fill="#E6E6E6"/>
<rect x="181.668" y="73" width="18" height="3" rx="1.5" fill="#E6E6E6"/>
<rect x="208.332" y="73" width="18" height="3" rx="1.5" fill="#E6E6E6"/>
<rect x="235" y="73" width="18" height="3" rx="1.5" fill="#E6E6E6"/>
<rect x="261.668" y="73" width="18" height="3" rx="1.5" fill="#E6E6E6"/>
<rect x="288.332" y="73" width="18" height="3" rx="1.5" fill="#E6E6E6"/>
<rect x="315" y="73" width="18" height="3" rx="1.5" fill="#E6E6E6"/>
<rect x="341.668" y="73" width="18" height="3" rx="1.5" fill="#E6E6E6"/>
<rect x="368.332" y="73" width="18" height="3" rx="1.5" fill="#E6E6E6"/>
<rect x="395" y="73" width="18" height="3" rx="1.5" fill="#E6E6E6"/>
<rect x="218.734" y="52.7129" width="5.09766" height="10.6523" fill="#E6E6E6"/>
<path d="M221.283 23.3818C225.858 23.3818 229.566 26.6721 229.566 30.7305C229.566 32.4589 228.891 34.046 227.766 35.3008C228.892 36.5558 229.566 38.1442 229.566 39.873C229.566 41.4635 228.994 42.9341 228.026 44.1367C228.994 45.3393 229.566 46.81 229.566 48.4004C229.566 52.4585 225.858 55.748 221.283 55.748C216.709 55.748 213 52.4585 213 48.4004C213 46.8102 213.571 45.3392 214.539 44.1367C213.571 42.9342 213 41.4633 213 39.873C213 38.1444 213.674 36.5557 214.8 35.3008C213.674 34.046 213 32.4586 213 30.7305C213 26.6721 216.709 23.3818 221.283 23.3818Z" fill="#F5F5F5"/>
<rect x="291.629" y="52.7129" width="5.09766" height="10.6523" fill="#E6E6E6"/>
<path d="M294.178 23.3818C298.752 23.3818 302.461 26.6721 302.461 30.7305C302.461 32.4589 301.786 34.046 300.66 35.3008C301.786 36.5558 302.461 38.1442 302.461 39.873C302.461 41.4635 301.889 42.9341 300.921 44.1367C301.889 45.3393 302.461 46.81 302.461 48.4004C302.461 52.4585 298.752 55.748 294.178 55.748C289.603 55.748 285.895 52.4585 285.895 48.4004C285.895 46.8102 286.466 45.3392 287.434 44.1367C286.466 42.9342 285.895 41.4633 285.895 39.873C285.895 38.1444 286.568 36.5557 287.694 35.3008C286.569 34.046 285.895 32.4586 285.895 30.7305C285.895 26.6721 289.603 23.3818 294.178 23.3818Z" fill="#F5F5F5"/>
<rect x="322.559" y="52.7129" width="5.09766" height="10.6523" fill="#E6E6E6"/>
<path d="M324.476 23.8259C324.677 23.2338 325.475 23.2338 325.677 23.8259L336.22 54.8553C336.368 55.2905 336.06 55.748 335.62 55.748H314.533C314.092 55.748 313.784 55.2905 313.932 54.8553L324.476 23.8259Z" fill="#F5F5F5"/>
<path d="M401.451 53.1448C401.516 52.9517 401.777 52.9517 401.842 53.1448L405.281 63.2639C405.329 63.4058 405.229 63.5551 405.085 63.5551H398.208C398.064 63.5551 397.964 63.4058 398.012 63.2639L401.451 53.1448Z" fill="#F5F5F5"/>
<path d="M406.056 53.1448C406.122 52.9517 406.382 52.9517 406.448 53.1448L409.886 63.2639C409.934 63.4058 409.834 63.5551 409.69 63.5551H402.814C402.67 63.5551 402.569 63.4058 402.618 63.2639L406.056 53.1448Z" fill="#F5F5F5"/>
<path d="M411.525 53.1448C411.59 52.9517 411.851 52.9517 411.917 53.1448L415.355 63.2639C415.403 63.4058 415.303 63.5551 415.159 63.5551H408.282C408.139 63.5551 408.038 63.4058 408.086 63.2639L411.525 53.1448Z" fill="#F5F5F5"/>
<path d="M252.498 52.9554C252.563 52.7623 252.824 52.7623 252.889 52.9554L256.328 63.0745C256.376 63.2164 256.275 63.3656 256.132 63.3656H249.255C249.111 63.3656 249.011 63.2164 249.059 63.0745L252.498 52.9554Z" fill="#F5F5F5"/>
<path d="M257.103 52.9554C257.169 52.7623 257.429 52.7623 257.495 52.9554L260.933 63.0745C260.981 63.2164 260.881 63.3656 260.737 63.3656H253.86C253.717 63.3656 253.616 63.2164 253.665 63.0745L257.103 52.9554Z" fill="#F5F5F5"/>
<path d="M262.572 52.9554C262.637 52.7623 262.898 52.7623 262.963 52.9554L266.402 63.0745C266.45 63.2164 266.35 63.3656 266.206 63.3656H259.329C259.185 63.3656 259.085 63.2164 259.133 63.0745L262.572 52.9554Z" fill="#F5F5F5"/>
<rect x="375.832" y="44.123" width="2.78516" height="19.2422" fill="#696969"/>
<rect x="370.059" y="16" width="14.3359" height="36.6963" rx="2" fill="#808080"/>
<rect x="373.988" y="61.7734" width="6.46875" height="1.5918" rx="0.795898" fill="#999999"/>
<rect x="368.895" y="39.4736" width="16.6562" height="1.55897" rx="0.779484" fill="#696969"/>
<rect x="368.895" y="27.6621" width="16.6562" height="1.55897" rx="0.779484" fill="#696969"/>
<circle cx="377.391" cy="34.3475" r="3.40614" fill="#D9D9D9"/>
<circle cx="377.066" cy="22.536" r="3.40614" fill="#D9D9D9"/>
<circle cx="377.391" cy="46.1591" r="3.40614" fill="#D9D9D9"/>
</g>
<defs>
<clipPath id="clip0_9694_13090">
<rect width="428" height="87" fill="white"/>
</clipPath>
</defs>
</svg>
