<svg width="32" height="32" viewBox="0 0 32 32" fill="none" xmlns="http://www.w3.org/2000/svg">
<path d="M10.3237 25.5664V27.5664H9.18213V25.5664H10.3237ZM11.3237 24.5664V20.3711H8.18213V24.5664C8.18226 25.1186 8.62992 25.5664 9.18213 25.5664V27.5664L9.02783 27.5625C7.49387 27.4848 6.26387 26.2546 6.18604 24.7207L6.18213 24.5664V18.3711H13.3237V24.5664L13.3198 24.7207C13.242 26.2547 12.0121 27.4849 10.478 27.5625L10.3237 27.5664V25.5664C10.8759 25.5664 11.3236 25.1186 11.3237 24.5664Z" fill="#181F29"/>
<path d="M15.1538 19.0127C15.1536 19.7488 14.5569 20.3455 13.8208 20.3457H7.35205V18.3457H13.1538V12.0908H7.35205C6.79977 12.0908 6.35205 12.5385 6.35205 13.0908V17.3457C6.35209 17.898 6.79986 18.3457 7.35205 18.3457V20.3457C5.69522 20.3457 4.35209 19.0025 4.35205 17.3457V13.0908C4.35205 11.434 5.6952 10.0908 7.35205 10.0908H13.8208C14.5569 10.091 15.1537 10.6877 15.1538 11.4238V19.0127Z" fill="#181F29"/>
<path d="M24.566 22.763C25.1666 23.0219 25.8172 22.5386 25.8174 21.8333V7.43782C25.8174 6.69981 25.1104 6.21554 24.5026 6.53743L13.8777 12.1644L13.0786 10.3646L23.7044 4.73763C25.5279 3.77202 27.6479 5.22382 27.6479 7.43782V21.8333C27.6477 23.9493 25.6965 25.3997 23.8948 24.6234L13.6328 20.2005L14.3049 18.3402L24.566 22.763Z" fill="#181F29"/>
</svg>
