<svg width="32" height="32" viewBox="0 0 32 32" fill="none" xmlns="http://www.w3.org/2000/svg">
<path d="M21.334 4.66602C22.8067 4.66602 24.001 5.86025 24.001 7.33301V16.874L22.001 17.8994V7.33301C22.001 6.96482 21.7022 6.66602 21.334 6.66602H10.668C10.2998 6.66602 10.001 6.96482 10.001 7.33301V17.9004L8.00098 16.876V7.33301C8.00098 5.86025 9.19521 4.66602 10.668 4.66602H21.334Z" fill="#181F29"/>
<path d="M11.2793 9.77539C11.2793 9.22311 11.727 8.77539 12.2793 8.77539H19.722C20.2743 8.77539 20.722 9.22311 20.722 9.77539C20.722 10.3277 20.2743 10.7754 19.722 10.7754H12.2793C11.727 10.7754 11.2793 10.3277 11.2793 9.77539Z" fill="#181F29"/>
<path d="M11.2793 13.7103C11.2793 13.158 11.727 12.7103 12.2793 12.7103H19.722C20.2743 12.7103 20.722 13.158 20.722 13.7103C20.722 14.2626 20.2743 14.7103 19.722 14.7103H12.2793C11.727 14.7103 11.2793 14.2626 11.2793 13.7103Z" fill="#181F29"/>
<mask id="path-3-inside-1_13647_9018" fill="white">
<path d="M27.0566 15.3086C27.1472 15.4885 27.2002 15.6911 27.2002 15.9062V26.5723C27.2002 27.3085 26.6034 27.9061 25.8672 27.9062H6.13379C5.39741 27.9062 4.80078 27.3086 4.80078 26.5723V15.9062C4.80078 15.6913 4.85207 15.4884 4.94238 15.3086L15.3926 20.6641C15.7744 20.8597 16.2266 20.8598 16.6084 20.6641L27.0566 15.3086Z"/>
</mask>
<path d="M27.0566 15.3086L28.8433 14.4098L27.9377 12.6096L26.1444 13.5288L27.0566 15.3086ZM25.8672 27.9062V29.9062H25.8677L25.8672 27.9062ZM6.13379 27.9062L6.13379 29.9062H6.13379V27.9062ZM4.94238 15.3086L5.85453 13.5287L4.06025 12.6092L3.15521 14.4108L4.94238 15.3086ZM15.3926 20.6641L14.4804 22.4439L14.4806 22.444L15.3926 20.6641ZM16.6084 20.6641L17.5207 22.4439L17.5207 22.4439L16.6084 20.6641ZM27.0566 15.3086L25.27 16.2074C25.2301 16.128 25.2002 16.0244 25.2002 15.9062H27.2002H29.2002C29.2002 15.3578 29.0643 14.849 28.8433 14.4098L27.0566 15.3086ZM27.2002 15.9062H25.2002V26.5723H27.2002H29.2002V15.9062H27.2002ZM27.2002 26.5723H25.2002C25.2002 26.2054 25.4973 25.9063 25.8667 25.9062L25.8672 27.9062L25.8677 29.9062C27.7095 29.9058 29.2002 28.4117 29.2002 26.5723H27.2002ZM25.8672 27.9062V25.9062H6.13379V27.9062V29.9062H25.8672V27.9062ZM6.13379 27.9062L6.13379 25.9062C6.50388 25.9063 6.80078 26.206 6.80078 26.5723H4.80078H2.80078C2.80078 28.4113 4.29094 29.9062 6.13379 29.9062L6.13379 27.9062ZM4.80078 26.5723H6.80078V15.9062H4.80078H2.80078V26.5723H4.80078ZM4.80078 15.9062H6.80078C6.80078 16.013 6.77465 16.1166 6.72956 16.2064L4.94238 15.3086L3.15521 14.4108C2.92948 14.8602 2.80078 15.3696 2.80078 15.9062H4.80078ZM4.94238 15.3086L4.03024 17.0885L14.4804 22.4439L15.3926 20.6641L16.3047 18.8842L5.85453 13.5287L4.94238 15.3086ZM15.3926 20.6641L14.4806 22.444C15.4348 22.9329 16.5659 22.9332 17.5207 22.4439L16.6084 20.6641L15.6961 18.8842C15.8873 18.7863 16.114 18.7864 16.3046 18.8841L15.3926 20.6641ZM16.6084 20.6641L17.5207 22.4439L27.9689 17.0884L27.0566 15.3086L26.1444 13.5288L15.6961 18.8842L16.6084 20.6641Z" fill="#181F29" mask="url(#path-3-inside-1_13647_9018)"/>
</svg>
