<svg width="24" height="24" viewBox="0 0 24 24" fill="none" xmlns="http://www.w3.org/2000/svg">
<path d="M3.79609 12.0057L9.42288 17.6324C9.61427 17.8238 9.70677 18.0471 9.70039 18.3023C9.69401 18.5575 9.59513 18.7808 9.40374 18.9722C9.21235 19.1635 8.98907 19.2592 8.73388 19.2592C8.4787 19.2592 8.25542 19.1635 8.06403 18.9722L2.16929 13.0966C2.01618 12.9435 1.90135 12.7712 1.82479 12.5798C1.74824 12.3884 1.70996 12.197 1.70996 12.0057C1.70996 11.8143 1.74824 11.6229 1.82479 11.4315C1.90135 11.2401 2.01618 11.0679 2.16929 10.9147L8.06403 5.02001C8.25542 4.82862 8.48189 4.73612 8.74345 4.7425C9.00502 4.74888 9.23149 4.84776 9.42288 5.03915C9.61427 5.23053 9.70996 5.45382 9.70996 5.709C9.70996 5.96419 9.61427 6.18747 9.42288 6.37886L3.79609 12.0057Z" fill="#1C1B1F"/>
</svg>
