<svg width="32" height="32" viewBox="0 0 32 32" fill="none" xmlns="http://www.w3.org/2000/svg">
<path d="M25.6589 24.2708V12.6992C25.6589 12.1072 25.3447 11.5593 24.8346 11.2604L16.9023 6.61586C16.3847 6.31272 15.744 6.31069 15.2253 6.61065L7.17578 11.2656C6.66087 11.5636 6.34375 12.1137 6.34375 12.7083V24.3541C6.344 25.2777 7.09581 26.0256 8.01953 26.0208L24 25.9375L24.1693 25.9284C25.0069 25.8395 25.6588 25.1304 25.6589 24.2708ZM27.6589 24.2708C27.6588 26.1625 26.2253 27.7205 24.3841 27.9166L24.0104 27.9375L8.02995 28.0208C6.12479 28.0307 4.55267 26.5856 4.36328 24.7304L4.34375 24.3541V12.7083C4.34375 11.3991 5.04268 10.1891 6.17578 9.53383L14.2253 4.87888C15.3672 4.21881 16.7751 4.22309 17.9128 4.8893L25.8451 9.53383C26.9687 10.192 27.6589 11.3978 27.6589 12.6992V24.2708Z" fill="#181F29"/>
<path d="M18.0365 17.9938C18.0365 16.8705 17.1259 15.96 16.0026 15.96C14.8793 15.96 13.9688 16.8705 13.9687 17.9938V21.9587H18.0365V17.9938ZM20.0365 22.848L20.0312 22.9613C19.9782 23.4842 19.562 23.9004 19.0391 23.9535L18.9258 23.9587H13.0794C12.5043 23.9585 12.0308 23.5214 11.974 22.9613L11.9688 22.848V17.9938C11.9688 15.766 13.7748 13.96 16.0026 13.96C18.2304 13.96 20.0365 15.766 20.0365 17.9938V22.848Z" fill="#181F29"/>
</svg>
