<svg width="19" height="20" viewBox="0 0 19 20" fill="none" xmlns="http://www.w3.org/2000/svg">
<g id="icon-add">
<path id="add" d="M9.20899 11.2915H5.25065C5.02635 11.2915 4.83832 11.2156 4.68659 11.0639C4.53485 10.9122 4.45898 10.7241 4.45898 10.4998C4.45898 10.2755 4.53485 10.0875 4.68659 9.93577C4.83832 9.78403 5.02635 9.70816 5.25065 9.70816H9.20899V5.74983C9.20899 5.52552 9.28485 5.3375 9.43659 5.18576C9.58833 5.03403 9.77635 4.95816 10.0007 4.95816C10.225 4.95816 10.413 5.03403 10.5647 5.18576C10.7165 5.3375 10.7923 5.52552 10.7923 5.74983V9.70816H14.7507C14.975 9.70816 15.163 9.78403 15.3147 9.93577C15.4665 10.0875 15.5423 10.2755 15.5423 10.4998C15.5423 10.7241 15.4665 10.9122 15.3147 11.0639C15.163 11.2156 14.975 11.2915 14.7507 11.2915H10.7923V15.2498C10.7923 15.4741 10.7165 15.6622 10.5647 15.8139C10.413 15.9656 10.225 16.0415 10.0007 16.0415C9.77635 16.0415 9.58833 15.9656 9.43659 15.8139C9.28485 15.6622 9.20899 15.4741 9.20899 15.2498V11.2915Z" fill="#181F29"/>
</g>
</svg>
