<svg width="25" height="25" viewBox="0 0 25 25" fill="none" xmlns="http://www.w3.org/2000/svg">
<path d="M12.4978 15.0297C12.3773 15.0297 12.2651 15.0104 12.1613 14.9719C12.0575 14.9334 11.9587 14.8674 11.8651 14.7739L7.3708 10.2797C7.23247 10.1412 7.16164 9.96709 7.1583 9.75742C7.15514 9.54792 7.22597 9.37067 7.3708 9.22567C7.5158 9.08084 7.69147 9.00842 7.8978 9.00842C8.10414 9.00842 8.2798 9.08084 8.4248 9.22567L12.4978 13.2989L16.5708 9.22567C16.7093 9.08734 16.8834 9.01651 17.0931 9.01317C17.3026 9.01001 17.4798 9.08084 17.6248 9.22567C17.7696 9.37067 17.8421 9.54634 17.8421 9.75267C17.8421 9.95901 17.7696 10.1347 17.6248 10.2797L13.1306 14.7739C13.0369 14.8674 12.9381 14.9334 12.8343 14.9719C12.7305 15.0104 12.6183 15.0297 12.4978 15.0297Z" fill="#999999"/>
</svg>
