<svg width="20" height="20" viewBox="0 0 20 20" fill="none" xmlns="http://www.w3.org/2000/svg">
<g id="icon-arrow">
<path id="arrow" d="M17.1711 10.0027L12.1093 15.0645C11.9758 15.198 11.9107 15.3552 11.9141 15.5361C11.9175 15.7171 11.986 15.8743 12.1195 16.0078C12.2531 16.1413 12.4104 16.208 12.5912 16.208C12.7721 16.208 12.9294 16.1413 13.063 16.0078L18.2177 10.8633C18.3392 10.7418 18.4292 10.6057 18.4878 10.4549C18.5464 10.3042 18.5757 10.1534 18.5757 10.0027C18.5757 9.85194 18.5464 9.70119 18.4878 9.55045C18.4292 9.3997 18.3392 9.26357 18.2177 9.14206L13.063 3.98716C12.9294 3.85367 12.7704 3.78865 12.586 3.79212C12.4017 3.7956 12.2428 3.86408 12.1093 3.99758C11.9758 4.13108 11.909 4.28832 11.909 4.46931C11.909 4.65018 11.9758 4.80737 12.1093 4.94087L17.1711 10.0027Z" fill="#B3B3B3"/>
</g>
</svg>
