<svg width="17" height="16" viewBox="0 0 17 16" fill="none" xmlns="http://www.w3.org/2000/svg">
<mask id="mask0_10049_4001" style="mask-type:alpha" maskUnits="userSpaceOnUse" x="0" y="0" width="17" height="16">
<rect x="0.5" width="16" height="16" fill="#D9D9D9"/>
</mask>
<g mask="url(#mask0_10049_4001)">
<path d="M10.3873 8.00065L5.36551 2.97882C5.23306 2.84637 5.16856 2.68871 5.17201 2.50582C5.17545 2.32293 5.2434 2.16521 5.37584 2.03265C5.50828 1.90021 5.66595 1.83398 5.84884 1.83398C6.03173 1.83398 6.18945 1.90021 6.32201 2.03265L11.4258 7.14682C11.5463 7.26737 11.6356 7.40243 11.6937 7.55198C11.7519 7.70154 11.781 7.8511 11.781 8.00065C11.781 8.15021 11.7519 8.29976 11.6937 8.44932C11.6356 8.59887 11.5463 8.73393 11.4258 8.85448L6.31167 13.9687C6.17923 14.1011 6.02328 14.1656 5.84384 14.1622C5.66428 14.1587 5.50828 14.0908 5.37584 13.9583C5.2434 13.8259 5.17717 13.6682 5.17717 13.4853C5.17717 13.3024 5.2434 13.1447 5.37584 13.0122L10.3873 8.00065Z" fill="#4D4D4D"/>
</g>
</svg>
