<svg width="15" height="17" viewBox="0 0 15 17" fill="none" xmlns="http://www.w3.org/2000/svg">
<path id="Union" fill-rule="evenodd" clip-rule="evenodd" d="M4.04907 0.666748C3.70389 0.666748 3.42407 0.94657 3.42407 1.29175V2.13363C3.42407 2.20349 3.43554 2.27068 3.45669 2.33341H2.76733C1.38662 2.33341 0.267334 3.4527 0.267334 4.83341V14.0001C0.267334 15.3808 1.38662 16.5001 2.76733 16.5001H11.934C13.3147 16.5001 14.434 15.3808 14.434 14.0001V4.83341C14.434 3.4527 13.3147 2.33341 11.934 2.33341H11.3171C11.3382 2.27068 11.3497 2.20349 11.3497 2.13363V1.29175C11.3497 0.94657 11.0699 0.666748 10.7247 0.666748C10.3795 0.666748 10.0997 0.94657 10.0997 1.29175V2.13363C10.0997 2.20349 10.1112 2.27068 10.1323 2.33341H4.64146C4.66261 2.27068 4.67407 2.20349 4.67407 2.13363V1.29175C4.67407 0.94657 4.39425 0.666748 4.04907 0.666748ZM1.51733 6.90047V14.0001C1.51733 14.6904 2.07698 15.2501 2.76733 15.2501H11.934C12.6244 15.2501 13.184 14.6904 13.184 14.0001V6.90047H1.51733Z" fill="currentColor"/>
</svg>
