<svg width="24" height="25" viewBox="0 0 24 25" fill="none" xmlns="http://www.w3.org/2000/svg">
<g id="icon-chevron-thick">
<path id="keyboard_arrow_down" d="M11.9978 15.5106C11.8773 15.5106 11.7651 15.4914 11.6613 15.4529C11.5575 15.4144 11.4587 15.3484 11.3651 15.2549L6.8708 10.7606C6.73247 10.6221 6.66164 10.448 6.6583 10.2384C6.65514 10.0289 6.72597 9.85163 6.8708 9.70663C7.0158 9.5618 7.19147 9.48938 7.3978 9.48938C7.60414 9.48938 7.7798 9.5618 7.9248 9.70663L11.9978 13.7799L16.0708 9.70663C16.2093 9.5683 16.3834 9.49746 16.5931 9.49413C16.8026 9.49096 16.9798 9.5618 17.1248 9.70663C17.2696 9.85163 17.3421 10.0273 17.3421 10.2336C17.3421 10.44 17.2696 10.6156 17.1248 10.7606L12.6306 15.2549C12.5369 15.3484 12.4381 15.4144 12.3343 15.4529C12.2305 15.4914 12.1183 15.5106 11.9978 15.5106Z" fill="#999999"/>
</g>
</svg>
