<svg width="257" height="88" viewBox="0 0 257 88" fill="none" xmlns="http://www.w3.org/2000/svg">
<rect x="53.7646" y="0.693359" width="149.471" height="9.88235" rx="4.94118" fill="#3A3C5A"/>
<path d="M191.765 57.6045C191.6 57.5863 191.434 57.5762 191.265 57.5762C188.779 57.5762 186.765 59.5909 186.765 62.0762C186.765 62.2452 186.775 62.412 186.793 62.5762H71.7363C71.7545 62.412 71.7646 62.2452 71.7646 62.0762C71.7646 59.7599 70.0146 57.8533 67.7646 57.6045V0.576172H191.765V57.6045Z" fill="url(#paint0_linear_11328_6738)"/>
<path d="M186.793 62.5762C187.042 64.8261 188.948 66.5762 191.265 66.5762C191.434 66.5762 191.6 66.565 191.765 66.5469V83.5762C191.765 85.7853 189.974 87.5762 187.765 87.5762H71.7646C69.5555 87.5762 67.7646 85.7853 67.7646 83.5762V66.5469C69.8503 66.3162 71.5057 64.6619 71.7363 62.5762H186.793Z" fill="#4D53CB"/>
<path d="M90.9846 75.3504V76.102H84.018V75.3504H87.0411V74.6242H84.8709V72.0402H90.1402V72.7749H85.8082V73.8811H90.1824V74.6242H87.9615V75.3504H90.9846ZM84.8286 77.9344C84.8286 77.0393 85.8293 76.5369 87.4886 76.5411C89.1353 76.5369 90.1275 77.0393 90.1317 77.9344C90.1275 78.8211 89.1353 79.3235 87.4886 79.3277C85.8293 79.3235 84.8286 78.8211 84.8286 77.9344ZM85.7829 77.9344C85.7786 78.3777 86.3782 78.6057 87.4886 78.6015C88.5822 78.6057 89.1859 78.3777 89.1944 77.9344C89.1859 77.4953 88.5822 77.2588 87.4886 77.2588C86.3782 77.2588 85.7786 77.4953 85.7829 77.9344ZM93.6098 71.9389C94.7667 71.9431 95.628 72.6567 95.6365 73.6615C95.628 74.6706 94.7667 75.38 93.6098 75.3842C92.4445 75.38 91.5831 74.6706 91.5831 73.6615C91.5831 72.6567 92.4445 71.9431 93.6098 71.9389ZM92.4951 73.6615C92.4951 74.2526 92.968 74.6242 93.6098 74.6242C94.2516 74.6242 94.7202 74.2526 94.7245 73.6615C94.7202 73.0831 94.2516 72.7115 93.6098 72.7158C92.968 72.7115 92.4951 73.0831 92.4951 73.6615ZM92.74 76.6171V75.8824H97.8067V77.8753H93.6774V78.4917H98.0347V79.2348H92.7569V77.1828H96.8693V76.6171H92.74ZM96.8609 75.5531V71.694H97.8067V75.5531H96.8609ZM107.414 71.694V76.4904H106.519V74.4131H105.776V76.2371H104.898V71.846H105.776V73.6531H106.519V71.694H107.414ZM100.845 73.2562V72.5215H102.289V71.7615H103.217V72.5215H104.645V73.2562H100.845ZM101.115 74.886C101.106 74.0922 101.799 73.5644 102.753 73.5686C103.724 73.5644 104.408 74.0922 104.417 74.886C104.408 75.6797 103.724 76.2033 102.753 76.2033C101.799 76.2033 101.106 75.6797 101.115 74.886ZM101.951 74.886C101.951 75.2786 102.276 75.5277 102.753 75.5277C103.234 75.5277 103.564 75.2786 103.564 74.886C103.564 74.4933 103.234 74.2442 102.753 74.2442C102.276 74.2442 101.951 74.4933 101.951 74.886ZM102.221 77.9597C102.217 77.0815 103.205 76.5875 104.839 76.5833C106.469 76.5875 107.452 77.0815 107.457 77.9597C107.452 78.8211 106.469 79.3193 104.839 79.3193C103.205 79.3193 102.217 78.8211 102.221 77.9597ZM103.158 77.9597C103.154 78.3777 103.749 78.6057 104.839 78.6015C105.924 78.6057 106.507 78.3777 106.511 77.9597C106.507 77.5164 105.924 77.2926 104.839 77.3011C103.749 77.2926 103.154 77.5164 103.158 77.9597ZM111.044 73.5264C111.036 74.8902 111.72 76.2666 112.902 76.8366L112.328 77.5882C111.5 77.1702 110.905 76.3637 110.58 75.3926C110.246 76.4313 109.622 77.2926 108.748 77.7317L108.173 76.9802C109.402 76.3975 110.103 74.9366 110.107 73.5264V72.3104H111.044V73.5264ZM113.358 79.3277V71.694H114.296V74.6833H115.469V75.4855H114.296V79.3277H113.358ZM124.342 71.694V79.3277H123.439V71.694H124.342ZM117.832 74.9957C117.832 73.3153 118.482 72.2724 119.478 72.2767C120.124 72.2724 120.627 72.6989 120.91 73.442H121.91V71.8291H122.797V78.9562H121.91V76.5495H120.91C120.631 77.2968 120.124 77.7275 119.478 77.7233C118.482 77.7275 117.832 76.6804 117.832 74.9957ZM118.693 74.9957C118.685 76.1906 118.976 76.8324 119.478 76.8282C119.985 76.8324 120.297 76.1906 120.297 74.9957C120.297 73.8051 119.985 73.1591 119.478 73.1633C118.976 73.1591 118.685 73.8051 118.693 74.9957ZM121.1 74.202C121.138 74.4469 121.159 74.7129 121.159 74.9957C121.159 75.2744 121.138 75.5362 121.104 75.7811H121.91V74.202H121.1ZM132.245 72.758V73.518H131.207V74.3962H132.245V75.1815H131.207V76.2033H130.269V71.694H131.207V72.758H132.245ZM125.27 73.9655C125.266 72.8931 126.153 72.1247 127.331 72.1331C128.504 72.1247 129.383 72.8931 129.391 73.9655C129.383 75.0549 128.504 75.8106 127.331 75.8149C126.153 75.8106 125.266 75.0549 125.27 73.9655ZM126.123 77.2926V76.5326H131.207V79.3277H130.269V77.2926H126.123ZM126.191 73.9655C126.186 74.6158 126.672 75.0169 127.331 75.0126C127.981 75.0169 128.466 74.6158 128.471 73.9655C128.466 73.328 127.981 72.9311 127.331 72.9269C126.672 72.9311 126.186 73.328 126.191 73.9655ZM137.513 73.5264C137.504 74.9282 138.243 76.33 139.48 76.862L138.923 77.6135C138.045 77.2082 137.403 76.4017 137.048 75.4053C136.698 76.4777 136.039 77.356 135.114 77.7908L134.54 77.0055C135.811 76.4566 136.554 75 136.558 73.5264V72.3104H137.513V73.5264ZM140.029 79.3362V71.694H140.975V79.3362H140.029ZM146.791 73.5264C146.782 74.8902 147.466 76.2666 148.649 76.8366L148.074 77.5882C147.247 77.1702 146.652 76.3637 146.326 75.3926C145.993 76.4313 145.368 77.2926 144.494 77.7317L143.92 76.9802C145.148 76.3975 145.849 74.9366 145.854 73.5264V72.3104H146.791V73.5264ZM149.105 79.3277V71.694H150.042V74.6833H151.216V75.4855H150.042V79.3277H149.105ZM158.452 75.3673V76.1189H151.493V75.3673H153.115V74.4004C152.536 74.1555 152.211 73.7713 152.211 73.2731C152.211 72.3569 153.279 71.8207 154.964 71.8207C156.644 71.8207 157.713 72.3569 157.717 73.2731C157.713 73.7755 157.383 74.1598 156.805 74.4004V75.3673H158.452ZM152.304 77.9428C152.304 77.0646 153.296 76.5749 154.964 76.5833C156.606 76.5749 157.603 77.0646 157.607 77.9428C157.603 78.8295 156.606 79.3108 154.964 79.3108C153.296 79.3108 152.304 78.8295 152.304 77.9428ZM153.191 73.2731C153.182 73.7375 153.837 73.9866 154.964 73.9824C156.087 73.9866 156.746 73.7375 156.746 73.2731C156.746 72.8044 156.087 72.5427 154.964 72.5469C153.837 72.5427 153.182 72.8044 153.191 73.2731ZM153.258 77.9428C153.254 78.3735 153.854 78.6057 154.964 78.6015C156.058 78.6057 156.661 78.3735 156.67 77.9428C156.661 77.5164 156.058 77.2968 154.964 77.2926C153.854 77.2968 153.254 77.5164 153.258 77.9428ZM154.061 75.3673H155.868V74.6411C155.593 74.6791 155.289 74.7002 154.964 74.7002C154.639 74.7002 154.335 74.6791 154.061 74.6411V75.3673ZM166.911 71.694V74.6749H168.042V75.4602H166.911V79.3108H165.974V71.694H166.911ZM160.89 77.2251C162.748 76.2962 163.753 75.0042 163.938 73.2646H161.304V72.4878H164.893C164.888 74.7298 163.96 76.7015 161.422 77.9513L160.89 77.2251ZM174.535 73.6784V74.4384H169.266V71.8291H170.203V73.6784H174.535ZM168.362 75.9331V75.1731H175.329V75.9331H168.362ZM169.173 77.8922C169.173 76.9928 170.174 76.4862 171.833 76.482C173.48 76.4862 174.472 76.9928 174.476 77.8922C174.472 78.7873 173.48 79.2939 171.833 79.2939C170.174 79.2939 169.173 78.7873 169.173 77.8922ZM170.127 77.8922C170.123 78.3313 170.722 78.5719 171.833 78.5762C172.926 78.5719 173.53 78.3313 173.539 77.8922C173.53 77.4404 172.926 77.2208 171.833 77.2166C170.722 77.2208 170.123 77.4404 170.127 77.8922Z" fill="#C5C8FF"/>
<path d="M92.29 25.5684V16.2031H94.7803V17.1602H93.4814V24.6113H94.7803V25.5684H92.29ZM99.8475 16.3496C99.8426 17.458 101.088 18.5859 102.972 18.8301L102.543 19.709C101.044 19.4844 99.8523 18.7471 99.2762 17.751C98.7 18.7471 97.5135 19.4844 96.0291 19.709L95.5994 18.8301C97.4646 18.5859 98.7049 17.4678 98.7049 16.3496V15.9004H99.8475V16.3496ZM95.2479 21.3691V20.4707H103.295V21.3691H99.7889V24.4453H98.7146V21.3691H95.2479ZM111.907 22.4824V23.3711H103.84V22.4824H105.706V20.251C105.003 19.8457 104.578 19.2109 104.583 18.4297C104.578 17.0234 105.955 16.0957 107.854 16.0957C109.763 16.0957 111.15 17.0234 111.145 18.4297C111.15 19.2012 110.735 19.8213 110.051 20.2266V22.4824H111.907ZM105.647 18.4297C105.642 19.333 106.536 19.9092 107.854 19.9043C109.168 19.9092 110.081 19.333 110.081 18.4297C110.081 17.5117 109.168 16.9502 107.854 16.9551C106.536 16.9502 105.642 17.5117 105.647 18.4297ZM106.78 22.4824H108.948V20.6416C108.611 20.7148 108.245 20.7539 107.854 20.7539C107.473 20.7539 107.112 20.7148 106.78 20.6465V22.4824ZM120.499 22.4922V23.3809H112.433V22.4922H115.919V20.4609H117.003V22.4922H120.499ZM112.785 19.9727C114.542 19.6797 115.851 18.4883 115.88 17.2188H113.107V16.3301H119.806V17.2188H117.023C117.057 18.4883 118.366 19.6504 120.177 19.9238L119.747 20.7832C118.258 20.5146 117.033 19.7236 116.461 18.6201C115.895 19.7383 114.684 20.5537 113.214 20.832L112.785 19.9727ZM124.18 17.7363C124.17 19.3135 124.961 20.9053 126.328 21.5645L125.664 22.4336C124.707 21.9502 124.019 21.0176 123.643 19.8945C123.257 21.0957 122.534 22.0918 121.524 22.5996L120.86 21.7305C122.28 21.0566 123.091 19.3672 123.096 17.7363V16.3301H124.18V17.7363ZM126.856 24.4453V15.6172H127.94V19.0742H129.297V20.002H127.94V24.4453H126.856ZM132.284 15.998C133.573 15.998 134.491 16.7158 134.501 17.7754C134.491 18.6543 133.832 19.3135 132.851 19.4941V20.207C133.588 20.1631 134.325 20.0996 135.009 20.002L135.097 20.793C133.261 21.1201 131.21 21.1592 129.716 21.1543L129.599 20.2852C130.233 20.2852 130.976 20.2803 131.757 20.2559V19.499C130.746 19.3281 130.072 18.6689 130.077 17.7754C130.072 16.7158 130.99 15.998 132.284 15.998ZM130.81 24.2598V21.7695H131.894V23.3809H136.923V24.2598H130.81ZM131.093 17.7754C131.083 18.3564 131.581 18.7178 132.284 18.7227C132.992 18.7178 133.471 18.3564 133.476 17.7754C133.471 17.1797 132.992 16.8281 132.284 16.8281C131.581 16.8281 131.083 17.1797 131.093 17.7754ZM135.526 22.3652V15.627H136.61V18.4785H137.802V19.377H136.61V22.3652H135.526ZM146.277 22.5215V23.4199H138.211V22.5215H140.349V21.0664H139.168V18.1855H144.246V17.1016H139.148V16.2227H145.32V19.0547H140.252V20.1875H145.525V21.0664H144.236V22.5215H146.277ZM141.404 22.5215H143.172V21.0664H141.404V22.5215ZM154.87 22.4922V23.3809H146.803V22.4922H150.28V20.7734H147.692V16.2031H148.776V17.6484H152.868V16.2031H153.952V20.7734H151.354V22.4922H154.87ZM148.776 19.8945H152.868V18.5176H148.776V19.8945ZM158.521 17.0234C158.521 18.1318 159.239 19.1816 160.601 19.6113L160.015 20.4609C159.063 20.1387 158.379 19.4941 157.994 18.6738C157.613 19.6113 156.9 20.3486 155.884 20.7051L155.298 19.8555C156.719 19.3623 157.432 18.1855 157.437 16.9258V16.0859H158.521V17.0234ZM156.499 22.7559C156.499 21.7109 157.647 21.0908 159.488 21.0957C161.314 21.0908 162.442 21.7109 162.447 22.7559C162.442 23.8252 161.314 24.4355 159.488 24.4355C157.647 24.4355 156.499 23.8252 156.499 22.7559ZM157.583 22.7559C157.583 23.3027 158.277 23.5762 159.488 23.5762C160.694 23.5762 161.372 23.3027 161.372 22.7559C161.372 22.2383 160.694 21.9453 159.488 21.9453C158.277 21.9453 157.583 22.2383 157.583 22.7559ZM161.275 20.9004V15.6172H162.359V17.7656H163.589V18.6641H162.359V20.9004H161.275ZM166.41 25.5684H163.92V24.6113H165.219V17.1602H163.92V16.2031H166.41V25.5684Z" fill="white"/>
<path d="M105.169 35.8496V48.5762H102.867V38.082H102.796L99.8256 39.9805V37.8887L102.972 35.8496H105.169ZM110.036 47.3281L108.56 52.25H106.89L107.804 47.3281H110.036ZM116.556 48.752C113.488 48.752 111.66 46.3789 111.669 42.2129C111.66 38.0645 113.506 35.6738 116.556 35.6738C119.606 35.6738 121.442 38.0645 121.442 42.2129C121.442 46.3877 119.614 48.752 116.556 48.752ZM113.972 42.2129C113.972 45.2715 114.956 46.8271 116.556 46.8359C118.147 46.8271 119.14 45.2715 119.14 42.2129C119.131 39.1807 118.147 37.5811 116.556 37.5723C114.965 37.5811 113.981 39.1807 113.972 42.2129ZM127.962 48.752C124.894 48.752 123.066 46.3789 123.075 42.2129C123.066 38.0645 124.912 35.6738 127.962 35.6738C131.012 35.6738 132.849 38.0645 132.849 42.2129C132.849 46.3877 131.02 48.752 127.962 48.752ZM125.378 42.2129C125.378 45.2715 126.362 46.8271 127.962 46.8359C129.553 46.8271 130.546 45.2715 130.546 42.2129C130.537 39.1807 129.553 37.5811 127.962 37.5723C126.371 37.5811 125.387 39.1807 125.378 42.2129ZM139.368 48.752C136.301 48.752 134.472 46.3789 134.481 42.2129C134.472 38.0645 136.318 35.6738 139.368 35.6738C142.418 35.6738 144.255 38.0645 144.255 42.2129C144.255 46.3877 142.427 48.752 139.368 48.752ZM136.784 42.2129C136.784 45.2715 137.768 46.8271 139.368 46.8359C140.959 46.8271 141.952 45.2715 141.952 42.2129C141.943 39.1807 140.959 37.5811 139.368 37.5723C137.777 37.5811 136.793 39.1807 136.784 42.2129ZM158.878 34.2676V46.291H156.909V44.9023H153.797V43.5312H156.909V34.2676H158.878ZM145.483 41.4043C148.41 41.3867 152.356 41.3604 155.731 40.9297L155.837 42.3359C154.527 42.5557 153.173 42.6963 151.829 42.793V45.8516H149.878V42.8984C148.392 42.96 146.977 42.9688 145.729 42.9688L145.483 41.4043ZM146.696 37.6602C146.696 35.9814 148.313 34.8389 150.669 34.8477C152.98 34.8389 154.606 35.9814 154.624 37.6602C154.606 39.3652 152.98 40.4463 150.669 40.4551C148.313 40.4463 146.696 39.3652 146.696 37.6602ZM147.592 49.8242V45.1309H149.544V48.2422H159.247V49.8242H147.592ZM148.542 37.6602C148.542 38.5215 149.394 39.0225 150.669 39.0312C151.881 39.0225 152.752 38.5215 152.76 37.6602C152.752 36.7988 151.881 36.2803 150.669 36.2891C149.394 36.2803 148.542 36.7988 148.542 37.6602Z" fill="white"/>
<defs>
<linearGradient id="paint0_linear_11328_6738" x1="129.765" y1="0.576172" x2="129.765" y2="62.5762" gradientUnits="userSpaceOnUse">
<stop stop-color="#353A9C"/>
<stop offset="0.154932" stop-color="#535BF4"/>
</linearGradient>
</defs>
</svg>
