<svg width="89" height="110" viewBox="0 0 89 110" fill="none" xmlns="http://www.w3.org/2000/svg">
<rect x="0.5" width="88" height="109.154" rx="6.76923" fill="#F5F5F5"/>
<rect x="14.0381" y="13.5381" width="54.1538" height="6.76923" rx="3.38462" fill="#D9D9D9"/>
<rect x="14.0381" y="27.0771" width="34.6923" height="6.76923" rx="3.38462" fill="#D9D9D9"/>
<ellipse cx="64.5" cy="84.5771" rx="15.5" ry="15" fill="#54E4C5"/>
<path d="M61.7667 87.8105L69.6333 79.9438C69.8778 79.6994 70.1889 79.5771 70.5667 79.5771C70.9444 79.5771 71.2556 79.6994 71.5 79.9438C71.7444 80.1883 71.8667 80.4994 71.8667 80.8771C71.8667 81.2549 71.7444 81.566 71.5 81.8105L62.7 90.6105C62.4333 90.8771 62.1222 91.0105 61.7667 91.0105C61.4111 91.0105 61.1 90.8771 60.8333 90.6105L57.3667 87.1438C57.1222 86.8994 57 86.5883 57 86.2105C57 85.8327 57.1222 85.5216 57.3667 85.2771C57.6111 85.0327 57.9222 84.9105 58.3 84.9105C58.6778 84.9105 58.9889 85.0327 59.2333 85.2771L61.7667 87.8105Z" fill="white"/>
</svg>
