<svg width="89" height="110" viewBox="0 0 89 110" fill="none" xmlns="http://www.w3.org/2000/svg">
<rect width="89" height="110" fill="#F5F5F5"/>
<path d="M-7463 -2218C-7463 -2219.1 -7462.1 -2220 -7461 -2220H3563C3564.1 -2220 3565 -2219.1 3565 -2218V9516C3565 9517.1 3564.1 9518 3563 9518H-7461C-7462.1 9518 -7463 9517.1 -7463 9516V-2218Z" fill="#C4E1B4"/>
<path d="M-7461 -2219H3563V-2221H-7461V-2219ZM3564 -2218V9516H3566V-2218H3564ZM3563 9517H-7461V9519H3563V9517ZM-7462 9516V-2218H-7464V9516H-7462ZM-7461 9517C-7461.55 9517 -7462 9516.55 -7462 9516H-7464C-7464 9517.66 -7462.66 9519 -7461 9519V9517ZM3564 9516C3564 9516.55 3563.55 9517 3563 9517V9519C3564.66 9519 3566 9517.66 3566 9516H3564ZM3563 -2219C3563.55 -2219 3564 -2218.55 3564 -2218H3566C3566 -2219.66 3564.66 -2221 3563 -2221V-2219ZM-7461 -2221C-7462.66 -2221 -7464 -2219.66 -7464 -2218H-7462C-7462 -2218.55 -7461.55 -2219 -7461 -2219V-2221Z" fill="black" fill-opacity="0.1"/>
<g clip-path="url(#clip0_6784_19789)">
<rect width="375" height="812" transform="translate(-143 -335)" fill="white"/>
<rect x="0.5" width="88" height="109.154" rx="6.76923" fill="#F5F5F5"/>
<rect x="14.0381" y="13.5386" width="54.1538" height="6.76923" rx="3.38462" fill="#D9D9D9"/>
<rect x="14.0381" y="27.0771" width="34.6923" height="6.76923" rx="3.38462" fill="#D9D9D9"/>
<ellipse cx="64.5" cy="84.5771" rx="15.5" ry="15" fill="#F45353"/>
<mask id="mask0_6784_19789" style="mask-type:alpha" maskUnits="userSpaceOnUse" x="53" y="72" width="25" height="25">
<rect x="53.0352" y="72.873" width="24" height="24" fill="#D9D9D9"/>
</mask>
<g mask="url(#mask0_6784_19789)">
<path d="M65.0348 86.4644L60.2305 91.2689C60.0192 91.4801 59.7539 91.5856 59.4348 91.5856C59.1156 91.5856 58.8503 91.4801 58.639 91.2689C58.4278 91.0576 58.3223 90.7923 58.3223 90.4731C58.3223 90.154 58.4278 89.8887 58.639 89.6774L63.4435 84.8731L58.639 80.0689C58.4278 79.8576 58.3223 79.5923 58.3223 79.2731C58.3223 78.954 58.4278 78.6887 58.639 78.4774C58.8503 78.2662 59.1156 78.1606 59.4348 78.1606C59.7539 78.1606 60.0192 78.2662 60.2305 78.4774L65.0348 83.2819L69.839 78.4774C70.0503 78.2662 70.3156 78.1606 70.6348 78.1606C70.9539 78.1606 71.2192 78.2662 71.4305 78.4774C71.6417 78.6887 71.7473 78.954 71.7473 79.2731C71.7473 79.5923 71.6417 79.8576 71.4305 80.0689L66.626 84.8731L71.4305 89.6774C71.6417 89.8887 71.7473 90.154 71.7473 90.4731C71.7473 90.7923 71.6417 91.0576 71.4305 91.2689C71.2192 91.4801 70.9539 91.5856 70.6348 91.5856C70.3156 91.5856 70.0503 91.4801 69.839 91.2689L65.0348 86.4644Z" fill="white"/>
</g>
</g>
<defs>
<clipPath id="clip0_6784_19789">
<rect width="375" height="812" fill="white" transform="translate(-143 -335)"/>
</clipPath>
</defs>
</svg>
