<svg width="88" height="110" viewBox="0 0 88 110" fill="none" xmlns="http://www.w3.org/2000/svg">
<rect width="88" height="109.154" rx="6.76923" fill="#F5F5F5"/>
<rect x="13.5381" y="13.5386" width="54.1538" height="6.76923" rx="3.38462" fill="#D9D9D9"/>
<rect x="13.5381" y="27.0771" width="34.6923" height="6.76923" rx="3.38462" fill="#D9D9D9"/>
<ellipse cx="64" cy="84.5771" rx="15.5" ry="15" fill="#54E4C5"/>
<path d="M61.2667 87.8105L69.1333 79.9438C69.3778 79.6994 69.6889 79.5771 70.0667 79.5771C70.4444 79.5771 70.7556 79.6994 71 79.9438C71.2444 80.1883 71.3667 80.4994 71.3667 80.8771C71.3667 81.2549 71.2444 81.566 71 81.8105L62.2 90.6105C61.9333 90.8771 61.6222 91.0105 61.2667 91.0105C60.9111 91.0105 60.6 90.8771 60.3333 90.6105L56.8667 87.1438C56.6222 86.8994 56.5 86.5883 56.5 86.2105C56.5 85.8327 56.6222 85.5216 56.8667 85.2771C57.1111 85.0327 57.4222 84.9105 57.8 84.9105C58.1778 84.9105 58.4889 85.0327 58.7333 85.2771L61.2667 87.8105Z" fill="white"/>
</svg>
