<svg width="233" height="79" viewBox="0 0 233 79" fill="none" xmlns="http://www.w3.org/2000/svg">
<rect x="41.7647" width="149.471" height="9.88235" rx="4.94118" fill="#3A3C5A"/>
<path d="M179.999 49.6895C179.76 49.6552 179.515 49.6367 179.265 49.6367C176.779 49.6367 174.765 51.3936 174.765 53.5605C174.765 53.8364 174.798 54.1054 174.86 54.3652H59.669C59.7311 54.1054 59.7647 53.8364 59.7647 53.5605C59.7647 51.6117 58.135 49.9952 55.9991 49.6895V0.306641H179.999V49.6895Z" fill="url(#paint0_linear_13599_25562)"/>
<path d="M174.793 53.8828C175.042 56.1327 176.948 57.8828 179.265 57.8828C179.434 57.8828 179.6 57.8717 179.765 57.8535V74.8828C179.765 77.092 177.974 78.8828 175.765 78.8828H59.7647C57.5556 78.8828 55.7647 77.0919 55.7647 74.8828V57.8535C57.8504 57.6229 59.5058 55.9685 59.7364 53.8828H174.793Z" fill="#4D53CB"/>
<path d="M78.9847 66.6571V67.4086H72.018V66.6571H75.0411V65.9308H72.8709V63.3469H78.1402V64.0815H73.8083V65.1877H78.1824V65.9308H75.9616V66.6571H78.9847ZM72.8287 69.241C72.8287 68.3459 73.8294 67.8435 75.4887 67.8477C77.1353 67.8435 78.1276 68.3459 78.1318 69.241C78.1276 70.1277 77.1353 70.6301 75.4887 70.6344C73.8294 70.6301 72.8287 70.1277 72.8287 69.241ZM73.7829 69.241C73.7787 69.6844 74.3782 69.9124 75.4887 69.9081C76.5822 69.9124 77.186 69.6844 77.1945 69.241C77.186 68.8019 76.5822 68.5655 75.4887 68.5655C74.3782 68.5655 73.7787 68.8019 73.7829 69.241ZM81.6099 63.2455C82.7667 63.2497 83.6281 63.9633 83.6365 64.9682C83.6281 65.9773 82.7667 66.6866 81.6099 66.6908C80.4445 66.6866 79.5832 65.9773 79.5832 64.9682C79.5832 63.9633 80.4445 63.2497 81.6099 63.2455ZM80.4952 64.9682C80.4952 65.5593 80.9681 65.9308 81.6099 65.9308C82.2516 65.9308 82.7203 65.5593 82.7245 64.9682C82.7203 64.3897 82.2516 64.0182 81.6099 64.0224C80.9681 64.0182 80.4952 64.3897 80.4952 64.9682ZM80.7401 67.9237V67.1891H85.8067V69.1819H81.6774V69.7984H86.0347V70.5415H80.757V68.4895H84.8694V67.9237H80.7401ZM84.8609 66.8597V63.0006H85.8067V66.8597H84.8609ZM95.4144 63.0006V67.797H94.5193V65.7197H93.7762V67.5437H92.898V63.1526H93.7762V64.9597H94.5193V63.0006H95.4144ZM88.8447 64.5628V63.8282H90.2887V63.0682H91.2176V63.8282H92.6447V64.5628H88.8447ZM89.1149 66.1926C89.1065 65.3988 89.7989 64.8711 90.7531 64.8753C91.7242 64.8711 92.4082 65.3988 92.4167 66.1926C92.4082 66.9864 91.7242 67.5099 90.7531 67.5099C89.7989 67.5099 89.1065 66.9864 89.1149 66.1926ZM89.9509 66.1926C89.9509 66.5853 90.276 66.8344 90.7531 66.8344C91.2344 66.8344 91.5638 66.5853 91.5638 66.1926C91.5638 65.7999 91.2344 65.5508 90.7531 65.5508C90.276 65.5508 89.9509 65.7999 89.9509 66.1926ZM90.2211 69.2664C90.2169 68.3882 91.2049 67.8942 92.8389 67.8899C94.4686 67.8942 95.4524 68.3882 95.4566 69.2664C95.4524 70.1277 94.4686 70.6259 92.8389 70.6259C91.2049 70.6259 90.2169 70.1277 90.2211 69.2664ZM91.1584 69.2664C91.1542 69.6844 91.7495 69.9124 92.8389 69.9081C93.924 69.9124 94.5066 69.6844 94.5109 69.2664C94.5066 68.823 93.924 68.5993 92.8389 68.6077C91.7495 68.5993 91.1542 68.823 91.1584 69.2664ZM99.0445 64.8331C99.036 66.1968 99.72 67.5733 100.902 68.1433L100.328 68.8948C99.5005 68.4768 98.9052 67.6704 98.58 66.6993C98.2465 67.7379 97.6216 68.5993 96.7476 69.0384L96.1734 68.2868C97.4021 67.7042 98.1029 66.2433 98.1072 64.8331V63.6171H99.0445V64.8331ZM101.358 70.6344V63.0006H102.296V65.9899H103.469V66.7922H102.296V70.6344H101.358ZM112.342 63.0006V70.6344H111.439V63.0006H112.342ZM105.832 66.3024C105.832 64.622 106.482 63.5791 107.478 63.5833C108.124 63.5791 108.627 64.0055 108.91 64.7486H109.91V63.1357H110.797V70.2628H109.91V67.8562H108.91C108.631 68.6035 108.124 69.0342 107.478 69.0299C106.482 69.0342 105.832 67.987 105.832 66.3024ZM106.693 66.3024C106.685 67.4973 106.976 68.139 107.478 68.1348C107.985 68.139 108.298 67.4973 108.298 66.3024C108.298 65.1117 107.985 64.4657 107.478 64.47C106.976 64.4657 106.685 65.1117 106.693 66.3024ZM109.1 65.5086C109.138 65.7535 109.159 66.0195 109.159 66.3024C109.159 66.5811 109.138 66.8428 109.104 67.0877H109.91V65.5086H109.1ZM120.245 64.0646V64.8246H119.207V65.7028H120.245V66.4882H119.207V67.5099H118.269V63.0006H119.207V64.0646H120.245ZM113.27 65.2722C113.266 64.1997 114.153 63.4313 115.331 63.4397C116.504 63.4313 117.383 64.1997 117.391 65.2722C117.383 66.3615 116.504 67.1173 115.331 67.1215C114.153 67.1173 113.266 66.3615 113.27 65.2722ZM114.123 68.5993V67.8393H119.207V70.6344H118.269V68.5993H114.123ZM114.191 65.2722C114.186 65.9224 114.672 66.3235 115.331 66.3193C115.981 66.3235 116.466 65.9224 116.471 65.2722C116.466 64.6346 115.981 64.2377 115.331 64.2335C114.672 64.2377 114.186 64.6346 114.191 65.2722ZM125.513 64.8331C125.504 66.2348 126.243 67.6366 127.48 68.1686L126.923 68.9202C126.045 68.5148 125.403 67.7084 125.048 66.7119C124.698 67.7844 124.039 68.6626 123.114 69.0975L122.54 68.3122C123.811 67.7633 124.554 66.3066 124.558 64.8331V63.6171H125.513V64.8331ZM128.029 70.6428V63.0006H128.975V70.6428H128.029ZM134.791 64.8331C134.783 66.1968 135.467 67.5733 136.649 68.1433L136.075 68.8948C135.247 68.4768 134.652 67.6704 134.327 66.6993C133.993 67.7379 133.368 68.5993 132.494 69.0384L131.92 68.2868C133.149 67.7042 133.849 66.2433 133.854 64.8331V63.6171H134.791V64.8331ZM137.105 70.6344V63.0006H138.042V65.9899H139.216V66.7922H138.042V70.6344H137.105ZM146.452 66.6739V67.4255H139.493V66.6739H141.115V65.7071C140.536 65.4622 140.211 65.078 140.211 64.5797C140.211 63.6635 141.279 63.1273 142.964 63.1273C144.645 63.1273 145.713 63.6635 145.717 64.5797C145.713 65.0822 145.383 65.4664 144.805 65.7071V66.6739H146.452ZM140.304 69.2495C140.304 68.3713 141.296 67.8815 142.964 67.8899C144.607 67.8815 145.603 68.3713 145.607 69.2495C145.603 70.1361 144.607 70.6175 142.964 70.6175C141.296 70.6175 140.304 70.1361 140.304 69.2495ZM141.191 64.5797C141.182 65.0442 141.837 65.2933 142.964 65.2891C144.087 65.2933 144.746 65.0442 144.746 64.5797C144.746 64.1111 144.087 63.8493 142.964 63.8535C141.837 63.8493 141.182 64.1111 141.191 64.5797ZM141.258 69.2495C141.254 69.6801 141.854 69.9124 142.964 69.9081C144.058 69.9124 144.661 69.6801 144.67 69.2495C144.661 68.823 144.058 68.6035 142.964 68.5993C141.854 68.6035 141.254 68.823 141.258 69.2495ZM142.061 66.6739H143.868V65.9477C143.593 65.9857 143.289 66.0068 142.964 66.0068C142.639 66.0068 142.335 65.9857 142.061 65.9477V66.6739ZM154.911 63.0006V65.9815H156.042V66.7668H154.911V70.6175H153.974V63.0006H154.911ZM148.89 68.5317C150.748 67.6028 151.753 66.3108 151.938 64.5713H149.304V63.7944H152.893C152.888 66.0364 151.96 68.0082 149.422 69.2579L148.89 68.5317ZM162.535 64.9851V65.7451H157.266V63.1357H158.203V64.9851H162.535ZM156.362 67.2397V66.4797H163.329V67.2397H156.362ZM157.173 69.1988C157.173 68.2995 158.174 67.7928 159.833 67.7886C161.48 67.7928 162.472 68.2995 162.476 69.1988C162.472 70.0939 161.48 70.6006 159.833 70.6006C158.174 70.6006 157.173 70.0939 157.173 69.1988ZM158.127 69.1988C158.123 69.6379 158.723 69.8786 159.833 69.8828C160.927 69.8786 161.53 69.6379 161.539 69.1988C161.53 68.747 160.927 68.5275 159.833 68.5233C158.723 68.5275 158.123 68.747 158.127 69.1988Z" fill="#C5C8FF"/>
<path d="M93.4038 22.6387V35.3652H91.101V24.8711H91.0307L88.06 26.7695V24.6777L91.2065 22.6387H93.4038ZM98.2708 34.1172L96.7942 39.0391H95.1243L96.0384 34.1172H98.2708ZM104.79 35.541C101.723 35.541 99.8947 33.168 99.9035 29.002C99.8947 24.8535 101.74 22.4629 104.79 22.4629C107.84 22.4629 109.677 24.8535 109.677 29.002C109.677 33.1768 107.849 35.541 104.79 35.541ZM102.206 29.002C102.206 32.0605 103.191 33.6162 104.79 33.625C106.381 33.6162 107.374 32.0605 107.374 29.002C107.365 25.9697 106.381 24.3701 104.79 24.3613C103.199 24.3701 102.215 25.9697 102.206 29.002ZM116.196 35.541C113.129 35.541 111.301 33.168 111.31 29.002C111.301 24.8535 113.146 22.4629 116.196 22.4629C119.246 22.4629 121.083 24.8535 121.083 29.002C121.083 33.1768 119.255 35.541 116.196 35.541ZM113.612 29.002C113.612 32.0605 114.597 33.6162 116.196 33.625C117.787 33.6162 118.78 32.0605 118.78 29.002C118.771 25.9697 117.787 24.3701 116.196 24.3613C114.605 24.3701 113.621 25.9697 113.612 29.002ZM127.602 35.541C124.535 35.541 122.707 33.168 122.716 29.002C122.707 24.8535 124.553 22.4629 127.602 22.4629C130.652 22.4629 132.489 24.8535 132.489 29.002C132.489 33.1768 130.661 35.541 127.602 35.541ZM125.018 29.002C125.018 32.0605 126.003 33.6162 127.602 33.625C129.193 33.6162 130.186 32.0605 130.186 29.002C130.178 25.9697 129.193 24.3701 127.602 24.3613C126.012 24.3701 125.027 25.9697 125.018 29.002ZM147.112 21.0566V33.0801H145.143V31.6914H142.032V30.3203H145.143V21.0566H147.112ZM133.717 28.1934C136.644 28.1758 140.59 28.1494 143.965 27.7188L144.071 29.125C142.761 29.3447 141.408 29.4854 140.063 29.582V32.6406H138.112V29.6875C136.627 29.749 135.212 29.7578 133.964 29.7578L133.717 28.1934ZM134.93 24.4492C134.93 22.7705 136.548 21.6279 138.903 21.6367C141.215 21.6279 142.84 22.7705 142.858 24.4492C142.84 26.1543 141.215 27.2354 138.903 27.2441C136.548 27.2354 134.93 26.1543 134.93 24.4492ZM135.827 36.6133V31.9199H137.778V35.0312H147.481V36.6133H135.827ZM136.776 24.4492C136.776 25.3105 137.629 25.8115 138.903 25.8203C140.116 25.8115 140.986 25.3105 140.995 24.4492C140.986 23.5879 140.116 23.0693 138.903 23.0781C137.629 23.0693 136.776 23.5879 136.776 24.4492Z" fill="white"/>
<defs>
<linearGradient id="paint0_linear_13599_25562" x1="117.765" y1="-0.0109604" x2="117.765" y2="54.0476" gradientUnits="userSpaceOnUse">
<stop stop-color="#353A9C"/>
<stop offset="0.154932" stop-color="#535BF4"/>
</linearGradient>
</defs>
</svg>
