<svg width="40" height="40" viewBox="0 0 40 40" fill="none" xmlns="http://www.w3.org/2000/svg">
<rect width="40" height="40" rx="5.07936" fill="#A7ECDD"/>
<rect x="-0.00195312" width="40" height="40" rx="5.07936" fill="#A7C1EC"/>
<rect width="3.79952" height="4.58806" rx="1.89976" transform="matrix(-1 0 0 1 14.0879 23.1719)" fill="#666666"/>
<rect width="3.79952" height="4.58806" rx="1.89976" transform="matrix(-1 0 0 1 31.5293 23.1426)" fill="#666666"/>
<rect width="3.79952" height="4.58806" rx="1.89976" transform="matrix(-1 0 0 1 13.6855 23.1719)" fill="black"/>
<rect width="3.79952" height="4.58806" rx="1.89976" transform="matrix(-1 0 0 1 31.127 23.1426)" fill="black"/>
<path d="M11.3028 13.0531C11.5474 12.5566 12.0529 12.2422 12.6064 12.2422H33.5033C34.306 12.2422 34.9567 12.8929 34.9567 13.6956V23.9904C34.9567 24.7931 34.306 25.4438 33.5033 25.4438H6.49441C5.69172 25.4438 5.04102 24.7931 5.04102 23.9904V21.5891C5.04102 20.99 5.40862 20.4522 5.96685 20.2348L7.66366 19.5738C8.00224 19.4419 8.27913 19.188 8.43976 18.862L11.3028 13.0531Z" fill="url(#paint0_linear_10615_14714)"/>
<path d="M34.957 22.7793C34.957 22.6456 34.8486 22.5371 34.7148 22.5371H5.04136V23.0216H34.7148C34.8486 23.0216 34.957 22.9131 34.957 22.7793Z" fill="#B7B7B7"/>
<path d="M7.3418 23.627C7.3418 23.4932 7.23335 23.3848 7.09956 23.3848H5.04059V23.8692H7.09956C7.23335 23.8692 7.3418 23.7608 7.3418 23.627Z" fill="#B7B7B7"/>
<path d="M7.3418 21.9317C7.3418 21.7979 7.23335 21.6895 7.09956 21.6895H5.04059V22.1739H7.09956C7.23335 22.1739 7.3418 22.0655 7.3418 21.9317Z" fill="#B7B7B7"/>
<path d="M11.8395 14.3089C11.9781 14.0087 12.2786 13.8164 12.6093 13.8164H17.1537C17.6219 13.8164 18.0015 14.196 18.0015 14.6642V17.6921C18.0015 18.1604 17.6219 18.5399 17.1537 18.5399H11.2118C10.593 18.5399 10.1827 17.8986 10.442 17.3368L11.8395 14.3089Z" fill="#798A86"/>
<rect x="19.0879" y="13.8164" width="14.655" height="4.72353" rx="0.847813" fill="#798A86"/>
<defs>
<linearGradient id="paint0_linear_10615_14714" x1="19.9938" y1="18.811" x2="19.1648" y2="30.6713" gradientUnits="userSpaceOnUse">
<stop stop-color="white"/>
<stop offset="1" stop-color="#D0D0D0"/>
</linearGradient>
</defs>
</svg>
