<svg width="21" height="21" viewBox="0 0 21 21" fill="none" xmlns="http://www.w3.org/2000/svg">
<path d="M10.4304 13.7152C10.5781 13.7152 10.7018 13.6652 10.8014 13.5653C10.9012 13.4656 10.9511 13.3419 10.9511 13.1943V10.2429C10.9511 10.0954 10.9011 9.97165 10.8012 9.87177C10.7014 9.772 10.5776 9.72211 10.4301 9.72211C10.2824 9.72211 10.1587 9.772 10.059 9.87177C9.95928 9.97165 9.9094 10.0954 9.9094 10.2429V13.1943C9.9094 13.3419 9.95934 13.4656 10.0592 13.5653C10.1591 13.6652 10.2828 13.7152 10.4304 13.7152ZM10.4302 8.53357C10.5891 8.53357 10.7224 8.47981 10.8299 8.37229C10.9374 8.26476 10.9912 8.13155 10.9912 7.97263C10.9912 7.81372 10.9374 7.68051 10.8299 7.57298C10.7224 7.46557 10.5891 7.41187 10.4302 7.41187C10.2713 7.41187 10.1381 7.46557 10.0306 7.57298C9.92305 7.68051 9.86929 7.81372 9.86929 7.97263C9.86929 8.13155 9.92305 8.26476 10.0306 8.37229C10.1381 8.47981 10.2713 8.53357 10.4302 8.53357ZM10.4314 17.0138C9.51895 17.0138 8.66125 16.8406 7.85835 16.4943C7.05546 16.148 6.35708 15.6781 5.76322 15.0844C5.16935 14.4908 4.69915 13.7927 4.35263 12.9902C4.00621 12.1876 3.83301 11.3302 3.83301 10.4178C3.83301 9.50527 4.00616 8.64758 4.35245 7.84468C4.69875 7.04179 5.16871 6.34341 5.76235 5.74954C6.35598 5.15568 7.05407 4.68548 7.85662 4.33895C8.65917 3.99254 9.51663 3.81934 10.429 3.81934C11.3415 3.81934 12.1992 3.99248 13.0021 4.33878C13.805 4.68508 14.5034 5.15504 15.0972 5.74868C15.6911 6.34231 16.1613 7.0404 16.5078 7.84295C16.8542 8.64549 17.0275 9.50296 17.0275 10.4153C17.0275 11.3278 16.8543 12.1855 16.508 12.9884C16.1617 13.7913 15.6917 14.4897 15.0981 15.0836C14.5045 15.6774 13.8064 16.1476 13.0038 16.4942C12.2013 16.8406 11.3438 17.0138 10.4314 17.0138ZM10.4302 15.9721C11.9812 15.9721 13.2948 15.4339 14.3712 14.3575C15.4476 13.2811 15.9858 11.9675 15.9858 10.4166C15.9858 8.86563 15.4476 7.55197 14.3712 6.47559C13.2948 5.3992 11.9812 4.861 10.4302 4.861C8.8793 4.861 7.56565 5.3992 6.48926 6.47559C5.41287 7.55197 4.87467 8.86563 4.87467 10.4166C4.87467 11.9675 5.41287 13.2811 6.48926 14.3575C7.56565 15.4339 8.8793 15.9721 10.4302 15.9721Z" fill="#999999"/>
</svg>
