<svg width="11" height="15" viewBox="0 0 11 15" fill="none" xmlns="http://www.w3.org/2000/svg">
<path d="M5.5166 14.2549L5.51855 14.2568V14.2578C5.51732 14.2565 5.51588 14.2553 5.51465 14.2539L5.5166 14.2549ZM5.5 0.75C8.13717 0.75 10.2498 2.84234 10.25 5.39258C10.25 6.54956 9.61477 8.18022 8.64258 9.88086C7.69342 11.5412 6.49387 13.1469 5.50098 14.2373C4.54027 13.1744 3.33991 11.5665 2.38184 9.89746C1.399 8.18527 0.75 6.54218 0.75 5.39258C0.750229 2.84234 2.86283 0.75 5.5 0.75ZM5.5 3.0166C4.20041 3.0166 3.12207 4.0534 3.12207 5.36328C3.12224 6.67302 4.20051 7.70996 5.5 7.70996C6.79949 7.70996 7.87776 6.67302 7.87793 5.36328C7.87793 4.0534 6.79959 3.0166 5.5 3.0166Z" fill="#00E0A8" stroke="#00E0A8" stroke-width="1.5"/>
</svg>
