<svg width="11" height="16" viewBox="0 0 11 16" fill="none" xmlns="http://www.w3.org/2000/svg">
<path id="Subtract" d="M10.25 5.72631C10.25 6.88335 9.61509 8.5139 8.64282 10.2146C7.69363 11.875 6.49418 13.4807 5.50127 14.5711C4.54051 13.5082 3.34032 11.9 2.38213 10.2307C1.39926 8.5185 0.75 6.87593 0.75 5.72631C0.75 3.17588 2.86269 1.08331 5.5 1.08331C8.13731 1.08331 10.25 3.17588 10.25 5.72631ZM5.5 8.04301C6.79959 8.04301 7.8784 7.00617 7.8784 5.69629C7.8784 4.38641 6.79959 3.34957 5.5 3.34957C4.20041 3.34957 3.1216 4.38641 3.1216 5.69629C3.1216 7.00617 4.20041 8.04301 5.5 8.04301Z" fill="#00C896" stroke="#00C896" stroke-width="1.5"/>
</svg>
