<svg width="20" height="20" viewBox="0 0 20 20" fill="none" xmlns="http://www.w3.org/2000/svg">
<rect width="20" height="20" rx="10" fill="#F3F3F3"/>
<path fill-rule="evenodd" clip-rule="evenodd" d="M10.3911 15.8259C11.8942 14.1666 14 10.9579 14 8.95486C14 6.77065 12.2091 5 10 5C7.79086 5 6 6.77065 6 8.95486C6 10.951 8.15513 14.2076 9.6098 15.8249C9.81952 16.0581 10.1805 16.0583 10.3911 15.8259ZM10 10.1038C10.6541 10.1038 11.1843 9.57954 11.1843 8.93285C11.1843 8.28617 10.6541 7.76192 10 7.76192C9.34593 7.76192 8.81571 8.28617 8.81571 8.93285C8.81571 9.57954 9.34593 10.1038 10 10.1038Z" fill="#B3B3B3"/>
</svg>
