<svg width="16" height="17" viewBox="0 0 16 17" fill="none" xmlns="http://www.w3.org/2000/svg">
<g id="icon-location">
<path id="Subtract" d="M11.9168 6.49998C11.9168 7.477 11.3883 8.87045 10.565 10.3392C9.79141 11.7193 8.82091 13.0555 8.00158 13.9901C7.207 13.0767 6.2367 11.7393 5.45638 10.353C4.62385 8.87386 4.0835 7.47025 4.0835 6.49998C4.0835 4.33686 5.83705 2.58331 8.00016 2.58331C10.1633 2.58331 11.9168 4.33686 11.9168 6.49998ZM8.00016 8.60568C9.17745 8.60568 10.1318 7.6513 10.1318 6.47401C10.1318 5.29672 9.17745 4.34234 8.00016 4.34234C6.82287 4.34234 5.86849 5.29672 5.86849 6.47401C5.86849 7.6513 6.82287 8.60568 8.00016 8.60568Z" fill="#999999" stroke="#999999" stroke-width="1.5"/>
</g>
</svg>
