<svg width="13" height="17" viewBox="0 0 13 17" fill="none" xmlns="http://www.w3.org/2000/svg">
<path id="Subtract" d="M11.434 6.50008C11.434 7.77254 10.752 9.55036 9.72031 11.3908C8.70539 13.2013 7.42166 14.9516 6.3623 16.1343C6.35958 16.1373 6.35761 16.1389 6.35659 16.1397C6.35554 16.1404 6.35484 16.1408 6.35445 16.1409C6.35366 16.1413 6.35273 16.1415 6.35164 16.1415C6.35056 16.1415 6.34979 16.1413 6.34926 16.141L6.34748 16.14C6.34659 16.1393 6.34472 16.1378 6.34208 16.1349C5.31729 14.9825 4.03237 13.229 3.00754 11.4083C1.96483 9.55577 1.26733 7.76477 1.26733 6.50008C1.26733 3.69263 3.54322 1.41675 6.35067 1.41675C9.15811 1.41675 11.434 3.69263 11.434 6.50008ZM6.35067 8.94471C7.71873 8.94471 8.82776 7.83568 8.82776 6.46762C8.82776 5.09956 7.71873 3.99053 6.35067 3.99053C4.98261 3.99053 3.87358 5.09956 3.87358 6.46762C3.87358 7.83568 4.98261 8.94471 6.35067 8.94471Z" fill="currentColor" stroke="currentColor" stroke-width="1.5"/>
</svg>
