<svg width="41" height="40" viewBox="0 0 41 40" fill="none" xmlns="http://www.w3.org/2000/svg">
<path d="M20.5002 22.4999C19.0002 22.4999 17.5904 22.8263 16.271 23.4791C14.9516 24.1319 13.8891 25.0833 13.0835 26.3333C12.7779 26.7777 12.7363 27.2221 12.9585 27.6666C13.1807 28.111 13.5418 28.3333 14.0418 28.3333C14.2641 28.3333 14.4654 28.2846 14.646 28.1874C14.8266 28.0902 14.9863 27.9444 15.1252 27.7499C15.7641 26.8888 16.5557 26.2152 17.5002 25.7291C18.4446 25.243 19.4446 24.9999 20.5002 24.9999C21.5557 24.9999 22.5557 25.243 23.5002 25.7291C24.4446 26.2152 25.2363 26.8888 25.8752 27.7499C25.9863 27.9444 26.1321 28.0902 26.3127 28.1874C26.4932 28.2846 26.6946 28.3333 26.9168 28.3333C27.4168 28.3333 27.7779 28.1041 28.0002 27.6458C28.2224 27.1874 28.1807 26.7221 27.8752 26.2499C27.0696 25.0277 26.0071 24.0971 24.6877 23.4583C23.3682 22.8194 21.9724 22.4999 20.5002 22.4999ZM26.3335 18.3333C27.0279 18.3333 27.6182 18.0902 28.1043 17.6041C28.5904 17.118 28.8335 16.5277 28.8335 15.8333C28.8335 15.1388 28.5904 14.5485 28.1043 14.0624C27.6182 13.5763 27.0279 13.3333 26.3335 13.3333C25.6391 13.3333 25.0488 13.5763 24.5627 14.0624C24.0766 14.5485 23.8335 15.1388 23.8335 15.8333C23.8335 16.5277 24.0766 17.118 24.5627 17.6041C25.0488 18.0902 25.6391 18.3333 26.3335 18.3333ZM14.6668 18.3333C15.3613 18.3333 15.9516 18.0902 16.4377 17.6041C16.9238 17.118 17.1668 16.5277 17.1668 15.8333C17.1668 15.1388 16.9238 14.5485 16.4377 14.0624C15.9516 13.5763 15.3613 13.3333 14.6668 13.3333C13.9724 13.3333 13.3821 13.5763 12.896 14.0624C12.4099 14.5485 12.1668 15.1388 12.1668 15.8333C12.1668 16.5277 12.4099 17.118 12.896 17.6041C13.3821 18.0902 13.9724 18.3333 14.6668 18.3333ZM20.5002 36.6666C18.1946 36.6666 16.0279 36.2291 14.0002 35.3541C11.9724 34.4791 10.2085 33.2916 8.7085 31.7916C7.2085 30.2916 6.021 28.5277 5.146 26.4999C4.271 24.4721 3.8335 22.3055 3.8335 19.9999C3.8335 17.6944 4.271 15.5277 5.146 13.4999C6.021 11.4721 7.2085 9.70825 8.7085 8.20825C10.2085 6.70825 11.9724 5.52075 14.0002 4.64575C16.0279 3.77075 18.1946 3.33325 20.5002 3.33325C22.8057 3.33325 24.9724 3.77075 27.0002 4.64575C29.0279 5.52075 30.7918 6.70825 32.2918 8.20825C33.7918 9.70825 34.9793 11.4721 35.8543 13.4999C36.7293 15.5277 37.1668 17.6944 37.1668 19.9999C37.1668 22.3055 36.7293 24.4721 35.8543 26.4999C34.9793 28.5277 33.7918 30.2916 32.2918 31.7916C30.7918 33.2916 29.0279 34.4791 27.0002 35.3541C24.9724 36.2291 22.8057 36.6666 20.5002 36.6666Z" fill="#CCCCCC"/>
</svg>
