<svg width="41" height="40" viewBox="0 0 41 40" fill="none" xmlns="http://www.w3.org/2000/svg">
<rect x="0.5" width="40" height="40" rx="5.07936" fill="#A7ECDD"/>
<path d="M20.125 12.2102C20.125 11.8956 19.87 11.6406 19.5554 11.6406L10.3032 11.6406C9.66566 11.6406 9.14886 12.1574 9.14886 12.7949L20.125 12.7949V12.2102Z" fill="#D9D9D9"/>
<rect width="3.26525" height="3.94292" rx="1.63263" transform="matrix(-1 0 0 1 32.8008 24.2617)" fill="#666666"/>
<rect width="3.26525" height="3.94292" rx="1.63263" transform="matrix(-1 0 0 1 32.4492 24.2617)" fill="black"/>
<rect width="3.26525" height="3.94292" rx="1.63263" transform="matrix(-1 0 0 1 12.7852 24.2617)" fill="#666666"/>
<rect width="3.26525" height="3.94292" rx="1.63263" transform="matrix(-1 0 0 1 12.3984 24.2617)" fill="black"/>
<path d="M37.5469 13.6431C37.5469 12.9384 36.9756 12.3672 36.2709 12.3672L10.6769 12.3672C7.38835 12.3672 4.72248 15.0331 4.72248 18.3216V24.9553C4.72248 25.66 5.29373 26.2312 5.99842 26.2312L36.2709 26.2312C36.9756 26.2312 37.5469 25.66 37.5469 24.9553V13.6431Z" fill="url(#paint0_linear_10615_14697)"/>
<path d="M12.0469 15.1533C12.0469 14.5854 11.5865 14.125 11.0186 14.125C8.36843 14.125 6.22004 16.2734 6.22004 18.9236V19.6544C6.22004 19.91 6.42726 20.1173 6.68288 20.1173H11.5485C11.8237 20.1173 12.0469 19.8941 12.0469 19.6188V15.1533Z" fill="#798A86"/>
<path d="M7.14844 22.8462C7.14844 22.7381 7.06077 22.6504 6.95263 22.6504H4.72036V23.042H6.95263C7.06077 23.042 7.14844 22.9543 7.14844 22.8462Z" fill="#B7B7B7"/>
<path d="M7.14844 23.5962C7.14844 23.4881 7.06077 23.4004 6.95263 23.4004H4.72036V23.792H6.95263C7.06077 23.792 7.14844 23.7043 7.14844 23.5962Z" fill="#B7B7B7"/>
<rect width="1.31333" height="1.19838" rx="0.427208" transform="matrix(-1 0 0 1 9.13672 22.6504)" fill="#B2B2B2"/>
<rect width="5.94254" height="3.8001" rx="0.99682" transform="matrix(-1 0 0 1 20.125 14.125)" fill="#798A86"/>
<rect width="5.94254" height="3.8001" rx="0.99682" transform="matrix(-1 0 0 1 27.5664 14.125)" fill="#798A86"/>
<rect width="5.94254" height="3.8001" rx="0.99682" transform="matrix(-1 0 0 1 35.0039 14.125)" fill="#798A86"/>
<defs>
<linearGradient id="paint0_linear_10615_14697" x1="21.1696" y1="19.346" x2="20.9909" y2="30.1149" gradientUnits="userSpaceOnUse">
<stop stop-color="white"/>
<stop offset="1" stop-color="#D6D6D6"/>
</linearGradient>
</defs>
</svg>
