<svg width="11" height="16" viewBox="0 0 11 16" fill="none" xmlns="http://www.w3.org/2000/svg">
<path id="Subtract" d="M10.25 6.05974C10.25 7.21678 9.61509 8.84734 8.64282 10.5481C7.69363 12.2084 6.49418 13.8142 5.50127 14.9045C4.54051 13.8417 3.34032 12.2334 2.38213 10.5642C1.39926 8.85194 0.75 7.20936 0.75 6.05974C0.75 3.50931 2.86269 1.41675 5.5 1.41675C8.13731 1.41675 10.25 3.50931 10.25 6.05974ZM5.5 8.37645C6.79959 8.37645 7.8784 7.33961 7.8784 6.02973C7.8784 4.71985 6.79959 3.68301 5.5 3.68301C4.20041 3.68301 3.1216 4.71985 3.1216 6.02973C3.1216 7.33961 4.20041 8.37645 5.5 8.37645Z" fill="#00C896" stroke="#00C896" stroke-width="1.5"/>
</svg>
