<svg width="25" height="24" viewBox="0 0 25 24" fill="none" xmlns="http://www.w3.org/2000/svg">
<path d="M21.3555 12.086L15.2813 17.7936C15.1211 17.9441 15.043 18.1214 15.0471 18.3253C15.0512 18.5294 15.1334 18.7067 15.2936 18.8572C15.4539 19.0077 15.6426 19.083 15.8597 19.083C16.0767 19.083 16.2654 19.0077 16.4258 18.8572L22.6114 13.0564C22.7572 12.9194 22.8653 12.7659 22.9356 12.596C23.0059 12.426 23.041 12.256 23.041 12.086C23.041 11.916 23.0059 11.7461 22.9356 11.5761C22.8653 11.4061 22.7572 11.2526 22.6114 11.1156L16.4258 5.30308C16.2654 5.15255 16.0746 5.07924 15.8534 5.08316C15.6322 5.08707 15.4415 5.16429 15.2813 5.31482C15.1211 5.46535 15.041 5.64266 15.041 5.84673C15.041 6.05068 15.1211 6.22792 15.2813 6.37845L21.3555 12.086Z" fill="#181F29"/>
</svg>
