<svg width="25" height="24" viewBox="0 0 25 24" fill="none" xmlns="http://www.w3.org/2000/svg">
<path d="M21.1055 12.086L15.0313 17.7936C14.8711 17.9441 14.793 18.1214 14.7971 18.3253C14.8012 18.5294 14.8834 18.7067 15.0436 18.8572C15.2039 19.0077 15.3926 19.083 15.6097 19.083C15.8267 19.083 16.0154 19.0077 16.1758 18.8572L22.3614 13.0564C22.5072 12.9194 22.6153 12.7659 22.6856 12.596C22.7559 12.426 22.791 12.256 22.791 12.086C22.791 11.916 22.7559 11.7461 22.6856 11.5761C22.6153 11.4061 22.5072 11.2526 22.3614 11.1156L16.1758 5.30308C16.0154 5.15255 15.8246 5.07924 15.6034 5.08316C15.3822 5.08707 15.1915 5.16429 15.0313 5.31482C14.8711 5.46535 14.791 5.64266 14.791 5.84673C14.791 6.05068 14.8711 6.22792 15.0313 6.37845L21.1055 12.086Z" fill="#808080"/>
</svg>
