<svg width="25" height="24" viewBox="0 0 25 24" fill="none" xmlns="http://www.w3.org/2000/svg">
<g id="icon-calendar-checked">
<path id="Union" fill-rule="evenodd" clip-rule="evenodd" d="M8.87109 2C8.45688 2 8.12109 2.33579 8.12109 2.75V3.76025C8.12109 3.84409 8.13485 3.92472 8.16023 4H7.33301C5.67615 4 4.33301 5.34315 4.33301 7V18C4.33301 19.6569 5.67615 21 7.33301 21H18.333C19.9899 21 21.333 19.6569 21.333 18V7C21.333 5.34315 19.9899 4 18.333 4H17.5927C17.6181 3.92472 17.6318 3.84409 17.6318 3.76025V2.75C17.6318 2.33579 17.296 2 16.8818 2C16.4676 2 16.1318 2.33579 16.1318 2.75V3.76025C16.1318 3.84409 16.1456 3.92472 16.171 4H9.58196C9.60734 3.92472 9.62109 3.84409 9.62109 3.76025V2.75C9.62109 2.33579 9.28531 2 8.87109 2ZM5.83301 9.48047V18C5.83301 18.8284 6.50458 19.5 7.33301 19.5H18.333C19.1614 19.5 19.833 18.8284 19.833 18V9.48047H5.83301Z" fill="#4D4D4D"/>
<path id="Union_2" d="M16.35 12.5316C16.6441 12.2399 16.646 11.7651 16.3543 11.471C16.0626 11.1769 15.5878 11.1749 15.2937 11.4666L11.8428 14.8892L10.5187 13.5651C10.2258 13.2722 9.75096 13.2722 9.45806 13.5651C9.16517 13.858 9.16517 14.3329 9.45806 14.6258L10.8772 16.0449L11.1303 16.3001C11.5192 16.6922 12.1524 16.6948 12.5445 16.3059L16.35 12.5316Z" fill="#4D4D4D"/>
</g>
</svg>
