<svg width="25" height="24" viewBox="0 0 25 24" fill="none" xmlns="http://www.w3.org/2000/svg">
<g id="icon-coupon">
<path id="Union" fill-rule="evenodd" clip-rule="evenodd" d="M22.5002 7.5332L22.5 10.6907C22.3497 10.6907 22.2008 10.7204 22.0619 10.7779C21.9231 10.8354 21.7969 10.9197 21.6906 11.026C21.5843 11.1323 21.5 11.2585 21.4424 11.3974C21.3849 11.5363 21.3553 11.6851 21.3553 11.8354C21.3553 11.9858 21.3849 12.1346 21.4424 12.2735C21.5 12.4124 21.5843 12.5386 21.6906 12.6449C21.7969 12.7512 21.9231 12.8355 22.0619 12.893C22.2008 12.9505 22.3497 12.9802 22.5 12.9802L22.5002 16.1377C22.5002 16.69 22.0525 17.1377 21.5002 17.1377H3.45801C2.90572 17.1377 2.45801 16.69 2.45801 16.1377L2.45703 12.9802C2.60736 12.9802 2.75621 12.9505 2.89509 12.893C3.03397 12.8355 3.16016 12.7512 3.26646 12.6449C3.37276 12.5386 3.45707 12.4124 3.5146 12.2735C3.57213 12.1346 3.60174 11.9858 3.60174 11.8354C3.60174 11.6851 3.57213 11.5363 3.5146 11.3974C3.45707 11.2585 3.37276 11.1323 3.26646 11.026C3.16016 10.9197 3.03397 10.8354 2.89509 10.7779C2.75621 10.7204 2.60736 10.6907 2.45703 10.6907V7.99951L2.45801 7.5332C2.45801 6.98092 2.90572 6.5332 3.45801 6.5332H21.5002C22.0525 6.5332 22.5002 6.98092 22.5002 7.5332ZM3.95703 8.0332V9.66341C4.08786 9.75376 4.21058 9.85597 4.32354 9.96894C4.56866 10.214 4.76309 10.505 4.89575 10.8253C5.0284 11.1456 5.09668 11.4888 5.09668 11.8354C5.09668 12.1821 5.0284 12.5253 4.89575 12.8456C4.76309 13.1659 4.56866 13.4568 4.32354 13.702C4.21058 13.8149 4.08786 13.9171 3.95703 14.0075V15.6377H8.50024V8.0332H3.95703ZM21 15.6377V14.0075C20.8692 13.9171 20.7465 13.8149 20.6335 13.702C20.3884 13.4568 20.1939 13.1659 20.0613 12.8456C19.9286 12.5253 19.8604 12.1821 19.8604 11.8354C19.8604 11.4888 19.9286 11.1456 20.0613 10.8253C20.1939 10.505 20.3884 10.214 20.6335 9.96894C20.7465 9.85597 20.8692 9.75376 21 9.66341V8.0332H10.0002V15.6377H21Z" fill="#4D4D4D"/>
</g>
</svg>
