<svg width="25" height="24" viewBox="0 0 25 24" fill="none" xmlns="http://www.w3.org/2000/svg">
<g id="list_alt_check">
<mask id="mask0_9141_14152" style="mask-type:alpha" maskUnits="userSpaceOnUse" x="0" y="0" width="25" height="24">
<rect id="Bounding box" x="0.5" width="24" height="24" fill="#D9D9D9"/>
</mask>
<g mask="url(#mask0_9141_14152)">
<path id="list_alt_check_2" d="M5.80775 20.5C5.30258 20.5 4.875 20.325 4.525 19.975C4.175 19.625 4 19.1974 4 18.6923V5.30775C4 4.80258 4.175 4.375 4.525 4.025C4.875 3.675 5.30258 3.5 5.80775 3.5H19.1923C19.6974 3.5 20.125 3.675 20.475 4.025C20.825 4.375 21 4.80258 21 5.30775V12.5385C21 12.751 20.9281 12.9291 20.7843 13.0728C20.6404 13.2166 20.4622 13.2885 20.2498 13.2885C20.0371 13.2885 19.859 13.2166 19.7155 13.0728C19.5718 12.9291 19.5 12.751 19.5 12.5385V5.30775C19.5 5.23075 19.4679 5.16025 19.4038 5.09625C19.3398 5.03208 19.2692 5 19.1923 5H5.80775C5.73075 5 5.66025 5.03208 5.59625 5.09625C5.53208 5.16025 5.5 5.23075 5.5 5.30775V18.6923C5.5 18.7692 5.53208 18.8398 5.59625 18.9038C5.66025 18.9679 5.73075 19 5.80775 19H11.7308C11.9433 19 12.1214 19.0719 12.2653 19.2158C12.4089 19.3596 12.4808 19.5378 12.4808 19.7502C12.4808 19.9629 12.4089 20.141 12.2653 20.2845C12.1214 20.4282 11.9433 20.5 11.7308 20.5H5.80775ZM17.802 19.3865L21.4135 15.7598C21.5622 15.6109 21.7388 15.5349 21.9433 15.5317C22.1478 15.5286 22.3276 15.6046 22.4827 15.7598C22.6378 15.9148 22.7153 16.0929 22.7153 16.2942C22.7153 16.4956 22.6378 16.6738 22.4827 16.8288L18.4345 20.8673C18.2552 21.0481 18.0421 21.1385 17.7952 21.1385C17.5484 21.1385 17.3346 21.0481 17.1538 20.8673L15.1827 18.9057C15.0379 18.7571 14.9655 18.5805 14.9655 18.376C14.9655 18.1715 15.043 17.9917 15.198 17.8365C15.3532 17.6813 15.5288 17.6038 15.725 17.6038C15.9212 17.6038 16.0968 17.6813 16.252 17.8365L17.802 19.3865ZM8.55825 12.8845C8.80908 12.8845 9.01917 12.7997 9.1885 12.63C9.35767 12.4603 9.44225 12.2501 9.44225 11.9993C9.44225 11.7484 9.35742 11.5384 9.18775 11.3692C9.01808 11.2001 8.80783 11.1155 8.557 11.1155C8.30617 11.1155 8.09617 11.2003 7.927 11.37C7.75767 11.5397 7.673 11.7499 7.673 12.0008C7.673 12.2516 7.75783 12.4616 7.9275 12.6308C8.09733 12.7999 8.30758 12.8845 8.55825 12.8845ZM8.55825 9C8.80908 9 9.01917 8.91517 9.1885 8.7455C9.35767 8.57583 9.44225 8.36558 9.44225 8.11475C9.44225 7.86392 9.35742 7.65392 9.18775 7.48475C9.01808 7.31542 8.80783 7.23075 8.557 7.23075C8.30617 7.23075 8.09617 7.31558 7.927 7.48525C7.75767 7.65492 7.673 7.86517 7.673 8.116C7.673 8.36683 7.75783 8.57692 7.9275 8.74625C8.09733 8.91542 8.30758 9 8.55825 9ZM16.5385 12.75C16.751 12.75 16.9291 12.6781 17.0727 12.5343C17.2166 12.3904 17.2885 12.2122 17.2885 11.9998C17.2885 11.7871 17.2166 11.609 17.0727 11.4655C16.9291 11.3218 16.751 11.25 16.5385 11.25H12.3463C12.1338 11.25 11.9556 11.3219 11.8117 11.4658C11.6681 11.6096 11.5963 11.7878 11.5963 12.0003C11.5963 12.2129 11.6681 12.391 11.8117 12.5345C11.9556 12.6782 12.1338 12.75 12.3463 12.75H16.5385ZM16.5385 8.86525C16.751 8.86525 16.9291 8.79342 17.0727 8.64975C17.2166 8.50592 17.2885 8.32767 17.2885 8.115C17.2885 7.9025 17.2166 7.72442 17.0727 7.58075C16.9291 7.43725 16.751 7.3655 16.5385 7.3655H12.3463C12.1338 7.3655 11.9556 7.43742 11.8117 7.58125C11.6681 7.72492 11.5963 7.90308 11.5963 8.11575C11.5963 8.32825 11.6681 8.50633 11.8117 8.65C11.9556 8.7935 12.1338 8.86525 12.3463 8.86525H16.5385Z" fill="#4D4D4D"/>
</g>
</g>
</svg>
