<svg width="25" height="24" viewBox="0 0 25 24" fill="none" xmlns="http://www.w3.org/2000/svg">
<g id="icon-review">
<g id="Union">
<path d="M5.47658 9.37798L6.53991 9.22381L7.01541 8.26048C7.02917 8.23256 7.05046 8.20906 7.07688 8.19263C7.1033 8.17619 7.1338 8.16748 7.16491 8.16748C7.19603 8.16748 7.22652 8.17619 7.25295 8.19263C7.27937 8.20906 7.30066 8.23256 7.31441 8.26048L7.78975 9.22381L8.85308 9.37814C8.88224 9.38236 8.90976 9.39424 8.93283 9.41256C8.9559 9.43088 8.97371 9.45499 8.98443 9.48243C8.99515 9.50987 8.99841 9.53966 8.99387 9.56877C8.98933 9.59788 8.97715 9.62527 8.95858 9.64814L8.94558 9.66231L8.17491 10.4123L8.35675 11.4715C8.36176 11.5006 8.35893 11.5306 8.34855 11.5582C8.33817 11.5859 8.32062 11.6104 8.29768 11.629C8.27474 11.6477 8.24726 11.6599 8.21804 11.6644C8.18882 11.669 8.15892 11.6656 8.13141 11.6548L8.11475 11.6471L7.16591 11.1471L6.21491 11.6471C6.18878 11.6609 6.15945 11.6675 6.12994 11.6662C6.10043 11.6649 6.0718 11.6557 6.04697 11.6397C6.02215 11.6237 6.00202 11.6014 5.98866 11.5751C5.97529 11.5487 5.96917 11.5193 5.97091 11.4898L5.97308 11.4715L6.15475 10.4123L5.38441 9.66248C5.36325 9.64193 5.34792 9.61613 5.33999 9.58772C5.33205 9.55931 5.3318 9.5293 5.33926 9.50076C5.34672 9.47222 5.36161 9.44617 5.38243 9.42528C5.40325 9.40438 5.42924 9.38938 5.45775 9.38181L5.47658 9.37798Z" fill="#4D4D4D"/>
<path d="M11.5399 9.22381L10.4766 9.37798L10.4577 9.38181C10.4292 9.38938 10.4032 9.40438 10.3824 9.42528C10.3616 9.44617 10.3467 9.47222 10.3393 9.50076C10.3318 9.5293 10.3321 9.55931 10.34 9.58772C10.3479 9.61613 10.3633 9.64193 10.3844 9.66248L11.1547 10.4123L10.9731 11.4715L10.9709 11.4898C10.9692 11.5193 10.9753 11.5487 10.9887 11.5751C11.002 11.6014 11.0221 11.6237 11.047 11.6397C11.0718 11.6557 11.1004 11.6649 11.1299 11.6662C11.1594 11.6675 11.1888 11.6609 11.2149 11.6471L12.1659 11.1471L13.1147 11.6471L13.1314 11.6548C13.1589 11.6656 13.1888 11.669 13.218 11.6644C13.2473 11.6599 13.2747 11.6477 13.2977 11.629C13.3206 11.6104 13.3382 11.5859 13.3486 11.5582C13.3589 11.5306 13.3618 11.5006 13.3567 11.4715L13.1749 10.4123L13.9456 9.66231L13.9586 9.64814C13.9772 9.62527 13.9893 9.59788 13.9939 9.56877C13.9984 9.53966 13.9952 9.50987 13.9844 9.48243C13.9737 9.45499 13.9559 9.43088 13.9328 9.41256C13.9098 9.39424 13.8822 9.38236 13.8531 9.37814L12.7897 9.22381L12.3144 8.26048C12.3007 8.23256 12.2794 8.20906 12.2529 8.19263C12.2265 8.17619 12.196 8.16748 12.1649 8.16748C12.1338 8.16748 12.1033 8.17619 12.0769 8.19263C12.0505 8.20906 12.0292 8.23256 12.0154 8.26048L11.5399 9.22381Z" fill="#4D4D4D"/>
<path d="M15.4766 9.37798L16.5399 9.22381L17.0154 8.26048C17.0292 8.23256 17.0505 8.20906 17.0769 8.19263C17.1033 8.17619 17.1338 8.16748 17.1649 8.16748C17.196 8.16748 17.2265 8.17619 17.2529 8.19263C17.2794 8.20906 17.3007 8.23256 17.3144 8.26048L17.7897 9.22381L18.8531 9.37814C18.8822 9.38236 18.9098 9.39424 18.9328 9.41256C18.9559 9.43088 18.9737 9.45499 18.9844 9.48243C18.9952 9.50987 18.9984 9.53966 18.9939 9.56877C18.9893 9.59788 18.9772 9.62527 18.9586 9.64814L18.9456 9.66231L18.1749 10.4123L18.3567 11.4715C18.3618 11.5006 18.3589 11.5306 18.3486 11.5582C18.3382 11.5859 18.3206 11.6104 18.2977 11.629C18.2747 11.6477 18.2473 11.6599 18.218 11.6644C18.1888 11.669 18.1589 11.6656 18.1314 11.6548L18.1147 11.6471L17.1659 11.1471L16.2149 11.6471C16.1888 11.6609 16.1594 11.6675 16.1299 11.6662C16.1004 11.6649 16.0718 11.6557 16.047 11.6397C16.0221 11.6237 16.002 11.6014 15.9887 11.5751C15.9753 11.5487 15.9692 11.5193 15.9709 11.4898L15.9731 11.4715L16.1547 10.4123L15.3844 9.66248C15.3633 9.64193 15.3479 9.61613 15.34 9.58772C15.3321 9.55931 15.3318 9.5293 15.3393 9.50076C15.3467 9.47222 15.3616 9.44617 15.3824 9.42528C15.4032 9.40438 15.4292 9.38938 15.4577 9.38181L15.4766 9.37798Z" fill="#4D4D4D"/>
<path fill-rule="evenodd" clip-rule="evenodd" d="M11.1491 16.1277H19.0955C20.7523 16.1277 22.0955 14.7845 22.0955 13.1277V7.43359C22.0955 5.77674 20.7523 4.43359 19.0955 4.43359H5.16602C3.50916 4.43359 2.16602 5.77674 2.16602 7.43359V13.1277C2.16602 14.4657 3.0419 15.5991 4.25157 15.9858C4.53987 16.0779 4.84713 16.1277 5.16602 16.1277H5.7641L5.00562 19.0663C4.91586 19.4141 5.29434 19.6948 5.60105 19.5079L11.1491 16.1277ZM7.70041 14.6277H5.16602C4.33759 14.6277 3.66602 13.9561 3.66602 13.1277V7.43359C3.66602 6.60517 4.33759 5.93359 5.16602 5.93359H19.0955C19.9239 5.93359 20.5955 6.60517 20.5955 7.43359V13.1277C20.5955 13.9561 19.9239 14.6277 19.0955 14.6277H10.7281L7.13545 16.8166L7.70041 14.6277Z" fill="#4D4D4D"/>
</g>
</g>
</svg>
